  0
SECTION
  2
HEADER
  9
$ACADVER
  1
AC1024
  9
$ACADMAINTVER
 70
6
  9
$DWGCODEPAGE
  3
ANSI_1252
  9
$LASTSAVEDBY
  1
ezdxf
  9
$INSBASE
 10
0.0
 20
0.0
 30
0.0
  9
$EXTMIN
 10
1e+20
 20
1e+20
 30
1e+20
  9
$EXTMAX
 10
-1e+20
 20
-1e+20
 30
-1e+20
  9
$LIMMIN
 10
0.0
 20
0.0
  9
$LIMMAX
 10
420.0
 20
297.0
  9
$ORTHOMODE
 70
0
  9
$REGENMODE
 70
1
  9
$FILLMODE
 70
1
  9
$QTEXTMODE
 70
0
  9
$MIRRTEXT
 70
1
  9
$LTSCALE
 40
1.0
  9
$ATTMODE
 70
1
  9
$TEXTSIZE
 40
2.5
  9
$TRACEWID
 40
1.0
  9
$TEXTSTYLE
  7
OpenSans
  9
$CLAYER
  8
0
  9
$CELTYPE
  6
ByLayer
  9
$CECOLOR
 62
256
  9
$CELTSCALE
 40
1.0
  9
$DISPSILH
 70
0
  9
$DIMSCALE
 40
1.0
  9
$DIMASZ
 40
0.175
  9
$DIMEXO
 40
0.125
  9
$DIMDLI
 40
3.75
  9
$DIMRND
 40
0.0
  9
$DIMDLE
 40
0.0
  9
$DIMEXE
 40
0.375
  9
$DIMTP
 40
0.0
  9
$DIMTM
 40
0.0
  9
$DIMTXT
 40
0.25
  9
$DIMCEN
 40
2.5
  9
$DIMTSZ
 40
0.0
  9
$DIMTOL
 70
0
  9
$DIMLIM
 70
0
  9
$DIMTIH
 70
0
  9
$DIMTOH
 70
0
  9
$DIMSE1
 70
0
  9
$DIMSE2
 70
0
  9
$DIMTAD
 70
1
  9
$DIMZIN
 70
12
  9
$DIMBLK
  1
ARCHTICK
  9
$DIMASO
 70
1
  9
$DIMSHO
 70
1
  9
$DIMPOST
  1

  9
$DIMAPOST
  1

  9
$DIMALT
 70
0
  9
$DIMALTD
 70
3
  9
$DIMALTF
 40
0.03937007874
  9
$DIMLFAC
 40
100.0
  9
$DIMTOFL
 70
1
  9
$DIMTVP
 40
0.0
  9
$DIMTIX
 70
0
  9
$DIMSOXD
 70
0
  9
$DIMSAH
 70
0
  9
$DIMBLK1
  1

  9
$DIMBLK2
  1

  9
$DIMSTYLE
  2
EZDXF
  9
$DIMCLRD
 70
0
  9
$DIMCLRE
 70
0
  9
$DIMCLRT
 70
0
  9
$DIMTFAC
 40
0.5
  9
$DIMGAP
 40
0.1
  9
$DIMJUST
 70
0
  9
$DIMSD1
 70
0
  9
$DIMSD2
 70
0
  9
$DIMTOLJ
 70
0
  9
$DIMTZIN
 70
8
  9
$DIMALTZ
 70
0
  9
$DIMALTTZ
 70
0
  9
$DIMUPT
 70
1
  9
$DIMDEC
 70
2
  9
$DIMTDEC
 70
2
  9
$DIMALTU
 70
2
  9
$DIMALTTD
 70
3
  9
$DIMTXSTY
  7
OpenSansCondensed-Light
  9
$DIMAUNIT
 70
0
  9
$DIMADEC
 70
2
  9
$DIMALTRND
 40
0.0
  9
$DIMAZIN
 70
3
  9
$DIMDSEP
 70
46
  9
$DIMATFIT
 70
3
  9
$DIMFRAC
 70
0
  9
$DIMLDRBLK
  1

  9
$DIMLUNIT
 70
2
  9
$DIMLWD
 70
-2
  9
$DIMLWE
 70
-2
  9
$DIMTMOVE
 70
2
  9
$DIMFXL
 40
1.0
  9
$DIMFXLON
 70
0
  9
$DIMJOGANG
 40
0.785398163397
  9
$DIMTFILL
 70
0
  9
$DIMTFILLCLR
 70
0
  9
$DIMARCSYM
 70
0
  9
$DIMLTYPE
  6

  9
$DIMLTEX1
  6

  9
$DIMLTEX2
  6

  9
$DIMTXTDIRECTION
 70
0
  9
$LUNITS
 70
2
  9
$LUPREC
 70
4
  9
$SKETCHINC
 40
1.0
  9
$FILLETRAD
 40
10.0
  9
$AUNITS
 70
0
  9
$AUPREC
 70
2
  9
$MENU
  1
.
  9
$ELEVATION
 40
0.0
  9
$PELEVATION
 40
0.0
  9
$THICKNESS
 40
0.0
  9
$LIMCHECK
 70
0
  9
$CHAMFERA
 40
0.0
  9
$CHAMFERB
 40
0.0
  9
$CHAMFERC
 40
0.0
  9
$CHAMFERD
 40
0.0
  9
$SKPOLY
 70
0
  9
$TDCREATE
 40
2460969.5452662036
  9
$TDUCREATE
 40
2458532.153996898
  9
$TDUPDATE
 40
2460969.5452662036
  9
$TDUUPDATE
 40
2458532.1544311
  9
$TDINDWG
 40
0.0
  9
$TDUSRTIMER
 40
0.0
  9
$USRTIMER
 70
1
  9
$ANGBASE
 50
0.0
  9
$ANGDIR
 70
0
  9
$PDMODE
 70
0
  9
$PDSIZE
 40
0.0
  9
$PLINEWID
 40
0.0
  9
$SPLFRAME
 70
0
  9
$SPLINETYPE
 70
6
  9
$SPLINESEGS
 70
8
  9
$HANDSEED
  5
185
  9
$SURFTAB1
 70
6
  9
$SURFTAB2
 70
6
  9
$SURFTYPE
 70
6
  9
$SURFU
 70
6
  9
$SURFV
 70
6
  9
$UCSBASE
  2

  9
$UCSNAME
  2

  9
$UCSORG
 10
0.0
 20
0.0
 30
0.0
  9
$UCSXDIR
 10
1.0
 20
0.0
 30
0.0
  9
$UCSYDIR
 10
0.0
 20
1.0
 30
0.0
  9
$UCSORTHOREF
  2

  9
$UCSORTHOVIEW
 70
0
  9
$UCSORGTOP
 10
0.0
 20
0.0
 30
0.0
  9
$UCSORGBOTTOM
 10
0.0
 20
0.0
 30
0.0
  9
$UCSORGLEFT
 10
0.0
 20
0.0
 30
0.0
  9
$UCSORGRIGHT
 10
0.0
 20
0.0
 30
0.0
  9
$UCSORGFRONT
 10
0.0
 20
0.0
 30
0.0
  9
$UCSORGBACK
 10
0.0
 20
0.0
 30
0.0
  9
$PUCSBASE
  2

  9
$PUCSNAME
  2

  9
$PUCSORG
 10
0.0
 20
0.0
 30
0.0
  9
$PUCSXDIR
 10
1.0
 20
0.0
 30
0.0
  9
$PUCSYDIR
 10
0.0
 20
1.0
 30
0.0
  9
$PUCSORTHOREF
  2

  9
$PUCSORTHOVIEW
 70
0
  9
$PUCSORGTOP
 10
0.0
 20
0.0
 30
0.0
  9
$PUCSORGBOTTOM
 10
0.0
 20
0.0
 30
0.0
  9
$PUCSORGLEFT
 10
0.0
 20
0.0
 30
0.0
  9
$PUCSORGRIGHT
 10
0.0
 20
0.0
 30
0.0
  9
$PUCSORGFRONT
 10
0.0
 20
0.0
 30
0.0
  9
$PUCSORGBACK
 10
0.0
 20
0.0
 30
0.0
  9
$USERI1
 70
0
  9
$USERI2
 70
0
  9
$USERI3
 70
0
  9
$USERI4
 70
0
  9
$USERI5
 70
0
  9
$USERR1
 40
0.0
  9
$USERR2
 40
0.0
  9
$USERR3
 40
0.0
  9
$USERR4
 40
0.0
  9
$USERR5
 40
0.0
  9
$WORLDVIEW
 70
1
  9
$SHADEDGE
 70
3
  9
$SHADEDIF
 70
70
  9
$TILEMODE
 70
1
  9
$MAXACTVP
 70
64
  9
$PINSBASE
 10
0.0
 20
0.0
 30
0.0
  9
$PLIMCHECK
 70
0
  9
$PEXTMIN
 10
1e+20
 20
1e+20
 30
1e+20
  9
$PEXTMAX
 10
-1e+20
 20
-1e+20
 30
-1e+20
  9
$PLIMMIN
 10
0.0
 20
0.0
  9
$PLIMMAX
 10
420.0
 20
297.0
  9
$UNITMODE
 70
0
  9
$VISRETAIN
 70
1
  9
$PLINEGEN
 70
0
  9
$PSLTSCALE
 70
1
  9
$TREEDEPTH
 70
3020
  9
$CMLSTYLE
  2
Standard
  9
$CMLJUST
 70
0
  9
$CMLSCALE
 40
20.0
  9
$PROXYGRAPHICS
 70
1
  9
$MEASUREMENT
 70
1
  9
$CELWEIGHT
370
-1
  9
$ENDCAPS
280
0
  9
$JOINSTYLE
280
0
  9
$LWDISPLAY
290
0
  9
$INSUNITS
 70
4
  9
$HYPERLINKBASE
  1

  9
$STYLESHEET
  1

  9
$XEDIT
290
1
  9
$CEPSNTYPE
380
0
  9
$PSTYLEMODE
290
1
  9
$FINGERPRINTGUID
  2
{825CDC78-6DCB-4F13-A4D4-91385492F20B}
  9
$VERSIONGUID
  2
{72E50ED6-CAAA-4CC6-97D9-DB28E71F3BA5}
  9
$EXTNAMES
290
1
  9
$PSVPSCALE
 40
0.0
  9
$OLESTARTUP
290
0
  9
$SORTENTS
280
127
  9
$INDEXCTL
280
0
  9
$HIDETEXT
280
1
  9
$XCLIPFRAME
280
1
  9
$HALOGAP
280
0
  9
$OBSCOLOR
 70
257
  9
$OBSLTYPE
280
0
  9
$INTERSECTIONDISPLAY
280
0
  9
$INTERSECTIONCOLOR
 70
257
  9
$DIMASSOC
280
2
  9
$PROJECTNAME
  1

  9
$CAMERADISPLAY
290
0
  9
$LENSLENGTH
 40
50.0
  9
$CAMERAHEIGHT
 40
0.0
  9
$STEPSPERSEC
 40
24.0
  9
$STEPSIZE
 40
100.0
  9
$3DDWFPREC
 40
2.0
  9
$PSOLWIDTH
 40
0.005
  9
$PSOLHEIGHT
 40
0.08
  9
$LOFTANG1
 40
1.570796326795
  9
$LOFTANG2
 40
1.570796326795
  9
$LOFTMAG1
 40
0.0
  9
$LOFTMAG2
 40
0.0
  9
$LOFTPARAM
 70
7
  9
$LOFTNORMALS
280
1
  9
$LATITUDE
 40
37.795
  9
$LONGITUDE
 40
-122.394
  9
$NORTHDIRECTION
 40
0.0
  9
$TIMEZONE
 70
-8000
  9
$LIGHTGLYPHDISPLAY
280
1
  9
$TILEMODELIGHTSYNCH
280
1
  9
$CMATERIAL
347
20
  9
$SOLIDHIST
280
0
  9
$SHOWHIST
280
1
  9
$DWFFRAME
280
2
  9
$DGNFRAME
280
2
  9
$REALWORLDSCALE
290
1
  9
$INTERFERECOLOR
 62
256
  9
$CSHADOW
280
0
  9
$SHADOWPLANELOCATION
 40
0.0
  0
ENDSEC
  0
SECTION
  2
CLASSES
  0
CLASS
  1
ACDBDICTIONARYWDFLT
  2
AcDbDictionaryWithDefault
  3
ObjectDBX Classes
 90
0
 91
0
280
0
281
0
  0
CLASS
  1
SUN
  2
AcDbSun
  3
SCENEOE
 90
1153
 91
0
280
0
281
0
  0
CLASS
  1
VISUALSTYLE
  2
AcDbVisualStyle
  3
ObjectDBX Classes
 90
4095
 91
0
280
0
281
0
  0
CLASS
  1
MATERIAL
  2
AcDbMaterial
  3
ObjectDBX Classes
 90
1153
 91
0
280
0
281
0
  0
CLASS
  1
SCALE
  2
AcDbScale
  3
ObjectDBX Classes
 90
1153
 91
0
280
0
281
0
  0
CLASS
  1
TABLESTYLE
  2
AcDbTableStyle
  3
ObjectDBX Classes
 90
4095
 91
0
280
0
281
0
  0
CLASS
  1
MLEADERSTYLE
  2
AcDbMLeaderStyle
  3
ACDB_MLEADERSTYLE_CLASS
 90
4095
 91
0
280
0
281
0
  0
CLASS
  1
DICTIONARYVAR
  2
AcDbDictionaryVar
  3
ObjectDBX Classes
 90
0
 91
0
280
0
281
0
  0
CLASS
  1
CELLSTYLEMAP
  2
AcDbCellStyleMap
  3
ObjectDBX Classes
 90
1152
 91
0
280
0
281
0
  0
CLASS
  1
MENTALRAYRENDERSETTINGS
  2
AcDbMentalRayRenderSettings
  3
SCENEOE
 90
1024
 91
0
280
0
281
0
  0
CLASS
  1
ACDBDETAILVIEWSTYLE
  2
AcDbDetailViewStyle
  3
ObjectDBX Classes
 90
1025
 91
0
280
0
281
0
  0
CLASS
  1
ACDBSECTIONVIEWSTYLE
  2
AcDbSectionViewStyle
  3
ObjectDBX Classes
 90
1025
 91
0
280
0
281
0
  0
CLASS
  1
RASTERVARIABLES
  2
AcDbRasterVariables
  3
ISM
 90
0
 91
0
280
0
281
0
  0
CLASS
  1
LAYOUT
  2
AcDbLayout
  3
ObjectDBX Classes
 90
0
 91
0
280
0
281
0
  0
CLASS
  1
ACDBPLACEHOLDER
  2
AcDbPlaceHolder
  3
ObjectDBX Classes
 90
0
 91
0
280
0
281
0
  0
ENDSEC
  0
SECTION
  2
TABLES
  0
TABLE
  2
VPORT
  5
8
330
0
100
AcDbSymbolTable
 70
1
  0
VPORT
  5
23
330
8
100
AcDbSymbolTableRecord
100
AcDbViewportTableRecord
  2
*Active
 70
0
 10
0.0
 20
0.0
 11
1.0
 21
1.0
 12
0.0
 22
0.0
 13
0.0
 23
0.0
 14
0.5
 24
0.5
 15
0.5
 25
0.5
 16
0.0
 26
0.0
 36
1.0
 17
0.0
 27
0.0
 37
0.0
 40
1000.0
 41
1.34
 42
50.0
 43
0.0
 44
0.0
 50
0.0
 51
0.0
 71
0
 72
1000
 73
1
 74
3
 75
0
 76
0
 77
0
 78
0
281
0
 65
0
146
0.0
  0
ENDTAB
  0
TABLE
  2
LTYPE
  5
2
330
0
100
AcDbSymbolTable
 70
21
  0
LTYPE
  5
24
330
2
100
AcDbSymbolTableRecord
100
AcDbLinetypeTableRecord
  2
ByBlock
 70
0
  3

 72
65
 73
0
 40
0.0
  0
LTYPE
  5
25
330
2
100
AcDbSymbolTableRecord
100
AcDbLinetypeTableRecord
  2
ByLayer
 70
0
  3

 72
65
 73
0
 40
0.0
  0
LTYPE
  5
26
330
2
100
AcDbSymbolTableRecord
100
AcDbLinetypeTableRecord
  2
Continuous
 70
0
  3

 72
65
 73
0
 40
0.0
  0
LTYPE
  5
2F
330
2
100
AcDbSymbolTableRecord
100
AcDbLinetypeTableRecord
  2
CENTER
 70
0
  3
Center ____ _ ____ _ ____ _ ____ _ ____ _ ____
 72
65
 73
4
 40
5.08
 49
3.175
 74
0
 49
-0.635
 74
0
 49
0.635
 74
0
 49
-0.635
 74
0
  0
LTYPE
  5
30
330
2
100
AcDbSymbolTableRecord
100
AcDbLinetypeTableRecord
  2
CENTERX2
 70
0
  3
Center (2x) ________  __  ________  __  ________
 72
65
 73
4
 40
8.89
 49
6.35
 74
0
 49
-0.635
 74
0
 49
1.27
 74
0
 49
-0.635
 74
0
  0
LTYPE
  5
31
330
2
100
AcDbSymbolTableRecord
100
AcDbLinetypeTableRecord
  2
CENTER2
 70
0
  3
Center (.5x) ____ _ ____ _ ____ _ ____ _ ____
 72
65
 73
4
 40
2.54
 49
1.587
 74
0
 49
-0.318
 74
0
 49
0.318
 74
0
 49
-0.318
 74
0
  0
LTYPE
  5
32
330
2
100
AcDbSymbolTableRecord
100
AcDbLinetypeTableRecord
  2
DASHED
 70
0
  3
Dashed __ __ __ __ __ __ __ __ __ __ __ __ __ _
 72
65
 73
2
 40
1.524
 49
1.27
 74
0
 49
-0.254
 74
0
  0
LTYPE
  5
33
330
2
100
AcDbSymbolTableRecord
100
AcDbLinetypeTableRecord
  2
DASHEDX2
 70
0
  3
Dashed (2x) ____  ____  ____  ____  ____  ____
 72
65
 73
2
 40
3.048
 49
2.54
 74
0
 49
-0.508
 74
0
  0
LTYPE
  5
34
330
2
100
AcDbSymbolTableRecord
100
AcDbLinetypeTableRecord
  2
DASHED2
 70
0
  3
Dashed (.5x) _ _ _ _ _ _ _ _ _ _ _ _ _ _
 72
65
 73
2
 40
0.762
 49
0.635
 74
0
 49
-0.127
 74
0
  0
LTYPE
  5
35
330
2
100
AcDbSymbolTableRecord
100
AcDbLinetypeTableRecord
  2
PHANTOM
 70
0
  3
Phantom ______  __  __  ______  __  __  ______
 72
65
 73
6
 40
6.35
 49
3.175
 74
0
 49
-0.635
 74
0
 49
0.635
 74
0
 49
-0.635
 74
0
 49
0.635
 74
0
 49
-0.635
 74
0
  0
LTYPE
  5
36
330
2
100
AcDbSymbolTableRecord
100
AcDbLinetypeTableRecord
  2
PHANTOMX2
 70
0
  3
Phantom (2x)____________    ____    ____    ____________
 72
65
 73
6
 40
10.795
 49
6.35
 74
0
 49
-0.635
 74
0
 49
1.27
 74
0
 49
-0.635
 74
0
 49
1.27
 74
0
 49
-0.635
 74
0
  0
LTYPE
  5
37
330
2
100
AcDbSymbolTableRecord
100
AcDbLinetypeTableRecord
  2
PHANTOM2
 70
0
  3
Phantom (.5x) ___ _ _ ___ _ _ ___ _ _ ___ _ _ ___
 72
65
 73
6
 40
3.175
 49
1.587
 74
0
 49
-0.318
 74
0
 49
0.318
 74
0
 49
-0.318
 74
0
 49
0.318
 74
0
 49
-0.318
 74
0
  0
LTYPE
  5
38
330
2
100
AcDbSymbolTableRecord
100
AcDbLinetypeTableRecord
  2
DASHDOT
 70
0
  3
Dash dot __ . __ . __ . __ . __ . __ . __ . __
 72
65
 73
4
 40
3.556
 49
2.54
 74
0
 49
-0.508
 74
0
 49
0.0
 74
0
 49
-0.508
 74
0
  0
LTYPE
  5
39
330
2
100
AcDbSymbolTableRecord
100
AcDbLinetypeTableRecord
  2
DASHDOTX2
 70
0
  3
Dash dot (2x) ____  .  ____  .  ____  .  ____
 72
65
 73
4
 40
6.096
 49
5.08
 74
0
 49
-0.508
 74
0
 49
0.0
 74
0
 49
-0.508
 74
0
  0
LTYPE
  5
3A
330
2
100
AcDbSymbolTableRecord
100
AcDbLinetypeTableRecord
  2
DASHDOT2
 70
0
  3
Dash dot (.5x) _ . _ . _ . _ . _ . _ . _ . _
 72
65
 73
4
 40
1.778
 49
1.27
 74
0
 49
-0.254
 74
0
 49
0.0
 74
0
 49
-0.254
 74
0
  0
LTYPE
  5
3B
330
2
100
AcDbSymbolTableRecord
100
AcDbLinetypeTableRecord
  2
DOT
 70
0
  3
Dot .  .  .  .  .  .  .  .  .  .  .  .  .  .  .  .
 72
65
 73
2
 40
0.508
 49
0.0
 74
0
 49
-0.508
 74
0
  0
LTYPE
  5
3C
330
2
100
AcDbSymbolTableRecord
100
AcDbLinetypeTableRecord
  2
DOTX2
 70
0
  3
Dot (2x) .    .    .    .    .    .    .    . 
 72
65
 73
2
 40
1.016
 49
0.0
 74
0
 49
-1.016
 74
0
  0
LTYPE
  5
3D
330
2
100
AcDbSymbolTableRecord
100
AcDbLinetypeTableRecord
  2
DOT2
 70
0
  3
Dot (.5) . . . . . . . . . . . . . . . . . . . 
 72
65
 73
2
 40
0.254
 49
0.0
 74
0
 49
-0.254
 74
0
  0
LTYPE
  5
3E
330
2
100
AcDbSymbolTableRecord
100
AcDbLinetypeTableRecord
  2
DIVIDE
 70
0
  3
Divide __ . . __ . . __ . . __ . . __ . . __
 72
65
 73
6
 40
4.064
 49
2.54
 74
0
 49
-0.508
 74
0
 49
0.0
 74
0
 49
-0.508
 74
0
 49
0.0
 74
0
 49
-0.508
 74
0
  0
LTYPE
  5
3F
330
2
100
AcDbSymbolTableRecord
100
AcDbLinetypeTableRecord
  2
DIVIDEX2
 70
0
  3
Divide (2x) ____  . .  ____  . .  ____  . .  ____
 72
65
 73
6
 40
6.604
 49
5.08
 74
0
 49
-0.508
 74
0
 49
0.0
 74
0
 49
-0.508
 74
0
 49
0.0
 74
0
 49
-0.508
 74
0
  0
LTYPE
  5
40
330
2
100
AcDbSymbolTableRecord
100
AcDbLinetypeTableRecord
  2
DIVIDE2
 70
0
  3
Divide(.5x) _ . _ . _ . _ . _ . _ . _ . _
 72
65
 73
6
 40
2.032
 49
1.27
 74
0
 49
-0.254
 74
0
 49
0.0
 74
0
 49
-0.254
 74
0
 49
0.0
 74
0
 49
-0.254
 74
0
  0
ENDTAB
  0
TABLE
  2
LAYER
  5
1
330
0
100
AcDbSymbolTable
 70
2
  0
LAYER
  5
27
330
1
100
AcDbSymbolTableRecord
100
AcDbLayerTableRecord
  2
0
 70
0
 62
7
  6
Continuous
370
-3
390
13
347
21
  0
LAYER
  5
28
330
1
100
AcDbSymbolTableRecord
100
AcDbLayerTableRecord
  2
Defpoints
 70
0
 62
7
  6
Continuous
290
0
370
-3
390
13
347
21
  0
ENDTAB
  0
TABLE
  2
STYLE
  5
5
330
0
100
AcDbSymbolTable
 70
26
  0
STYLE
  5
29
330
5
100
AcDbSymbolTableRecord
100
AcDbTextStyleTableRecord
  2
Standard
 70
0
 40
0.0
 41
1.0
 50
0.0
 71
0
 42
2.5
  3
txt
  4

  0
STYLE
  5
41
330
5
100
AcDbSymbolTableRecord
100
AcDbTextStyleTableRecord
  2
OpenSans-Light
 70
0
 40
0.0
 41
1.0
 50
0.0
 71
0
 42
2.5
  3
OpenSans-Light.ttf
  4

  0
STYLE
  5
42
330
5
100
AcDbSymbolTableRecord
100
AcDbTextStyleTableRecord
  2
OpenSans-Light-Italic
 70
0
 40
0.0
 41
1.0
 50
0.0
 71
0
 42
2.5
  3
OpenSans-LightItalic.ttf
  4

  0
STYLE
  5
43
330
5
100
AcDbSymbolTableRecord
100
AcDbTextStyleTableRecord
  2
OpenSans
 70
0
 40
0.0
 41
1.0
 50
0.0
 71
0
 42
2.5
  3
OpenSans-Regular.ttf
  4

  0
STYLE
  5
44
330
5
100
AcDbSymbolTableRecord
100
AcDbTextStyleTableRecord
  2
OpenSans-Italic
 70
0
 40
0.0
 41
1.0
 50
0.0
 71
0
 42
2.5
  3
OpenSans-Italic.ttf
  4

  0
STYLE
  5
45
330
5
100
AcDbSymbolTableRecord
100
AcDbTextStyleTableRecord
  2
OpenSans-SemiBold
 70
0
 40
0.0
 41
1.0
 50
0.0
 71
0
 42
2.5
  3
OpenSans-SemiBold.ttf
  4

  0
STYLE
  5
46
330
5
100
AcDbSymbolTableRecord
100
AcDbTextStyleTableRecord
  2
OpenSans-SemiBoldItalic
 70
0
 40
0.0
 41
1.0
 50
0.0
 71
0
 42
2.5
  3
OpenSans-SemiBoldItalic.ttf
  4

  0
STYLE
  5
47
330
5
100
AcDbSymbolTableRecord
100
AcDbTextStyleTableRecord
  2
OpenSans-Bold
 70
0
 40
0.0
 41
1.0
 50
0.0
 71
0
 42
2.5
  3
OpenSans-Bold.ttf
  4

  0
STYLE
  5
48
330
5
100
AcDbSymbolTableRecord
100
AcDbTextStyleTableRecord
  2
OpenSans-BoldItalic
 70
0
 40
0.0
 41
1.0
 50
0.0
 71
0
 42
2.5
  3
OpenSans-BoldItalic.ttf
  4

  0
STYLE
  5
49
330
5
100
AcDbSymbolTableRecord
100
AcDbTextStyleTableRecord
  2
OpenSans-ExtraBold
 70
0
 40
0.0
 41
1.0
 50
0.0
 71
0
 42
2.5
  3
OpenSans-ExtraBold.ttf
  4

  0
STYLE
  5
4A
330
5
100
AcDbSymbolTableRecord
100
AcDbTextStyleTableRecord
  2
OpenSans-ExtraBoldItalic
 70
0
 40
0.0
 41
1.0
 50
0.0
 71
0
 42
2.5
  3
OpenSans-ExtraBoldItalic.ttf
  4

  0
STYLE
  5
4B
330
5
100
AcDbSymbolTableRecord
100
AcDbTextStyleTableRecord
  2
OpenSansCondensed-Bold
 70
0
 40
0.0
 41
1.0
 50
0.0
 71
0
 42
2.5
  3
OpenSansCondensed-Bold.ttf
  4

  0
STYLE
  5
4C
330
5
100
AcDbSymbolTableRecord
100
AcDbTextStyleTableRecord
  2
OpenSansCondensed-Light
 70
0
 40
0.0
 41
1.0
 50
0.0
 71
0
 42
2.5
  3
OpenSansCondensed-Light.ttf
  4

  0
STYLE
  5
4D
330
5
100
AcDbSymbolTableRecord
100
AcDbTextStyleTableRecord
  2
OpenSansCondensed-Italic
 70
0
 40
0.0
 41
1.0
 50
0.0
 71
0
 42
2.5
  3
OpenSansCondensed-LightItalic.ttf
  4

  0
STYLE
  5
4E
330
5
100
AcDbSymbolTableRecord
100
AcDbTextStyleTableRecord
  2
LiberationSans
 70
0
 40
0.0
 41
1.0
 50
0.0
 71
0
 42
2.5
  3
LiberationSans-Regular.ttf
  4

  0
STYLE
  5
4F
330
5
100
AcDbSymbolTableRecord
100
AcDbTextStyleTableRecord
  2
LiberationSans-Bold
 70
0
 40
0.0
 41
1.0
 50
0.0
 71
0
 42
2.5
  3
LiberationSans-Bold.ttf
  4

  0
STYLE
  5
50
330
5
100
AcDbSymbolTableRecord
100
AcDbTextStyleTableRecord
  2
LiberationSans-BoldItalic
 70
0
 40
0.0
 41
1.0
 50
0.0
 71
0
 42
2.5
  3
LiberationSans-BoldItalic.ttf
  4

  0
STYLE
  5
51
330
5
100
AcDbSymbolTableRecord
100
AcDbTextStyleTableRecord
  2
LiberationSans-Italic
 70
0
 40
0.0
 41
1.0
 50
0.0
 71
0
 42
2.5
  3
LiberationSans-Italic.ttf
  4

  0
STYLE
  5
52
330
5
100
AcDbSymbolTableRecord
100
AcDbTextStyleTableRecord
  2
LiberationSerif
 70
0
 40
0.0
 41
1.0
 50
0.0
 71
0
 42
2.5
  3
LiberationSerif-Regular.ttf
  4

  0
STYLE
  5
53
330
5
100
AcDbSymbolTableRecord
100
AcDbTextStyleTableRecord
  2
LiberationSerif-Bold
 70
0
 40
0.0
 41
1.0
 50
0.0
 71
0
 42
2.5
  3
LiberationSerif-Bold.ttf
  4

  0
STYLE
  5
54
330
5
100
AcDbSymbolTableRecord
100
AcDbTextStyleTableRecord
  2
LiberationSerif-BoldItalic
 70
0
 40
0.0
 41
1.0
 50
0.0
 71
0
 42
2.5
  3
LiberationSerif-BoldItalic.ttf
  4

  0
STYLE
  5
55
330
5
100
AcDbSymbolTableRecord
100
AcDbTextStyleTableRecord
  2
LiberationSerif-Italic
 70
0
 40
0.0
 41
1.0
 50
0.0
 71
0
 42
2.5
  3
LiberationSerif-Italic.ttf
  4

  0
STYLE
  5
56
330
5
100
AcDbSymbolTableRecord
100
AcDbTextStyleTableRecord
  2
LiberationMono
 70
0
 40
0.0
 41
1.0
 50
0.0
 71
0
 42
2.5
  3
LiberationMono-Regular.ttf
  4

  0
STYLE
  5
57
330
5
100
AcDbSymbolTableRecord
100
AcDbTextStyleTableRecord
  2
LiberationMono-Bold
 70
0
 40
0.0
 41
1.0
 50
0.0
 71
0
 42
2.5
  3
LiberationMono-Bold.ttf
  4

  0
STYLE
  5
58
330
5
100
AcDbSymbolTableRecord
100
AcDbTextStyleTableRecord
  2
LiberationMono-BoldItalic
 70
0
 40
0.0
 41
1.0
 50
0.0
 71
0
 42
2.5
  3
LiberationMono-BoldItalic.ttf
  4

  0
STYLE
  5
59
330
5
100
AcDbSymbolTableRecord
100
AcDbTextStyleTableRecord
  2
LiberationMono-Italic
 70
0
 40
0.0
 41
1.0
 50
0.0
 71
0
 42
2.5
  3
LiberationMono-Italic.ttf
  4

  0
ENDTAB
  0
TABLE
  2
VIEW
  5
7
330
0
100
AcDbSymbolTable
 70
0
  0
ENDTAB
  0
TABLE
  2
UCS
  5
6
330
0
100
AcDbSymbolTable
 70
0
  0
ENDTAB
  0
TABLE
  2
APPID
  5
3
330
0
100
AcDbSymbolTable
 70
3
  0
APPID
  5
2A
330
3
100
AcDbSymbolTableRecord
100
AcDbRegAppTableRecord
  2
ACAD
 70
0
  0
APPID
  5
182
330
3
100
AcDbSymbolTableRecord
100
AcDbRegAppTableRecord
  2
HATCHBACKGROUNDCOLOR
 70
0
  0
APPID
  5
183
330
3
100
AcDbSymbolTableRecord
100
AcDbRegAppTableRecord
  2
EZDXF
 70
0
  0
ENDTAB
  0
TABLE
  2
DIMSTYLE
  5
4
330
0
100
AcDbSymbolTable
 70
12
100
AcDbDimStyleTable
  0
DIMSTYLE
105
2B
330
4
100
AcDbSymbolTableRecord
100
AcDbDimStyleTableRecord
  2
Standard
 70
0
 40
1.0
 41
2.5
 42
0.625
 43
3.75
 44
1.25
 45
0.0
 46
0.0
 47
0.0
 48
0.0
 49
2.5
140
2.5
141
2.5
142
0.0
143
0.03937007874
144
1.0
145
0.0
146
1.0
147
0.625
148
0.0
 69
0
 70
0
 71
0
 72
0
 73
0
 74
0
 75
0
 76
0
 77
1
 78
8
 79
3
170
0
171
3
172
1
173
0
174
0
175
0
176
0
177
0
178
0
179
2
271
2
272
2
273
2
274
3
275
0
276
0
277
2
278
44
279
0
280
0
281
0
282
0
283
0
284
8
285
0
286
0
288
0
289
3
290
0
371
-2
372
-2
  0
DIMSTYLE
105
73
330
4
100
AcDbSymbolTableRecord
100
AcDbDimStyleTableRecord
  2
EZDXF
 70
0
 40
1.0
 41
0.175
 42
0.125
 43
3.75
 44
0.375
 45
0.0
 46
0.0
 47
0.0
 48
0.0
 49
2.5
140
0.25
141
2.5
142
0.0
143
0.03937007874
144
100.0
145
0.0
146
0.5
147
0.1
148
0.0
 69
0
 70
0
 71
0
 72
0
 73
0
 74
0
 75
0
 76
0
 77
1
 78
12
 79
3
170
0
171
3
172
1
173
0
174
0
175
0
176
0
177
0
178
0
179
2
271
2
272
2
273
2
274
3
275
0
276
0
277
2
278
46
279
2
280
0
281
0
282
0
283
0
284
8
285
0
286
0
288
1
289
3
290
0
340
4C
342
74
371
-2
372
-2
  0
DIMSTYLE
105
7C
330
4
100
AcDbSymbolTableRecord
100
AcDbDimStyleTableRecord
  2
EZ_M_100_H25_CM
 70
0
 40
1.0
 41
0.25
 42
0.125
 43
3.75
 44
0.375
 45
0.0
 46
0.0
 47
0.0
 48
0.0
 49
2.5
140
0.25
141
2.5
142
0.125
143
0.03937007874
144
100.0
145
0.0
146
0.5
147
0.1
148
0.0
 69
0
 70
0
 71
0
 72
0
 73
0
 74
0
 75
0
 76
0
 77
1
 78
12
 79
3
170
0
171
3
172
1
173
0
174
0
175
0
176
0
177
0
178
0
179
2
271
2
272
2
273
2
274
3
275
0
276
0
277
2
278
46
279
2
280
0
281
0
282
0
283
0
284
8
285
0
286
0
288
1
289
3
290
0
340
4C
371
-2
372
-2
  0
DIMSTYLE
105
7D
330
4
100
AcDbSymbolTableRecord
100
AcDbDimStyleTableRecord
  2
EZ_M_50_H25_CM
 70
0
 40
1.0
 41
0.125
 42
0.0625
 43
3.75
 44
0.1875
 45
0.0
 46
0.0
 47
0.0
 48
0.0
 49
2.5
140
0.125
141
2.5
142
0.0625
143
0.03937007874
144
100.0
145
0.0
146
0.5
147
0.05
148
0.0
 69
0
 70
0
 71
0
 72
0
 73
0
 74
0
 75
0
 76
0
 77
1
 78
12
 79
3
170
0
171
3
172
1
173
0
174
0
175
0
176
0
177
0
178
0
179
2
271
2
272
2
273
2
274
3
275
0
276
0
277
2
278
46
279
2
280
0
281
0
282
0
283
0
284
8
285
0
286
0
288
1
289
3
290
0
340
4C
371
-2
372
-2
  0
DIMSTYLE
105
7E
330
4
100
AcDbSymbolTableRecord
100
AcDbDimStyleTableRecord
  2
EZ_M_25_H25_CM
 70
0
 40
1.0
 41
0.0625
 42
0.03125
 43
3.75
 44
0.09375
 45
0.0
 46
0.0
 47
0.0
 48
0.0
 49
2.5
140
0.0625
141
2.5
142
0.03125
143
0.03937007874
144
100.0
145
0.0
146
0.5
147
0.025
148
0.0
 69
0
 70
0
 71
0
 72
0
 73
0
 74
0
 75
0
 76
0
 77
1
 78
12
 79
3
170
0
171
3
172
1
173
0
174
0
175
0
176
0
177
0
178
0
179
2
271
2
272
2
273
2
274
3
275
0
276
0
277
2
278
46
279
2
280
0
281
0
282
0
283
0
284
8
285
0
286
0
288
1
289
3
290
0
340
4C
371
-2
372
-2
  0
DIMSTYLE
105
7F
330
4
100
AcDbSymbolTableRecord
100
AcDbDimStyleTableRecord
  2
EZ_M_20_H25_CM
 70
0
 40
1.0
 41
0.05
 42
0.025
 43
3.75
 44
0.07500000000000001
 45
0.0
 46
0.0
 47
0.0
 48
0.0
 49
2.5
140
0.05
141
2.5
142
0.025
143
0.03937007874
144
100.0
145
0.0
146
0.5
147
0.020000000000000004
148
0.0
 69
0
 70
0
 71
0
 72
0
 73
0
 74
0
 75
0
 76
0
 77
1
 78
12
 79
3
170
0
171
3
172
1
173
0
174
0
175
0
176
0
177
0
178
0
179
2
271
2
272
2
273
2
274
3
275
0
276
0
277
2
278
46
279
2
280
0
281
0
282
0
283
0
284
8
285
0
286
0
288
1
289
3
290
0
340
4C
371
-2
372
-2
  0
DIMSTYLE
105
80
330
4
100
AcDbSymbolTableRecord
100
AcDbDimStyleTableRecord
  2
EZ_M_10_H25_CM
 70
0
 40
1.0
 41
0.025
 42
0.0125
 43
3.75
 44
0.037500000000000006
 45
0.0
 46
0.0
 47
0.0
 48
0.0
 49
2.5
140
0.025
141
2.5
142
0.0125
143
0.03937007874
144
100.0
145
0.0
146
0.5
147
0.010000000000000002
148
0.0
 69
0
 70
0
 71
0
 72
0
 73
0
 74
0
 75
0
 76
0
 77
1
 78
12
 79
3
170
0
171
3
172
1
173
0
174
0
175
0
176
0
177
0
178
0
179
2
271
2
272
2
273
2
274
3
275
0
276
0
277
2
278
46
279
2
280
0
281
0
282
0
283
0
284
8
285
0
286
0
288
1
289
3
290
0
340
4C
371
-2
372
-2
  0
DIMSTYLE
105
81
330
4
100
AcDbSymbolTableRecord
100
AcDbDimStyleTableRecord
  2
EZ_M_5_H25_CM
 70
0
 40
1.0
 41
0.0125
 42
0.00625
 43
3.75
 44
0.018750000000000003
 45
0.0
 46
0.0
 47
0.0
 48
0.0
 49
2.5
140
0.0125
141
2.5
142
0.00625
143
0.03937007874
144
100.0
145
0.0
146
0.5
147
0.005000000000000001
148
0.0
 69
0
 70
0
 71
0
 72
0
 73
0
 74
0
 75
0
 76
0
 77
1
 78
12
 79
3
170
0
171
3
172
1
173
0
174
0
175
0
176
0
177
0
178
0
179
2
271
2
272
2
273
2
274
3
275
0
276
0
277
2
278
46
279
2
280
0
281
0
282
0
283
0
284
8
285
0
286
0
288
1
289
3
290
0
340
4C
371
-2
372
-2
  0
DIMSTYLE
105
82
330
4
100
AcDbSymbolTableRecord
100
AcDbDimStyleTableRecord
  2
EZ_M_1_H25_CM
 70
0
 40
1.0
 41
0.0025
 42
0.00125
 43
3.75
 44
0.00375
 45
0.0
 46
0.0
 47
0.0
 48
0.0
 49
2.5
140
0.0025
141
2.5
142
0.00125
143
0.03937007874
144
100.0
145
0.0
146
0.5
147
0.001
148
0.0
 69
0
 70
0
 71
0
 72
0
 73
0
 74
0
 75
0
 76
0
 77
1
 78
12
 79
3
170
0
171
3
172
1
173
0
174
0
175
0
176
0
177
0
178
0
179
2
271
2
272
2
273
2
274
3
275
0
276
0
277
2
278
46
279
2
280
0
281
0
282
0
283
0
284
8
285
0
286
0
288
1
289
3
290
0
340
4C
371
-2
372
-2
  0
DIMSTYLE
105
83
330
4
100
AcDbSymbolTableRecord
100
AcDbDimStyleTableRecord
  2
EZ_RADIUS
 70
0
 40
1.0
 41
0.25
 42
0.125
 43
3.75
 44
0.375
 45
0.0
 46
0.0
 47
0.0
 48
0.0
 49
2.5
140
0.25
141
0.0
142
0.0
143
0.03937007874
144
100.0
145
0.0
146
0.5
147
0.1
148
0.0
 69
0
 70
0
 71
0
 72
0
 73
0
 74
0
 75
0
 76
0
 77
1
 78
12
 79
3
170
0
171
3
172
0
173
0
174
0
175
0
176
0
177
0
178
0
179
2
271
2
272
2
273
2
274
3
275
0
276
0
277
2
278
46
279
1
280
0
281
0
282
0
283
0
284
8
285
0
286
0
288
1
289
3
290
0
340
4C
342
84
371
-2
372
-2
  0
DIMSTYLE
105
88
330
4
100
AcDbSymbolTableRecord
100
AcDbDimStyleTableRecord
  2
EZ_RADIUS_INSIDE
 70
0
 40
1.0
 41
0.25
 42
0.125
 43
3.75
 44
0.375
 45
0.0
 46
0.0
 47
0.0
 48
0.0
 49
2.5
140
0.25
141
0.0
142
0.0
143
0.03937007874
144
100.0
145
0.0
146
0.5
147
0.1
148
0.0
 69
0
 70
0
 71
0
 72
0
 73
0
 74
0
 75
0
 76
0
 77
0
 78
12
 79
3
170
0
171
3
172
0
173
0
174
1
175
0
176
0
177
0
178
0
179
2
271
2
272
2
273
2
274
3
275
0
276
0
277
2
278
46
279
0
280
0
281
0
282
0
283
0
284
8
285
0
286
0
288
1
289
0
290
0
340
4C
342
84
371
-2
372
-2
  0
DIMSTYLE
105
89
330
4
100
AcDbSymbolTableRecord
100
AcDbDimStyleTableRecord
  2
EZ_CURVED
 70
0
 40
1.0
 41
0.25
 42
0.125
 43
3.75
 44
0.375
 45
0.0
 46
0.0
 47
0.0
 48
0.0
 49
2.5
140
0.25
141
2.5
142
0.0
143
0.03937007874
144
100.0
145
0.0
146
0.5
147
0.1
148
0.0
 69
0
 70
0
 71
0
 72
0
 73
0
 74
0
 75
0
 76
0
 77
1
 78
12
 79
2
 90
2
170
0
171
3
172
1
173
0
174
0
175
0
176
0
177
0
178
0
179
2
271
2
272
2
273
2
274
3
275
0
276
0
277
2
278
46
279
2
280
0
281
0
282
0
283
0
284
8
285
0
286
0
288
1
289
3
290
0
340
4C
371
-2
372
-2
  0
ENDTAB
  0
TABLE
  2
BLOCK_RECORD
  5
9
330
0
100
AcDbSymbolTable
 70
5
  0
BLOCK_RECORD
  5
17
330
9
100
AcDbSymbolTableRecord
100
AcDbBlockTableRecord
  2
*Model_Space
340
1A
 70
0
280
1
281
0
  0
BLOCK_RECORD
  5
1B
330
9
100
AcDbSymbolTableRecord
100
AcDbBlockTableRecord
  2
*Paper_Space
340
1E
 70
0
280
1
281
0
  0
BLOCK_RECORD
  5
74
330
9
100
AcDbSymbolTableRecord
100
AcDbBlockTableRecord
  2
_ARCHTICK
340
0
 70
0
280
1
281
0
  0
BLOCK_RECORD
  5
78
330
9
100
AcDbSymbolTableRecord
100
AcDbBlockTableRecord
  2
_CLOSEDFILLED
340
0
 70
0
280
1
281
0
  0
BLOCK_RECORD
  5
84
330
9
100
AcDbSymbolTableRecord
100
AcDbBlockTableRecord
  2
_CLOSEDBLANK
340
0
 70
0
280
1
281
0
  0
ENDTAB
  0
ENDSEC
  0
SECTION
  2
BLOCKS
  0
BLOCK
  5
18
330
17
100
AcDbEntity
  8
0
100
AcDbBlockBegin
  2
*Model_Space
 70
0
 10
0.0
 20
0.0
 30
0.0
  3
*Model_Space
  1

  0
ENDBLK
  5
19
330
17
100
AcDbEntity
  8
0
100
AcDbBlockEnd
  0
BLOCK
  5
1C
330
1B
100
AcDbEntity
  8
0
100
AcDbBlockBegin
  2
*Paper_Space
 70
0
 10
0.0
 20
0.0
 30
0.0
  3
*Paper_Space
  1

  0
ENDBLK
  5
1D
330
1B
100
AcDbEntity
  8
0
100
AcDbBlockEnd
  0
BLOCK
  5
75
330
74
100
AcDbEntity
  8
0
100
AcDbBlockBegin
  2
_ARCHTICK
 70
0
 10
0.0
 20
0.0
 30
0.0
  3
_ARCHTICK
  1

  0
LWPOLYLINE
  5
77
330
74
100
AcDbEntity
  8
0
  6
BYBLOCK
 62
0
100
AcDbPolyline
 90
2
 70
0
 43
0.15
 10
-0.5
 20
-0.5
 10
0.5
 20
0.5
  0
ENDBLK
  5
76
330
74
100
AcDbEntity
  8
0
100
AcDbBlockEnd
  0
BLOCK
  5
79
330
78
100
AcDbEntity
  8
0
100
AcDbBlockBegin
  2
_CLOSEDFILLED
 70
0
 10
0.0
 20
0.0
 30
0.0
  3
_CLOSEDFILLED
  1

  0
SOLID
  5
7B
330
78
100
AcDbEntity
  8
0
  6
BYBLOCK
 62
0
100
AcDbTrace
 10
-1.0
 20
0.16439898372402537
 30
0.0
 11
0.0
 21
0.0
 31
0.0
 12
-1.0
 22
-0.16439898372402537
 32
0.0
 13
-1.0
 23
-0.16439898372402537
 33
0.0
  0
ENDBLK
  5
7A
330
78
100
AcDbEntity
  8
0
100
AcDbBlockEnd
  0
BLOCK
  5
85
330
84
100
AcDbEntity
  8
0
100
AcDbBlockBegin
  2
_CLOSEDBLANK
 70
0
 10
0.0
 20
0.0
 30
0.0
  3
_CLOSEDBLANK
  1

  0
LWPOLYLINE
  5
87
330
84
100
AcDbEntity
  8
0
  6
BYBLOCK
 62
0
100
AcDbPolyline
 90
3
 70
1
 10
-1.0
 20
0.16439898372402537
 10
0.0
 20
0.0
 10
-1.0
 20
-0.16439898372402537
  0
ENDBLK
  5
86
330
84
100
AcDbEntity
  8
0
100
AcDbBlockEnd
  0
ENDSEC
  0
SECTION
  2
ENTITIES
  0
LWPOLYLINE
  5
8A
330
17
100
AcDbEntity
  8
0
100
AcDbPolyline
 90
5
 70
1
 10
0.0
 20
0.0
 10
52.10086833369701
 20
0.0
 10
52.10086833369701
 20
100.78512987474151
 10
0.0
 20
100.78512987474151
 10
0.0
 20
0.0
  0
LWPOLYLINE
  5
8B
330
17
100
AcDbEntity
  8
0
100
AcDbPolyline
 90
6
 70
1
 10
128.68307071371174
 20
35.79110119000737
 10
110.78752011870806
 20
66.7871040499732
 10
74.9964189287007
 20
66.78710404997321
 10
57.10086833369701
 20
35.791101190007375
 10
74.99641892870068
 20
4.795098330041544
 10
110.78752011870803
 20
4.795098330041519
  0
LWPOLYLINE
  5
8C
330
17
100
AcDbEntity
  8
0
100
AcDbPolyline
 90
9
 70
1
 10
133.68307071371174
 20
0.0
 10
140.38606744229605
 20
0.0
 10
140.38606744229605
 20
14.058502223282282
 10
149.3919885678274
 20
14.058502223282282
 10
149.3919885678274
 20
0.0
 10
156.09498529641172
 20
0.0
 10
156.09498529641172
 20
20.761498951866606
 10
133.68307071371174
 20
20.761498951866606
 10
133.68307071371174
 20
0.0
  0
LWPOLYLINE
  5
8D
330
17
100
AcDbEntity
  8
0
100
AcDbPolyline
 90
9
 70
1
 10
161.09498529641172
 20
0.0
 10
165.15056015652718
 20
0.0
 10
165.15056015652718
 20
13.053619050458858
 10
174.49388735886302
 20
13.053619050458858
 10
174.49388735886302
 20
0.0
 10
178.54946221897848
 20
0.0
 10
178.54946221897848
 20
17.1091939105743
 10
161.09498529641172
 20
17.1091939105743
 10
161.09498529641172
 20
0.0
  0
LWPOLYLINE
  5
8E
330
17
100
AcDbEntity
  8
0
100
AcDbPolyline
 90
7
 70
1
 10
183.54946221897848
 20
0.0
 10
243.3431682808936
 20
0.0
 10
243.3431682808936
 20
18.12747250443343
 10
201.6769347234119
 20
18.12747250443343
 10
201.6769347234119
 20
81.48323598785042
 10
183.54946221897848
 20
81.48323598785042
 10
183.54946221897848
 20
0.0
  0
LWPOLYLINE
  5
8F
330
17
100
AcDbEntity
  8
0
100
AcDbPolyline
 90
9
 70
1
 10
248.3431682808936
 20
0.0
 10
257.822860748425
 20
0.0
 10
257.822860748425
 20
23.382901542064324
 10
272.70829748007066
 20
23.382901542064324
 10
272.70829748007066
 20
0.0
 10
282.1879899476021
 20
0.0
 10
282.1879899476021
 20
32.86259400959575
 10
248.3431682808936
 20
32.86259400959575
 10
248.3431682808936
 20
0.0
  0
LWPOLYLINE
  5
90
330
17
100
AcDbEntity
  8
0
100
AcDbPolyline
 90
4
 70
1
 10
300.06822600200104
 20
0.0
 10
392.88964064053994
 20
0.0
 10
392.88964064053994
 20
25.76047210879795
 10
300.06822600200104
 20
25.76047210879795
  0
ARC
  5
91
330
17
100
AcDbEntity
  8
0
100
AcDbCircle
 10
300.06822600200104
 20
12.880236054398974
 30
0.0
 40
12.880236054398974
100
AcDbArc
 50
90.0
 51
270.0
  0
ARC
  5
92
330
17
100
AcDbEntity
  8
0
100
AcDbCircle
 10
392.88964064053994
 20
12.880236054398974
 30
0.0
 40
12.880236054398974
100
AcDbArc
 50
270.0
 51
90.0
  0
LWPOLYLINE
  5
93
330
17
100
AcDbEntity
  8
0
100
AcDbPolyline
 90
6
 70
1
 10
440.2468483066802
 20
14.738485805870635
 10
432.87760540374484
 20
27.502388927070967
 10
418.13911959787424
 20
27.50238892707097
 10
410.7698766949389
 20
14.738485805870637
 10
418.13911959787424
 20
1.9745826846703043
 10
432.87760540374484
 20
1.9745826846702954
  0
LWPOLYLINE
  5
94
330
17
100
AcDbEntity
  8
0
100
AcDbPolyline
 90
5
 70
1
 10
445.24684830668014
 20
0.0
 10
485.84210755922015
 20
0.0
 10
485.84210755922015
 20
63.53577404584546
 10
445.24684830668014
 20
63.53577404584546
 10
445.24684830668014
 20
0.0
  0
LWPOLYLINE
  5
95
330
17
100
AcDbEntity
  8
0
100
AcDbPolyline
 90
5
 70
1
 10
490.84210755922015
 20
0.0
 10
599.4149870675352
 20
0.0
 10
599.4149870675352
 20
43.16323879073494
 10
490.84210755922015
 20
43.16323879073494
 10
490.84210755922015
 20
0.0
  0
LWPOLYLINE
  5
96
330
17
100
AcDbEntity
  8
0
100
AcDbPolyline
 90
3
 70
1
 10
604.4149870675352
 20
0.0
 10
634.2677053874668
 20
0.0
 10
619.341346227501
 20
25.853212437081865
  0
LWPOLYLINE
  5
97
330
17
100
AcDbEntity
  8
0
100
AcDbPolyline
 90
7
 70
1
 10
639.2677053874668
 20
0.0
 10
659.7629906494542
 20
0.0
 10
659.7629906494542
 20
6.86785862354004
 10
646.1355640110069
 20
6.86785862354004
 10
646.1355640110069
 20
24.085801550182712
 10
639.2677053874668
 20
24.085801550182712
 10
639.2677053874668
 20
0.0
  0
LWPOLYLINE
  5
98
330
17
100
AcDbEntity
  8
0
100
AcDbPolyline
 90
9
 70
1
 10
664.7629906494542
 20
0.0
 10
669.7038164792289
 20
0.0
 10
669.7038164792289
 20
18.080236849182363
 10
683.7359231817942
 20
18.080236849182363
 10
683.7359231817942
 20
0.0
 10
688.6767490115689
 20
0.0
 10
688.6767490115689
 20
23.021062678957033
 10
664.7629906494542
 20
23.021062678957033
 10
664.7629906494542
 20
0.0
  0
LWPOLYLINE
  5
99
330
17
100
AcDbEntity
  8
0
100
AcDbPolyline
 90
3
 70
1
 10
693.6767490115689
 20
0.0
 10
713.4970729784729
 20
0.0
 10
703.586910995021
 20
17.164904066576533
  0
LWPOLYLINE
  5
9A
330
17
100
AcDbEntity
  8
0
100
AcDbPolyline
 90
9
 70
1
 10
718.4970729784729
 20
0.0
 10
726.4389678820269
 20
0.0
 10
726.4389678820269
 20
21.470436822210143
 10
741.4247929569581
 20
21.470436822210143
 10
741.4247929569581
 20
0.0
 10
749.366687860512
 20
0.0
 10
749.366687860512
 20
29.412331725764098
 10
718.4970729784729
 20
29.412331725764098
 10
718.4970729784729
 20
0.0
  0
LWPOLYLINE
  5
9B
330
17
100
AcDbEntity
  8
0
100
AcDbPolyline
 90
9
 70
1
 10
754.366687860512
 20
0.0
 10
776.7048722248614
 20
0.0
 10
776.7048722248614
 20
56.6698065594248
 10
816.2853746124031
 20
56.6698065594248
 10
816.2853746124031
 20
0.0
 10
838.6235589767525
 20
0.0
 10
838.6235589767525
 20
79.00799092377422
 10
754.366687860512
 20
79.00799092377422
 10
754.366687860512
 20
0.0
  0
LWPOLYLINE
  5
9C
330
17
100
AcDbEntity
  8
0
100
AcDbPolyline
 90
6
 70
1
 10
17.71709705245192
 20
114.64367840096747
 10
13.28782278933894
 20
122.31540646533635
 10
4.429274263112982
 20
122.31540646533635
 10
0.0
 20
114.64367840096747
 10
4.429274263112976
 20
106.9719503365986
 10
13.287822789338932
 20
106.9719503365986
  0
LWPOLYLINE
  5
9D
330
17
100
AcDbEntity
  8
0
100
AcDbPolyline
 90
9
 70
1
 10
22.71709705245192
 20
105.78512987474151
 10
62.33382830313131
 20
105.78512987474151
 10
62.33382830313131
 20
114.75654554724517
 10
47.01117051404344
 20
114.75654554724517
 10
47.01117051404344
 20
135.78029168258158
 10
38.03975484153979
 20
135.78029168258158
 10
38.03975484153979
 20
114.75654554724517
 10
22.71709705245192
 20
114.75654554724517
 10
22.71709705245192
 20
105.78512987474151
  0
LWPOLYLINE
  5
9E
330
17
100
AcDbEntity
  8
0
100
AcDbPolyline
 90
9
 70
1
 10
67.33382830313131
 20
105.78512987474151
 10
126.48487079476973
 20
105.78512987474151
 10
126.48487079476973
 20
118.78982365866383
 10
103.4116964409117
 20
118.78982365866383
 10
103.4116964409117
 20
154.27960244632487
 10
90.40700265698936
 20
154.27960244632487
 10
90.40700265698936
 20
118.78982365866383
 10
67.33382830313131
 20
118.78982365866383
 10
67.33382830313131
 20
105.78512987474151
  0
LWPOLYLINE
  5
9F
330
17
100
AcDbEntity
  8
0
100
AcDbPolyline
 90
6
 70
1
 10
149.8549194244148
 20
114.97015418956403
 10
145.2624072670035
 20
122.92461858057808
 10
136.077382952181
 20
122.92461858057808
 10
131.48487079476973
 20
114.97015418956403
 10
136.07738295218098
 20
107.01568979854997
 10
145.2624072670035
 20
107.01568979854997
  0
LWPOLYLINE
  5
A0
330
17
100
AcDbEntity
  8
0
100
AcDbPolyline
 90
7
 70
1
 10
154.8549194244148
 20
105.78512987474151
 10
173.6311812215924
 20
105.78512987474151
 10
173.6311812215924
 20
112.14261555236565
 10
161.21240510203893
 20
112.14261555236565
 10
161.21240510203893
 20
131.99345355458297
 10
154.8549194244148
 20
131.99345355458297
 10
154.8549194244148
 20
105.78512987474151
  0
LWPOLYLINE
  5
A1
330
17
100
AcDbEntity
  8
0
100
AcDbPolyline
 90
9
 70
1
 10
178.6311812215924
 20
105.78512987474151
 10
209.80957213293883
 20
105.78512987474151
 10
209.80957213293883
 20
113.72797245517056
 10
198.19179796748014
 20
113.72797245517056
 10
198.19179796748014
 20
130.7758668882962
 10
190.2489553870511
 20
130.7758668882962
 10
190.2489553870511
 20
113.72797245517056
 10
178.6311812215924
 20
113.72797245517056
 10
178.6311812215924
 20
105.78512987474151
  0
LWPOLYLINE
  5
A2
330
17
100
AcDbEntity
  8
0
100
AcDbPolyline
 90
9
 70
1
 10
214.80957213293883
 20
105.78512987474151
 10
260.21370382093613
 20
105.78512987474151
 10
260.21370382093613
 20
115.63904954200797
 10
242.43859781057068
 20
115.63904954200797
 10
242.43859781057068
 20
137.0108595633659
 10
232.58467814330425
 20
137.0108595633659
 10
232.58467814330425
 20
115.63904954200797
 10
214.80957213293883
 20
115.63904954200797
 10
214.80957213293883
 20
105.78512987474151
  0
LWPOLYLINE
  5
A3
330
17
100
AcDbEntity
  8
0
100
AcDbPolyline
 90
4
 70
1
 10
273.23094454038164
 20
105.78512987474151
 10
341.80482972039715
 20
105.78512987474151
 10
341.80482972039715
 20
121.81961131363255
 10
273.23094454038164
 20
121.81961131363255
  0
ARC
  5
A4
330
17
100
AcDbEntity
  8
0
100
AcDbCircle
 10
273.23094454038164
 20
113.80237059418704
 30
0.0
 40
8.017240719445521
100
AcDbArc
 50
90.0
 51
270.0
  0
ARC
  5
A5
330
17
100
AcDbEntity
  8
0
100
AcDbCircle
 10
341.80482972039715
 20
113.80237059418704
 30
0.0
 40
8.017240719445521
100
AcDbArc
 50
270.0
 51
90.0
  0
CIRCLE
  5
A6
330
17
100
AcDbEntity
  8
0
100
AcDbCircle
 10
368.99977344084476
 20
119.96283287574362
 30
0.0
 40
14.177703001002097
  0
LWPOLYLINE
  5
A7
330
17
100
AcDbEntity
  8
0
100
AcDbPolyline
 90
9
 70
1
 10
388.17747644184686
 20
105.78512987474151
 10
392.34752678922916
 20
105.78512987474151
 10
392.34752678922916
 20
117.62388554198654
 10
402.12650967403624
 20
117.62388554198654
 10
402.12650967403624
 20
105.78512987474151
 10
406.29656002141854
 20
105.78512987474151
 10
406.29656002141854
 20
121.79393588936887
 10
388.17747644184686
 20
121.79393588936887
 10
388.17747644184686
 20
105.78512987474151
  0
LWPOLYLINE
  5
A8
330
17
100
AcDbEntity
  8
0
100
AcDbPolyline
 90
6
 70
1
 10
493.0297806372641
 20
146.65174018266427
 10
472.5964754833027
 20
182.04326287588438
 10
431.7298651753799
 20
182.04326287588438
 10
411.29656002141854
 20
146.65174018266427
 10
431.7298651753799
 20
111.26021748944417
 10
472.59647548330264
 20
111.26021748944414
  0
LWPOLYLINE
  5
A9
330
17
100
AcDbEntity
  8
0
100
AcDbPolyline
 90
7
 70
1
 10
498.029780637264
 20
105.78512987474151
 10
584.8682718849975
 20
105.78512987474151
 10
584.8682718849975
 20
130.91957530458126
 10
523.1642260671038
 20
130.91957530458126
 10
523.1642260671038
 20
223.07109258955404
 10
498.029780637264
 20
223.07109258955404
 10
498.029780637264
 20
105.78512987474151
  0
LWPOLYLINE
  5
AA
330
17
100
AcDbEntity
  8
0
100
AcDbPolyline
 90
3
 70
1
 10
589.8682718849975
 20
105.78512987474151
 10
625.1079677894575
 20
105.78512987474151
 10
607.4881198372275
 20
136.3036017496423
  0
LWPOLYLINE
  5
AB
330
17
100
AcDbEntity
  8
0
100
AcDbPolyline
 90
9
 70
1
 10
630.1079677894575
 20
105.78512987474151
 10
657.20892877805
 20
105.78512987474151
 10
657.20892877805
 20
112.31463826060909
 10
646.9232024766875
 20
112.31463826060909
 10
646.9232024766875
 20
128.3456763320867
 10
640.39369409082
 20
128.3456763320867
 10
640.39369409082
 20
112.31463826060909
 10
630.1079677894575
 20
112.31463826060909
 10
630.1079677894575
 20
105.78512987474151
  0
LWPOLYLINE
  5
AC
330
17
100
AcDbEntity
  8
0
100
AcDbPolyline
 90
7
 70
1
 10
662.20892877805
 20
105.78512987474151
 10
703.9219598281821
 20
105.78512987474151
 10
703.9219598281821
 20
117.72824467424009
 10
674.1520435775485
 20
117.72824467424009
 10
674.1520435775485
 20
155.75896798451413
 10
662.20892877805
 20
155.75896798451413
 10
662.20892877805
 20
105.78512987474151
  0
LWPOLYLINE
  5
AD
330
17
100
AcDbEntity
  8
0
100
AcDbPolyline
 90
9
 70
1
 10
708.9219598281821
 20
105.78512987474151
 10
720.0202682778842
 20
105.78512987474151
 10
720.0202682778842
 20
141.181755683065
 10
751.1520575480421
 20
141.181755683065
 10
751.1520575480421
 20
105.78512987474151
 10
762.2503659977441
 20
105.78512987474151
 10
762.2503659977441
 20
152.280064132767
 10
708.9219598281821
 20
152.280064132767
 10
708.9219598281821
 20
105.78512987474151
  0
LWPOLYLINE
  5
AE
330
17
100
AcDbEntity
  8
0
100
AcDbPolyline
 90
6
 70
1
 10
807.7688649788059
 20
126.04437936527245
 10
797.6392402335405
 20
143.58940408567918
 10
777.3799907430096
 20
143.58940408567918
 10
767.2503659977441
 20
126.04437936527245
 10
777.3799907430096
 20
108.49935464486572
 10
797.6392402335405
 20
108.4993546448657
  0
LWPOLYLINE
  5
AF
330
17
100
AcDbEntity
  8
0
100
AcDbPolyline
 90
5
 70
1
 10
0.0
 20
228.07109258955404
 10
40.26264157206776
 20
228.07109258955404
 10
40.26264157206776
 20
261.0998245929713
 10
0.0
 20
261.0998245929713
 10
0.0
 20
228.07109258955404
  0
LWPOLYLINE
  5
B0
330
17
100
AcDbEntity
  8
0
100
AcDbPolyline
 90
3
 70
1
 10
45.26264157206776
 20
228.07109258955404
 10
72.73893125072536
 20
228.07109258955404
 10
59.000786411396554
 20
251.86625745301168
  0
LWPOLYLINE
  5
B1
330
17
100
AcDbEntity
  8
0
100
AcDbPolyline
 90
3
 70
1
 10
77.73893125072536
 20
228.07109258955404
 10
111.79539367214487
 20
228.07109258955404
 10
94.7671624614351
 20
257.56485420953345
  0
LWPOLYLINE
  5
B2
330
17
100
AcDbEntity
  8
0
100
AcDbPolyline
 90
7
 70
1
 10
116.79539367214487
 20
228.07109258955404
 10
173.06723083918226
 20
228.07109258955404
 10
173.06723083918226
 20
244.44073435438955
 10
133.16503543698036
 20
244.44073435438955
 10
133.16503543698036
 20
296.5473684585865
 10
116.79539367214487
 20
296.5473684585865
 10
116.79539367214487
 20
228.07109258955404
  0
LWPOLYLINE
  5
B3
330
17
100
AcDbEntity
  8
0
100
AcDbPolyline
 90
6
 70
1
 10
193.7990204489429
 20
235.93698739443437
 10
189.86607304650275
 20
242.74905211895677
 10
182.00017824162242
 20
242.74905211895677
 10
178.06723083918226
 20
235.93698739443437
 10
182.00017824162242
 20
229.12492266991197
 10
189.86607304650275
 20
229.12492266991197
  0
LWPOLYLINE
  5
B4
330
17
100
AcDbEntity
  8
0
100
AcDbPolyline
 90
4
 70
1
 10
203.8988059882567
 20
228.07109258955404
 10
252.8714914436288
 20
228.07109258955404
 10
252.8714914436288
 20
238.27066366818158
 10
203.8988059882567
 20
238.27066366818158
  0
ARC
  5
B5
330
17
100
AcDbEntity
  8
0
100
AcDbCircle
 10
203.8988059882567
 20
233.17087812886783
 30
0.0
 40
5.0997855393137765
100
AcDbArc
 50
90.0
 51
270.0
  0
ARC
  5
B6
330
17
100
AcDbEntity
  8
0
100
AcDbCircle
 10
252.8714914436288
 20
233.17087812886783
 30
0.0
 40
5.0997855393137765
100
AcDbArc
 50
270.0
 51
90.0
  0
LWPOLYLINE
  5
B7
330
17
100
AcDbEntity
  8
0
100
AcDbPolyline
 90
4
 70
1
 10
271.67750278606746
 20
228.07109258955404
 10
342.880934950804
 20
228.07109258955404
 10
342.880934950804
 20
245.48354419580383
 10
271.67750278606746
 20
245.48354419580383
  0
ARC
  5
B8
330
17
100
AcDbEntity
  8
0
100
AcDbCircle
 10
271.67750278606746
 20
236.77731839267895
 30
0.0
 40
8.706225803124898
100
AcDbArc
 50
90.0
 51
270.0
  0
ARC
  5
B9
330
17
100
AcDbEntity
  8
0
100
AcDbCircle
 10
342.880934950804
 20
236.77731839267895
 30
0.0
 40
8.706225803124898
100
AcDbArc
 50
270.0
 51
90.0
  0
LWPOLYLINE
  5
BA
330
17
100
AcDbEntity
  8
0
100
AcDbPolyline
 90
6
 70
1
 10
373.34836115823884
 20
236.451692791709
 10
369.1580610571613
 20
243.7095054657362
 10
360.7774608550064
 20
243.7095054657362
 10
356.58716075392886
 20
236.451692791709
 10
360.7774608550064
 20
229.1938801176818
 10
369.1580610571613
 20
229.1938801176818
  0
LWPOLYLINE
  5
BB
330
17
100
AcDbEntity
  8
0
100
AcDbPolyline
 90
7
 70
1
 10
378.3483611582388
 20
228.07109258955404
 10
395.03118807815304
 20
228.07109258955404
 10
395.03118807815304
 20
232.8180496971287
 10
383.09531826581343
 20
232.8180496971287
 10
383.09531826581343
 20
248.99671198251062
 10
378.3483611582388
 20
248.99671198251062
 10
378.3483611582388
 20
228.07109258955404
  0
LWPOLYLINE
  5
BC
330
17
100
AcDbEntity
  8
0
100
AcDbPolyline
 90
5
 70
1
 10
400.03118807815304
 20
228.07109258955404
 10
431.4929393831128
 20
228.07109258955404
 10
431.4929393831128
 20
248.86160663631404
 10
400.03118807815304
 20
248.86160663631404
 10
400.03118807815304
 20
228.07109258955404
  0
LWPOLYLINE
  5
BD
330
17
100
AcDbEntity
  8
0
100
AcDbPolyline
 90
5
 70
1
 10
436.4929393831128
 20
228.07109258955404
 10
461.65161487172713
 20
228.07109258955404
 10
461.65161487172713
 20
284.36677504926433
 10
436.4929393831128
 20
284.36677504926433
 10
436.4929393831128
 20
228.07109258955404
  0
CIRCLE
  5
BE
330
17
100
AcDbEntity
  8
0
100
AcDbCircle
 10
513.7341379380911
 20
275.153615655918
 30
0.0
 40
47.08252306636392
  0
CIRCLE
  5
BF
330
17
100
AcDbEntity
  8
0
100
AcDbCircle
 10
578.6234334890478
 20
240.8778650741468
 30
0.0
 40
12.806772484592749
  0
LWPOLYLINE
  5
C0
330
17
100
AcDbEntity
  8
0
100
AcDbPolyline
 90
4
 70
1
 10
612.935915937252
 20
228.07109258955404
 10
714.4352378003334
 20
228.07109258955404
 10
714.4352378003334
 20
261.0825125167771
 10
612.935915937252
 20
261.0825125167771
  0
ARC
  5
C1
330
17
100
AcDbEntity
  8
0
100
AcDbCircle
 10
612.935915937252
 20
244.57680255316558
 30
0.0
 40
16.50570996361155
100
AcDbArc
 50
90.0
 51
270.0
  0
ARC
  5
C2
330
17
100
AcDbEntity
  8
0
100
AcDbCircle
 10
714.4352378003334
 20
244.57680255316558
 30
0.0
 40
16.50570996361155
100
AcDbArc
 50
270.0
 51
90.0
  0
CIRCLE
  5
C3
330
17
100
AcDbEntity
  8
0
100
AcDbCircle
 10
753.6864910082685
 20
245.81663583387748
 30
0.0
 40
17.745543244323432
  0
LWPOLYLINE
  5
C4
330
17
100
AcDbEntity
  8
0
100
AcDbPolyline
 90
7
 70
1
 10
776.4320342525918
 20
228.07109258955404
 10
833.2752978183883
 20
228.07109258955404
 10
833.2752978183883
 20
246.64592635221175
 10
795.0068680152496
 20
246.64592635221175
 10
795.0068680152496
 20
295.22433209898486
 10
776.4320342525918
 20
295.22433209898486
 10
776.4320342525918
 20
228.07109258955404
  0
LWPOLYLINE
  5
C5
330
17
100
AcDbEntity
  8
0
100
AcDbPolyline
 90
7
 70
1
 10
0.0
 20
327.2361387222819
 10
91.63545316972079
 20
327.2361387222819
 10
91.63545316972079
 20
354.34160427296143
 10
27.10546555067951
 20
354.34160427296143
 10
27.10546555067951
 20
452.37703900923884
 10
0.0
 20
452.37703900923884
 10
0.0
 20
327.2361387222819
  0
LWPOLYLINE
  5
C6
330
17
100
AcDbEntity
  8
0
100
AcDbPolyline
 90
9
 70
1
 10
96.63545316972079
 20
327.2361387222819
 10
116.04804709476981
 20
327.2361387222819
 10
116.04804709476981
 20
370.68867448290206
 10
151.95273833353255
 20
370.68867448290206
 10
151.95273833353255
 20
327.2361387222819
 10
171.3653322585816
 20
327.2361387222819
 10
171.3653322585816
 20
390.10126840795107
 10
96.63545316972079
 20
390.10126840795107
 10
96.63545316972079
 20
327.2361387222819
  0
LWPOLYLINE
  5
C7
330
17
100
AcDbEntity
  8
0
100
AcDbPolyline
 90
9
 70
1
 10
176.3653322585816
 20
327.2361387222819
 10
215.98952915477633
 20
327.2361387222819
 10
215.98952915477633
 20
336.28523078651705
 10
200.70197673879653
 20
336.28523078651705
 10
200.70197673879653
 20
354.96222663141583
 10
191.6528846745614
 20
354.96222663141583
 10
191.6528846745614
 20
336.28523078651705
 10
176.3653322585816
 20
336.28523078651705
 10
176.3653322585816
 20
327.2361387222819
  0
CIRCLE
  5
C8
330
17
100
AcDbEntity
  8
0
100
AcDbCircle
 10
231.19326464852207
 20
337.43987421602765
 30
0.0
 40
10.203735493745725
  0
LWPOLYLINE
  5
C9
330
17
100
AcDbEntity
  8
0
100
AcDbPolyline
 90
9
 70
1
 10
246.39700014226779
 20
327.2361387222819
 10
293.70683257301715
 20
327.2361387222819
 10
293.70683257301715
 20
336.88546182550874
 10
274.8765779092559
 20
336.88546182550874
 10
274.8765779092559
 20
362.37354164508196
 10
265.22725480602907
 20
362.37354164508196
 10
265.22725480602907
 20
336.88546182550874
 10
246.39700014226779
 20
336.88546182550874
 10
246.39700014226779
 20
327.2361387222819
  0
LWPOLYLINE
  5
CA
330
17
100
AcDbEntity
  8
0
100
AcDbPolyline
 90
7
 70
1
 10
298.70683257301715
 20
327.2361387222819
 10
346.3602187772225
 20
327.2361387222819
 10
346.3602187772225
 20
340.91342303467314
 10
312.3841168854084
 20
340.91342303467314
 10
312.3841168854084
 20
389.6822182208102
 10
298.70683257301715
 20
389.6822182208102
 10
298.70683257301715
 20
327.2361387222819
  0
LWPOLYLINE
  5
CB
330
17
100
AcDbEntity
  8
0
100
AcDbPolyline
 90
4
 70
1
 10
360.41979138979536
 20
327.2361387222819
 10
427.7363636309057
 20
327.2361387222819
 10
427.7363636309057
 20
345.35528394742767
 10
360.41979138979536
 20
345.35528394742767
  0
ARC
  5
CC
330
17
100
AcDbEntity
  8
0
100
AcDbCircle
 10
360.41979138979536
 20
336.2957113348548
 30
0.0
 40
9.059572612572893
100
AcDbArc
 50
90.0
 51
270.0
  0
ARC
  5
CD
330
17
100
AcDbEntity
  8
0
100
AcDbCircle
 10
427.7363636309057
 20
336.2957113348548
 30
0.0
 40
9.059572612572893
100
AcDbArc
 50
270.0
 51
90.0
  0
LWPOLYLINE
  5
CE
330
17
100
AcDbEntity
  8
0
100
AcDbPolyline
 90
6
 70
1
 10
459.3991987889115
 20
336.03776999499837
 10
454.9983831525533
 20
343.6602062719144
 10
446.1967518798368
 20
343.6602062719144
 10
441.7959362434786
 20
336.03776999499837
 10
446.1967518798368
 20
328.41533371808237
 10
454.9983831525533
 20
328.41533371808237
  0
LWPOLYLINE
  5
CF
330
17
100
AcDbEntity
  8
0
100
AcDbPolyline
 90
6
 70
1
 10
515.579834866728
 20
352.8264567611901
 10
502.78467584727383
 20
374.9883222738078
 10
477.1943578083656
 20
374.9883222738078
 10
464.3991987889115
 20
352.8264567611901
 10
477.1943578083656
 20
330.66459124857244
 10
502.78467584727383
 20
330.6645912485724
  0
LWPOLYLINE
  5
D0
330
17
100
AcDbEntity
  8
0
100
AcDbPolyline
 90
5
 70
1
 10
520.579834866728
 20
327.2361387222819
 10
556.8436510628574
 20
327.2361387222819
 10
556.8436510628574
 20
354.0178881510856
 10
520.579834866728
 20
354.0178881510856
 10
520.579834866728
 20
327.2361387222819
  0
LWPOLYLINE
  5
D1
330
17
100
AcDbEntity
  8
0
100
AcDbPolyline
 90
6
 70
1
 10
588.7019085814909
 20
340.6652674815987
 10
581.9873442018325
 20
352.2952341378592
 10
568.5582154425158
 20
352.2952341378592
 10
561.8436510628574
 20
340.6652674815987
 10
568.5582154425158
 20
329.0353008253382
 10
581.9873442018325
 20
329.03530082533814
  0
LWPOLYLINE
  5
D2
330
17
100
AcDbEntity
  8
0
100
AcDbPolyline
 90
7
 70
1
 10
593.7019085814909
 20
327.2361387222819
 10
617.4240432288283
 20
327.2361387222819
 10
617.4240432288283
 20
334.59764354521616
 10
601.0634134044251
 20
334.59764354521616
 10
601.0634134044251
 20
354.2002640854577
 10
593.7019085814909
 20
354.2002640854577
 10
593.7019085814909
 20
327.2361387222819
  0
LWPOLYLINE
  5
D3
330
17
100
AcDbEntity
  8
0
100
AcDbPolyline
 90
4
 70
1
 10
631.3488479973382
 20
327.2361387222819
 10
699.4001066053829
 20
327.2361387222819
 10
699.4001066053829
 20
345.08574825930185
 10
631.3488479973382
 20
345.08574825930185
  0
ARC
  5
D4
330
17
100
AcDbEntity
  8
0
100
AcDbCircle
 10
631.3488479973382
 20
336.16094349079185
 30
0.0
 40
8.924804768509969
100
AcDbArc
 50
90.0
 51
270.0
  0
ARC
  5
D5
330
17
100
AcDbEntity
  8
0
100
AcDbCircle
 10
699.4001066053829
 20
336.16094349079185
 30
0.0
 40
8.924804768509969
100
AcDbArc
 50
270.0
 51
90.0
  0
LWPOLYLINE
  5
D6
330
17
100
AcDbEntity
  8
0
100
AcDbPolyline
 90
4
 70
1
 10
722.0091085744959
 20
327.2361387222819
 10
766.2280977814387
 20
327.2361387222819
 10
766.2280977814387
 20
344.60453312348807
 10
722.0091085744959
 20
344.60453312348807
  0
ARC
  5
D7
330
17
100
AcDbEntity
  8
0
100
AcDbCircle
 10
722.0091085744959
 20
335.920335922885
 30
0.0
 40
8.684197200603066
100
AcDbArc
 50
90.0
 51
270.0
  0
ARC
  5
D8
330
17
100
AcDbEntity
  8
0
100
AcDbCircle
 10
766.2280977814387
 20
335.920335922885
 30
0.0
 40
8.684197200603066
100
AcDbArc
 50
270.0
 51
90.0
  0
LWPOLYLINE
  5
D9
330
17
100
AcDbEntity
  8
0
100
AcDbPolyline
 90
7
 70
1
 10
779.9122949820418
 20
327.2361387222819
 10
795.359921064714
 20
327.2361387222819
 10
795.359921064714
 20
332.18337324456724
 10
784.859529504327
 20
332.18337324456724
 10
784.859529504327
 20
348.26211353207464
 10
779.9122949820418
 20
348.26211353207464
 10
779.9122949820418
 20
327.2361387222819
  0
LWPOLYLINE
  5
DA
330
17
100
AcDbEntity
  8
0
100
AcDbPolyline
 90
9
 70
1
 10
0.0
 20
457.37703900923884
 10
4.027435096382962
 20
457.37703900923884
 10
4.027435096382962
 20
470.71978389808226
 10
13.819497449284295
 20
470.71978389808226
 10
13.819497449284295
 20
457.37703900923884
 10
17.846932545667258
 20
457.37703900923884
 10
17.846932545667258
 20
474.74721899446524
 10
0.0
 20
474.74721899446524
 10
0.0
 20
457.37703900923884
  0
LWPOLYLINE
  5
DB
330
17
100
AcDbEntity
  8
0
100
AcDbPolyline
 90
4
 70
1
 10
37.77195937743777
 20
457.37703900923884
 10
137.71915132551086
 20
457.37703900923884
 10
137.71915132551086
 20
487.22709267277986
 10
37.77195937743777
 20
487.22709267277986
  0
ARC
  5
DC
330
17
100
AcDbEntity
  8
0
100
AcDbCircle
 10
37.77195937743777
 20
472.3020658410094
 30
0.0
 40
14.925026831770511
100
AcDbArc
 50
90.0
 51
270.0
  0
ARC
  5
DD
330
17
100
AcDbEntity
  8
0
100
AcDbCircle
 10
137.71915132551086
 20
472.3020658410094
 30
0.0
 40
14.925026831770511
100
AcDbArc
 50
270.0
 51
90.0
  0
LWPOLYLINE
  5
DE
330
17
100
AcDbEntity
  8
0
100
AcDbPolyline
 90
6
 70
1
 10
202.6761776465343
 20
479.8930387538653
 10
191.41817777422108
 20
499.39246652431575
 10
168.9021780295946
 20
499.39246652431575
 10
157.64417815728137
 20
479.8930387538653
 10
168.9021780295946
 20
460.3936109834149
 10
191.41817777422105
 20
460.3936109834149
  0
LWPOLYLINE
  5
DF
330
17
100
AcDbEntity
  8
0
100
AcDbPolyline
 90
7
 70
1
 10
207.67617764653428
 20
457.37703900923884
 10
241.52411149744654
 20
457.37703900923884
 10
241.52411149744654
 20
466.78140445983485
 10
217.08054309713026
 20
466.78140445983485
 10
217.08054309713026
 20
499.0007491550538
 10
207.67617764653428
 20
499.0007491550538
 10
207.67617764653428
 20
457.37703900923884
  0
LWPOLYLINE
  5
E0
330
17
100
AcDbEntity
  8
0
100
AcDbPolyline
 90
6
 70
1
 10
302.12182519251115
 20
485.17589585677115
 10
288.222396768745
 20
509.2504120829011
 10
260.4235399212127
 20
509.2504120829011
 10
246.52411149744657
 20
485.17589585677115
 10
260.4235399212127
 20
461.1013796306412
 10
288.222396768745
 20
461.1013796306412
  0
LWPOLYLINE
  5
E1
330
17
100
AcDbEntity
  8
0
100
AcDbPolyline
 90
9
 70
1
 10
307.1218251925111
 20
457.37703900923884
 10
315.9278802731549
 20
457.37703900923884
 10
315.9278802731549
 20
475.18006968835095
 10
327.9062143989915
 20
475.18006968835095
 10
327.9062143989915
 20
457.37703900923884
 10
336.7122694796353
 20
457.37703900923884
 10
336.7122694796353
 20
483.9861247689948
 10
307.1218251925111
 20
483.9861247689948
 10
307.1218251925111
 20
457.37703900923884
  0
LWPOLYLINE
  5
E2
330
17
100
AcDbEntity
  8
0
100
AcDbPolyline
 90
3
 70
1
 10
341.7122694796353
 20
457.37703900923884
 10
376.16229259045684
 20
457.37703900923884
 10
358.93728103504606
 20
487.21163418417126
  0
LWPOLYLINE
  5
E3
330
17
100
AcDbEntity
  8
0
100
AcDbPolyline
 90
5
 70
1
 10
381.16229259045684
 20
457.37703900923884
 10
455.73936138852815
 20
457.37703900923884
 10
455.73936138852815
 20
485.481666018506
 10
381.16229259045684
 20
485.481666018506
 10
381.16229259045684
 20
457.37703900923884
  0
LWPOLYLINE
  5
E4
330
17
100
AcDbEntity
  8
0
100
AcDbPolyline
 90
7
 70
1
 10
460.73936138852815
 20
457.37703900923884
 10
486.96804802277114
 20
457.37703900923884
 10
486.96804802277114
 20
465.5349674231703
 10
468.8972898024596
 20
465.5349674231703
 10
468.8972898024596
 20
490.66034433237
 10
460.73936138852815
 20
490.66034433237
 10
460.73936138852815
 20
457.37703900923884
  0
LWPOLYLINE
  5
E5
330
17
100
AcDbEntity
  8
0
100
AcDbPolyline
 90
5
 70
1
 10
491.96804802277114
 20
457.37703900923884
 10
745.7895087978512
 20
457.37703900923884
 10
745.7895087978512
 20
545.8255434949208
 10
491.96804802277114
 20
545.8255434949208
 10
491.96804802277114
 20
457.37703900923884
  0
LWPOLYLINE
  5
E6
330
17
100
AcDbEntity
  8
0
100
AcDbPolyline
 90
7
 70
1
 10
750.7895087978513
 20
457.37703900923884
 10
776.1447056812549
 20
457.37703900923884
 10
776.1447056812549
 20
465.29711862979144
 10
758.709588418404
 20
465.29711862979144
 10
758.709588418404
 20
490.3135139457702
 10
750.7895087978513
 20
490.3135139457702
 10
750.7895087978513
 20
457.37703900923884
  0
LWPOLYLINE
  5
E7
330
17
100
AcDbEntity
  8
0
100
AcDbPolyline
 90
3
 70
1
 10
781.1447056812549
 20
457.37703900923884
 10
806.5747777995465
 20
457.37703900923884
 10
793.8597417404008
 20
479.4001274837497
  0
LWPOLYLINE
  5
E8
330
17
100
AcDbEntity
  8
0
100
AcDbPolyline
 90
9
 70
1
 10
0.0
 20
550.8255434949208
 10
14.035712744239257
 20
550.8255434949208
 10
14.035712744239257
 20
576.629358051216
 10
33.22118831457012
 20
576.629358051216
 10
33.22118831457012
 20
550.8255434949208
 10
47.256901058809376
 20
550.8255434949208
 10
47.256901058809376
 20
590.6650707954552
 10
0.0
 20
590.6650707954552
 10
0.0
 20
550.8255434949208
  0
LWPOLYLINE
  5
E9
330
17
100
AcDbEntity
  8
0
100
AcDbPolyline
 90
9
 70
1
 10
52.256901058809376
 20
550.8255434949208
 10
120.38535263091772
 20
550.8255434949208
 10
120.38535263091772
 20
567.6320716664526
 10
94.72439093062945
 20
567.6320716664526
 10
94.72439093062945
 20
600.656107988468
 10
77.91786275909766
 20
600.656107988468
 10
77.91786275909766
 20
567.6320716664526
 10
52.256901058809376
 20
567.6320716664526
 10
52.256901058809376
 20
550.8255434949208
  0
LWPOLYLINE
  5
EA
330
17
100
AcDbEntity
  8
0
100
AcDbPolyline
 90
4
 70
1
 10
139.4592726527455
 20
550.8255434949208
 10
271.59411131483773
 20
550.8255434949208
 10
271.59411131483773
 20
578.9733835385764
 10
139.4592726527455
 20
578.9733835385764
  0
ARC
  5
EB
330
17
100
AcDbEntity
  8
0
100
AcDbCircle
 10
139.4592726527455
 20
564.8994635167486
 30
0.0
 40
14.073920021827776
100
AcDbArc
 50
90.0
 51
270.0
  0
ARC
  5
EC
330
17
100
AcDbEntity
  8
0
100
AcDbCircle
 10
271.59411131483773
 20
564.8994635167486
 30
0.0
 40
14.073920021827776
100
AcDbArc
 50
270.0
 51
90.0
  0
LWPOLYLINE
  5
ED
330
17
100
AcDbEntity
  8
0
100
AcDbPolyline
 90
7
 70
1
 10
290.66803133666554
 20
550.8255434949208
 10
316.22497713652183
 20
550.8255434949208
 10
316.22497713652183
 20
559.6615984276921
 10
299.5040862694368
 20
559.6615984276921
 10
299.5040862694368
 20
584.7484369618409
 10
290.66803133666554
 20
584.7484369618409
 10
290.66803133666554
 20
550.8255434949208
  0
LWPOLYLINE
  5
EE
330
17
100
AcDbEntity
  8
0
100
AcDbPolyline
 90
6
 70
1
 10
373.89172266029243
 20
577.158916256806
 10
360.72503627934975
 20
599.9642860359239
 10
334.3916635174645
 20
599.9642860359239
 10
321.22497713652183
 20
577.158916256806
 10
334.39166351746445
 20
554.3535464776882
 10
360.72503627934975
 20
554.3535464776882
  0
CIRCLE
  5
EF
330
17
100
AcDbEntity
  8
0
100
AcDbCircle
 10
388.69923937142664
 20
560.6330602060551
 30
0.0
 40
9.807516711134282
  0
LWPOLYLINE
  5
F0
330
17
100
AcDbEntity
  8
0
100
AcDbPolyline
 90
4
 70
1
 10
412.1256593829093
 20
550.8255434949208
 10
491.7019127145838
 20
550.8255434949208
 10
491.7019127145838
 20
568.0633500956176
 10
412.1256593829093
 20
568.0633500956176
  0
ARC
  5
F1
330
17
100
AcDbEntity
  8
0
100
AcDbCircle
 10
412.1256593829093
 20
559.4444467952692
 30
0.0
 40
8.618903300348368
100
AcDbArc
 50
90.0
 51
270.0
  0
ARC
  5
F2
330
17
100
AcDbEntity
  8
0
100
AcDbCircle
 10
491.7019127145838
 20
559.4444467952692
 30
0.0
 40
8.618903300348368
100
AcDbArc
 50
270.0
 51
90.0
  0
LWPOLYLINE
  5
F3
330
17
100
AcDbEntity
  8
0
100
AcDbPolyline
 90
4
 70
1
 10
510.01391410565617
 20
550.8255434949208
 10
539.7750815270864
 20
550.8255434949208
 10
539.7750815270864
 20
560.2117396763688
 10
510.01391410565617
 20
560.2117396763688
  0
ARC
  5
F4
330
17
100
AcDbEntity
  8
0
100
AcDbCircle
 10
510.01391410565617
 20
555.5186415856448
 30
0.0
 40
4.693098090723971
100
AcDbArc
 50
90.0
 51
270.0
  0
ARC
  5
F5
330
17
100
AcDbEntity
  8
0
100
AcDbCircle
 10
539.7750815270864
 20
555.5186415856448
 30
0.0
 40
4.693098090723971
100
AcDbArc
 50
270.0
 51
90.0
  0
LWPOLYLINE
  5
F6
330
17
100
AcDbEntity
  8
0
100
AcDbPolyline
 90
7
 70
1
 10
549.4681796178104
 20
550.8255434949208
 10
576.9470668238126
 20
550.8255434949208
 10
576.9470668238126
 20
559.6574839466542
 10
558.3001200695438
 20
559.6574839466542
 10
558.3001200695438
 20
586.1073979889082
 10
549.4681796178104
 20
586.1073979889082
 10
549.4681796178104
 20
550.8255434949208
  0
LWPOLYLINE
  5
F7
330
17
100
AcDbEntity
  8
0
100
AcDbPolyline
 90
4
 70
1
 10
595.544396786913
 20
550.8255434949208
 10
712.52543681372
 20
550.8255434949208
 10
712.52543681372
 20
578.0202034211217
 10
595.544396786913
 20
578.0202034211217
  0
ARC
  5
F8
330
17
100
AcDbEntity
  8
0
100
AcDbCircle
 10
595.544396786913
 20
564.4228734580212
 30
0.0
 40
13.597329963100417
100
AcDbArc
 50
90.0
 51
270.0
  0
ARC
  5
F9
330
17
100
AcDbEntity
  8
0
100
AcDbCircle
 10
712.52543681372
 20
564.4228734580212
 30
0.0
 40
13.597329963100417
100
AcDbArc
 50
270.0
 51
90.0
  0
LWPOLYLINE
  5
FA
330
17
100
AcDbEntity
  8
0
100
AcDbPolyline
 90
6
 70
1
 10
779.5911334855599
 20
575.0597268492905
 10
767.4740418083751
 20
596.0471452741448
 10
743.2398584540053
 20
596.0471452741448
 10
731.1227667768204
 20
575.0597268492905
 10
743.2398584540052
 20
554.0723084244364
 10
767.474041808375
 20
554.0723084244363
  0
CIRCLE
  5
FB
330
17
100
AcDbEntity
  8
0
100
AcDbCircle
 10
829.1907439891065
 20
595.4251539984674
 30
0.0
 40
44.599610503546664
  0
LWPOLYLINE
  5
FC
330
17
100
AcDbEntity
  8
0
100
AcDbPolyline
 90
3
 70
1
 10
0.0
 20
645.0247645020141
 10
29.93191182078014
 20
645.0247645020141
 10
14.96595591039007
 20
670.9465605226454
  0
LWPOLYLINE
  5
FD
330
17
100
AcDbEntity
  8
0
100
AcDbPolyline
 90
9
 70
1
 10
34.931911820780144
 20
645.0247645020141
 10
42.04085210103345
 20
645.0247645020141
 10
42.04085210103345
 20
662.0347823400493
 10
57.88491745227975
 20
662.0347823400493
 10
57.88491745227975
 20
645.0247645020141
 10
64.99385773253306
 20
645.0247645020141
 10
64.99385773253306
 20
669.1437226203027
 10
34.931911820780144
 20
669.1437226203027
 10
34.931911820780144
 20
645.0247645020141
  0
LWPOLYLINE
  5
FE
330
17
100
AcDbEntity
  8
0
100
AcDbPolyline
 90
9
 70
1
 10
69.99385773253306
 20
645.0247645020141
 10
108.08770417564998
 20
645.0247645020141
 10
108.08770417564998
 20
653.6903729031745
 10
93.37358515467169
 20
653.6903729031745
 10
93.37358515467169
 20
672.1197832536486
 10
84.70797675351135
 20
672.1197832536486
 10
84.70797675351135
 20
653.6903729031745
 10
69.99385773253306
 20
653.6903729031745
 10
69.99385773253306
 20
645.0247645020141
  0
LWPOLYLINE
  5
FF
330
17
100
AcDbEntity
  8
0
100
AcDbPolyline
 90
9
 70
1
 10
113.08770417564998
 20
645.0247645020141
 10
136.1103606999957
 20
645.0247645020141
 10
136.1103606999957
 20
717.16081982471
 10
189.81737666712584
 20
717.16081982471
 10
189.81737666712584
 20
645.0247645020141
 10
212.84003319147158
 20
645.0247645020141
 10
212.84003319147158
 20
740.1834763490557
 10
113.08770417564998
 20
740.1834763490557
 10
113.08770417564998
 20
645.0247645020141
  0
LWPOLYLINE
  5
100
330
17
100
AcDbEntity
  8
0
100
AcDbPolyline
 90
7
 70
1
 10
217.84003319147158
 20
645.0247645020141
 10
312.8960634962493
 20
645.0247645020141
 10
312.8960634962493
 20
677.6630545853039
 10
250.47832327476138
 20
677.6630545853039
 10
250.47832327476138
 20
752.9320463769791
 10
217.84003319147158
 20
752.9320463769791
 10
217.84003319147158
 20
645.0247645020141
  0
LWPOLYLINE
  5
101
330
17
100
AcDbEntity
  8
0
100
AcDbPolyline
 90
9
 70
1
 10
317.8960634962493
 20
645.0247645020141
 10
321.9760085639966
 20
645.0247645020141
 10
321.9760085639966
 20
657.4941562413106
 10
332.3515108216135
 20
657.4941562413106
 10
332.3515108216135
 20
645.0247645020141
 10
336.43145588936073
 20
645.0247645020141
 10
336.43145588936073
 20
661.5741013090578
 10
317.8960634962493
 20
661.5741013090578
 10
317.8960634962493
 20
645.0247645020141
  0
LWPOLYLINE
  5
102
330
17
100
AcDbEntity
  8
0
100
AcDbPolyline
 90
3
 70
1
 10
341.43145588936073
 20
645.0247645020141
 10
379.6952846568587
 20
645.0247645020141
 10
360.5633702731097
 20
678.1622122607251
  0
LWPOLYLINE
  5
103
330
17
100
AcDbEntity
  8
0
100
AcDbPolyline
 90
3
 70
1
 10
384.6952846568587
 20
645.0247645020141
 10
421.9506669095771
 20
645.0247645020141
 10
403.3229757832179
 20
677.2888719605681
  0
LWPOLYLINE
  5
104
330
17
100
AcDbEntity
  8
0
100
AcDbPolyline
 90
5
 70
1
 10
426.9506669095771
 20
645.0247645020141
 10
453.9270516144261
 20
645.0247645020141
 10
453.9270516144261
 20
704.783637966962
 10
426.9506669095771
 20
704.783637966962
 10
426.9506669095771
 20
645.0247645020141
  0
LWPOLYLINE
  5
105
330
17
100
AcDbEntity
  8
0
100
AcDbPolyline
 90
5
 70
1
 10
458.9270516144261
 20
645.0247645020141
 10
485.9843944689563
 20
645.0247645020141
 10
485.9843944689563
 20
729.5810534310901
 10
458.9270516144261
 20
729.5810534310901
 10
458.9270516144261
 20
645.0247645020141
  0
LWPOLYLINE
  5
106
330
17
100
AcDbEntity
  8
0
100
AcDbPolyline
 90
7
 70
1
 10
490.9843944689563
 20
645.0247645020141
 10
530.2240198186762
 20
645.0247645020141
 10
530.2240198186762
 20
656.1574647049631
 10
502.11709467190525
 20
656.1574647049631
 10
502.11709467190525
 20
688.4464676136905
 10
490.9843944689563
 20
688.4464676136905
 10
490.9843944689563
 20
645.0247645020141
  0
CIRCLE
  5
107
330
17
100
AcDbEntity
  8
0
100
AcDbCircle
 10
577.6556431923029
 20
687.4563878756409
 30
0.0
 40
42.43162337362671
  0
LWPOLYLINE
  5
108
330
17
100
AcDbEntity
  8
0
100
AcDbPolyline
 90
5
 70
1
 10
625.0872665659297
 20
645.0247645020141
 10
645.3625983983079
 20
645.0247645020141
 10
645.3625983983079
 20
694.8099562787794
 10
625.0872665659297
 20
694.8099562787794
 10
625.0872665659297
 20
645.0247645020141
  0
LWPOLYLINE
  5
109
330
17
100
AcDbEntity
  8
0
100
AcDbPolyline
 90
3
 70
1
 10
650.3625983983079
 20
645.0247645020141
 10
677.304085728333
 20
645.0247645020141
 10
663.8333420633205
 20
668.3567769455525
  0
LWPOLYLINE
  5
10A
330
17
100
AcDbEntity
  8
0
100
AcDbPolyline
 90
6
 70
1
 10
728.807053184779
 20
668.2762482302371
 10
717.1813113206675
 20
688.4126238145587
 10
693.9298275924444
 20
688.4126238145587
 10
682.304085728333
 20
668.2762482302371
 10
693.9298275924444
 20
648.1398726459155
 10
717.1813113206674
 20
648.1398726459155
  0
LWPOLYLINE
  5
10B
330
17
100
AcDbEntity
  8
0
100
AcDbPolyline
 90
9
 70
1
 10
733.807053184779
 20
645.0247645020141
 10
756.6408087335835
 20
645.0247645020141
 10
756.6408087335835
 20
650.0519324921836
 10
747.7375149542659
 20
650.0519324921836
 10
747.7375149542659
 20
660.8181876333298
 10
742.7103469640965
 20
660.8181876333298
 10
742.7103469640965
 20
650.0519324921836
 10
733.807053184779
 20
650.0519324921836
 10
733.807053184779
 20
645.0247645020141
  0
LWPOLYLINE
  5
10C
330
17
100
AcDbEntity
  8
0
100
AcDbPolyline
 90
6
 70
1
 10
818.7120420485589
 20
673.5603811595018
 10
804.4442337198151
 20
698.2729500975405
 10
775.9086170623274
 20
698.2729500975405
 10
761.6408087335835
 20
673.5603811595018
 10
775.9086170623274
 20
648.8478122214632
 10
804.4442337198151
 20
648.8478122214631
  0
LWPOLYLINE
  5
10D
330
17
100
AcDbEntity
  8
0
100
AcDbPolyline
 90
6
 70
1
 10
19.24425299879488
 20
767.5541728763766
 10
14.433189749096162
 20
775.8871788632822
 10
4.811063249698722
 20
775.8871788632822
 10
0.0
 20
767.5541728763766
 10
4.811063249698716
 20
759.221166889471
 10
14.433189749096154
 20
759.221166889471
  0
LWPOLYLINE
  5
10E
330
17
100
AcDbEntity
  8
0
100
AcDbPolyline
 90
5
 70
1
 10
24.24425299879488
 20
757.9320463769791
 10
46.3055902304438
 20
757.9320463769791
 10
46.3055902304438
 20
833.791240339963
 10
24.24425299879488
 20
833.791240339963
 10
24.24425299879488
 20
757.9320463769791
  0
LWPOLYLINE
  5
10F
330
17
100
AcDbEntity
  8
0
100
AcDbPolyline
 90
9
 70
1
 10
51.3055902304438
 20
757.9320463769791
 10
82.28687008802358
 20
757.9320463769791
 10
82.28687008802358
 20
764.7375461444667
 10
70.1989800429775
 20
764.7375461444667
 10
70.1989800429775
 20
783.0399359001444
 10
63.39348027548988
 20
783.0399359001444
 10
63.39348027548988
 20
764.7375461444667
 10
51.3055902304438
 20
764.7375461444667
 10
51.3055902304438
 20
757.9320463769791
  0
LWPOLYLINE
  5
110
330
17
100
AcDbEntity
  8
0
100
AcDbPolyline
 90
6
 70
1
 10
129.31113663792968
 20
778.9441796519321
 10
118.80507000045316
 20
797.1412208557458
 10
97.79293672550011
 20
797.1412208557458
 10
87.28687008802358
 20
778.9441796519321
 10
97.7929367255001
 20
760.7471384481184
 10
118.80507000045314
 20
760.7471384481184
  0
LWPOLYLINE
  5
111
330
17
100
AcDbEntity
  8
0
100
AcDbPolyline
 90
6
 70
1
 10
153.19047645624983
 20
767.3717162861392
 10
148.4706415016698
 20
775.5467102308114
 10
139.03097159250973
 20
775.5467102308114
 10
134.31113663792968
 20
767.3717162861392
 10
139.0309715925097
 20
759.1967223414671
 10
148.47064150166977
 20
759.196722341467
  0
LWPOLYLINE
  5
112
330
17
100
AcDbEntity
  8
0
100
AcDbPolyline
 90
3
 70
1
 10
158.19047645624983
 20
757.9320463769791
 10
185.4274337175762
 20
757.9320463769791
 10
171.80895508691302
 20
781.5199432870787
  0
LWPOLYLINE
  5
113
330
17
100
AcDbEntity
  8
0
100
AcDbPolyline
 90
6
 70
1
 10
215.97010842776854
 20
770.7033837320753
 10
209.58443975022047
 20
781.7636863218897
 10
196.81310239512428
 20
781.7636863218897
 10
190.4274337175762
 20
770.7033837320753
 10
196.81310239512428
 20
759.6430811422608
 10
209.58443975022044
 20
759.6430811422608
  0
LWPOLYLINE
  5
114
330
17
100
AcDbEntity
  8
0
100
AcDbPolyline
 90
3
 70
1
 10
220.97010842776854
 20
757.9320463769791
 10
241.52358243641282
 20
757.9320463769791
 10
231.24684543209068
 20
775.7318770044882
  0
LWPOLYLINE
  5
115
330
17
100
AcDbEntity
  8
0
100
AcDbPolyline
 90
4
 70
1
 10
253.46746881773151
 20
757.9320463769791
 10
311.69717761779776
 20
757.9320463769791
 10
311.69717761779776
 20
771.8198191396165
 10
253.46746881773151
 20
771.8198191396165
  0
ARC
  5
116
330
17
100
AcDbEntity
  8
0
100
AcDbCircle
 10
253.46746881773151
 20
764.8759327582978
 30
0.0
 40
6.943886381318704
100
AcDbArc
 50
90.0
 51
270.0
  0
ARC
  5
117
330
17
100
AcDbEntity
  8
0
100
AcDbCircle
 10
311.69717761779776
 20
764.8759327582978
 30
0.0
 40
6.943886381318704
100
AcDbArc
 50
270.0
 51
90.0
  0
LWPOLYLINE
  5
118
330
17
100
AcDbEntity
  8
0
100
AcDbPolyline
 90
6
 70
1
 10
342.23274175248775
 20
767.2278852536647
 10
337.5848223141449
 20
775.2783178703614
 10
328.2889834374593
 20
775.2783178703614
 10
323.64106399911645
 20
767.2278852536647
 10
328.2889834374593
 20
759.1774526369679
 10
337.5848223141449
 20
759.1774526369679
  0
LWPOLYLINE
  5
119
330
17
100
AcDbEntity
  8
0
100
AcDbPolyline
 90
4
 70
1
 10
352.71163378516167
 20
757.9320463769791
 10
386.7651496631851
 20
757.9320463769791
 10
386.7651496631851
 20
768.889830442327
 10
352.71163378516167
 20
768.889830442327
  0
ARC
  5
11A
330
17
100
AcDbEntity
  8
0
100
AcDbCircle
 10
352.71163378516167
 20
763.410938409653
 30
0.0
 40
5.478892032673947
100
AcDbArc
 50
90.0
 51
270.0
  0
ARC
  5
11B
330
17
100
AcDbEntity
  8
0
100
AcDbCircle
 10
386.7651496631851
 20
763.410938409653
 30
0.0
 40
5.478892032673947
100
AcDbArc
 50
270.0
 51
90.0
  0
LWPOLYLINE
  5
11C
330
17
100
AcDbEntity
  8
0
100
AcDbPolyline
 90
5
 70
1
 10
397.2440416958591
 20
757.9320463769791
 10
422.8887574861993
 20
757.9320463769791
 10
422.8887574861993
 20
831.7652776385282
 10
397.2440416958591
 20
831.7652776385282
 10
397.2440416958591
 20
757.9320463769791
  0
LWPOLYLINE
  5
11D
330
17
100
AcDbEntity
  8
0
100
AcDbPolyline
 90
9
 70
1
 10
427.8887574861993
 20
757.9320463769791
 10
434.2742598244028
 20
757.9320463769791
 10
434.2742598244028
 20
781.1336688714116
 10
452.9839594055604
 20
781.1336688714116
 10
452.9839594055604
 20
757.9320463769791
 10
459.3694617437639
 20
757.9320463769791
 10
459.3694617437639
 20
787.519171209615
 10
427.8887574861993
 20
787.519171209615
 10
427.8887574861993
 20
757.9320463769791
  0
LWPOLYLINE
  5
11E
330
17
100
AcDbEntity
  8
0
100
AcDbPolyline
 90
3
 70
1
 10
464.3694617437639
 20
757.9320463769791
 10
494.079401144167
 20
757.9320463769791
 10
479.22443144396544
 20
783.6616086426244
  0
LWPOLYLINE
  5
11F
330
17
100
AcDbEntity
  8
0
100
AcDbPolyline
 90
9
 70
1
 10
499.079401144167
 20
757.9320463769791
 10
524.1196021010122
 20
757.9320463769791
 10
524.1196021010122
 20
762.5299058746331
 10
513.8984313714167
 20
762.5299058746331
 10
513.8984313714167
 20
774.7760983080788
 10
509.30057187376264
 20
774.7760983080788
 10
509.30057187376264
 20
762.5299058746331
 10
499.079401144167
 20
762.5299058746331
 10
499.079401144167
 20
757.9320463769791
  0
LWPOLYLINE
  5
120
330
17
100
AcDbEntity
  8
0
100
AcDbPolyline
 90
9
 70
1
 10
529.1196021010122
 20
757.9320463769791
 10
594.7414020590182
 20
757.9320463769791
 10
594.7414020590182
 20
774.8205650908233
 10
570.3747614369373
 20
774.8205650908233
 10
570.3747614369373
 20
807.4005039624083
 10
553.4862427230931
 20
807.4005039624083
 10
553.4862427230931
 20
774.8205650908233
 10
529.1196021010122
 20
774.8205650908233
 10
529.1196021010122
 20
757.9320463769791
  0
LWPOLYLINE
  5
121
330
17
100
AcDbEntity
  8
0
100
AcDbPolyline
 90
7
 70
1
 10
599.7414020590182
 20
757.9320463769791
 10
618.9660542779646
 20
757.9320463769791
 10
618.9660542779646
 20
764.6435364330397
 10
606.4528921150788
 20
764.6435364330397
 10
606.4528921150788
 20
782.8524585226213
 10
599.7414020590182
 20
782.8524585226213
 10
599.7414020590182
 20
757.9320463769791
  0
LWPOLYLINE
  5
122
330
17
100
AcDbEntity
  8
0
100
AcDbPolyline
 90
9
 70
1
 10
623.9660542779646
 20
757.9320463769791
 10
659.8452394194281
 20
757.9320463769791
 10
659.8452394194281
 20
766.8527237606564
 10
646.365985540535
 20
766.8527237606564
 10
646.365985540535
 20
784.867594265297
 10
637.4453081568578
 20
784.867594265297
 10
637.4453081568578
 20
766.8527237606564
 10
623.9660542779646
 20
766.8527237606564
 10
623.9660542779646
 20
757.9320463769791
  0
LWPOLYLINE
  5
123
330
17
100
AcDbEntity
  8
0
100
AcDbPolyline
 90
7
 70
1
 10
664.8452394194281
 20
757.9320463769791
 10
704.8187023539687
 20
757.9320463769791
 10
704.8187023539687
 20
771.2446720130547
 10
678.1578650555037
 20
771.2446720130547
 10
678.1578650555037
 20
809.5772895342202
 10
664.8452394194281
 20
809.5772895342202
 10
664.8452394194281
 20
757.9320463769791
  0
LWPOLYLINE
  5
124
330
17
100
AcDbEntity
  8
0
100
AcDbPolyline
 90
6
 70
1
 10
738.3470647113201
 20
772.1962275556548
 10
731.2149741219822
 20
784.5493708205719
 10
716.9507929433065
 20
784.5493708205719
 10
709.8187023539687
 20
772.1962275556548
 10
716.9507929433065
 20
759.8430842907378
 10
731.2149741219822
 20
759.8430842907377
  0
LWPOLYLINE
  5
125
330
17
100
AcDbEntity
  8
0
100
AcDbPolyline
 90
6
 70
1
 10
770.9566816280699
 20
771.7368548353539
 10
764.0542773988825
 20
783.6921696546849
 10
750.2494689405075
 20
783.6921696546849
 10
743.3470647113202
 20
771.7368548353539
 10
750.2494689405075
 20
759.781540016023
 10
764.0542773988824
 20
759.781540016023
  0
LWPOLYLINE
  5
126
330
17
100
AcDbEntity
  8
0
100
AcDbPolyline
 90
4
 70
1
 10
786.8240983174298
 20
757.9320463769791
 10
876.8772345739226
 20
757.9320463769791
 10
876.8772345739226
 20
779.666879755699
 10
786.8240983174298
 20
779.666879755699
  0
ARC
  5
127
330
17
100
AcDbEntity
  8
0
100
AcDbCircle
 10
786.8240983174298
 20
768.7994630663391
 30
0.0
 40
10.867416689359965
100
AcDbArc
 50
90.0
 51
270.0
  0
ARC
  5
128
330
17
100
AcDbEntity
  8
0
100
AcDbCircle
 10
876.8772345739226
 20
768.7994630663391
 30
0.0
 40
10.867416689359965
100
AcDbArc
 50
270.0
 51
90.0
  0
LWPOLYLINE
  5
129
330
17
100
AcDbEntity
  8
0
100
AcDbPolyline
 90
9
 70
1
 10
0.0
 20
838.791240339963
 10
7.7587109263293685
 20
838.791240339963
 10
7.7587109263293685
 20
858.1774351990975
 10
19.62216504681619
 20
858.1774351990975
 10
19.62216504681619
 20
838.791240339963
 10
27.380875973145557
 20
838.791240339963
 10
27.380875973145557
 20
865.936146125427
 10
0.0
 20
865.936146125427
 10
0.0
 20
838.791240339963
  0
LWPOLYLINE
  5
12A
330
17
100
AcDbEntity
  8
0
100
AcDbPolyline
 90
9
 70
1
 10
32.38087597314556
 20
838.791240339963
 10
133.5946208756696
 20
838.791240339963
 10
133.5946208756696
 20
856.7292107256318
 10
91.95673361724197
 20
856.7292107256318
 10
91.95673361724197
 20
910.3653378771223
 10
74.0187632315732
 20
910.3653378771223
 10
74.0187632315732
 20
856.7292107256318
 10
32.38087597314556
 20
856.7292107256318
 10
32.38087597314556
 20
838.791240339963
  0
LWPOLYLINE
  5
12B
330
17
100
AcDbEntity
  8
0
100
AcDbPolyline
 90
4
 70
1
 10
146.3137979285073
 20
838.791240339963
 10
218.61087982378157
 20
838.791240339963
 10
218.61087982378157
 20
854.2295944456384
 10
146.3137979285073
 20
854.2295944456384
  0
ARC
  5
12C
330
17
100
AcDbEntity
  8
0
100
AcDbCircle
 10
146.3137979285073
 20
846.5104173928007
 30
0.0
 40
7.719177052837728
100
AcDbArc
 50
90.0
 51
270.0
  0
ARC
  5
12D
330
17
100
AcDbEntity
  8
0
100
AcDbCircle
 10
218.61087982378157
 20
846.5104173928007
 30
0.0
 40
7.719177052837728
100
AcDbArc
 50
270.0
 51
90.0
  0
LWPOLYLINE
  5
12E
330
17
100
AcDbEntity
  8
0
100
AcDbPolyline
 90
9
 70
1
 10
231.3300568766193
 20
838.791240339963
 10
262.99770184966417
 20
838.791240339963
 10
262.99770184966417
 20
846.3418641373308
 10
250.93919126182564
 20
846.3418641373308
 10
250.93919126182564
 20
864.4272995433906
 10
243.3885674644578
 20
864.4272995433906
 10
243.3885674644578
 20
846.3418641373308
 10
231.3300568766193
 20
846.3418641373308
 10
231.3300568766193
 20
838.791240339963
  0
LWPOLYLINE
  5
12F
330
17
100
AcDbEntity
  8
0
100
AcDbPolyline
 90
9
 70
1
 10
267.99770184966417
 20
838.791240339963
 10
277.82443770310397
 20
838.791240339963
 10
277.82443770310397
 20
857.9177539729128
 10
293.17947018549637
 20
857.9177539729128
 10
293.17947018549637
 20
838.791240339963
 10
303.00620603893617
 20
838.791240339963
 10
303.00620603893617
 20
867.7444898263526
 10
267.99770184966417
 20
867.7444898263526
 10
267.99770184966417
 20
838.791240339963
  0
LWPOLYLINE
  5
130
330
17
100
AcDbEntity
  8
0
100
AcDbPolyline
 90
9
 70
1
 10
308.00620603893617
 20
838.791240339963
 10
367.9223223159074
 20
838.791240339963
 10
367.9223223159074
 20
852.6497543074581
 10
344.89352116116936
 20
852.6497543074581
 10
344.89352116116936
 20
881.2389697972501
 10
331.03500719367423
 20
881.2389697972501
 10
331.03500719367423
 20
852.6497543074581
 10
308.00620603893617
 20
852.6497543074581
 10
308.00620603893617
 20
838.791240339963
  0
LWPOLYLINE
  5
131
330
17
100
AcDbEntity
  8
0
100
AcDbPolyline
 90
4
 70
1
 10
377.6706679857592
 20
838.791240339963
 10
416.282605600462
 20
838.791240339963
 10
416.282605600462
 20
848.2879316796666
 10
377.6706679857592
 20
848.2879316796666
  0
ARC
  5
132
330
17
100
AcDbEntity
  8
0
100
AcDbCircle
 10
377.6706679857592
 20
843.5395860098148
 30
0.0
 40
4.748345669851792
100
AcDbArc
 50
90.0
 51
270.0
  0
ARC
  5
133
330
17
100
AcDbEntity
  8
0
100
AcDbCircle
 10
416.282605600462
 20
843.5395860098148
 30
0.0
 40
4.748345669851792
100
AcDbArc
 50
270.0
 51
90.0
  0
LWPOLYLINE
  5
134
330
17
100
AcDbEntity
  8
0
100
AcDbPolyline
 90
9
 70
1
 10
426.0309512703138
 20
838.791240339963
 10
520.4386579289599
 20
838.791240339963
 10
520.4386579289599
 20
859.8755780175161
 10
483.7769734384134
 20
859.8755780175161
 10
483.7769734384134
 20
915.459282876343
 10
462.6926357608603
 20
915.459282876343
 10
462.6926357608603
 20
859.8755780175161
 10
426.0309512703138
 20
859.8755780175161
 10
426.0309512703138
 20
838.791240339963
  0
LWPOLYLINE
  5
135
330
17
100
AcDbEntity
  8
0
100
AcDbPolyline
 90
9
 70
1
 10
525.4386579289599
 20
838.791240339963
 10
531.7465006232179
 20
838.791240339963
 10
531.7465006232179
 20
857.0887250586203
 10
546.585260518148
 20
857.0887250586203
 10
546.585260518148
 20
838.791240339963
 10
552.893103212406
 20
838.791240339963
 10
552.893103212406
 20
863.3965677528784
 10
525.4386579289599
 20
863.3965677528784
 10
525.4386579289599
 20
838.791240339963
  0
LWPOLYLINE
  5
136
330
17
100
AcDbEntity
  8
0
100
AcDbPolyline
 90
7
 70
1
 10
557.893103212406
 20
838.791240339963
 10
589.5688059404566
 20
838.791240339963
 10
589.5688059404566
 20
847.4146834922857
 10
566.5165463647287
 20
847.4146834922857
 10
566.5165463647287
 20
878.912341957321
 10
557.893103212406
 20
878.912341957321
 10
557.893103212406
 20
838.791240339963
  0
LWPOLYLINE
  5
137
330
17
100
AcDbEntity
  8
0
100
AcDbPolyline
 90
3
 70
1
 10
594.5688059404566
 20
838.791240339963
 10
612.075383388962
 20
838.791240339963
 10
603.3220946647093
 20
853.9523811436884
  0
CIRCLE
  5
138
330
17
100
AcDbEntity
  8
0
100
AcDbCircle
 10
630.9720889395331
 20
852.6879458905341
 30
0.0
 40
13.896705550571093
  0
LWPOLYLINE
  5
139
330
17
100
AcDbEntity
  8
0
100
AcDbPolyline
 90
9
 70
1
 10
649.8687944901042
 20
838.791240339963
 10
698.5187709045979
 20
838.791240339963
 10
698.5187709045979
 20
848.7824534578042
 10
679.1893892562716
 20
848.7824534578042
 10
679.1893892562716
 20
876.4865579307648
 10
669.1981761384304
 20
876.4865579307648
 10
669.1981761384304
 20
848.7824534578042
 10
649.8687944901042
 20
848.7824534578042
 10
649.8687944901042
 20
838.791240339963
  0
LWPOLYLINE
  5
13A
330
17
100
AcDbEntity
  8
0
100
AcDbPolyline
 90
7
 70
1
 10
703.5187709045979
 20
838.791240339963
 10
748.4184579153018
 20
838.791240339963
 10
748.4184579153018
 20
851.4881576751853
 10
716.2156882398202
 20
851.4881576751853
 10
716.2156882398202
 20
888.9681016836946
 10
703.5187709045979
 20
888.9681016836946
 10
703.5187709045979
 20
838.791240339963
  0
LWPOLYLINE
  5
13B
330
17
100
AcDbEntity
  8
0
100
AcDbPolyline
 90
9
 70
1
 10
753.4184579153018
 20
838.791240339963
 10
779.0269853158785
 20
838.791240339963
 10
779.0269853158785
 20
844.8483175850562
 10
769.2512602381369
 20
844.8483175850562
 10
769.2512602381369
 20
859.670560720103
 10
763.1941829930436
 20
859.670560720103
 10
763.1941829930436
 20
844.8483175850562
 10
753.4184579153018
 20
844.8483175850562
 10
753.4184579153018
 20
838.791240339963
  0
CIRCLE
  5
13C
330
17
100
AcDbEntity
  8
0
100
AcDbCircle
 10
794.3310766265652
 20
849.0953316506497
 30
0.0
 40
10.304091310686662
  0
LWPOLYLINE
  5
13D
330
17
100
AcDbEntity
  8
0
100
AcDbPolyline
 90
5
 70
1
 10
0.0
 20
920.459282876343
 10
312.7668805930261
 20
920.459282876343
 10
312.7668805930261
 20
1019.9959721537107
 10
0.0
 20
1019.9959721537107
 10
0.0
 20
920.459282876343
  0
LWPOLYLINE
  5
13E
330
17
100
AcDbEntity
  8
0
100
AcDbPolyline
 90
5
 70
1
 10
317.7668805930261
 20
920.459282876343
 10
333.44567681477815
 20
920.459282876343
 10
333.44567681477815
 20
940.6380138207695
 10
317.7668805930261
 20
940.6380138207695
 10
317.7668805930261
 20
920.459282876343
  0
LWPOLYLINE
  5
13F
330
17
100
AcDbEntity
  8
0
100
AcDbPolyline
 90
3
 70
1
 10
338.44567681477815
 20
920.459282876343
 10
379.12695856280163
 20
920.459282876343
 10
358.7863176887899
 20
955.6903063286435
  0
LWPOLYLINE
  5
140
330
17
100
AcDbEntity
  8
0
100
AcDbPolyline
 90
7
 70
1
 10
384.12695856280163
 20
920.459282876343
 10
407.8088749766309
 20
920.459282876343
 10
407.8088749766309
 20
927.505317299079
 10
391.1729929855377
 20
927.505317299079
 10
391.1729929855377
 20
952.8603773119656
 10
384.12695856280163
 20
952.8603773119656
 10
384.12695856280163
 20
920.459282876343
  0
CIRCLE
  5
141
330
17
100
AcDbEntity
  8
0
100
AcDbCircle
 10
424.344793726709
 20
931.995201626421
 30
0.0
 40
11.535918750078109
  0
LWPOLYLINE
  5
142
330
17
100
AcDbEntity
  8
0
100
AcDbPolyline
 90
3
 70
1
 10
440.8807124767871
 20
920.459282876343
 10
461.42012604869495
 20
920.459282876343
 10
451.150419262741
 20
938.2469368084501
  0
CIRCLE
  5
143
330
17
100
AcDbEntity
  8
0
100
AcDbCircle
 10
475.2752318976412
 20
929.3143887252893
 30
0.0
 40
8.85510584894627
  0
LWPOLYLINE
  5
144
330
17
100
AcDbEntity
  8
0
100
AcDbPolyline
 90
9
 70
1
 10
489.1303377465875
 20
920.459282876343
 10
515.3351164562221
 20
920.459282876343
 10
515.3351164562221
 20
925.9027127419852
 10
504.95444203422585
 20
925.9027127419852
 10
504.95444203422585
 20
938.4009226744042
 10
499.51101216858365
 20
938.4009226744042
 10
499.51101216858365
 20
925.9027127419852
 10
489.1303377465875
 20
925.9027127419852
 10
489.1303377465875
 20
920.459282876343
  0
LWPOLYLINE
  5
145
330
17
100
AcDbEntity
  8
0
100
AcDbPolyline
 90
6
 70
1
 10
577.6906366125595
 20
949.1370429545117
 10
563.3517565734751
 20
973.972711705841
 10
534.6739964953065
 20
973.972711705841
 10
520.3351164562221
 20
949.1370429545117
 10
534.6739964953064
 20
924.3013742031824
 10
563.3517565734751
 20
924.3013742031824
  0
LWPOLYLINE
  5
146
330
17
100
AcDbEntity
  8
0
100
AcDbPolyline
 90
3
 70
1
 10
582.6906366125595
 20
920.459282876343
 10
606.3606537643215
 20
920.459282876343
 10
594.5256451884405
 20
940.9581190377822
  0
LWPOLYLINE
  5
147
330
17
100
AcDbEntity
  8
0
100
AcDbPolyline
 90
6
 70
1
 10
640.7688720250288
 20
935.1633920066967
 10
633.416817459852
 20
947.8975240536017
 10
618.7127083294982
 20
947.8975240536017
 10
611.3606537643215
 20
935.1633920066967
 10
618.7127083294982
 20
922.4292599597916
 10
633.416817459852
 20
922.4292599597916
  0
LWPOLYLINE
  5
148
330
17
100
AcDbEntity
  8
0
100
AcDbPolyline
 90
5
 70
1
 10
645.7688720250289
 20
920.459282876343
 10
680.9845153123354
 20
920.459282876343
 10
680.9845153123354
 20
1003.1646982991504
 10
645.7688720250289
 20
1003.1646982991504
 10
645.7688720250289
 20
920.459282876343
  0
LWPOLYLINE
  5
149
330
17
100
AcDbEntity
  8
0
100
AcDbPolyline
 90
7
 70
1
 10
685.9845153123354
 20
920.459282876343
 10
732.0771579489486
 20
920.459282876343
 10
732.0771579489486
 20
934.4246064170521
 10
699.9498388530445
 20
934.4246064170521
 10
699.9498388530445
 20
983.4144868798876
 10
685.9845153123354
 20
983.4144868798876
 10
685.9845153123354
 20
920.459282876343
  0
LWPOLYLINE
  5
14A
330
17
100
AcDbEntity
  8
0
100
AcDbPolyline
 90
4
 70
1
 10
748.5349855565173
 20
920.459282876343
 10
811.7106724284993
 20
920.459282876343
 10
811.7106724284993
 20
943.3749380914803
 10
748.5349855565173
 20
943.3749380914803
  0
ARC
  5
14B
330
17
100
AcDbEntity
  8
0
100
AcDbCircle
 10
748.5349855565173
 20
931.9171104839116
 30
0.0
 40
11.457827607568687
100
AcDbArc
 50
90.0
 51
270.0
  0
ARC
  5
14C
330
17
100
AcDbEntity
  8
0
100
AcDbCircle
 10
811.7106724284993
 20
931.9171104839116
 30
0.0
 40
11.457827607568687
100
AcDbArc
 50
270.0
 51
90.0
  0
LWPOLYLINE
  5
14D
330
17
100
AcDbEntity
  8
0
100
AcDbPolyline
 90
6
 70
1
 10
38.63928117657048
 20
1044.315612741996
 10
28.97946088242786
 20
1061.0469122834359
 10
9.659820294142623
 20
1061.0469122834359
 10
0.0
 20
1044.315612741996
 10
9.65982029414261
 20
1027.584313200556
 10
28.979460882427844
 20
1027.584313200556
  0
CIRCLE
  5
14E
330
17
100
AcDbEntity
  8
0
100
AcDbCircle
 10
55.14002572944633
 20
1036.4967167065865
 30
0.0
 40
11.50074455287585
  0
LWPOLYLINE
  5
14F
330
17
100
AcDbEntity
  8
0
100
AcDbPolyline
 90
9
 70
1
 10
71.64077028232218
 20
1024.9959721537107
 10
86.38607002949725
 20
1024.9959721537107
 10
86.38607002949725
 20
1060.3650104826377
 10
117.97810889187
 20
1060.3650104826377
 10
117.97810889187
 20
1024.9959721537107
 10
132.72340863904506
 20
1024.9959721537107
 10
132.72340863904506
 20
1075.1103102298127
 10
71.64077028232218
 20
1075.1103102298127
 10
71.64077028232218
 20
1024.9959721537107
  0
LWPOLYLINE
  5
150
330
17
100
AcDbEntity
  8
0
100
AcDbPolyline
 90
3
 70
1
 10
137.72340863904506
 20
1024.9959721537107
 10
218.35218954817432
 20
1024.9959721537107
 10
178.0377990936097
 20
1094.8225446971865
  0
LWPOLYLINE
  5
151
330
17
100
AcDbEntity
  8
0
100
AcDbPolyline
 90
9
 70
1
 10
223.35218954817432
 20
1024.9959721537107
 10
226.90889938062185
 20
1024.9959721537107
 10
226.90889938062185
 20
1033.9664746355813
 10
235.25864278865737
 20
1033.9664746355813
 10
235.25864278865737
 20
1024.9959721537107
 10
238.8153526211049
 20
1024.9959721537107
 10
238.8153526211049
 20
1037.5231844680288
 10
223.35218954817432
 20
1037.5231844680288
 10
223.35218954817432
 20
1024.9959721537107
  0
LWPOLYLINE
  5
152
330
17
100
AcDbEntity
  8
0
100
AcDbPolyline
 90
5
 70
1
 10
243.8153526211049
 20
1024.9959721537107
 10
268.4175782780028
 20
1024.9959721537107
 10
268.4175782780028
 20
1079.286983804675
 10
243.8153526211049
 20
1079.286983804675
 10
243.8153526211049
 20
1024.9959721537107
  0
LWPOLYLINE
  5
153
330
17
100
AcDbEntity
  8
0
100
AcDbPolyline
 90
9
 70
1
 10
273.4175782780028
 20
1024.9959721537107
 10
285.248514137631
 20
1024.9959721537107
 10
285.248514137631
 20
1056.6053795876462
 10
309.88089662820477
 20
1056.6053795876462
 10
309.88089662820477
 20
1024.9959721537107
 10
321.71183248783296
 20
1024.9959721537107
 10
321.71183248783296
 20
1068.4363154472744
 10
273.4175782780028
 20
1068.4363154472744
 10
273.4175782780028
 20
1024.9959721537107
  0
LWPOLYLINE
  5
154
330
17
100
AcDbEntity
  8
0
100
AcDbPolyline
 90
3
 70
1
 10
326.71183248783296
 20
1024.9959721537107
 10
357.6601548681002
 20
1024.9959721537107
 10
342.18599367796656
 20
1051.7980055395326
  0
LWPOLYLINE
  5
155
330
17
100
AcDbEntity
  8
0
100
AcDbPolyline
 90
6
 70
1
 10
384.1522521905748
 20
1035.742020814948
 10
378.77922785995617
 20
1045.0483719458834
 10
368.03317919871887
 20
1045.0483719458834
 10
362.6601548681002
 20
1035.742020814948
 10
368.03317919871887
 20
1026.4356696840127
 10
378.77922785995617
 20
1026.4356696840127
  0
LWPOLYLINE
  5
156
330
17
100
AcDbEntity
  8
0
100
AcDbPolyline
 90
9
 70
1
 10
389.1522521905748
 20
1024.9959721537107
 10
433.3096968375521
 20
1024.9959721537107
 10
433.3096968375521
 20
1035.9408404576823
 10
416.7034086660493
 20
1035.9408404576823
 10
416.7034086660493
 20
1059.0676274040884
 10
405.7585403620776
 20
1059.0676274040884
 10
405.7585403620776
 20
1035.9408404576823
 10
389.1522521905748
 20
1035.9408404576823
 10
389.1522521905748
 20
1024.9959721537107
  0
LWPOLYLINE
  5
157
330
17
100
AcDbEntity
  8
0
100
AcDbPolyline
 90
5
 70
1
 10
438.3096968375521
 20
1024.9959721537107
 10
460.38961969762624
 20
1024.9959721537107
 10
460.38961969762624
 20
1056.3424068237323
 10
438.3096968375521
 20
1056.3424068237323
 10
438.3096968375521
 20
1024.9959721537107
  0
LWPOLYLINE
  5
158
330
17
100
AcDbEntity
  8
0
100
AcDbPolyline
 90
9
 70
1
 10
465.38961969762624
 20
1024.9959721537107
 10
518.7392682779139
 20
1024.9959721537107
 10
518.7392682779139
 20
1035.1737660149677
 10
497.1533409183985
 20
1035.1737660149677
 10
497.1533409183985
 20
1062.1451171369959
 10
486.9755470571416
 20
1062.1451171369959
 10
486.9755470571416
 20
1035.1737660149677
 10
465.38961969762624
 20
1035.1737660149677
 10
465.38961969762624
 20
1024.9959721537107
  0
LWPOLYLINE
  5
159
330
17
100
AcDbEntity
  8
0
100
AcDbPolyline
 90
6
 70
1
 10
542.2007048111784
 20
1034.226690420343
 10
537.5853456778623
 20
1042.2207269344235
 10
528.35462741123
 20
1042.2207269344235
 10
523.7392682779139
 20
1034.226690420343
 10
528.35462741123
 20
1026.2326539062624
 10
537.5853456778623
 20
1026.2326539062624
  0
LWPOLYLINE
  5
15A
330
17
100
AcDbEntity
  8
0
100
AcDbPolyline
 90
4
 70
1
 10
553.0160008703451
 20
1024.9959721537107
 10
602.5820046062156
 20
1024.9959721537107
 10
602.5820046062156
 20
1036.6265642720439
 10
553.0160008703451
 20
1036.6265642720439
  0
ARC
  5
15B
330
17
100
AcDbEntity
  8
0
100
AcDbCircle
 10
553.0160008703451
 20
1030.8112682128774
 30
0.0
 40
5.815296059166632
100
AcDbArc
 50
90.0
 51
270.0
  0
ARC
  5
15C
330
17
100
AcDbEntity
  8
0
100
AcDbCircle
 10
602.5820046062156
 20
1030.8112682128774
 30
0.0
 40
5.815296059166632
100
AcDbArc
 50
270.0
 51
90.0
  0
LWPOLYLINE
  5
15D
330
17
100
AcDbEntity
  8
0
100
AcDbPolyline
 90
7
 70
1
 10
613.3973006653822
 20
1024.9959721537107
 10
630.2490184178853
 20
1024.9959721537107
 10
630.2490184178853
 20
1030.5244400588856
 10
618.9257685705571
 20
1030.5244400588856
 10
618.9257685705571
 20
1047.5020983586132
 10
613.3973006653822
 20
1047.5020983586132
 10
613.3973006653822
 20
1024.9959721537107
  0
LWPOLYLINE
  5
15E
330
17
100
AcDbEntity
  8
0
100
AcDbPolyline
 90
9
 70
1
 10
635.2490184178853
 20
1024.9959721537107
 10
702.1823895654735
 20
1024.9959721537107
 10
702.1823895654735
 20
1043.7354488223525
 10
678.0854423260002
 20
1043.7354488223525
 10
678.0854423260002
 20
1078.5793186114688
 10
659.3459656573584
 20
1078.5793186114688
 10
659.3459656573584
 20
1043.7354488223525
 10
635.2490184178853
 20
1043.7354488223525
 10
635.2490184178853
 20
1024.9959721537107
  0
LWPOLYLINE
  5
15F
330
17
100
AcDbEntity
  8
0
100
AcDbPolyline
 90
4
 70
1
 10
725.0772872963352
 20
1024.9959721537107
 10
862.9280914347007
 20
1024.9959721537107
 10
862.9280914347007
 20
1060.785767615434
 10
725.0772872963352
 20
1060.785767615434
  0
ARC
  5
160
330
17
100
AcDbEntity
  8
0
100
AcDbCircle
 10
725.0772872963352
 20
1042.8908698845723
 30
0.0
 40
17.894897730861665
100
AcDbArc
 50
90.0
 51
270.0
  0
ARC
  5
161
330
17
100
AcDbEntity
  8
0
100
AcDbCircle
 10
862.9280914347007
 20
1042.8908698845723
 30
0.0
 40
17.894897730861665
100
AcDbArc
 50
270.0
 51
90.0
  0
LWPOLYLINE
  5
162
330
17
100
AcDbEntity
  8
0
100
AcDbPolyline
 90
3
 70
1
 10
0.0
 20
1099.8204964210167
 10
26.696588383989976
 20
1099.8204964210167
 10
13.348294191994988
 20
1122.9404201559287
  0
CIRCLE
  5
163
330
17
100
AcDbEntity
  8
0
100
AcDbCircle
 10
43.43655146118894
 20
1111.5604594982158
 30
0.0
 40
11.739963077198961
  0
LWPOLYLINE
  5
164
330
17
100
AcDbEntity
  8
0
100
AcDbPolyline
 90
9
 70
1
 10
60.1765145383879
 20
1099.8204964210167
 10
88.81544177750351
 20
1099.8204964210167
 10
88.81544177750351
 20
1104.8906955729876
 10
77.03107773393114
 20
1104.8906955729876
 10
77.03107773393114
 20
1119.690305027876
 10
71.96087858196026
 20
1119.690305027876
 10
71.96087858196026
 20
1104.8906955729876
 10
60.1765145383879
 20
1104.8906955729876
 10
60.1765145383879
 20
1099.8204964210167
  0
LWPOLYLINE
  5
165
330
17
100
AcDbEntity
  8
0
100
AcDbPolyline
 90
5
 70
1
 10
93.81544177750351
 20
1099.8204964210167
 10
174.14588729125887
 20
1099.8204964210167
 10
174.14588729125887
 20
1127.3223241283274
 10
93.81544177750351
 20
1127.3223241283274
 10
93.81544177750351
 20
1099.8204964210167
  0
LWPOLYLINE
  5
166
330
17
100
AcDbEntity
  8
0
100
AcDbPolyline
 90
4
 70
1
 10
193.43174727959968
 20
1099.8204964210167
 10
263.66770913605114
 20
1099.8204964210167
 10
263.66770913605114
 20
1128.3922163976983
 10
193.43174727959968
 20
1128.3922163976983
  0
ARC
  5
167
330
17
100
AcDbEntity
  8
0
100
AcDbCircle
 10
193.43174727959968
 20
1114.1063564093577
 30
0.0
 40
14.285859988340816
100
AcDbArc
 50
90.0
 51
270.0
  0
ARC
  5
168
330
17
100
AcDbEntity
  8
0
100
AcDbCircle
 10
263.66770913605114
 20
1114.1063564093577
 30
0.0
 40
14.285859988340816
100
AcDbArc
 50
270.0
 51
90.0
  0
LWPOLYLINE
  5
169
330
17
100
AcDbEntity
  8
0
100
AcDbPolyline
 90
3
 70
1
 10
282.95356912439195
 20
1099.8204964210167
 10
310.4782866023846
 20
1099.8204964210167
 10
296.7159278633883
 20
1123.657600988948
  0
LWPOLYLINE
  5
16A
330
17
100
AcDbEntity
  8
0
100
AcDbPolyline
 90
6
 70
1
 10
334.23176640951147
 20
1109.1972363245802
 10
329.5433964577297
 20
1117.3177312857454
 10
320.16665655416637
 20
1117.3177312857454
 10
315.4782866023846
 20
1109.1972363245802
 10
320.1666565541663
 20
1101.076741363415
 10
329.5433964577297
 20
1101.076741363415
  0
LWPOLYLINE
  5
16B
330
17
100
AcDbEntity
  8
0
100
AcDbPolyline
 90
9
 70
1
 10
339.23176640951147
 20
1099.8204964210167
 10
404.57838557128633
 20
1099.8204964210167
 10
404.57838557128633
 20
1117.428650288743
 10
380.70915292426207
 20
1117.428650288743
 10
380.70915292426207
 20
1151.9832099097537
 10
363.10099905653567
 20
1151.9832099097537
 10
363.10099905653567
 20
1117.428650288743
 10
339.23176640951147
 20
1117.428650288743
 10
339.23176640951147
 20
1099.8204964210167
  0
LWPOLYLINE
  5
16C
330
17
100
AcDbEntity
  8
0
100
AcDbPolyline
 90
3
 70
1
 10
409.57838557128633
 20
1099.8204964210167
 10
426.75713775476527
 20
1099.8204964210167
 10
418.1677616630258
 20
1114.697732217227
  0
LWPOLYLINE
  5
16D
330
17
100
AcDbEntity
  8
0
100
AcDbPolyline
 90
5
 70
1
 10
431.75713775476527
 20
1099.8204964210167
 10
467.38419310858575
 20
1099.8204964210167
 10
467.38419310858575
 20
1182.9156512937352
 10
431.75713775476527
 20
1182.9156512937352
 10
431.75713775476527
 20
1099.8204964210167
  0
LWPOLYLINE
  5
16E
330
17
100
AcDbEntity
  8
0
100
AcDbPolyline
 90
3
 70
1
 10
472.38419310858575
 20
1099.8204964210167
 10
497.3629964880498
 20
1099.8204964210167
 10
484.8735947983178
 20
1121.4527747037691
  0
CIRCLE
  5
16F
330
17
100
AcDbEntity
  8
0
100
AcDbCircle
 10
510.43108597329575
 20
1107.8885859062627
 30
0.0
 40
8.06808948524596
  0
LWPOLYLINE
  5
170
330
17
100
AcDbEntity
  8
0
100
AcDbPolyline
 90
7
 70
1
 10
523.4991754585417
 20
1099.8204964210167
 10
540.9841634953435
 20
1099.8204964210167
 10
540.9841634953435
 20
1105.372670078344
 10
529.051349115869
 20
1105.372670078344
 10
529.051349115869
 20
1122.4964043891716
 10
523.4991754585417
 20
1122.4964043891716
 10
523.4991754585417
 20
1099.8204964210167
  0
LWPOLYLINE
  5
171
330
17
100
AcDbEntity
  8
0
100
AcDbPolyline
 90
5
 70
1
 10
545.9841634953435
 20
1099.8204964210167
 10
589.5988622446843
 20
1099.8204964210167
 10
589.5988622446843
 20
1129.1126684172216
 10
545.9841634953435
 20
1129.1126684172216
 10
545.9841634953435
 20
1099.8204964210167
  0
LWPOLYLINE
  5
172
330
17
100
AcDbEntity
  8
0
100
AcDbPolyline
 90
3
 70
1
 10
594.5988622446843
 20
1099.8204964210167
 10
640.9267389018511
 20
1099.8204964210167
 10
617.7628005732677
 20
1139.9416145095154
  0
LWPOLYLINE
  5
173
330
17
100
AcDbEntity
  8
0
100
AcDbPolyline
 90
6
 70
1
 10
690.6582284811553
 20
1122.1862412106689
 10
679.4753560863293
 20
1141.555544373067
 10
657.1096112966771
 20
1141.555544373067
 10
645.9267389018511
 20
1122.1862412106689
 10
657.1096112966771
 20
1102.8169380482707
 10
679.4753560863293
 20
1102.8169380482707
  0
LWPOLYLINE
  5
174
330
17
100
AcDbEntity
  8
0
100
AcDbPolyline
 90
7
 70
1
 10
695.6582284811554
 20
1099.8204964210167
 10
713.790785251241
 20
1099.8204964210167
 10
713.790785251241
 20
1105.0233132885203
 10
700.861045348659
 20
1105.0233132885203
 10
700.861045348659
 20
1123.1909985044363
 10
695.6582284811554
 20
1123.1909985044363
 10
695.6582284811554
 20
1099.8204964210167
  0
LWPOLYLINE
  5
175
330
17
100
AcDbEntity
  8
0
100
AcDbPolyline
 90
3
 70
1
 10
718.790785251241
 20
1099.8204964210167
 10
778.3399944859834
 20
1099.8204964210167
 10
748.5653898686122
 20
1151.3916243935785
  0
LWPOLYLINE
  5
176
330
17
100
AcDbEntity
  8
0
100
AcDbPolyline
 90
4
 70
1
 10
793.7405357293983
 20
1099.8204964210167
 10
858.4827763134758
 20
1099.8204964210167
 10
858.4827763134758
 20
1120.6215789078465
 10
793.7405357293983
 20
1120.6215789078465
  0
ARC
  5
177
330
17
100
AcDbEntity
  8
0
100
AcDbCircle
 10
793.7405357293983
 20
1110.2210376644316
 30
0.0
 40
10.400541243414855
100
AcDbArc
 50
90.0
 51
270.0
  0
ARC
  5
178
330
17
100
AcDbEntity
  8
0
100
AcDbCircle
 10
858.4827763134758
 20
1110.2210376644316
 30
0.0
 40
10.400541243414855
100
AcDbArc
 50
270.0
 51
90.0
  0
LWPOLYLINE
  5
179
330
17
100
AcDbEntity
  8
0
100
AcDbPolyline
 90
5
 70
1
 10
0.0
 20
1187.9156512937352
 10
40.35341251013689
 20
1187.9156512937352
 10
40.35341251013689
 20
1209.65167427503
 10
0.0
 20
1209.65167427503
 10
0.0
 20
1187.9156512937352
  0
LWPOLYLINE
  5
17A
330
17
100
AcDbEntity
  8
0
100
AcDbPolyline
 90
7
 70
1
 10
45.35341251013689
 20
1187.9156512937352
 10
72.35954061916638
 20
1187.9156512937352
 10
72.35954061916638
 20
1195.0489450724172
 10
52.48670628881879
 20
1195.0489450724172
 10
52.48670628881879
 20
1220.5361810738343
 10
45.35341251013689
 20
1220.5361810738343
 10
45.35341251013689
 20
1187.9156512937352
  0
CIRCLE
  5
17B
330
17
100
AcDbEntity
  8
0
100
AcDbCircle
 10
100.06538082844587
 20
1210.6214915030148
 30
0.0
 40
22.705840209279486
  0
LWPOLYLINE
  5
17C
330
17
100
AcDbEntity
  8
0
100
AcDbPolyline
 90
6
 70
1
 10
186.56905579846074
 20
1217.314568674103
 10
171.8695971082769
 20
1242.7747779692613
 10
142.47067972790921
 20
1242.7747779692613
 10
127.77122103772535
 20
1217.314568674103
 10
142.4706797279092
 20
1191.8543593789448
 10
171.86959710827688
 20
1191.8543593789445
  0
LWPOLYLINE
  5
17D
330
17
100
AcDbEntity
  8
0
100
AcDbPolyline
 90
4
 70
1
 10
215.74208106575017
 20
1187.9156512937352
 10
344.9997725106188
 20
1187.9156512937352
 10
344.9997725106188
 20
1236.261701828314
 10
215.74208106575017
 20
1236.261701828314
  0
ARC
  5
17E
330
17
100
AcDbEntity
  8
0
100
AcDbCircle
 10
215.74208106575017
 20
1212.0886765610246
 30
0.0
 40
24.17302526728942
100
AcDbArc
 50
90.0
 51
270.0
  0
ARC
  5
17F
330
17
100
AcDbEntity
  8
0
100
AcDbCircle
 10
344.9997725106188
 20
1212.0886765610246
 30
0.0
 40
24.17302526728942
100
AcDbArc
 50
270.0
 51
90.0
  0
LWPOLYLINE
  5
180
330
17
100
AcDbEntity
  8
0
100
AcDbPolyline
 90
7
 70
1
 10
374.1727977779082
 20
1187.9156512937352
 10
398.44321605525175
 20
1187.9156512937352
 10
398.44321605525175
 20
1195.9284988370873
 10
382.18564532126027
 20
1195.9284988370873
 10
382.18564532126027
 20
1221.585100437511
 10
374.1727977779082
 20
1221.585100437511
 10
374.1727977779082
 20
1187.9156512937352
  0
CIRCLE
  5
181
330
17
100
AcDbEntity
  8
0
100
AcDbCircle
 10
418.2186784168
 20
1202.6911136552835
 30
0.0
 40
14.775462361548222
  0
ENDSEC
  0
SECTION
  2
OBJECTS
  0
DICTIONARY
  5
A
330
0
100
AcDbDictionary
281
1
  3
ACAD_COLOR
350
B
  3
ACAD_GROUP
350
C
  3
ACAD_LAYOUT
350
D
  3
ACAD_MATERIAL
350
E
  3
ACAD_MLEADERSTYLE
350
F
  3
ACAD_MLINESTYLE
350
10
  3
ACAD_PLOTSETTINGS
350
11
  3
ACAD_PLOTSTYLENAME
350
12
  3
ACAD_SCALELIST
350
14
  3
ACAD_TABLESTYLE
350
15
  3
ACAD_VISUALSTYLE
350
16
  3
EZDXF_META
350
2D
  0
DICTIONARY
  5
B
330
A
100
AcDbDictionary
281
1
  0
DICTIONARY
  5
C
330
A
100
AcDbDictionary
281
1
  0
DICTIONARY
  5
D
330
A
100
AcDbDictionary
281
1
  3
Model
350
1A
  3
Layout1
350
1E
  0
DICTIONARY
  5
E
330
A
100
AcDbDictionary
281
1
  3
ByBlock
350
1F
  3
ByLayer
350
20
  3
Global
350
21
  0
DICTIONARY
  5
F
330
A
100
AcDbDictionary
281
1
  3
Standard
350
2C
  0
DICTIONARY
  5
10
330
A
100
AcDbDictionary
281
1
  3
Standard
350
22
  0
DICTIONARY
  5
11
330
A
100
AcDbDictionary
281
1
  0
ACDBDICTIONARYWDFLT
  5
12
330
A
100
AcDbDictionary
281
1
  3
Normal
350
13
100
AcDbDictionaryWithDefault
340
13
  0
ACDBPLACEHOLDER
  5
13
330
12
  0
DICTIONARY
  5
14
330
A
100
AcDbDictionary
281
1
  0
DICTIONARY
  5
15
330
A
100
AcDbDictionary
281
1
  0
DICTIONARY
  5
16
330
A
100
AcDbDictionary
281
1
  3
2dWireframe
350
5A
  3
Basic
350
5B
  3
Brighten
350
5C
  3
ColorChange
350
5D
  3
Conceptual
350
5E
  3
Dim
350
5F
  3
EdgeColorOff
350
60
  3
Facepattern
350
61
  3
Flat
350
62
  3
FlatWithEdges
350
63
  3
Gouraud
350
64
  3
GouraudWithEdges
350
65
  3
Hidden
350
66
  3
JitterOff
350
67
  3
Linepattern
350
68
  3
Modeling
350
69
  3
OverhangOff
350
6A
  3
Realistic
350
6B
  3
Shaded
350
6C
  3
Shaded with edges
350
6D
  3
Shades of Gray
350
6E
  3
Sketchy
350
6F
  3
Thicken
350
70
  3
Wireframe
350
71
  3
X-Ray
350
72
  0
LAYOUT
  5
1A
330
D
100
AcDbPlotSettings
  1

  4
A3
  6

 40
7.5
 41
20.0
 42
7.5
 43
20.0
 44
420.0
 45
297.0
 46
0.0
 47
0.0
 48
0.0
 49
0.0
140
0.0
141
0.0
142
1.0
143
1.0
 70
1024
 72
1
 73
0
 74
5
  7

 75
16
 76
0
 77
2
 78
300
147
1.0
148
0.0
149
0.0
100
AcDbLayout
  1
Model
 70
1
 71
0
 10
0.0
 20
0.0
 11
420.0
 21
297.0
 12
0.0
 22
0.0
 32
0.0
 14
1e+20
 24
1e+20
 34
1e+20
 15
-1e+20
 25
-1e+20
 35
-1e+20
146
0.0
 13
0.0
 23
0.0
 33
0.0
 16
1.0
 26
0.0
 36
0.0
 17
0.0
 27
1.0
 37
0.0
 76
1
330
17
  0
LAYOUT
  5
1E
330
D
100
AcDbPlotSettings
  1

  4
A3
  6

 40
7.5
 41
20.0
 42
7.5
 43
20.0
 44
420.0
 45
297.0
 46
0.0
 47
0.0
 48
0.0
 49
0.0
140
0.0
141
0.0
142
1.0
143
1.0
 70
0
 72
1
 73
0
 74
5
  7

 75
16
 76
0
 77
2
 78
300
147
1.0
148
0.0
149
0.0
100
AcDbLayout
  1
Layout1
 70
1
 71
1
 10
0.0
 20
0.0
 11
420.0
 21
297.0
 12
0.0
 22
0.0
 32
0.0
 14
1e+20
 24
1e+20
 34
1e+20
 15
-1e+20
 25
-1e+20
 35
-1e+20
146
0.0
 13
0.0
 23
0.0
 33
0.0
 16
1.0
 26
0.0
 36
0.0
 17
0.0
 27
1.0
 37
0.0
 76
1
330
1B
  0
MATERIAL
  5
1F
102
{ACAD_REACTORS
330
E
102
}
330
E
100
AcDbMaterial
  1
ByBlock
  2

 70
0
 40
1.0
 71
1
 41
1.0
 91
-1023410177
 42
1.0
 72
1
  3

 73
1
 74
1
 75
1
 44
0.5
 73
0
 45
1.0
 46
1.0
 77
1
  4

 78
1
 79
1
170
1
 48
1.0
171
1
  6

172
1
173
1
174
1
140
1.0
141
1.0
175
1
  7

176
1
177
1
178
1
143
1.0
179
1
  8

270
1
271
1
272
1
145
1.0
146
1.0
273
1
  9

274
1
275
1
276
1
 42
1.0
 72
1
  3

 73
1
 74
1
 75
1
 94
63
  0
MATERIAL
  5
20
102
{ACAD_REACTORS
330
E
102
}
330
E
100
AcDbMaterial
  1
ByLayer
  2

 70
0
 40
1.0
 71
1
 41
1.0
 91
-1023410177
 42
1.0
 72
1
  3

 73
1
 74
1
 75
1
 44
0.5
 73
0
 45
1.0
 46
1.0
 77
1
  4

 78
1
 79
1
170
1
 48
1.0
171
1
  6

172
1
173
1
174
1
140
1.0
141
1.0
175
1
  7

176
1
177
1
178
1
143
1.0
179
1
  8

270
1
271
1
272
1
145
1.0
146
1.0
273
1
  9

274
1
275
1
276
1
 42
1.0
 72
1
  3

 73
1
 74
1
 75
1
 94
63
  0
MATERIAL
  5
21
102
{ACAD_REACTORS
330
E
102
}
330
E
100
AcDbMaterial
  1
Global
  2

 70
0
 40
1.0
 71
1
 41
1.0
 91
-1023410177
 42
1.0
 72
1
  3

 73
1
 74
1
 75
1
 44
0.5
 73
0
 45
1.0
 46
1.0
 77
1
  4

 78
1
 79
1
170
1
 48
1.0
171
1
  6

172
1
173
1
174
1
140
1.0
141
1.0
175
1
  7

176
1
177
1
178
1
143
1.0
179
1
  8

270
1
271
1
272
1
145
1.0
146
1.0
273
1
  9

274
1
275
1
276
1
 42
1.0
 72
1
  3

 73
1
 74
1
 75
1
 94
63
  0
MLINESTYLE
  5
22
102
{ACAD_REACTORS
330
10
102
}
330
10
100
AcDbMlineStyle
  2
Standard
 70
0
  3

 62
256
 51
90.0
 52
90.0
 71
2
 49
0.5
 62
256
  6
BYLAYER
 49
-0.5
 62
256
  6
BYLAYER
  0
MLEADERSTYLE
  5
2C
102
{ACAD_REACTORS
330
F
102
}
330
F
100
AcDbMLeaderStyle
179
2
170
2
171
1
172
0
 90
2
 40
0.0
 41
0.0
173
1
 91
-1056964608
 92
-2
290
1
 42
2.0
291
1
 43
8.0
  3
Standard
 44
4.0
300

342
29
174
1
175
1
176
0
178
1
 93
-1056964608
 45
4.0
292
0
297
0
 46
4.0
 94
-1056964608
 47
1.0
 49
1.0
140
1.0
294
1
141
0.0
177
0
142
1.0
295
0
296
0
143
3.75
271
0
272
9
273
9
  0
DICTIONARY
  5
2D
330
A
100
AcDbDictionary
280
1
281
1
  3
CREATED_BY_EZDXF
350
2E
  3
WRITTEN_BY_EZDXF
350
184
  0
DICTIONARYVAR
  5
2E
330
2D
100
DictionaryVariables
280
0
  1
1.4.2 @ 2025-10-20T17:05:11.608978+00:00
  0
VISUALSTYLE
  5
5A
102
{ACAD_REACTORS
330
16
102
}
330
16
100
AcDbVisualStyle
  2
2dWireframe
 70
4
 90
0
 40
0.6
 62
7
290
0
291
0
  0
VISUALSTYLE
  5
5B
102
{ACAD_REACTORS
330
16
102
}
330
16
100
AcDbVisualStyle
  2
Basic
 70
7
 90
1
 40
0.6
 62
7
290
0
291
1
  0
VISUALSTYLE
  5
5C
102
{ACAD_REACTORS
330
16
102
}
330
16
100
AcDbVisualStyle
  2
Brighten
 70
12
 90
2
 40
0.6
 62
7
290
0
291
1
  0
VISUALSTYLE
  5
5D
102
{ACAD_REACTORS
330
16
102
}
330
16
100
AcDbVisualStyle
  2
ColorChange
 70
16
 90
2
 40
0.6
 62
8
290
0
291
1
  0
VISUALSTYLE
  5
5E
102
{ACAD_REACTORS
330
16
102
}
330
16
100
AcDbVisualStyle
  2
Conceptual
 70
9
 90
3
 40
0.6
 62
7
290
0
291
0
  0
VISUALSTYLE
  5
5F
102
{ACAD_REACTORS
330
16
102
}
330
16
100
AcDbVisualStyle
  2
Dim
 70
11
 90
2
 40
0.6
 62
7
290
0
291
1
  0
VISUALSTYLE
  5
60
102
{ACAD_REACTORS
330
16
102
}
330
16
100
AcDbVisualStyle
  2
EdgeColorOff
 70
22
 90
2
 40
0.6
 62
7
290
0
291
1
  0
VISUALSTYLE
  5
61
102
{ACAD_REACTORS
330
16
102
}
330
16
100
AcDbVisualStyle
  2
Facepattern
 70
15
 90
2
 40
0.6
 62
7
290
0
291
1
  0
VISUALSTYLE
  5
62
102
{ACAD_REACTORS
330
16
102
}
330
16
100
AcDbVisualStyle
  2
Flat
 70
0
 90
2
 40
0.6
 62
7
290
0
291
1
  0
VISUALSTYLE
  5
63
102
{ACAD_REACTORS
330
16
102
}
330
16
100
AcDbVisualStyle
  2
FlatWithEdges
 70
1
 90
2
 40
0.6
 62
7
290
0
291
1
  0
VISUALSTYLE
  5
64
102
{ACAD_REACTORS
330
16
102
}
330
16
100
AcDbVisualStyle
  2
Gouraud
 70
2
 90
2
 40
0.6
 62
7
290
0
291
1
  0
VISUALSTYLE
  5
65
102
{ACAD_REACTORS
330
16
102
}
330
16
100
AcDbVisualStyle
  2
GouraudWithEdges
 70
3
 90
2
 40
0.6
 62
7
290
0
291
1
  0
VISUALSTYLE
  5
66
102
{ACAD_REACTORS
330
16
102
}
330
16
100
AcDbVisualStyle
  2
Hidden
 70
6
 90
1
 40
0.6
 62
7
290
0
291
0
  0
VISUALSTYLE
  5
67
102
{ACAD_REACTORS
330
16
102
}
330
16
100
AcDbVisualStyle
  2
JitterOff
 70
20
 90
2
 40
0.6
 62
7
290
0
291
1
  0
VISUALSTYLE
  5
68
102
{ACAD_REACTORS
330
16
102
}
330
16
100
AcDbVisualStyle
  2
Linepattern
 70
14
 90
2
 40
0.6
 62
7
290
0
291
1
  0
VISUALSTYLE
  5
69
102
{ACAD_REACTORS
330
16
102
}
330
16
100
AcDbVisualStyle
  2
Modeling
 70
10
 90
2
 40
0.6
 62
7
290
0
291
0
  0
VISUALSTYLE
  5
6A
102
{ACAD_REACTORS
330
16
102
}
330
16
100
AcDbVisualStyle
  2
OverhangOff
 70
21
 90
2
 40
0.6
 62
7
290
0
291
1
  0
VISUALSTYLE
  5
6B
102
{ACAD_REACTORS
330
16
102
}
330
16
100
AcDbVisualStyle
  2
Realistic
 70
8
 90
2
 40
0.6
 62
7
290
0
291
0
  0
VISUALSTYLE
  5
6C
102
{ACAD_REACTORS
330
16
102
}
330
16
100
AcDbVisualStyle
  2
Shaded
 70
27
 90
2
 40
0.6
 62
7
290
0
291
0
  0
VISUALSTYLE
  5
6D
102
{ACAD_REACTORS
330
16
102
}
330
16
100
AcDbVisualStyle
  2
Shaded with edges
 70
26
 90
2
 40
0.6
 62
7
290
0
291
0
  0
VISUALSTYLE
  5
6E
102
{ACAD_REACTORS
330
16
102
}
330
16
100
AcDbVisualStyle
  2
Shades of Gray
 70
23
 90
2
 40
0.6
 62
7
290
0
291
0
  0
VISUALSTYLE
  5
6F
102
{ACAD_REACTORS
330
16
102
}
330
16
100
AcDbVisualStyle
  2
Sketchy
 70
24
 90
1
 40
0.6
 62
7
290
0
291
0
  0
VISUALSTYLE
  5
70
102
{ACAD_REACTORS
330
16
102
}
330
16
100
AcDbVisualStyle
  2
Thicken
 70
13
 90
2
 40
0.6
 62
7
290
0
291
1
  0
VISUALSTYLE
  5
71
102
{ACAD_REACTORS
330
16
102
}
330
16
100
AcDbVisualStyle
  2
Wireframe
 70
5
 90
0
 40
0.6
 62
7
290
0
291
0
  0
VISUALSTYLE
  5
72
102
{ACAD_REACTORS
330
16
102
}
330
16
100
AcDbVisualStyle
  2
X-Ray
 70
25
 90
2
 40
0.5
 62
7
290
0
291
0
  0
DICTIONARYVAR
  5
184
330
2D
100
DictionaryVariables
280
0
  1
1.4.2 @ 2025-10-20T17:05:11.613832+00:00
  0
ENDSEC
  0
EOF
