  0
SECTION
  2
HEADER
  9
$ACADVER
  1
AC1024
  9
$ACADMAINTVER
 70
6
  9
$DWGCODEPAGE
  3
ANSI_1252
  9
$LASTSAVEDBY
  1
ezdxf
  9
$INSBASE
 10
0.0
 20
0.0
 30
0.0
  9
$EXTMIN
 10
1e+20
 20
1e+20
 30
1e+20
  9
$EXTMAX
 10
-1e+20
 20
-1e+20
 30
-1e+20
  9
$LIMMIN
 10
0.0
 20
0.0
  9
$LIMMAX
 10
420.0
 20
297.0
  9
$ORTHOMODE
 70
0
  9
$REGENMODE
 70
1
  9
$FILLMODE
 70
1
  9
$QTEXTMODE
 70
0
  9
$MIRRTEXT
 70
1
  9
$LTSCALE
 40
1.0
  9
$ATTMODE
 70
1
  9
$TEXTSIZE
 40
2.5
  9
$TRACEWID
 40
1.0
  9
$TEXTSTYLE
  7
Standard
  9
$CLAYER
  8
0
  9
$CELTYPE
  6
ByLayer
  9
$CECOLOR
 62
256
  9
$CELTSCALE
 40
1.0
  9
$DISPSILH
 70
0
  9
$DIMSCALE
 40
1.0
  9
$DIMASZ
 40
2.5
  9
$DIMEXO
 40
0.625
  9
$DIMDLI
 40
3.75
  9
$DIMRND
 40
0.0
  9
$DIMDLE
 40
0.0
  9
$DIMEXE
 40
1.25
  9
$DIMTP
 40
0.0
  9
$DIMTM
 40
0.0
  9
$DIMTXT
 40
2.5
  9
$DIMCEN
 40
2.5
  9
$DIMTSZ
 40
0.0
  9
$DIMTOL
 70
0
  9
$DIMLIM
 70
0
  9
$DIMTIH
 70
0
  9
$DIMTOH
 70
0
  9
$DIMSE1
 70
0
  9
$DIMSE2
 70
0
  9
$DIMTAD
 70
1
  9
$DIMZIN
 70
8
  9
$DIMBLK
  1

  9
$DIMASO
 70
1
  9
$DIMSHO
 70
1
  9
$DIMPOST
  1

  9
$DIMAPOST
  1

  9
$DIMALT
 70
0
  9
$DIMALTD
 70
3
  9
$DIMALTF
 40
0.03937007874
  9
$DIMLFAC
 40
1.0
  9
$DIMTOFL
 70
1
  9
$DIMTVP
 40
0.0
  9
$DIMTIX
 70
0
  9
$DIMSOXD
 70
0
  9
$DIMSAH
 70
0
  9
$DIMBLK1
  1

  9
$DIMBLK2
  1

  9
$DIMSTYLE
  2
ISO-25
  9
$DIMCLRD
 70
0
  9
$DIMCLRE
 70
0
  9
$DIMCLRT
 70
0
  9
$DIMTFAC
 40
1.0
  9
$DIMGAP
 40
0.625
  9
$DIMJUST
 70
0
  9
$DIMSD1
 70
0
  9
$DIMSD2
 70
0
  9
$DIMTOLJ
 70
0
  9
$DIMTZIN
 70
8
  9
$DIMALTZ
 70
0
  9
$DIMALTTZ
 70
0
  9
$DIMUPT
 70
0
  9
$DIMDEC
 70
2
  9
$DIMTDEC
 70
2
  9
$DIMALTU
 70
2
  9
$DIMALTTD
 70
3
  9
$DIMTXSTY
  7
Standard
  9
$DIMAUNIT
 70
0
  9
$DIMADEC
 70
0
  9
$DIMALTRND
 40
0.0
  9
$DIMAZIN
 70
0
  9
$DIMDSEP
 70
44
  9
$DIMATFIT
 70
3
  9
$DIMFRAC
 70
0
  9
$DIMLDRBLK
  1

  9
$DIMLUNIT
 70
2
  9
$DIMLWD
 70
-2
  9
$DIMLWE
 70
-2
  9
$DIMTMOVE
 70
0
  9
$DIMFXL
 40
1.0
  9
$DIMFXLON
 70
0
  9
$DIMJOGANG
 40
0.785398163397
  9
$DIMTFILL
 70
0
  9
$DIMTFILLCLR
 70
0
  9
$DIMARCSYM
 70
0
  9
$DIMLTYPE
  6

  9
$DIMLTEX1
  6

  9
$DIMLTEX2
  6

  9
$DIMTXTDIRECTION
 70
0
  9
$LUNITS
 70
2
  9
$LUPREC
 70
4
  9
$SKETCHINC
 40
1.0
  9
$FILLETRAD
 40
10.0
  9
$AUNITS
 70
0
  9
$AUPREC
 70
2
  9
$MENU
  1
.
  9
$ELEVATION
 40
0.0
  9
$PELEVATION
 40
0.0
  9
$THICKNESS
 40
0.0
  9
$LIMCHECK
 70
0
  9
$CHAMFERA
 40
0.0
  9
$CHAMFERB
 40
0.0
  9
$CHAMFERC
 40
0.0
  9
$CHAMFERD
 40
0.0
  9
$SKPOLY
 70
0
  9
$TDCREATE
 40
2460966.6811689814
  9
$TDUCREATE
 40
2458532.153996898
  9
$TDUPDATE
 40
2460966.6811689814
  9
$TDUUPDATE
 40
2458532.1544311
  9
$TDINDWG
 40
0.0
  9
$TDUSRTIMER
 40
0.0
  9
$USRTIMER
 70
1
  9
$ANGBASE
 50
0.0
  9
$ANGDIR
 70
0
  9
$PDMODE
 70
0
  9
$PDSIZE
 40
0.0
  9
$PLINEWID
 40
0.0
  9
$SPLFRAME
 70
0
  9
$SPLINETYPE
 70
6
  9
$SPLINESEGS
 70
8
  9
$HANDSEED
  5
226
  9
$SURFTAB1
 70
6
  9
$SURFTAB2
 70
6
  9
$SURFTYPE
 70
6
  9
$SURFU
 70
6
  9
$SURFV
 70
6
  9
$UCSBASE
  2

  9
$UCSNAME
  2

  9
$UCSORG
 10
0.0
 20
0.0
 30
0.0
  9
$UCSXDIR
 10
1.0
 20
0.0
 30
0.0
  9
$UCSYDIR
 10
0.0
 20
1.0
 30
0.0
  9
$UCSORTHOREF
  2

  9
$UCSORTHOVIEW
 70
0
  9
$UCSORGTOP
 10
0.0
 20
0.0
 30
0.0
  9
$UCSORGBOTTOM
 10
0.0
 20
0.0
 30
0.0
  9
$UCSORGLEFT
 10
0.0
 20
0.0
 30
0.0
  9
$UCSORGRIGHT
 10
0.0
 20
0.0
 30
0.0
  9
$UCSORGFRONT
 10
0.0
 20
0.0
 30
0.0
  9
$UCSORGBACK
 10
0.0
 20
0.0
 30
0.0
  9
$PUCSBASE
  2

  9
$PUCSNAME
  2

  9
$PUCSORG
 10
0.0
 20
0.0
 30
0.0
  9
$PUCSXDIR
 10
1.0
 20
0.0
 30
0.0
  9
$PUCSYDIR
 10
0.0
 20
1.0
 30
0.0
  9
$PUCSORTHOREF
  2

  9
$PUCSORTHOVIEW
 70
0
  9
$PUCSORGTOP
 10
0.0
 20
0.0
 30
0.0
  9
$PUCSORGBOTTOM
 10
0.0
 20
0.0
 30
0.0
  9
$PUCSORGLEFT
 10
0.0
 20
0.0
 30
0.0
  9
$PUCSORGRIGHT
 10
0.0
 20
0.0
 30
0.0
  9
$PUCSORGFRONT
 10
0.0
 20
0.0
 30
0.0
  9
$PUCSORGBACK
 10
0.0
 20
0.0
 30
0.0
  9
$USERI1
 70
0
  9
$USERI2
 70
0
  9
$USERI3
 70
0
  9
$USERI4
 70
0
  9
$USERI5
 70
0
  9
$USERR1
 40
0.0
  9
$USERR2
 40
0.0
  9
$USERR3
 40
0.0
  9
$USERR4
 40
0.0
  9
$USERR5
 40
0.0
  9
$WORLDVIEW
 70
1
  9
$SHADEDGE
 70
3
  9
$SHADEDIF
 70
70
  9
$TILEMODE
 70
1
  9
$MAXACTVP
 70
64
  9
$PINSBASE
 10
0.0
 20
0.0
 30
0.0
  9
$PLIMCHECK
 70
0
  9
$PEXTMIN
 10
1e+20
 20
1e+20
 30
1e+20
  9
$PEXTMAX
 10
-1e+20
 20
-1e+20
 30
-1e+20
  9
$PLIMMIN
 10
0.0
 20
0.0
  9
$PLIMMAX
 10
420.0
 20
297.0
  9
$UNITMODE
 70
0
  9
$VISRETAIN
 70
1
  9
$PLINEGEN
 70
0
  9
$PSLTSCALE
 70
1
  9
$TREEDEPTH
 70
3020
  9
$CMLSTYLE
  2
Standard
  9
$CMLJUST
 70
0
  9
$CMLSCALE
 40
20.0
  9
$PROXYGRAPHICS
 70
1
  9
$MEASUREMENT
 70
1
  9
$CELWEIGHT
370
-1
  9
$ENDCAPS
280
0
  9
$JOINSTYLE
280
0
  9
$LWDISPLAY
290
0
  9
$INSUNITS
 70
6
  9
$HYPERLINKBASE
  1

  9
$STYLESHEET
  1

  9
$XEDIT
290
1
  9
$CEPSNTYPE
380
0
  9
$PSTYLEMODE
290
1
  9
$FINGERPRINTGUID
  2
{0B73E21C-B939-4230-9FC3-BC3C77CA2BA1}
  9
$VERSIONGUID
  2
{D899029C-5B99-4C3F-839D-605E37CEECAF}
  9
$EXTNAMES
290
1
  9
$PSVPSCALE
 40
0.0
  9
$OLESTARTUP
290
0
  9
$SORTENTS
280
127
  9
$INDEXCTL
280
0
  9
$HIDETEXT
280
1
  9
$XCLIPFRAME
280
1
  9
$HALOGAP
280
0
  9
$OBSCOLOR
 70
257
  9
$OBSLTYPE
280
0
  9
$INTERSECTIONDISPLAY
280
0
  9
$INTERSECTIONCOLOR
 70
257
  9
$DIMASSOC
280
2
  9
$PROJECTNAME
  1

  9
$CAMERADISPLAY
290
0
  9
$LENSLENGTH
 40
50.0
  9
$CAMERAHEIGHT
 40
0.0
  9
$STEPSPERSEC
 40
24.0
  9
$STEPSIZE
 40
100.0
  9
$3DDWFPREC
 40
2.0
  9
$PSOLWIDTH
 40
0.005
  9
$PSOLHEIGHT
 40
0.08
  9
$LOFTANG1
 40
1.570796326795
  9
$LOFTANG2
 40
1.570796326795
  9
$LOFTMAG1
 40
0.0
  9
$LOFTMAG2
 40
0.0
  9
$LOFTPARAM
 70
7
  9
$LOFTNORMALS
280
1
  9
$LATITUDE
 40
37.795
  9
$LONGITUDE
 40
-122.394
  9
$NORTHDIRECTION
 40
0.0
  9
$TIMEZONE
 70
-8000
  9
$LIGHTGLYPHDISPLAY
280
1
  9
$TILEMODELIGHTSYNCH
280
1
  9
$CMATERIAL
347
20
  9
$SOLIDHIST
280
0
  9
$SHOWHIST
280
1
  9
$DWFFRAME
280
2
  9
$DGNFRAME
280
2
  9
$REALWORLDSCALE
290
1
  9
$INTERFERECOLOR
 62
256
  9
$CSHADOW
280
0
  9
$SHADOWPLANELOCATION
 40
0.0
  0
ENDSEC
  0
SECTION
  2
CLASSES
  0
CLASS
  1
ACDBDICTIONARYWDFLT
  2
AcDbDictionaryWithDefault
  3
ObjectDBX Classes
 90
0
 91
0
280
0
281
0
  0
CLASS
  1
SUN
  2
AcDbSun
  3
SCENEOE
 90
1153
 91
0
280
0
281
0
  0
CLASS
  1
VISUALSTYLE
  2
AcDbVisualStyle
  3
ObjectDBX Classes
 90
4095
 91
0
280
0
281
0
  0
CLASS
  1
MATERIAL
  2
AcDbMaterial
  3
ObjectDBX Classes
 90
1153
 91
0
280
0
281
0
  0
CLASS
  1
SCALE
  2
AcDbScale
  3
ObjectDBX Classes
 90
1153
 91
0
280
0
281
0
  0
CLASS
  1
TABLESTYLE
  2
AcDbTableStyle
  3
ObjectDBX Classes
 90
4095
 91
0
280
0
281
0
  0
CLASS
  1
MLEADERSTYLE
  2
AcDbMLeaderStyle
  3
ACDB_MLEADERSTYLE_CLASS
 90
4095
 91
0
280
0
281
0
  0
CLASS
  1
DICTIONARYVAR
  2
AcDbDictionaryVar
  3
ObjectDBX Classes
 90
0
 91
0
280
0
281
0
  0
CLASS
  1
CELLSTYLEMAP
  2
AcDbCellStyleMap
  3
ObjectDBX Classes
 90
1152
 91
0
280
0
281
0
  0
CLASS
  1
MENTALRAYRENDERSETTINGS
  2
AcDbMentalRayRenderSettings
  3
SCENEOE
 90
1024
 91
0
280
0
281
0
  0
CLASS
  1
ACDBDETAILVIEWSTYLE
  2
AcDbDetailViewStyle
  3
ObjectDBX Classes
 90
1025
 91
0
280
0
281
0
  0
CLASS
  1
ACDBSECTIONVIEWSTYLE
  2
AcDbSectionViewStyle
  3
ObjectDBX Classes
 90
1025
 91
0
280
0
281
0
  0
CLASS
  1
RASTERVARIABLES
  2
AcDbRasterVariables
  3
ISM
 90
0
 91
0
280
0
281
0
  0
CLASS
  1
LAYOUT
  2
AcDbLayout
  3
ObjectDBX Classes
 90
0
 91
0
280
0
281
0
  0
CLASS
  1
ACDBPLACEHOLDER
  2
AcDbPlaceHolder
  3
ObjectDBX Classes
 90
0
 91
0
280
0
281
0
  0
ENDSEC
  0
SECTION
  2
TABLES
  0
TABLE
  2
VPORT
  5
8
330
0
100
AcDbSymbolTable
 70
1
  0
VPORT
  5
23
330
8
100
AcDbSymbolTableRecord
100
AcDbViewportTableRecord
  2
*Active
 70
0
 10
0.0
 20
0.0
 11
1.0
 21
1.0
 12
0.0
 22
0.0
 13
0.0
 23
0.0
 14
0.5
 24
0.5
 15
0.5
 25
0.5
 16
0.0
 26
0.0
 36
1.0
 17
0.0
 27
0.0
 37
0.0
 40
1000.0
 41
1.34
 42
50.0
 43
0.0
 44
0.0
 50
0.0
 51
0.0
 71
0
 72
1000
 73
1
 74
3
 75
0
 76
0
 77
0
 78
0
281
0
 65
0
146
0.0
  0
ENDTAB
  0
TABLE
  2
LTYPE
  5
2
330
0
100
AcDbSymbolTable
 70
3
  0
LTYPE
  5
24
330
2
100
AcDbSymbolTableRecord
100
AcDbLinetypeTableRecord
  2
ByBlock
 70
0
  3

 72
65
 73
0
 40
0.0
  0
LTYPE
  5
25
330
2
100
AcDbSymbolTableRecord
100
AcDbLinetypeTableRecord
  2
ByLayer
 70
0
  3

 72
65
 73
0
 40
0.0
  0
LTYPE
  5
26
330
2
100
AcDbSymbolTableRecord
100
AcDbLinetypeTableRecord
  2
Continuous
 70
0
  3

 72
65
 73
0
 40
0.0
  0
ENDTAB
  0
TABLE
  2
LAYER
  5
1
330
0
100
AcDbSymbolTable
 70
2
  0
LAYER
  5
27
330
1
100
AcDbSymbolTableRecord
100
AcDbLayerTableRecord
  2
0
 70
0
 62
7
  6
Continuous
370
-3
390
13
347
21
  0
LAYER
  5
28
330
1
100
AcDbSymbolTableRecord
100
AcDbLayerTableRecord
  2
Defpoints
 70
0
 62
7
  6
Continuous
290
0
370
-3
390
13
347
21
  0
ENDTAB
  0
TABLE
  2
STYLE
  5
5
330
0
100
AcDbSymbolTable
 70
1
  0
STYLE
  5
29
330
5
100
AcDbSymbolTableRecord
100
AcDbTextStyleTableRecord
  2
Standard
 70
0
 40
0.0
 41
1.0
 50
0.0
 71
0
 42
2.5
  3
txt
  4

  0
ENDTAB
  0
TABLE
  2
VIEW
  5
7
330
0
100
AcDbSymbolTable
 70
0
  0
ENDTAB
  0
TABLE
  2
UCS
  5
6
330
0
100
AcDbSymbolTable
 70
0
  0
ENDTAB
  0
TABLE
  2
APPID
  5
3
330
0
100
AcDbSymbolTable
 70
3
  0
APPID
  5
2A
330
3
100
AcDbSymbolTableRecord
100
AcDbRegAppTableRecord
  2
ACAD
 70
0
  0
APPID
  5
223
330
3
100
AcDbSymbolTableRecord
100
AcDbRegAppTableRecord
  2
HATCHBACKGROUNDCOLOR
 70
0
  0
APPID
  5
224
330
3
100
AcDbSymbolTableRecord
100
AcDbRegAppTableRecord
  2
EZDXF
 70
0
  0
ENDTAB
  0
TABLE
  2
DIMSTYLE
  5
4
330
0
100
AcDbSymbolTable
 70
1
100
AcDbDimStyleTable
  0
DIMSTYLE
105
2B
330
4
100
AcDbSymbolTableRecord
100
AcDbDimStyleTableRecord
  2
Standard
 70
0
 40
1.0
 41
2.5
 42
0.625
 43
3.75
 44
1.25
 45
0.0
 46
0.0
 47
0.0
 48
0.0
 49
2.5
140
2.5
141
2.5
142
0.0
143
0.03937007874
144
1.0
145
0.0
146
1.0
147
0.625
148
0.0
 69
0
 70
0
 71
0
 72
0
 73
0
 74
0
 75
0
 76
0
 77
1
 78
8
 79
3
170
0
171
3
172
1
173
0
174
0
175
0
176
0
177
0
178
0
179
2
271
2
272
2
273
2
274
3
275
0
276
0
277
2
278
44
279
0
280
0
281
0
282
0
283
0
284
8
285
0
286
0
288
0
289
3
290
0
371
-2
372
-2
  0
ENDTAB
  0
TABLE
  2
BLOCK_RECORD
  5
9
330
0
100
AcDbSymbolTable
 70
2
  0
BLOCK_RECORD
  5
17
330
9
100
AcDbSymbolTableRecord
100
AcDbBlockTableRecord
  2
*Model_Space
340
1A
 70
0
280
1
281
0
  0
BLOCK_RECORD
  5
1B
330
9
100
AcDbSymbolTableRecord
100
AcDbBlockTableRecord
  2
*Paper_Space
340
1E
 70
0
280
1
281
0
  0
ENDTAB
  0
ENDSEC
  0
SECTION
  2
BLOCKS
  0
BLOCK
  5
18
330
17
100
AcDbEntity
  8
0
100
AcDbBlockBegin
  2
*Model_Space
 70
0
 10
0.0
 20
0.0
 30
0.0
  3
*Model_Space
  1

  0
ENDBLK
  5
19
330
17
100
AcDbEntity
  8
0
100
AcDbBlockEnd
  0
BLOCK
  5
1C
330
1B
100
AcDbEntity
  8
0
100
AcDbBlockBegin
  2
*Paper_Space
 70
0
 10
0.0
 20
0.0
 30
0.0
  3
*Paper_Space
  1

  0
ENDBLK
  5
1D
330
1B
100
AcDbEntity
  8
0
100
AcDbBlockEnd
  0
ENDSEC
  0
SECTION
  2
ENTITIES
  0
LWPOLYLINE
  5
2F
330
17
100
AcDbEntity
  8
0
100
AcDbPolyline
 90
5
 70
0
 10
0.0
 20
0.0
 10
132.0
 20
0.0
 10
132.0
 20
84.0
 10
0.0
 20
84.0
 10
0.0
 20
0.0
  0
CIRCLE
  5
30
330
17
100
AcDbEntity
  8
0
100
AcDbCircle
 10
140.0
 20
40.0
 30
0.0
 40
48.0
  0
LWPOLYLINE
  5
31
330
17
100
AcDbEntity
  8
0
100
AcDbPolyline
 90
5
 70
0
 10
200.0
 20
0.0
 10
304.0
 20
0.0
 10
304.0
 20
84.0
 10
200.0
 20
84.0
 10
200.0
 20
0.0
  0
CIRCLE
  5
32
330
17
100
AcDbEntity
  8
0
100
AcDbCircle
 10
340.0
 20
40.0
 30
0.0
 40
31.0
  0
LWPOLYLINE
  5
33
330
17
100
AcDbEntity
  8
0
100
AcDbPolyline
 90
5
 70
0
 10
400.0
 20
0.0
 10
511.0
 20
0.0
 10
511.0
 20
73.0
 10
400.0
 20
73.0
 10
400.0
 20
0.0
  0
CIRCLE
  5
34
330
17
100
AcDbEntity
  8
0
100
AcDbCircle
 10
540.0
 20
40.0
 30
0.0
 40
28.0
  0
LWPOLYLINE
  5
35
330
17
100
AcDbEntity
  8
0
100
AcDbPolyline
 90
5
 70
0
 10
600.0
 20
0.0
 10
732.0
 20
0.0
 10
732.0
 20
38.0
 10
600.0
 20
38.0
 10
600.0
 20
0.0
  0
CIRCLE
  5
36
330
17
100
AcDbEntity
  8
0
100
AcDbCircle
 10
740.0
 20
40.0
 30
0.0
 40
36.0
  0
LWPOLYLINE
  5
37
330
17
100
AcDbEntity
  8
0
100
AcDbPolyline
 90
5
 70
0
 10
800.0
 20
0.0
 10
932.0
 20
0.0
 10
932.0
 20
98.0
 10
800.0
 20
98.0
 10
800.0
 20
0.0
  0
CIRCLE
  5
38
330
17
100
AcDbEntity
  8
0
100
AcDbCircle
 10
940.0
 20
40.0
 30
0.0
 40
20.0
  0
LWPOLYLINE
  5
39
330
17
100
AcDbEntity
  8
0
100
AcDbPolyline
 90
5
 70
0
 10
1000.0
 20
0.0
 10
1032.0
 20
0.0
 10
1032.0
 20
50.0
 10
1000.0
 20
50.0
 10
1000.0
 20
0.0
  0
CIRCLE
  5
3A
330
17
100
AcDbEntity
  8
0
100
AcDbCircle
 10
1140.0
 20
40.0
 30
0.0
 40
36.0
  0
LWPOLYLINE
  5
3B
330
17
100
AcDbEntity
  8
0
100
AcDbPolyline
 90
5
 70
0
 10
1200.0
 20
0.0
 10
1259.0
 20
0.0
 10
1259.0
 20
75.0
 10
1200.0
 20
75.0
 10
1200.0
 20
0.0
  0
CIRCLE
  5
3C
330
17
100
AcDbEntity
  8
0
100
AcDbCircle
 10
1340.0
 20
40.0
 30
0.0
 40
33.0
  0
LWPOLYLINE
  5
3D
330
17
100
AcDbEntity
  8
0
100
AcDbPolyline
 90
5
 70
0
 10
1400.0
 20
0.0
 10
1436.0
 20
0.0
 10
1436.0
 20
33.0
 10
1400.0
 20
33.0
 10
1400.0
 20
0.0
  0
CIRCLE
  5
3E
330
17
100
AcDbEntity
  8
0
100
AcDbCircle
 10
1540.0
 20
40.0
 30
0.0
 40
35.0
  0
LWPOLYLINE
  5
3F
330
17
100
AcDbEntity
  8
0
100
AcDbPolyline
 90
5
 70
0
 10
1600.0
 20
0.0
 10
1687.0
 20
0.0
 10
1687.0
 20
64.0
 10
1600.0
 20
64.0
 10
1600.0
 20
0.0
  0
CIRCLE
  5
40
330
17
100
AcDbEntity
  8
0
100
AcDbCircle
 10
1740.0
 20
40.0
 30
0.0
 40
38.0
  0
LWPOLYLINE
  5
41
330
17
100
AcDbEntity
  8
0
100
AcDbPolyline
 90
5
 70
0
 10
1800.0
 20
0.0
 10
1847.0
 20
0.0
 10
1847.0
 20
87.0
 10
1800.0
 20
87.0
 10
1800.0
 20
0.0
  0
CIRCLE
  5
42
330
17
100
AcDbEntity
  8
0
100
AcDbCircle
 10
1940.0
 20
40.0
 30
0.0
 40
22.0
  0
LWPOLYLINE
  5
43
330
17
100
AcDbEntity
  8
0
100
AcDbPolyline
 90
5
 70
0
 10
2000.0
 20
0.0
 10
2138.0
 20
0.0
 10
2138.0
 20
49.0
 10
2000.0
 20
49.0
 10
2000.0
 20
0.0
  0
CIRCLE
  5
44
330
17
100
AcDbEntity
  8
0
100
AcDbCircle
 10
2140.0
 20
40.0
 30
0.0
 40
38.0
  0
LWPOLYLINE
  5
45
330
17
100
AcDbEntity
  8
0
100
AcDbPolyline
 90
5
 70
0
 10
2200.0
 20
0.0
 10
2298.0
 20
0.0
 10
2298.0
 20
45.0
 10
2200.0
 20
45.0
 10
2200.0
 20
0.0
  0
CIRCLE
  5
46
330
17
100
AcDbEntity
  8
0
100
AcDbCircle
 10
2340.0
 20
40.0
 30
0.0
 40
38.0
  0
LWPOLYLINE
  5
47
330
17
100
AcDbEntity
  8
0
100
AcDbPolyline
 90
5
 70
0
 10
2400.0
 20
0.0
 10
2476.0
 20
0.0
 10
2476.0
 20
67.0
 10
2400.0
 20
67.0
 10
2400.0
 20
0.0
  0
CIRCLE
  5
48
330
17
100
AcDbEntity
  8
0
100
AcDbCircle
 10
40.0
 20
540.0
 30
0.0
 40
43.0
  0
LWPOLYLINE
  5
49
330
17
100
AcDbEntity
  8
0
100
AcDbPolyline
 90
5
 70
0
 10
100.0
 20
500.0
 10
153.0
 20
500.0
 10
153.0
 20
592.0
 10
100.0
 20
592.0
 10
100.0
 20
500.0
  0
CIRCLE
  5
4A
330
17
100
AcDbEntity
  8
0
100
AcDbCircle
 10
240.0
 20
540.0
 30
0.0
 40
20.0
  0
LWPOLYLINE
  5
4B
330
17
100
AcDbEntity
  8
0
100
AcDbPolyline
 90
5
 70
0
 10
300.0
 20
500.0
 10
407.0
 20
500.0
 10
407.0
 20
525.0
 10
300.0
 20
525.0
 10
300.0
 20
500.0
  0
CIRCLE
  5
4C
330
17
100
AcDbEntity
  8
0
100
AcDbCircle
 10
440.0
 20
540.0
 30
0.0
 40
24.0
  0
LWPOLYLINE
  5
4D
330
17
100
AcDbEntity
  8
0
100
AcDbPolyline
 90
5
 70
0
 10
500.0
 20
500.0
 10
628.0
 20
500.0
 10
628.0
 20
584.0
 10
500.0
 20
584.0
 10
500.0
 20
500.0
  0
CIRCLE
  5
4E
330
17
100
AcDbEntity
  8
0
100
AcDbCircle
 10
640.0
 20
540.0
 30
0.0
 40
46.0
  0
LWPOLYLINE
  5
4F
330
17
100
AcDbEntity
  8
0
100
AcDbPolyline
 90
5
 70
0
 10
700.0
 20
500.0
 10
822.0
 20
500.0
 10
822.0
 20
548.0
 10
700.0
 20
548.0
 10
700.0
 20
500.0
  0
CIRCLE
  5
50
330
17
100
AcDbEntity
  8
0
100
AcDbCircle
 10
840.0
 20
540.0
 30
0.0
 40
53.0
  0
LWPOLYLINE
  5
51
330
17
100
AcDbEntity
  8
0
100
AcDbPolyline
 90
5
 70
0
 10
900.0
 20
500.0
 10
1045.0
 20
500.0
 10
1045.0
 20
586.0
 10
900.0
 20
586.0
 10
900.0
 20
500.0
  0
CIRCLE
  5
52
330
17
100
AcDbEntity
  8
0
100
AcDbCircle
 10
1040.0
 20
540.0
 30
0.0
 40
57.0
  0
LWPOLYLINE
  5
53
330
17
100
AcDbEntity
  8
0
100
AcDbPolyline
 90
5
 70
0
 10
1100.0
 20
500.0
 10
1187.0
 20
500.0
 10
1187.0
 20
595.0
 10
1100.0
 20
595.0
 10
1100.0
 20
500.0
  0
CIRCLE
  5
54
330
17
100
AcDbEntity
  8
0
100
AcDbCircle
 10
1240.0
 20
540.0
 30
0.0
 40
40.0
  0
LWPOLYLINE
  5
55
330
17
100
AcDbEntity
  8
0
100
AcDbPolyline
 90
5
 70
0
 10
1300.0
 20
500.0
 10
1352.0
 20
500.0
 10
1352.0
 20
598.0
 10
1300.0
 20
598.0
 10
1300.0
 20
500.0
  0
CIRCLE
  5
56
330
17
100
AcDbEntity
  8
0
100
AcDbCircle
 10
1440.0
 20
540.0
 30
0.0
 40
49.0
  0
LWPOLYLINE
  5
57
330
17
100
AcDbEntity
  8
0
100
AcDbPolyline
 90
5
 70
0
 10
1500.0
 20
500.0
 10
1641.0
 20
500.0
 10
1641.0
 20
582.0
 10
1500.0
 20
582.0
 10
1500.0
 20
500.0
  0
CIRCLE
  5
58
330
17
100
AcDbEntity
  8
0
100
AcDbCircle
 10
1640.0
 20
540.0
 30
0.0
 40
32.0
  0
LWPOLYLINE
  5
59
330
17
100
AcDbEntity
  8
0
100
AcDbPolyline
 90
5
 70
0
 10
1700.0
 20
500.0
 10
1797.0
 20
500.0
 10
1797.0
 20
560.0
 10
1700.0
 20
560.0
 10
1700.0
 20
500.0
  0
CIRCLE
  5
5A
330
17
100
AcDbEntity
  8
0
100
AcDbCircle
 10
1840.0
 20
540.0
 30
0.0
 40
56.0
  0
LWPOLYLINE
  5
5B
330
17
100
AcDbEntity
  8
0
100
AcDbPolyline
 90
5
 70
0
 10
1900.0
 20
500.0
 10
2016.0
 20
500.0
 10
2016.0
 20
532.0
 10
1900.0
 20
532.0
 10
1900.0
 20
500.0
  0
CIRCLE
  5
5C
330
17
100
AcDbEntity
  8
0
100
AcDbCircle
 10
2040.0
 20
540.0
 30
0.0
 40
45.0
  0
LWPOLYLINE
  5
5D
330
17
100
AcDbEntity
  8
0
100
AcDbPolyline
 90
5
 70
0
 10
2100.0
 20
500.0
 10
2237.0
 20
500.0
 10
2237.0
 20
569.0
 10
2100.0
 20
569.0
 10
2100.0
 20
500.0
  0
CIRCLE
  5
5E
330
17
100
AcDbEntity
  8
0
100
AcDbCircle
 10
2240.0
 20
540.0
 30
0.0
 40
32.0
  0
LWPOLYLINE
  5
5F
330
17
100
AcDbEntity
  8
0
100
AcDbPolyline
 90
5
 70
0
 10
2300.0
 20
500.0
 10
2429.0
 20
500.0
 10
2429.0
 20
568.0
 10
2300.0
 20
568.0
 10
2300.0
 20
500.0
  0
CIRCLE
  5
60
330
17
100
AcDbEntity
  8
0
100
AcDbCircle
 10
2440.0
 20
540.0
 30
0.0
 40
37.0
  0
LWPOLYLINE
  5
61
330
17
100
AcDbEntity
  8
0
100
AcDbPolyline
 90
5
 70
0
 10
0.0
 20
1000.0
 10
120.0
 20
1000.0
 10
120.0
 20
1032.0
 10
0.0
 20
1032.0
 10
0.0
 20
1000.0
  0
CIRCLE
  5
62
330
17
100
AcDbEntity
  8
0
100
AcDbCircle
 10
140.0
 20
1040.0
 30
0.0
 40
21.0
  0
LWPOLYLINE
  5
63
330
17
100
AcDbEntity
  8
0
100
AcDbPolyline
 90
5
 70
0
 10
200.0
 20
1000.0
 10
345.0
 20
1000.0
 10
345.0
 20
1069.0
 10
200.0
 20
1069.0
 10
200.0
 20
1000.0
  0
CIRCLE
  5
64
330
17
100
AcDbEntity
  8
0
100
AcDbCircle
 10
340.0
 20
1040.0
 30
0.0
 40
60.0
  0
LWPOLYLINE
  5
65
330
17
100
AcDbEntity
  8
0
100
AcDbPolyline
 90
5
 70
0
 10
400.0
 20
1000.0
 10
501.0
 20
1000.0
 10
501.0
 20
1058.0
 10
400.0
 20
1058.0
 10
400.0
 20
1000.0
  0
CIRCLE
  5
66
330
17
100
AcDbEntity
  8
0
100
AcDbCircle
 10
540.0
 20
1040.0
 30
0.0
 40
53.0
  0
LWPOLYLINE
  5
67
330
17
100
AcDbEntity
  8
0
100
AcDbPolyline
 90
5
 70
0
 10
600.0
 20
1000.0
 10
689.0
 20
1000.0
 10
689.0
 20
1048.0
 10
600.0
 20
1048.0
 10
600.0
 20
1000.0
  0
CIRCLE
  5
68
330
17
100
AcDbEntity
  8
0
100
AcDbCircle
 10
740.0
 20
1040.0
 30
0.0
 40
49.0
  0
LWPOLYLINE
  5
69
330
17
100
AcDbEntity
  8
0
100
AcDbPolyline
 90
5
 70
0
 10
800.0
 20
1000.0
 10
943.0
 20
1000.0
 10
943.0
 20
1067.0
 10
800.0
 20
1067.0
 10
800.0
 20
1000.0
  0
CIRCLE
  5
6A
330
17
100
AcDbEntity
  8
0
100
AcDbCircle
 10
940.0
 20
1040.0
 30
0.0
 40
59.0
  0
LWPOLYLINE
  5
6B
330
17
100
AcDbEntity
  8
0
100
AcDbPolyline
 90
5
 70
0
 10
1000.0
 20
1000.0
 10
1083.0
 20
1000.0
 10
1083.0
 20
1030.0
 10
1000.0
 20
1030.0
 10
1000.0
 20
1000.0
  0
CIRCLE
  5
6C
330
17
100
AcDbEntity
  8
0
100
AcDbCircle
 10
1140.0
 20
1040.0
 30
0.0
 40
52.0
  0
LWPOLYLINE
  5
6D
330
17
100
AcDbEntity
  8
0
100
AcDbPolyline
 90
5
 70
0
 10
1200.0
 20
1000.0
 10
1276.0
 20
1000.0
 10
1276.0
 20
1059.0
 10
1200.0
 20
1059.0
 10
1200.0
 20
1000.0
  0
CIRCLE
  5
6E
330
17
100
AcDbEntity
  8
0
100
AcDbCircle
 10
1340.0
 20
1040.0
 30
0.0
 40
16.0
  0
LWPOLYLINE
  5
6F
330
17
100
AcDbEntity
  8
0
100
AcDbPolyline
 90
5
 70
0
 10
1400.0
 20
1000.0
 10
1434.0
 20
1000.0
 10
1434.0
 20
1028.0
 10
1400.0
 20
1028.0
 10
1400.0
 20
1000.0
  0
CIRCLE
  5
70
330
17
100
AcDbEntity
  8
0
100
AcDbCircle
 10
1540.0
 20
1040.0
 30
0.0
 40
16.0
  0
LWPOLYLINE
  5
71
330
17
100
AcDbEntity
  8
0
100
AcDbPolyline
 90
5
 70
0
 10
1600.0
 20
1000.0
 10
1633.0
 20
1000.0
 10
1633.0
 20
1047.0
 10
1600.0
 20
1047.0
 10
1600.0
 20
1000.0
  0
CIRCLE
  5
72
330
17
100
AcDbEntity
  8
0
100
AcDbCircle
 10
1740.0
 20
1040.0
 30
0.0
 40
56.0
  0
LWPOLYLINE
  5
73
330
17
100
AcDbEntity
  8
0
100
AcDbPolyline
 90
5
 70
0
 10
1800.0
 20
1000.0
 10
1880.0
 20
1000.0
 10
1880.0
 20
1034.0
 10
1800.0
 20
1034.0
 10
1800.0
 20
1000.0
  0
CIRCLE
  5
74
330
17
100
AcDbEntity
  8
0
100
AcDbCircle
 10
1940.0
 20
1040.0
 30
0.0
 40
59.0
  0
LWPOLYLINE
  5
75
330
17
100
AcDbEntity
  8
0
100
AcDbPolyline
 90
5
 70
0
 10
2000.0
 20
1000.0
 10
2090.0
 20
1000.0
 10
2090.0
 20
1055.0
 10
2000.0
 20
1055.0
 10
2000.0
 20
1000.0
  0
CIRCLE
  5
76
330
17
100
AcDbEntity
  8
0
100
AcDbCircle
 10
2140.0
 20
1040.0
 30
0.0
 40
30.0
  0
LWPOLYLINE
  5
77
330
17
100
AcDbEntity
  8
0
100
AcDbPolyline
 90
5
 70
0
 10
2200.0
 20
1000.0
 10
2319.0
 20
1000.0
 10
2319.0
 20
1059.0
 10
2200.0
 20
1059.0
 10
2200.0
 20
1000.0
  0
CIRCLE
  5
78
330
17
100
AcDbEntity
  8
0
100
AcDbCircle
 10
2340.0
 20
1040.0
 30
0.0
 40
54.0
  0
LWPOLYLINE
  5
79
330
17
100
AcDbEntity
  8
0
100
AcDbPolyline
 90
5
 70
0
 10
2400.0
 20
1000.0
 10
2479.0
 20
1000.0
 10
2479.0
 20
1061.0
 10
2400.0
 20
1061.0
 10
2400.0
 20
1000.0
  0
CIRCLE
  5
7A
330
17
100
AcDbEntity
  8
0
100
AcDbCircle
 10
40.0
 20
1540.0
 30
0.0
 40
45.0
  0
LWPOLYLINE
  5
7B
330
17
100
AcDbEntity
  8
0
100
AcDbPolyline
 90
5
 70
0
 10
100.0
 20
1500.0
 10
189.0
 20
1500.0
 10
189.0
 20
1547.0
 10
100.0
 20
1547.0
 10
100.0
 20
1500.0
  0
CIRCLE
  5
7C
330
17
100
AcDbEntity
  8
0
100
AcDbCircle
 10
240.0
 20
1540.0
 30
0.0
 40
52.0
  0
LWPOLYLINE
  5
7D
330
17
100
AcDbEntity
  8
0
100
AcDbPolyline
 90
5
 70
0
 10
300.0
 20
1500.0
 10
393.0
 20
1500.0
 10
393.0
 20
1595.0
 10
300.0
 20
1595.0
 10
300.0
 20
1500.0
  0
CIRCLE
  5
7E
330
17
100
AcDbEntity
  8
0
100
AcDbCircle
 10
440.0
 20
1540.0
 30
0.0
 40
15.0
  0
LWPOLYLINE
  5
7F
330
17
100
AcDbEntity
  8
0
100
AcDbPolyline
 90
5
 70
0
 10
500.0
 20
1500.0
 10
530.0
 20
1500.0
 10
530.0
 20
1543.0
 10
500.0
 20
1543.0
 10
500.0
 20
1500.0
  0
CIRCLE
  5
80
330
17
100
AcDbEntity
  8
0
100
AcDbCircle
 10
640.0
 20
1540.0
 30
0.0
 40
56.0
  0
LWPOLYLINE
  5
81
330
17
100
AcDbEntity
  8
0
100
AcDbPolyline
 90
5
 70
0
 10
700.0
 20
1500.0
 10
740.0
 20
1500.0
 10
740.0
 20
1589.0
 10
700.0
 20
1589.0
 10
700.0
 20
1500.0
  0
CIRCLE
  5
82
330
17
100
AcDbEntity
  8
0
100
AcDbCircle
 10
840.0
 20
1540.0
 30
0.0
 40
45.0
  0
LWPOLYLINE
  5
83
330
17
100
AcDbEntity
  8
0
100
AcDbPolyline
 90
5
 70
0
 10
900.0
 20
1500.0
 10
944.0
 20
1500.0
 10
944.0
 20
1568.0
 10
900.0
 20
1568.0
 10
900.0
 20
1500.0
  0
CIRCLE
  5
84
330
17
100
AcDbEntity
  8
0
100
AcDbCircle
 10
1040.0
 20
1540.0
 30
0.0
 40
36.0
  0
LWPOLYLINE
  5
85
330
17
100
AcDbEntity
  8
0
100
AcDbPolyline
 90
5
 70
0
 10
1100.0
 20
1500.0
 10
1183.0
 20
1500.0
 10
1183.0
 20
1543.0
 10
1100.0
 20
1543.0
 10
1100.0
 20
1500.0
  0
CIRCLE
  5
86
330
17
100
AcDbEntity
  8
0
100
AcDbCircle
 10
1240.0
 20
1540.0
 30
0.0
 40
33.0
  0
LWPOLYLINE
  5
87
330
17
100
AcDbEntity
  8
0
100
AcDbPolyline
 90
5
 70
0
 10
1300.0
 20
1500.0
 10
1377.0
 20
1500.0
 10
1377.0
 20
1526.0
 10
1300.0
 20
1526.0
 10
1300.0
 20
1500.0
  0
CIRCLE
  5
88
330
17
100
AcDbEntity
  8
0
100
AcDbCircle
 10
1440.0
 20
1540.0
 30
0.0
 40
51.0
  0
LWPOLYLINE
  5
89
330
17
100
AcDbEntity
  8
0
100
AcDbPolyline
 90
5
 70
0
 10
1500.0
 20
1500.0
 10
1612.0
 20
1500.0
 10
1612.0
 20
1576.0
 10
1500.0
 20
1576.0
 10
1500.0
 20
1500.0
  0
CIRCLE
  5
8A
330
17
100
AcDbEntity
  8
0
100
AcDbCircle
 10
1640.0
 20
1540.0
 30
0.0
 40
45.0
  0
LWPOLYLINE
  5
8B
330
17
100
AcDbEntity
  8
0
100
AcDbPolyline
 90
5
 70
0
 10
1700.0
 20
1500.0
 10
1754.0
 20
1500.0
 10
1754.0
 20
1531.0
 10
1700.0
 20
1531.0
 10
1700.0
 20
1500.0
  0
CIRCLE
  5
8C
330
17
100
AcDbEntity
  8
0
100
AcDbCircle
 10
1840.0
 20
1540.0
 30
0.0
 40
50.0
  0
LWPOLYLINE
  5
8D
330
17
100
AcDbEntity
  8
0
100
AcDbPolyline
 90
5
 70
0
 10
1900.0
 20
1500.0
 10
2025.0
 20
1500.0
 10
2025.0
 20
1529.0
 10
1900.0
 20
1529.0
 10
1900.0
 20
1500.0
  0
CIRCLE
  5
8E
330
17
100
AcDbEntity
  8
0
100
AcDbCircle
 10
2040.0
 20
1540.0
 30
0.0
 40
47.0
  0
LWPOLYLINE
  5
8F
330
17
100
AcDbEntity
  8
0
100
AcDbPolyline
 90
5
 70
0
 10
2100.0
 20
1500.0
 10
2202.0
 20
1500.0
 10
2202.0
 20
1594.0
 10
2100.0
 20
1594.0
 10
2100.0
 20
1500.0
  0
CIRCLE
  5
90
330
17
100
AcDbEntity
  8
0
100
AcDbCircle
 10
2240.0
 20
1540.0
 30
0.0
 40
15.0
  0
LWPOLYLINE
  5
91
330
17
100
AcDbEntity
  8
0
100
AcDbPolyline
 90
5
 70
0
 10
2300.0
 20
1500.0
 10
2430.0
 20
1500.0
 10
2430.0
 20
1567.0
 10
2300.0
 20
1567.0
 10
2300.0
 20
1500.0
  0
CIRCLE
  5
92
330
17
100
AcDbEntity
  8
0
100
AcDbCircle
 10
2440.0
 20
1540.0
 30
0.0
 40
38.0
  0
LWPOLYLINE
  5
93
330
17
100
AcDbEntity
  8
0
100
AcDbPolyline
 90
5
 70
0
 10
0.0
 20
2000.0
 10
75.0
 20
2000.0
 10
75.0
 20
2062.0
 10
0.0
 20
2062.0
 10
0.0
 20
2000.0
  0
CIRCLE
  5
94
330
17
100
AcDbEntity
  8
0
100
AcDbCircle
 10
140.0
 20
2040.0
 30
0.0
 40
39.0
  0
LWPOLYLINE
  5
95
330
17
100
AcDbEntity
  8
0
100
AcDbPolyline
 90
5
 70
0
 10
200.0
 20
2000.0
 10
230.0
 20
2000.0
 10
230.0
 20
2032.0
 10
200.0
 20
2032.0
 10
200.0
 20
2000.0
  0
CIRCLE
  5
96
330
17
100
AcDbEntity
  8
0
100
AcDbCircle
 10
340.0
 20
2040.0
 30
0.0
 40
60.0
  0
LWPOLYLINE
  5
97
330
17
100
AcDbEntity
  8
0
100
AcDbPolyline
 90
5
 70
0
 10
400.0
 20
2000.0
 10
509.0
 20
2000.0
 10
509.0
 20
2087.0
 10
400.0
 20
2087.0
 10
400.0
 20
2000.0
  0
CIRCLE
  5
98
330
17
100
AcDbEntity
  8
0
100
AcDbCircle
 10
540.0
 20
2040.0
 30
0.0
 40
42.0
  0
LWPOLYLINE
  5
99
330
17
100
AcDbEntity
  8
0
100
AcDbPolyline
 90
5
 70
0
 10
600.0
 20
2000.0
 10
727.0
 20
2000.0
 10
727.0
 20
2088.0
 10
600.0
 20
2088.0
 10
600.0
 20
2000.0
  0
CIRCLE
  5
9A
330
17
100
AcDbEntity
  8
0
100
AcDbCircle
 10
740.0
 20
2040.0
 30
0.0
 40
50.0
  0
LWPOLYLINE
  5
9B
330
17
100
AcDbEntity
  8
0
100
AcDbPolyline
 90
5
 70
0
 10
800.0
 20
2000.0
 10
904.0
 20
2000.0
 10
904.0
 20
2048.0
 10
800.0
 20
2048.0
 10
800.0
 20
2000.0
  0
CIRCLE
  5
9C
330
17
100
AcDbEntity
  8
0
100
AcDbCircle
 10
940.0
 20
2040.0
 30
0.0
 40
57.0
  0
LWPOLYLINE
  5
9D
330
17
100
AcDbEntity
  8
0
100
AcDbPolyline
 90
5
 70
0
 10
1000.0
 20
2000.0
 10
1059.0
 20
2000.0
 10
1059.0
 20
2069.0
 10
1000.0
 20
2069.0
 10
1000.0
 20
2000.0
  0
CIRCLE
  5
9E
330
17
100
AcDbEntity
  8
0
100
AcDbCircle
 10
1140.0
 20
2040.0
 30
0.0
 40
16.0
  0
LWPOLYLINE
  5
9F
330
17
100
AcDbEntity
  8
0
100
AcDbPolyline
 90
5
 70
0
 10
1200.0
 20
2000.0
 10
1264.0
 20
2000.0
 10
1264.0
 20
2035.0
 10
1200.0
 20
2035.0
 10
1200.0
 20
2000.0
  0
CIRCLE
  5
A0
330
17
100
AcDbEntity
  8
0
100
AcDbCircle
 10
1340.0
 20
2040.0
 30
0.0
 40
20.0
  0
LWPOLYLINE
  5
A1
330
17
100
AcDbEntity
  8
0
100
AcDbPolyline
 90
5
 70
0
 10
1400.0
 20
2000.0
 10
1522.0
 20
2000.0
 10
1522.0
 20
2031.0
 10
1400.0
 20
2031.0
 10
1400.0
 20
2000.0
  0
CIRCLE
  5
A2
330
17
100
AcDbEntity
  8
0
100
AcDbCircle
 10
1540.0
 20
2040.0
 30
0.0
 40
38.0
  0
LWPOLYLINE
  5
A3
330
17
100
AcDbEntity
  8
0
100
AcDbPolyline
 90
5
 70
0
 10
1600.0
 20
2000.0
 10
1732.0
 20
2000.0
 10
1732.0
 20
2087.0
 10
1600.0
 20
2087.0
 10
1600.0
 20
2000.0
  0
CIRCLE
  5
A4
330
17
100
AcDbEntity
  8
0
100
AcDbCircle
 10
1740.0
 20
2040.0
 30
0.0
 40
59.0
  0
LWPOLYLINE
  5
A5
330
17
100
AcDbEntity
  8
0
100
AcDbPolyline
 90
5
 70
0
 10
1800.0
 20
2000.0
 10
1928.0
 20
2000.0
 10
1928.0
 20
2032.0
 10
1800.0
 20
2032.0
 10
1800.0
 20
2000.0
  0
CIRCLE
  5
A6
330
17
100
AcDbEntity
  8
0
100
AcDbCircle
 10
1940.0
 20
2040.0
 30
0.0
 40
36.0
  0
LWPOLYLINE
  5
A7
330
17
100
AcDbEntity
  8
0
100
AcDbPolyline
 90
5
 70
0
 10
2000.0
 20
2000.0
 10
2147.0
 20
2000.0
 10
2147.0
 20
2052.0
 10
2000.0
 20
2052.0
 10
2000.0
 20
2000.0
  0
CIRCLE
  5
A8
330
17
100
AcDbEntity
  8
0
100
AcDbCircle
 10
2140.0
 20
2040.0
 30
0.0
 40
28.0
  0
LWPOLYLINE
  5
A9
330
17
100
AcDbEntity
  8
0
100
AcDbPolyline
 90
5
 70
0
 10
2200.0
 20
2000.0
 10
2311.0
 20
2000.0
 10
2311.0
 20
2091.0
 10
2200.0
 20
2091.0
 10
2200.0
 20
2000.0
  0
CIRCLE
  5
AA
330
17
100
AcDbEntity
  8
0
100
AcDbCircle
 10
2340.0
 20
2040.0
 30
0.0
 40
26.0
  0
LWPOLYLINE
  5
AB
330
17
100
AcDbEntity
  8
0
100
AcDbPolyline
 90
5
 70
0
 10
2400.0
 20
2000.0
 10
2541.0
 20
2000.0
 10
2541.0
 20
2074.0
 10
2400.0
 20
2074.0
 10
2400.0
 20
2000.0
  0
CIRCLE
  5
AC
330
17
100
AcDbEntity
  8
0
100
AcDbCircle
 10
40.0
 20
2540.0
 30
0.0
 40
17.0
  0
LWPOLYLINE
  5
AD
330
17
100
AcDbEntity
  8
0
100
AcDbPolyline
 90
5
 70
0
 10
100.0
 20
2500.0
 10
165.0
 20
2500.0
 10
165.0
 20
2569.0
 10
100.0
 20
2569.0
 10
100.0
 20
2500.0
  0
CIRCLE
  5
AE
330
17
100
AcDbEntity
  8
0
100
AcDbCircle
 10
240.0
 20
2540.0
 30
0.0
 40
36.0
  0
LWPOLYLINE
  5
AF
330
17
100
AcDbEntity
  8
0
100
AcDbPolyline
 90
5
 70
0
 10
300.0
 20
2500.0
 10
330.0
 20
2500.0
 10
330.0
 20
2556.0
 10
300.0
 20
2556.0
 10
300.0
 20
2500.0
  0
CIRCLE
  5
B0
330
17
100
AcDbEntity
  8
0
100
AcDbCircle
 10
440.0
 20
2540.0
 30
0.0
 40
31.0
  0
LWPOLYLINE
  5
B1
330
17
100
AcDbEntity
  8
0
100
AcDbPolyline
 90
5
 70
0
 10
500.0
 20
2500.0
 10
551.0
 20
2500.0
 10
551.0
 20
2538.0
 10
500.0
 20
2538.0
 10
500.0
 20
2500.0
  0
CIRCLE
  5
B2
330
17
100
AcDbEntity
  8
0
100
AcDbCircle
 10
640.0
 20
2540.0
 30
0.0
 40
47.0
  0
LWPOLYLINE
  5
B3
330
17
100
AcDbEntity
  8
0
100
AcDbPolyline
 90
5
 70
0
 10
700.0
 20
2500.0
 10
793.0
 20
2500.0
 10
793.0
 20
2596.0
 10
700.0
 20
2596.0
 10
700.0
 20
2500.0
  0
CIRCLE
  5
B4
330
17
100
AcDbEntity
  8
0
100
AcDbCircle
 10
840.0
 20
2540.0
 30
0.0
 40
46.0
  0
LWPOLYLINE
  5
B5
330
17
100
AcDbEntity
  8
0
100
AcDbPolyline
 90
5
 70
0
 10
900.0
 20
2500.0
 10
1017.0
 20
2500.0
 10
1017.0
 20
2592.0
 10
900.0
 20
2592.0
 10
900.0
 20
2500.0
  0
CIRCLE
  5
B6
330
17
100
AcDbEntity
  8
0
100
AcDbCircle
 10
1040.0
 20
2540.0
 30
0.0
 40
41.0
  0
LWPOLYLINE
  5
B7
330
17
100
AcDbEntity
  8
0
100
AcDbPolyline
 90
5
 70
0
 10
1100.0
 20
2500.0
 10
1186.0
 20
2500.0
 10
1186.0
 20
2531.0
 10
1100.0
 20
2531.0
 10
1100.0
 20
2500.0
  0
CIRCLE
  5
B8
330
17
100
AcDbEntity
  8
0
100
AcDbCircle
 10
1240.0
 20
2540.0
 30
0.0
 40
53.0
  0
LWPOLYLINE
  5
B9
330
17
100
AcDbEntity
  8
0
100
AcDbPolyline
 90
5
 70
0
 10
1300.0
 20
2500.0
 10
1417.0
 20
2500.0
 10
1417.0
 20
2572.0
 10
1300.0
 20
2572.0
 10
1300.0
 20
2500.0
  0
CIRCLE
  5
BA
330
17
100
AcDbEntity
  8
0
100
AcDbCircle
 10
1440.0
 20
2540.0
 30
0.0
 40
24.0
  0
LWPOLYLINE
  5
BB
330
17
100
AcDbEntity
  8
0
100
AcDbPolyline
 90
5
 70
0
 10
1500.0
 20
2500.0
 10
1642.0
 20
2500.0
 10
1642.0
 20
2565.0
 10
1500.0
 20
2565.0
 10
1500.0
 20
2500.0
  0
CIRCLE
  5
BC
330
17
100
AcDbEntity
  8
0
100
AcDbCircle
 10
1640.0
 20
2540.0
 30
0.0
 40
44.0
  0
LWPOLYLINE
  5
BD
330
17
100
AcDbEntity
  8
0
100
AcDbPolyline
 90
5
 70
0
 10
1700.0
 20
2500.0
 10
1741.0
 20
2500.0
 10
1741.0
 20
2573.0
 10
1700.0
 20
2573.0
 10
1700.0
 20
2500.0
  0
CIRCLE
  5
BE
330
17
100
AcDbEntity
  8
0
100
AcDbCircle
 10
1840.0
 20
2540.0
 30
0.0
 40
31.0
  0
LWPOLYLINE
  5
BF
330
17
100
AcDbEntity
  8
0
100
AcDbPolyline
 90
5
 70
0
 10
1900.0
 20
2500.0
 10
2040.0
 20
2500.0
 10
2040.0
 20
2598.0
 10
1900.0
 20
2598.0
 10
1900.0
 20
2500.0
  0
CIRCLE
  5
C0
330
17
100
AcDbEntity
  8
0
100
AcDbCircle
 10
2040.0
 20
2540.0
 30
0.0
 40
27.0
  0
LWPOLYLINE
  5
C1
330
17
100
AcDbEntity
  8
0
100
AcDbPolyline
 90
5
 70
0
 10
2100.0
 20
2500.0
 10
2198.0
 20
2500.0
 10
2198.0
 20
2530.0
 10
2100.0
 20
2530.0
 10
2100.0
 20
2500.0
  0
CIRCLE
  5
C2
330
17
100
AcDbEntity
  8
0
100
AcDbCircle
 10
2240.0
 20
2540.0
 30
0.0
 40
53.0
  0
LWPOLYLINE
  5
C3
330
17
100
AcDbEntity
  8
0
100
AcDbPolyline
 90
5
 70
0
 10
2300.0
 20
2500.0
 10
2442.0
 20
2500.0
 10
2442.0
 20
2578.0
 10
2300.0
 20
2578.0
 10
2300.0
 20
2500.0
  0
CIRCLE
  5
C4
330
17
100
AcDbEntity
  8
0
100
AcDbCircle
 10
2440.0
 20
2540.0
 30
0.0
 40
38.0
  0
LWPOLYLINE
  5
C5
330
17
100
AcDbEntity
  8
0
100
AcDbPolyline
 90
5
 70
0
 10
0.0
 20
3000.0
 10
92.0
 20
3000.0
 10
92.0
 20
3067.0
 10
0.0
 20
3067.0
 10
0.0
 20
3000.0
  0
CIRCLE
  5
C6
330
17
100
AcDbEntity
  8
0
100
AcDbCircle
 10
140.0
 20
3040.0
 30
0.0
 40
38.0
  0
LWPOLYLINE
  5
C7
330
17
100
AcDbEntity
  8
0
100
AcDbPolyline
 90
5
 70
0
 10
200.0
 20
3000.0
 10
276.0
 20
3000.0
 10
276.0
 20
3069.0
 10
200.0
 20
3069.0
 10
200.0
 20
3000.0
  0
CIRCLE
  5
C8
330
17
100
AcDbEntity
  8
0
100
AcDbCircle
 10
340.0
 20
3040.0
 30
0.0
 40
25.0
  0
LWPOLYLINE
  5
C9
330
17
100
AcDbEntity
  8
0
100
AcDbPolyline
 90
5
 70
0
 10
400.0
 20
3000.0
 10
475.0
 20
3000.0
 10
475.0
 20
3034.0
 10
400.0
 20
3034.0
 10
400.0
 20
3000.0
  0
CIRCLE
  5
CA
330
17
100
AcDbEntity
  8
0
100
AcDbCircle
 10
540.0
 20
3040.0
 30
0.0
 40
50.0
  0
LWPOLYLINE
  5
CB
330
17
100
AcDbEntity
  8
0
100
AcDbPolyline
 90
5
 70
0
 10
600.0
 20
3000.0
 10
736.0
 20
3000.0
 10
736.0
 20
3075.0
 10
600.0
 20
3075.0
 10
600.0
 20
3000.0
  0
CIRCLE
  5
CC
330
17
100
AcDbEntity
  8
0
100
AcDbCircle
 10
740.0
 20
3040.0
 30
0.0
 40
23.0
  0
LWPOLYLINE
  5
CD
330
17
100
AcDbEntity
  8
0
100
AcDbPolyline
 90
5
 70
0
 10
800.0
 20
3000.0
 10
905.0
 20
3000.0
 10
905.0
 20
3100.0
 10
800.0
 20
3100.0
 10
800.0
 20
3000.0
  0
CIRCLE
  5
CE
330
17
100
AcDbEntity
  8
0
100
AcDbCircle
 10
940.0
 20
3040.0
 30
0.0
 40
15.0
  0
LWPOLYLINE
  5
CF
330
17
100
AcDbEntity
  8
0
100
AcDbPolyline
 90
5
 70
0
 10
1000.0
 20
3000.0
 10
1101.0
 20
3000.0
 10
1101.0
 20
3086.0
 10
1000.0
 20
3086.0
 10
1000.0
 20
3000.0
  0
CIRCLE
  5
D0
330
17
100
AcDbEntity
  8
0
100
AcDbCircle
 10
1140.0
 20
3040.0
 30
0.0
 40
22.0
  0
LWPOLYLINE
  5
D1
330
17
100
AcDbEntity
  8
0
100
AcDbPolyline
 90
5
 70
0
 10
1200.0
 20
3000.0
 10
1342.0
 20
3000.0
 10
1342.0
 20
3088.0
 10
1200.0
 20
3088.0
 10
1200.0
 20
3000.0
  0
CIRCLE
  5
D2
330
17
100
AcDbEntity
  8
0
100
AcDbCircle
 10
1340.0
 20
3040.0
 30
0.0
 40
52.0
  0
LWPOLYLINE
  5
D3
330
17
100
AcDbEntity
  8
0
100
AcDbPolyline
 90
5
 70
0
 10
1400.0
 20
3000.0
 10
1517.0
 20
3000.0
 10
1517.0
 20
3043.0
 10
1400.0
 20
3043.0
 10
1400.0
 20
3000.0
  0
CIRCLE
  5
D4
330
17
100
AcDbEntity
  8
0
100
AcDbCircle
 10
1540.0
 20
3040.0
 30
0.0
 40
41.0
  0
LWPOLYLINE
  5
D5
330
17
100
AcDbEntity
  8
0
100
AcDbPolyline
 90
5
 70
0
 10
1600.0
 20
3000.0
 10
1649.0
 20
3000.0
 10
1649.0
 20
3054.0
 10
1600.0
 20
3054.0
 10
1600.0
 20
3000.0
  0
CIRCLE
  5
D6
330
17
100
AcDbEntity
  8
0
100
AcDbCircle
 10
1740.0
 20
3040.0
 30
0.0
 40
20.0
  0
LWPOLYLINE
  5
D7
330
17
100
AcDbEntity
  8
0
100
AcDbPolyline
 90
5
 70
0
 10
1800.0
 20
3000.0
 10
1860.0
 20
3000.0
 10
1860.0
 20
3096.0
 10
1800.0
 20
3096.0
 10
1800.0
 20
3000.0
  0
CIRCLE
  5
D8
330
17
100
AcDbEntity
  8
0
100
AcDbCircle
 10
1940.0
 20
3040.0
 30
0.0
 40
17.0
  0
LWPOLYLINE
  5
D9
330
17
100
AcDbEntity
  8
0
100
AcDbPolyline
 90
5
 70
0
 10
2000.0
 20
3000.0
 10
2054.0
 20
3000.0
 10
2054.0
 20
3027.0
 10
2000.0
 20
3027.0
 10
2000.0
 20
3000.0
  0
CIRCLE
  5
DA
330
17
100
AcDbEntity
  8
0
100
AcDbCircle
 10
2140.0
 20
3040.0
 30
0.0
 40
29.0
  0
LWPOLYLINE
  5
DB
330
17
100
AcDbEntity
  8
0
100
AcDbPolyline
 90
5
 70
0
 10
2200.0
 20
3000.0
 10
2269.0
 20
3000.0
 10
2269.0
 20
3087.0
 10
2200.0
 20
3087.0
 10
2200.0
 20
3000.0
  0
CIRCLE
  5
DC
330
17
100
AcDbEntity
  8
0
100
AcDbCircle
 10
2340.0
 20
3040.0
 30
0.0
 40
51.0
  0
LWPOLYLINE
  5
DD
330
17
100
AcDbEntity
  8
0
100
AcDbPolyline
 90
5
 70
0
 10
2400.0
 20
3000.0
 10
2483.0
 20
3000.0
 10
2483.0
 20
3055.0
 10
2400.0
 20
3055.0
 10
2400.0
 20
3000.0
  0
CIRCLE
  5
DE
330
17
100
AcDbEntity
  8
0
100
AcDbCircle
 10
40.0
 20
3540.0
 30
0.0
 40
57.0
  0
LWPOLYLINE
  5
DF
330
17
100
AcDbEntity
  8
0
100
AcDbPolyline
 90
5
 70
0
 10
100.0
 20
3500.0
 10
203.0
 20
3500.0
 10
203.0
 20
3533.0
 10
100.0
 20
3533.0
 10
100.0
 20
3500.0
  0
CIRCLE
  5
E0
330
17
100
AcDbEntity
  8
0
100
AcDbCircle
 10
240.0
 20
3540.0
 30
0.0
 40
32.0
  0
LWPOLYLINE
  5
E1
330
17
100
AcDbEntity
  8
0
100
AcDbPolyline
 90
5
 70
0
 10
300.0
 20
3500.0
 10
424.0
 20
3500.0
 10
424.0
 20
3531.0
 10
300.0
 20
3531.0
 10
300.0
 20
3500.0
  0
CIRCLE
  5
E2
330
17
100
AcDbEntity
  8
0
100
AcDbCircle
 10
440.0
 20
3540.0
 30
0.0
 40
37.0
  0
LWPOLYLINE
  5
E3
330
17
100
AcDbEntity
  8
0
100
AcDbPolyline
 90
5
 70
0
 10
500.0
 20
3500.0
 10
634.0
 20
3500.0
 10
634.0
 20
3549.0
 10
500.0
 20
3549.0
 10
500.0
 20
3500.0
  0
CIRCLE
  5
E4
330
17
100
AcDbEntity
  8
0
100
AcDbCircle
 10
640.0
 20
3540.0
 30
0.0
 40
41.0
  0
LWPOLYLINE
  5
E5
330
17
100
AcDbEntity
  8
0
100
AcDbPolyline
 90
5
 70
0
 10
700.0
 20
3500.0
 10
741.0
 20
3500.0
 10
741.0
 20
3530.0
 10
700.0
 20
3530.0
 10
700.0
 20
3500.0
  0
CIRCLE
  5
E6
330
17
100
AcDbEntity
  8
0
100
AcDbCircle
 10
840.0
 20
3540.0
 30
0.0
 40
23.0
  0
LWPOLYLINE
  5
E7
330
17
100
AcDbEntity
  8
0
100
AcDbPolyline
 90
5
 70
0
 10
900.0
 20
3500.0
 10
934.0
 20
3500.0
 10
934.0
 20
3567.0
 10
900.0
 20
3567.0
 10
900.0
 20
3500.0
  0
CIRCLE
  5
E8
330
17
100
AcDbEntity
  8
0
100
AcDbCircle
 10
1040.0
 20
3540.0
 30
0.0
 40
30.0
  0
LWPOLYLINE
  5
E9
330
17
100
AcDbEntity
  8
0
100
AcDbPolyline
 90
5
 70
0
 10
1100.0
 20
3500.0
 10
1137.0
 20
3500.0
 10
1137.0
 20
3527.0
 10
1100.0
 20
3527.0
 10
1100.0
 20
3500.0
  0
CIRCLE
  5
EA
330
17
100
AcDbEntity
  8
0
100
AcDbCircle
 10
1240.0
 20
3540.0
 30
0.0
 40
20.0
  0
LWPOLYLINE
  5
EB
330
17
100
AcDbEntity
  8
0
100
AcDbPolyline
 90
5
 70
0
 10
1300.0
 20
3500.0
 10
1372.0
 20
3500.0
 10
1372.0
 20
3588.0
 10
1300.0
 20
3588.0
 10
1300.0
 20
3500.0
  0
CIRCLE
  5
EC
330
17
100
AcDbEntity
  8
0
100
AcDbCircle
 10
1440.0
 20
3540.0
 30
0.0
 40
47.0
  0
LWPOLYLINE
  5
ED
330
17
100
AcDbEntity
  8
0
100
AcDbPolyline
 90
5
 70
0
 10
1500.0
 20
3500.0
 10
1597.0
 20
3500.0
 10
1597.0
 20
3557.0
 10
1500.0
 20
3557.0
 10
1500.0
 20
3500.0
  0
CIRCLE
  5
EE
330
17
100
AcDbEntity
  8
0
100
AcDbCircle
 10
1640.0
 20
3540.0
 30
0.0
 40
35.0
  0
LWPOLYLINE
  5
EF
330
17
100
AcDbEntity
  8
0
100
AcDbPolyline
 90
5
 70
0
 10
1700.0
 20
3500.0
 10
1807.0
 20
3500.0
 10
1807.0
 20
3530.0
 10
1700.0
 20
3530.0
 10
1700.0
 20
3500.0
  0
CIRCLE
  5
F0
330
17
100
AcDbEntity
  8
0
100
AcDbCircle
 10
1840.0
 20
3540.0
 30
0.0
 40
36.0
  0
LWPOLYLINE
  5
F1
330
17
100
AcDbEntity
  8
0
100
AcDbPolyline
 90
5
 70
0
 10
1900.0
 20
3500.0
 10
1995.0
 20
3500.0
 10
1995.0
 20
3565.0
 10
1900.0
 20
3565.0
 10
1900.0
 20
3500.0
  0
CIRCLE
  5
F2
330
17
100
AcDbEntity
  8
0
100
AcDbCircle
 10
2040.0
 20
3540.0
 30
0.0
 40
36.0
  0
LWPOLYLINE
  5
F3
330
17
100
AcDbEntity
  8
0
100
AcDbPolyline
 90
5
 70
0
 10
2100.0
 20
3500.0
 10
2153.0
 20
3500.0
 10
2153.0
 20
3590.0
 10
2100.0
 20
3590.0
 10
2100.0
 20
3500.0
  0
CIRCLE
  5
F4
330
17
100
AcDbEntity
  8
0
100
AcDbCircle
 10
2240.0
 20
3540.0
 30
0.0
 40
49.0
  0
LWPOLYLINE
  5
F5
330
17
100
AcDbEntity
  8
0
100
AcDbPolyline
 90
5
 70
0
 10
2300.0
 20
3500.0
 10
2423.0
 20
3500.0
 10
2423.0
 20
3568.0
 10
2300.0
 20
3568.0
 10
2300.0
 20
3500.0
  0
CIRCLE
  5
F6
330
17
100
AcDbEntity
  8
0
100
AcDbCircle
 10
2440.0
 20
3540.0
 30
0.0
 40
57.0
  0
LWPOLYLINE
  5
F7
330
17
100
AcDbEntity
  8
0
100
AcDbPolyline
 90
9
 70
0
 10
2600.0
 20
0.0
 10
2652.0
 20
0.0
 10
2652.0
 20
13.0
 10
2639.0
 20
13.0
 10
2639.0
 20
41.0
 10
2613.0
 20
41.0
 10
2613.0
 20
13.0
 10
2600.0
 20
13.0
 10
2600.0
 20
0.0
  0
LWPOLYLINE
  5
F8
330
17
100
AcDbEntity
  8
0
100
AcDbPolyline
 90
11
 70
0
 10
2730.0
 20
0.0
 10
2847.0
 20
0.0
 10
2847.0
 20
29.0
 10
2811.9
 20
29.0
 10
2811.9
 20
58.0
 10
2776.8
 20
58.0
 10
2776.8
 20
87.75
 10
2753.4
 20
87.75
 10
2753.4
 20
117.0
 10
2730.0
 20
117.0
 10
2730.0
 20
0.0
  0
LWPOLYLINE
  5
F9
330
17
100
AcDbEntity
  8
0
100
AcDbPolyline
 90
9
 70
0
 10
2860.0
 20
0.0
 10
2947.0
 20
0.0
 10
2947.0
 20
21.0
 10
2926.0
 20
21.0
 10
2926.0
 20
69.0
 10
2881.0
 20
69.0
 10
2881.0
 20
21.0
 10
2860.0
 20
21.0
 10
2860.0
 20
0.0
  0
LWPOLYLINE
  5
FA
330
17
100
AcDbEntity
  8
0
100
AcDbPolyline
 90
7
 70
0
 10
2990.0
 20
0.0
 10
3070.0
 20
0.0
 10
3070.0
 20
26.0
 10
3016.0
 20
26.0
 10
3016.0
 20
80.0
 10
2990.0
 20
80.0
 10
2990.0
 20
0.0
  0
LWPOLYLINE
  5
FB
330
17
100
AcDbEntity
  8
0
100
AcDbPolyline
 90
11
 70
0
 10
3120.0
 20
0.0
 10
3187.0
 20
0.0
 10
3187.0
 20
16.0
 10
3166.9
 20
16.0
 10
3166.9
 20
33.0
 10
3146.8
 20
33.0
 10
3146.8
 20
50.25
 10
3133.4
 20
50.25
 10
3133.4
 20
67.0
 10
3120.0
 20
67.0
 10
3120.0
 20
0.0
  0
LWPOLYLINE
  5
FC
330
17
100
AcDbEntity
  8
0
100
AcDbPolyline
 90
7
 70
0
 10
3250.0
 20
0.0
 10
3346.0
 20
0.0
 10
3346.0
 20
32.0
 10
3282.0
 20
32.0
 10
3282.0
 20
96.0
 10
3250.0
 20
96.0
 10
3250.0
 20
0.0
  0
LWPOLYLINE
  5
FD
330
17
100
AcDbEntity
  8
0
100
AcDbPolyline
 90
9
 70
0
 10
3380.0
 20
0.0
 10
3475.0
 20
0.0
 10
3475.0
 20
23.0
 10
3452.0
 20
23.0
 10
3452.0
 20
76.0
 10
3403.0
 20
76.0
 10
3403.0
 20
23.0
 10
3380.0
 20
23.0
 10
3380.0
 20
0.0
  0
LWPOLYLINE
  5
FE
330
17
100
AcDbEntity
  8
0
100
AcDbPolyline
 90
9
 70
0
 10
3510.0
 20
0.0
 10
3606.0
 20
0.0
 10
3606.0
 20
24.0
 10
3582.0
 20
24.0
 10
3582.0
 20
76.0
 10
3534.0
 20
76.0
 10
3534.0
 20
24.0
 10
3510.0
 20
24.0
 10
3510.0
 20
0.0
  0
LWPOLYLINE
  5
FF
330
17
100
AcDbEntity
  8
0
100
AcDbPolyline
 90
11
 70
0
 10
3640.0
 20
0.0
 10
3700.0
 20
0.0
 10
3700.0
 20
15.0
 10
3682.0
 20
15.0
 10
3682.0
 20
30.0
 10
3664.0
 20
30.0
 10
3664.0
 20
45.0
 10
3652.0
 20
45.0
 10
3652.0
 20
60.0
 10
3640.0
 20
60.0
 10
3640.0
 20
0.0
  0
LWPOLYLINE
  5
100
330
17
100
AcDbEntity
  8
0
100
AcDbPolyline
 90
11
 70
0
 10
3770.0
 20
0.0
 10
3835.0
 20
0.0
 10
3835.0
 20
16.0
 10
3815.5
 20
16.0
 10
3815.5
 20
32.0
 10
3796.0
 20
32.0
 10
3796.0
 20
48.75
 10
3783.0
 20
48.75
 10
3783.0
 20
65.0
 10
3770.0
 20
65.0
 10
3770.0
 20
0.0
  0
LWPOLYLINE
  5
101
330
17
100
AcDbEntity
  8
0
100
AcDbPolyline
 90
11
 70
0
 10
3900.0
 20
0.0
 10
3968.0
 20
0.0
 10
3968.0
 20
17.0
 10
3947.6
 20
17.0
 10
3947.6
 20
34.0
 10
3927.2
 20
34.0
 10
3927.2
 20
51.0
 10
3913.6
 20
51.0
 10
3913.6
 20
68.0
 10
3900.0
 20
68.0
 10
3900.0
 20
0.0
  0
LWPOLYLINE
  5
102
330
17
100
AcDbEntity
  8
0
100
AcDbPolyline
 90
9
 70
0
 10
4030.0
 20
0.0
 10
4114.0
 20
0.0
 10
4114.0
 20
21.0
 10
4093.0
 20
21.0
 10
4093.0
 20
67.0
 10
4051.0
 20
67.0
 10
4051.0
 20
21.0
 10
4030.0
 20
21.0
 10
4030.0
 20
0.0
  0
LWPOLYLINE
  5
103
330
17
100
AcDbEntity
  8
0
100
AcDbPolyline
 90
11
 70
0
 10
4160.0
 20
0.0
 10
4224.0
 20
0.0
 10
4224.0
 20
16.0
 10
4204.8
 20
16.0
 10
4204.8
 20
32.0
 10
4185.6
 20
32.0
 10
4185.6
 20
48.0
 10
4172.8
 20
48.0
 10
4172.8
 20
64.0
 10
4160.0
 20
64.0
 10
4160.0
 20
0.0
  0
LWPOLYLINE
  5
104
330
17
100
AcDbEntity
  8
0
100
AcDbPolyline
 90
11
 70
0
 10
4290.0
 20
0.0
 10
4345.0
 20
0.0
 10
4345.0
 20
13.0
 10
4328.5
 20
13.0
 10
4328.5
 20
27.0
 10
4312.0
 20
27.0
 10
4312.0
 20
41.25
 10
4301.0
 20
41.25
 10
4301.0
 20
55.0
 10
4290.0
 20
55.0
 10
4290.0
 20
0.0
  0
LWPOLYLINE
  5
105
330
17
100
AcDbEntity
  8
0
100
AcDbPolyline
 90
7
 70
0
 10
4420.0
 20
0.0
 10
4483.0
 20
0.0
 10
4483.0
 20
21.0
 10
4441.0
 20
21.0
 10
4441.0
 20
63.0
 10
4420.0
 20
63.0
 10
4420.0
 20
0.0
  0
LWPOLYLINE
  5
106
330
17
100
AcDbEntity
  8
0
100
AcDbPolyline
 90
7
 70
0
 10
4550.0
 20
0.0
 10
4666.0
 20
0.0
 10
4666.0
 20
38.0
 10
4588.0
 20
38.0
 10
4588.0
 20
116.0
 10
4550.0
 20
116.0
 10
4550.0
 20
0.0
  0
LWPOLYLINE
  5
107
330
17
100
AcDbEntity
  8
0
100
AcDbPolyline
 90
9
 70
0
 10
4680.0
 20
0.0
 10
4744.0
 20
0.0
 10
4744.0
 20
16.0
 10
4728.0
 20
16.0
 10
4728.0
 20
51.0
 10
4696.0
 20
51.0
 10
4696.0
 20
16.0
 10
4680.0
 20
16.0
 10
4680.0
 20
0.0
  0
LWPOLYLINE
  5
108
330
17
100
AcDbEntity
  8
0
100
AcDbPolyline
 90
7
 70
0
 10
4810.0
 20
0.0
 10
4903.0
 20
0.0
 10
4903.0
 20
31.0
 10
4841.0
 20
31.0
 10
4841.0
 20
93.0
 10
4810.0
 20
93.0
 10
4810.0
 20
0.0
  0
LWPOLYLINE
  5
109
330
17
100
AcDbEntity
  8
0
100
AcDbPolyline
 90
11
 70
0
 10
4940.0
 20
0.0
 10
5023.0
 20
0.0
 10
5023.0
 20
20.0
 10
4998.1
 20
20.0
 10
4998.1
 20
41.0
 10
4973.2
 20
41.0
 10
4973.2
 20
62.25
 10
4956.6
 20
62.25
 10
4956.6
 20
83.0
 10
4940.0
 20
83.0
 10
4940.0
 20
0.0
  0
LWPOLYLINE
  5
10A
330
17
100
AcDbEntity
  8
0
100
AcDbPolyline
 90
9
 70
0
 10
5070.0
 20
0.0
 10
5147.0
 20
0.0
 10
5147.0
 20
19.0
 10
5128.0
 20
19.0
 10
5128.0
 20
61.0
 10
5089.0
 20
61.0
 10
5089.0
 20
19.0
 10
5070.0
 20
19.0
 10
5070.0
 20
0.0
  0
LWPOLYLINE
  5
10B
330
17
100
AcDbEntity
  8
0
100
AcDbPolyline
 90
11
 70
0
 10
2600.0
 20
500.0
 10
2696.0
 20
500.0
 10
2696.0
 20
524.0
 10
2667.2
 20
524.0
 10
2667.2
 20
548.0
 10
2638.4
 20
548.0
 10
2638.4
 20
572.0
 10
2619.2
 20
572.0
 10
2619.2
 20
596.0
 10
2600.0
 20
596.0
 10
2600.0
 20
500.0
  0
LWPOLYLINE
  5
10C
330
17
100
AcDbEntity
  8
0
100
AcDbPolyline
 90
9
 70
0
 10
2730.0
 20
500.0
 10
2808.0
 20
500.0
 10
2808.0
 20
519.0
 10
2789.0
 20
519.0
 10
2789.0
 20
562.0
 10
2749.0
 20
562.0
 10
2749.0
 20
519.0
 10
2730.0
 20
519.0
 10
2730.0
 20
500.0
  0
LWPOLYLINE
  5
10D
330
17
100
AcDbEntity
  8
0
100
AcDbPolyline
 90
9
 70
0
 10
2860.0
 20
500.0
 10
2977.0
 20
500.0
 10
2977.0
 20
529.0
 10
2948.0
 20
529.0
 10
2948.0
 20
593.0
 10
2889.0
 20
593.0
 10
2889.0
 20
529.0
 10
2860.0
 20
529.0
 10
2860.0
 20
500.0
  0
LWPOLYLINE
  5
10E
330
17
100
AcDbEntity
  8
0
100
AcDbPolyline
 90
9
 70
0
 10
2990.0
 20
500.0
 10
3078.0
 20
500.0
 10
3078.0
 20
522.0
 10
3056.0
 20
522.0
 10
3056.0
 20
570.0
 10
3012.0
 20
570.0
 10
3012.0
 20
522.0
 10
2990.0
 20
522.0
 10
2990.0
 20
500.0
  0
LWPOLYLINE
  5
10F
330
17
100
AcDbEntity
  8
0
100
AcDbPolyline
 90
11
 70
0
 10
3120.0
 20
500.0
 10
3174.0
 20
500.0
 10
3174.0
 20
513.0
 10
3157.8
 20
513.0
 10
3157.8
 20
527.0
 10
3141.6
 20
527.0
 10
3141.6
 20
540.5
 10
3130.8
 20
540.5
 10
3130.8
 20
554.0
 10
3120.0
 20
554.0
 10
3120.0
 20
500.0
  0
LWPOLYLINE
  5
110
330
17
100
AcDbEntity
  8
0
100
AcDbPolyline
 90
7
 70
0
 10
3250.0
 20
500.0
 10
3348.0
 20
500.0
 10
3348.0
 20
532.0
 10
3282.0
 20
532.0
 10
3282.0
 20
598.0
 10
3250.0
 20
598.0
 10
3250.0
 20
500.0
  0
LWPOLYLINE
  5
111
330
17
100
AcDbEntity
  8
0
100
AcDbPolyline
 90
9
 70
0
 10
3380.0
 20
500.0
 10
3469.0
 20
500.0
 10
3469.0
 20
522.0
 10
3447.0
 20
522.0
 10
3447.0
 20
571.0
 10
3402.0
 20
571.0
 10
3402.0
 20
522.0
 10
3380.0
 20
522.0
 10
3380.0
 20
500.0
  0
LWPOLYLINE
  5
112
330
17
100
AcDbEntity
  8
0
100
AcDbPolyline
 90
7
 70
0
 10
3510.0
 20
500.0
 10
3598.0
 20
500.0
 10
3598.0
 20
529.0
 10
3539.0
 20
529.0
 10
3539.0
 20
588.0
 10
3510.0
 20
588.0
 10
3510.0
 20
500.0
  0
LWPOLYLINE
  5
113
330
17
100
AcDbEntity
  8
0
100
AcDbPolyline
 90
9
 70
0
 10
3640.0
 20
500.0
 10
3742.0
 20
500.0
 10
3742.0
 20
525.0
 10
3717.0
 20
525.0
 10
3717.0
 20
581.0
 10
3665.0
 20
581.0
 10
3665.0
 20
525.0
 10
3640.0
 20
525.0
 10
3640.0
 20
500.0
  0
LWPOLYLINE
  5
114
330
17
100
AcDbEntity
  8
0
100
AcDbPolyline
 90
9
 70
0
 10
3770.0
 20
500.0
 10
3864.0
 20
500.0
 10
3864.0
 20
523.0
 10
3841.0
 20
523.0
 10
3841.0
 20
575.0
 10
3793.0
 20
575.0
 10
3793.0
 20
523.0
 10
3770.0
 20
523.0
 10
3770.0
 20
500.0
  0
LWPOLYLINE
  5
115
330
17
100
AcDbEntity
  8
0
100
AcDbPolyline
 90
11
 70
0
 10
3900.0
 20
500.0
 10
3986.0
 20
500.0
 10
3986.0
 20
521.0
 10
3960.2
 20
521.0
 10
3960.2
 20
543.0
 10
3934.4
 20
543.0
 10
3934.4
 20
564.5
 10
3917.2
 20
564.5
 10
3917.2
 20
586.0
 10
3900.0
 20
586.0
 10
3900.0
 20
500.0
  0
LWPOLYLINE
  5
116
330
17
100
AcDbEntity
  8
0
100
AcDbPolyline
 90
7
 70
0
 10
4030.0
 20
500.0
 10
4141.0
 20
500.0
 10
4141.0
 20
537.0
 10
4067.0
 20
537.0
 10
4067.0
 20
611.0
 10
4030.0
 20
611.0
 10
4030.0
 20
500.0
  0
LWPOLYLINE
  5
117
330
17
100
AcDbEntity
  8
0
100
AcDbPolyline
 90
9
 70
0
 10
4160.0
 20
500.0
 10
4229.0
 20
500.0
 10
4229.0
 20
517.0
 10
4212.0
 20
517.0
 10
4212.0
 20
555.0
 10
4177.0
 20
555.0
 10
4177.0
 20
517.0
 10
4160.0
 20
517.0
 10
4160.0
 20
500.0
  0
LWPOLYLINE
  5
118
330
17
100
AcDbEntity
  8
0
100
AcDbPolyline
 90
9
 70
0
 10
4290.0
 20
500.0
 10
4391.0
 20
500.0
 10
4391.0
 20
525.0
 10
4366.0
 20
525.0
 10
4366.0
 20
580.0
 10
4315.0
 20
580.0
 10
4315.0
 20
525.0
 10
4290.0
 20
525.0
 10
4290.0
 20
500.0
  0
LWPOLYLINE
  5
119
330
17
100
AcDbEntity
  8
0
100
AcDbPolyline
 90
9
 70
0
 10
4420.0
 20
500.0
 10
4536.0
 20
500.0
 10
4536.0
 20
529.0
 10
4507.0
 20
529.0
 10
4507.0
 20
592.0
 10
4449.0
 20
592.0
 10
4449.0
 20
529.0
 10
4420.0
 20
529.0
 10
4420.0
 20
500.0
  0
LWPOLYLINE
  5
11A
330
17
100
AcDbEntity
  8
0
100
AcDbPolyline
 90
9
 70
0
 10
4550.0
 20
500.0
 10
4621.0
 20
500.0
 10
4621.0
 20
517.0
 10
4604.0
 20
517.0
 10
4604.0
 20
556.0
 10
4567.0
 20
556.0
 10
4567.0
 20
517.0
 10
4550.0
 20
517.0
 10
4550.0
 20
500.0
  0
LWPOLYLINE
  5
11B
330
17
100
AcDbEntity
  8
0
100
AcDbPolyline
 90
9
 70
0
 10
4680.0
 20
500.0
 10
4787.0
 20
500.0
 10
4787.0
 20
526.0
 10
4761.0
 20
526.0
 10
4761.0
 20
585.0
 10
4706.0
 20
585.0
 10
4706.0
 20
526.0
 10
4680.0
 20
526.0
 10
4680.0
 20
500.0
  0
LWPOLYLINE
  5
11C
330
17
100
AcDbEntity
  8
0
100
AcDbPolyline
 90
7
 70
0
 10
4810.0
 20
500.0
 10
4906.0
 20
500.0
 10
4906.0
 20
532.0
 10
4842.0
 20
532.0
 10
4842.0
 20
596.0
 10
4810.0
 20
596.0
 10
4810.0
 20
500.0
  0
LWPOLYLINE
  5
11D
330
17
100
AcDbEntity
  8
0
100
AcDbPolyline
 90
11
 70
0
 10
4940.0
 20
500.0
 10
5006.0
 20
500.0
 10
5006.0
 20
516.0
 10
4986.2
 20
516.0
 10
4986.2
 20
533.0
 10
4966.4
 20
533.0
 10
4966.4
 20
549.5
 10
4953.2
 20
549.5
 10
4953.2
 20
566.0
 10
4940.0
 20
566.0
 10
4940.0
 20
500.0
  0
LWPOLYLINE
  5
11E
330
17
100
AcDbEntity
  8
0
100
AcDbPolyline
 90
7
 70
0
 10
5070.0
 20
500.0
 10
5165.0
 20
500.0
 10
5165.0
 20
531.0
 10
5101.0
 20
531.0
 10
5101.0
 20
595.0
 10
5070.0
 20
595.0
 10
5070.0
 20
500.0
  0
LWPOLYLINE
  5
11F
330
17
100
AcDbEntity
  8
0
100
AcDbPolyline
 90
7
 70
0
 10
2600.0
 20
1000.0
 10
2714.0
 20
1000.0
 10
2714.0
 20
1038.0
 10
2638.0
 20
1038.0
 10
2638.0
 20
1114.0
 10
2600.0
 20
1114.0
 10
2600.0
 20
1000.0
  0
LWPOLYLINE
  5
120
330
17
100
AcDbEntity
  8
0
100
AcDbPolyline
 90
11
 70
0
 10
2730.0
 20
1000.0
 10
2813.0
 20
1000.0
 10
2813.0
 20
1020.0
 10
2788.1
 20
1020.0
 10
2788.1
 20
1041.0
 10
2763.2
 20
1041.0
 10
2763.2
 20
1062.25
 10
2746.6
 20
1062.25
 10
2746.6
 20
1083.0
 10
2730.0
 20
1083.0
 10
2730.0
 20
1000.0
  0
LWPOLYLINE
  5
121
330
17
100
AcDbEntity
  8
0
100
AcDbPolyline
 90
11
 70
0
 10
2860.0
 20
1000.0
 10
2923.0
 20
1000.0
 10
2923.0
 20
1015.0
 10
2904.1
 20
1015.0
 10
2904.1
 20
1031.0
 10
2885.2
 20
1031.0
 10
2885.2
 20
1047.25
 10
2872.6
 20
1047.25
 10
2872.6
 20
1063.0
 10
2860.0
 20
1063.0
 10
2860.0
 20
1000.0
  0
LWPOLYLINE
  5
122
330
17
100
AcDbEntity
  8
0
100
AcDbPolyline
 90
7
 70
0
 10
2990.0
 20
1000.0
 10
3085.0
 20
1000.0
 10
3085.0
 20
1031.0
 10
3021.0
 20
1031.0
 10
3021.0
 20
1095.0
 10
2990.0
 20
1095.0
 10
2990.0
 20
1000.0
  0
LWPOLYLINE
  5
123
330
17
100
AcDbEntity
  8
0
100
AcDbPolyline
 90
11
 70
0
 10
3120.0
 20
1000.0
 10
3238.0
 20
1000.0
 10
3238.0
 20
1029.0
 10
3202.6
 20
1029.0
 10
3202.6
 20
1059.0
 10
3167.2
 20
1059.0
 10
3167.2
 20
1088.5
 10
3143.6
 20
1088.5
 10
3143.6
 20
1118.0
 10
3120.0
 20
1118.0
 10
3120.0
 20
1000.0
  0
LWPOLYLINE
  5
124
330
17
100
AcDbEntity
  8
0
100
AcDbPolyline
 90
11
 70
0
 10
3250.0
 20
1000.0
 10
3328.0
 20
1000.0
 10
3328.0
 20
1019.0
 10
3304.6
 20
1019.0
 10
3304.6
 20
1039.0
 10
3281.2
 20
1039.0
 10
3281.2
 20
1058.5
 10
3265.6
 20
1058.5
 10
3265.6
 20
1078.0
 10
3250.0
 20
1078.0
 10
3250.0
 20
1000.0
  0
LWPOLYLINE
  5
125
330
17
100
AcDbEntity
  8
0
100
AcDbPolyline
 90
11
 70
0
 10
3380.0
 20
1000.0
 10
3485.0
 20
1000.0
 10
3485.0
 20
1026.0
 10
3453.5
 20
1026.0
 10
3453.5
 20
1052.0
 10
3422.0
 20
1052.0
 10
3422.0
 20
1078.75
 10
3401.0
 20
1078.75
 10
3401.0
 20
1105.0
 10
3380.0
 20
1105.0
 10
3380.0
 20
1000.0
  0
LWPOLYLINE
  5
126
330
17
100
AcDbEntity
  8
0
100
AcDbPolyline
 90
7
 70
0
 10
3510.0
 20
1000.0
 10
3581.0
 20
1000.0
 10
3581.0
 20
1023.0
 10
3533.0
 20
1023.0
 10
3533.0
 20
1071.0
 10
3510.0
 20
1071.0
 10
3510.0
 20
1000.0
  0
LWPOLYLINE
  5
127
330
17
100
AcDbEntity
  8
0
100
AcDbPolyline
 90
7
 70
0
 10
3640.0
 20
1000.0
 10
3722.0
 20
1000.0
 10
3722.0
 20
1027.0
 10
3667.0
 20
1027.0
 10
3667.0
 20
1082.0
 10
3640.0
 20
1082.0
 10
3640.0
 20
1000.0
  0
LWPOLYLINE
  5
128
330
17
100
AcDbEntity
  8
0
100
AcDbPolyline
 90
11
 70
0
 10
3770.0
 20
1000.0
 10
3870.0
 20
1000.0
 10
3870.0
 20
1025.0
 10
3840.0
 20
1025.0
 10
3840.0
 20
1050.0
 10
3810.0
 20
1050.0
 10
3810.0
 20
1075.0
 10
3790.0
 20
1075.0
 10
3790.0
 20
1100.0
 10
3770.0
 20
1100.0
 10
3770.0
 20
1000.0
  0
LWPOLYLINE
  5
129
330
17
100
AcDbEntity
  8
0
100
AcDbPolyline
 90
9
 70
0
 10
3900.0
 20
1000.0
 10
4003.0
 20
1000.0
 10
4003.0
 20
1025.0
 10
3978.0
 20
1025.0
 10
3978.0
 20
1082.0
 10
3925.0
 20
1082.0
 10
3925.0
 20
1025.0
 10
3900.0
 20
1025.0
 10
3900.0
 20
1000.0
  0
LWPOLYLINE
  5
12A
330
17
100
AcDbEntity
  8
0
100
AcDbPolyline
 90
9
 70
0
 10
4030.0
 20
1000.0
 10
4124.0
 20
1000.0
 10
4124.0
 20
1023.0
 10
4101.0
 20
1023.0
 10
4101.0
 20
1075.0
 10
4053.0
 20
1075.0
 10
4053.0
 20
1023.0
 10
4030.0
 20
1023.0
 10
4030.0
 20
1000.0
  0
LWPOLYLINE
  5
12B
330
17
100
AcDbEntity
  8
0
100
AcDbPolyline
 90
7
 70
0
 10
4160.0
 20
1000.0
 10
4214.0
 20
1000.0
 10
4214.0
 20
1018.0
 10
4178.0
 20
1018.0
 10
4178.0
 20
1054.0
 10
4160.0
 20
1054.0
 10
4160.0
 20
1000.0
  0
LWPOLYLINE
  5
12C
330
17
100
AcDbEntity
  8
0
100
AcDbPolyline
 90
7
 70
0
 10
4290.0
 20
1000.0
 10
4351.0
 20
1000.0
 10
4351.0
 20
1020.0
 10
4310.0
 20
1020.0
 10
4310.0
 20
1061.0
 10
4290.0
 20
1061.0
 10
4290.0
 20
1000.0
  0
LWPOLYLINE
  5
12D
330
17
100
AcDbEntity
  8
0
100
AcDbPolyline
 90
11
 70
0
 10
4420.0
 20
1000.0
 10
4511.0
 20
1000.0
 10
4511.0
 20
1022.0
 10
4483.7
 20
1022.0
 10
4483.7
 20
1045.0
 10
4456.4
 20
1045.0
 10
4456.4
 20
1068.25
 10
4438.2
 20
1068.25
 10
4438.2
 20
1091.0
 10
4420.0
 20
1091.0
 10
4420.0
 20
1000.0
  0
LWPOLYLINE
  5
12E
330
17
100
AcDbEntity
  8
0
100
AcDbPolyline
 90
9
 70
0
 10
4550.0
 20
1000.0
 10
4611.0
 20
1000.0
 10
4611.0
 20
1015.0
 10
4596.0
 20
1015.0
 10
4596.0
 20
1048.0
 10
4565.0
 20
1048.0
 10
4565.0
 20
1015.0
 10
4550.0
 20
1015.0
 10
4550.0
 20
1000.0
  0
LWPOLYLINE
  5
12F
330
17
100
AcDbEntity
  8
0
100
AcDbPolyline
 90
11
 70
0
 10
4680.0
 20
1000.0
 10
4751.0
 20
1000.0
 10
4751.0
 20
1017.0
 10
4729.7
 20
1017.0
 10
4729.7
 20
1035.0
 10
4708.4
 20
1035.0
 10
4708.4
 20
1053.25
 10
4694.2
 20
1053.25
 10
4694.2
 20
1071.0
 10
4680.0
 20
1071.0
 10
4680.0
 20
1000.0
  0
LWPOLYLINE
  5
130
330
17
100
AcDbEntity
  8
0
100
AcDbPolyline
 90
7
 70
0
 10
4810.0
 20
1000.0
 10
4863.0
 20
1000.0
 10
4863.0
 20
1017.0
 10
4827.0
 20
1017.0
 10
4827.0
 20
1053.0
 10
4810.0
 20
1053.0
 10
4810.0
 20
1000.0
  0
LWPOLYLINE
  5
131
330
17
100
AcDbEntity
  8
0
100
AcDbPolyline
 90
7
 70
0
 10
4940.0
 20
1000.0
 10
5059.0
 20
1000.0
 10
5059.0
 20
1039.0
 10
4979.0
 20
1039.0
 10
4979.0
 20
1119.0
 10
4940.0
 20
1119.0
 10
4940.0
 20
1000.0
  0
LWPOLYLINE
  5
132
330
17
100
AcDbEntity
  8
0
100
AcDbPolyline
 90
7
 70
0
 10
5070.0
 20
1000.0
 10
5174.0
 20
1000.0
 10
5174.0
 20
1034.0
 10
5104.0
 20
1034.0
 10
5104.0
 20
1104.0
 10
5070.0
 20
1104.0
 10
5070.0
 20
1000.0
  0
LWPOLYLINE
  5
133
330
17
100
AcDbEntity
  8
0
100
AcDbPolyline
 90
9
 70
0
 10
2600.0
 20
1500.0
 10
2696.0
 20
1500.0
 10
2696.0
 20
1524.0
 10
2672.0
 20
1524.0
 10
2672.0
 20
1576.0
 10
2624.0
 20
1576.0
 10
2624.0
 20
1524.0
 10
2600.0
 20
1524.0
 10
2600.0
 20
1500.0
  0
LWPOLYLINE
  5
134
330
17
100
AcDbEntity
  8
0
100
AcDbPolyline
 90
11
 70
0
 10
2730.0
 20
1500.0
 10
2785.0
 20
1500.0
 10
2785.0
 20
1513.0
 10
2768.5
 20
1513.0
 10
2768.5
 20
1527.0
 10
2752.0
 20
1527.0
 10
2752.0
 20
1541.25
 10
2741.0
 20
1541.25
 10
2741.0
 20
1555.0
 10
2730.0
 20
1555.0
 10
2730.0
 20
1500.0
  0
LWPOLYLINE
  5
135
330
17
100
AcDbEntity
  8
0
100
AcDbPolyline
 90
11
 70
0
 10
2860.0
 20
1500.0
 10
2948.0
 20
1500.0
 10
2948.0
 20
1522.0
 10
2921.6
 20
1522.0
 10
2921.6
 20
1544.0
 10
2895.2
 20
1544.0
 10
2895.2
 20
1566.0
 10
2877.6
 20
1566.0
 10
2877.6
 20
1588.0
 10
2860.0
 20
1588.0
 10
2860.0
 20
1500.0
  0
LWPOLYLINE
  5
136
330
17
100
AcDbEntity
  8
0
100
AcDbPolyline
 90
11
 70
0
 10
2990.0
 20
1500.0
 10
3096.0
 20
1500.0
 10
3096.0
 20
1526.0
 10
3064.2
 20
1526.0
 10
3064.2
 20
1553.0
 10
3032.4
 20
1553.0
 10
3032.4
 20
1579.5
 10
3011.2
 20
1579.5
 10
3011.2
 20
1606.0
 10
2990.0
 20
1606.0
 10
2990.0
 20
1500.0
  0
LWPOLYLINE
  5
137
330
17
100
AcDbEntity
  8
0
100
AcDbPolyline
 90
11
 70
0
 10
3120.0
 20
1500.0
 10
3235.0
 20
1500.0
 10
3235.0
 20
1528.0
 10
3200.5
 20
1528.0
 10
3200.5
 20
1557.0
 10
3166.0
 20
1557.0
 10
3166.0
 20
1586.25
 10
3143.0
 20
1586.25
 10
3143.0
 20
1615.0
 10
3120.0
 20
1615.0
 10
3120.0
 20
1500.0
  0
LWPOLYLINE
  5
138
330
17
100
AcDbEntity
  8
0
100
AcDbPolyline
 90
7
 70
0
 10
3250.0
 20
1500.0
 10
3322.0
 20
1500.0
 10
3322.0
 20
1524.0
 10
3274.0
 20
1524.0
 10
3274.0
 20
1572.0
 10
3250.0
 20
1572.0
 10
3250.0
 20
1500.0
  0
LWPOLYLINE
  5
139
330
17
100
AcDbEntity
  8
0
100
AcDbPolyline
 90
7
 70
0
 10
3380.0
 20
1500.0
 10
3478.0
 20
1500.0
 10
3478.0
 20
1532.0
 10
3412.0
 20
1532.0
 10
3412.0
 20
1598.0
 10
3380.0
 20
1598.0
 10
3380.0
 20
1500.0
  0
LWPOLYLINE
  5
13A
330
17
100
AcDbEntity
  8
0
100
AcDbPolyline
 90
9
 70
0
 10
3510.0
 20
1500.0
 10
3565.0
 20
1500.0
 10
3565.0
 20
1513.0
 10
3552.0
 20
1513.0
 10
3552.0
 20
1544.0
 10
3523.0
 20
1544.0
 10
3523.0
 20
1513.0
 10
3510.0
 20
1513.0
 10
3510.0
 20
1500.0
  0
LWPOLYLINE
  5
13B
330
17
100
AcDbEntity
  8
0
100
AcDbPolyline
 90
11
 70
0
 10
3640.0
 20
1500.0
 10
3706.0
 20
1500.0
 10
3706.0
 20
1516.0
 10
3686.2
 20
1516.0
 10
3686.2
 20
1533.0
 10
3666.4
 20
1533.0
 10
3666.4
 20
1549.5
 10
3653.2
 20
1549.5
 10
3653.2
 20
1566.0
 10
3640.0
 20
1566.0
 10
3640.0
 20
1500.0
  0
LWPOLYLINE
  5
13C
330
17
100
AcDbEntity
  8
0
100
AcDbPolyline
 90
11
 70
0
 10
3770.0
 20
1500.0
 10
3889.0
 20
1500.0
 10
3889.0
 20
1529.0
 10
3853.3
 20
1529.0
 10
3853.3
 20
1559.0
 10
3817.6
 20
1559.0
 10
3817.6
 20
1589.25
 10
3793.8
 20
1589.25
 10
3793.8
 20
1619.0
 10
3770.0
 20
1619.0
 10
3770.0
 20
1500.0
  0
LWPOLYLINE
  5
13D
330
17
100
AcDbEntity
  8
0
100
AcDbPolyline
 90
7
 70
0
 10
3900.0
 20
1500.0
 10
3954.0
 20
1500.0
 10
3954.0
 20
1518.0
 10
3918.0
 20
1518.0
 10
3918.0
 20
1554.0
 10
3900.0
 20
1554.0
 10
3900.0
 20
1500.0
  0
LWPOLYLINE
  5
13E
330
17
100
AcDbEntity
  8
0
100
AcDbPolyline
 90
11
 70
0
 10
4030.0
 20
1500.0
 10
4106.0
 20
1500.0
 10
4106.0
 20
1519.0
 10
4083.2
 20
1519.0
 10
4083.2
 20
1538.0
 10
4060.4
 20
1538.0
 10
4060.4
 20
1557.0
 10
4045.2
 20
1557.0
 10
4045.2
 20
1576.0
 10
4030.0
 20
1576.0
 10
4030.0
 20
1500.0
  0
LWPOLYLINE
  5
13F
330
17
100
AcDbEntity
  8
0
100
AcDbPolyline
 90
9
 70
0
 10
4160.0
 20
1500.0
 10
4277.0
 20
1500.0
 10
4277.0
 20
1529.0
 10
4248.0
 20
1529.0
 10
4248.0
 20
1593.0
 10
4189.0
 20
1593.0
 10
4189.0
 20
1529.0
 10
4160.0
 20
1529.0
 10
4160.0
 20
1500.0
  0
LWPOLYLINE
  5
140
330
17
100
AcDbEntity
  8
0
100
AcDbPolyline
 90
11
 70
0
 10
4290.0
 20
1500.0
 10
4383.0
 20
1500.0
 10
4383.0
 20
1523.0
 10
4355.1
 20
1523.0
 10
4355.1
 20
1546.0
 10
4327.2
 20
1546.0
 10
4327.2
 20
1569.75
 10
4308.6
 20
1569.75
 10
4308.6
 20
1593.0
 10
4290.0
 20
1593.0
 10
4290.0
 20
1500.0
  0
LWPOLYLINE
  5
141
330
17
100
AcDbEntity
  8
0
100
AcDbPolyline
 90
7
 70
0
 10
4420.0
 20
1500.0
 10
4486.0
 20
1500.0
 10
4486.0
 20
1522.0
 10
4442.0
 20
1522.0
 10
4442.0
 20
1566.0
 10
4420.0
 20
1566.0
 10
4420.0
 20
1500.0
  0
LWPOLYLINE
  5
142
330
17
100
AcDbEntity
  8
0
100
AcDbPolyline
 90
7
 70
0
 10
4550.0
 20
1500.0
 10
4633.0
 20
1500.0
 10
4633.0
 20
1527.0
 10
4577.0
 20
1527.0
 10
4577.0
 20
1583.0
 10
4550.0
 20
1583.0
 10
4550.0
 20
1500.0
  0
LWPOLYLINE
  5
143
330
17
100
AcDbEntity
  8
0
100
AcDbPolyline
 90
11
 70
0
 10
4680.0
 20
1500.0
 10
4744.0
 20
1500.0
 10
4744.0
 20
1516.0
 10
4724.8
 20
1516.0
 10
4724.8
 20
1532.0
 10
4705.6
 20
1532.0
 10
4705.6
 20
1548.0
 10
4692.8
 20
1548.0
 10
4692.8
 20
1564.0
 10
4680.0
 20
1564.0
 10
4680.0
 20
1500.0
  0
LWPOLYLINE
  5
144
330
17
100
AcDbEntity
  8
0
100
AcDbPolyline
 90
9
 70
0
 10
4810.0
 20
1500.0
 10
4874.0
 20
1500.0
 10
4874.0
 20
1516.0
 10
4858.0
 20
1516.0
 10
4858.0
 20
1551.0
 10
4826.0
 20
1551.0
 10
4826.0
 20
1516.0
 10
4810.0
 20
1516.0
 10
4810.0
 20
1500.0
  0
LWPOLYLINE
  5
145
330
17
100
AcDbEntity
  8
0
100
AcDbPolyline
 90
7
 70
0
 10
4940.0
 20
1500.0
 10
5011.0
 20
1500.0
 10
5011.0
 20
1523.0
 10
4963.0
 20
1523.0
 10
4963.0
 20
1571.0
 10
4940.0
 20
1571.0
 10
4940.0
 20
1500.0
  0
LWPOLYLINE
  5
146
330
17
100
AcDbEntity
  8
0
100
AcDbPolyline
 90
7
 70
0
 10
5070.0
 20
1500.0
 10
5185.0
 20
1500.0
 10
5185.0
 20
1538.0
 10
5108.0
 20
1538.0
 10
5108.0
 20
1615.0
 10
5070.0
 20
1615.0
 10
5070.0
 20
1500.0
  0
LWPOLYLINE
  5
147
330
17
100
AcDbEntity
  8
0
100
AcDbPolyline
 90
9
 70
0
 10
2600.0
 20
2000.0
 10
2655.0
 20
2000.0
 10
2655.0
 20
2013.0
 10
2642.0
 20
2013.0
 10
2642.0
 20
2044.0
 10
2613.0
 20
2044.0
 10
2613.0
 20
2013.0
 10
2600.0
 20
2013.0
 10
2600.0
 20
2000.0
  0
LWPOLYLINE
  5
148
330
17
100
AcDbEntity
  8
0
100
AcDbPolyline
 90
11
 70
0
 10
2730.0
 20
2000.0
 10
2833.0
 20
2000.0
 10
2833.0
 20
2025.0
 10
2802.1
 20
2025.0
 10
2802.1
 20
2051.0
 10
2771.2
 20
2051.0
 10
2771.2
 20
2077.25
 10
2750.6
 20
2077.25
 10
2750.6
 20
2103.0
 10
2730.0
 20
2103.0
 10
2730.0
 20
2000.0
  0
LWPOLYLINE
  5
149
330
17
100
AcDbEntity
  8
0
100
AcDbPolyline
 90
7
 70
0
 10
2860.0
 20
2000.0
 10
2927.0
 20
2000.0
 10
2927.0
 20
2022.0
 10
2882.0
 20
2022.0
 10
2882.0
 20
2067.0
 10
2860.0
 20
2067.0
 10
2860.0
 20
2000.0
  0
LWPOLYLINE
  5
14A
330
17
100
AcDbEntity
  8
0
100
AcDbPolyline
 90
9
 70
0
 10
2990.0
 20
2000.0
 10
3109.0
 20
2000.0
 10
3109.0
 20
2029.0
 10
3080.0
 20
2029.0
 10
3080.0
 20
2095.0
 10
3019.0
 20
2095.0
 10
3019.0
 20
2029.0
 10
2990.0
 20
2029.0
 10
2990.0
 20
2000.0
  0
LWPOLYLINE
  5
14B
330
17
100
AcDbEntity
  8
0
100
AcDbPolyline
 90
11
 70
0
 10
3120.0
 20
2000.0
 10
3193.0
 20
2000.0
 10
3193.0
 20
2018.0
 10
3171.1
 20
2018.0
 10
3171.1
 20
2036.0
 10
3149.2
 20
2036.0
 10
3149.2
 20
2054.75
 10
3134.6
 20
2054.75
 10
3134.6
 20
2073.0
 10
3120.0
 20
2073.0
 10
3120.0
 20
2000.0
  0
LWPOLYLINE
  5
14C
330
17
100
AcDbEntity
  8
0
100
AcDbPolyline
 90
11
 70
0
 10
3250.0
 20
2000.0
 10
3333.0
 20
2000.0
 10
3333.0
 20
2020.0
 10
3308.1
 20
2020.0
 10
3308.1
 20
2041.0
 10
3283.2
 20
2041.0
 10
3283.2
 20
2062.25
 10
3266.6
 20
2062.25
 10
3266.6
 20
2083.0
 10
3250.0
 20
2083.0
 10
3250.0
 20
2000.0
  0
LWPOLYLINE
  5
14D
330
17
100
AcDbEntity
  8
0
100
AcDbPolyline
 90
7
 70
0
 10
3380.0
 20
2000.0
 10
3477.0
 20
2000.0
 10
3477.0
 20
2032.0
 10
3412.0
 20
2032.0
 10
3412.0
 20
2097.0
 10
3380.0
 20
2097.0
 10
3380.0
 20
2000.0
  0
LWPOLYLINE
  5
14E
330
17
100
AcDbEntity
  8
0
100
AcDbPolyline
 90
7
 70
0
 10
3510.0
 20
2000.0
 10
3563.0
 20
2000.0
 10
3563.0
 20
2017.0
 10
3527.0
 20
2017.0
 10
3527.0
 20
2053.0
 10
3510.0
 20
2053.0
 10
3510.0
 20
2000.0
  0
LWPOLYLINE
  5
14F
330
17
100
AcDbEntity
  8
0
100
AcDbPolyline
 90
9
 70
0
 10
3640.0
 20
2000.0
 10
3727.0
 20
2000.0
 10
3727.0
 20
2021.0
 10
3706.0
 20
2021.0
 10
3706.0
 20
2069.0
 10
3661.0
 20
2069.0
 10
3661.0
 20
2021.0
 10
3640.0
 20
2021.0
 10
3640.0
 20
2000.0
  0
LWPOLYLINE
  5
150
330
17
100
AcDbEntity
  8
0
100
AcDbPolyline
 90
11
 70
0
 10
3770.0
 20
2000.0
 10
3884.0
 20
2000.0
 10
3884.0
 20
2028.0
 10
3849.8
 20
2028.0
 10
3849.8
 20
2057.0
 10
3815.6
 20
2057.0
 10
3815.6
 20
2085.5
 10
3792.8
 20
2085.5
 10
3792.8
 20
2114.0
 10
3770.0
 20
2114.0
 10
3770.0
 20
2000.0
  0
LWPOLYLINE
  5
151
330
17
100
AcDbEntity
  8
0
100
AcDbPolyline
 90
9
 70
0
 10
3900.0
 20
2000.0
 10
3976.0
 20
2000.0
 10
3976.0
 20
2019.0
 10
3957.0
 20
2019.0
 10
3957.0
 20
2060.0
 10
3919.0
 20
2060.0
 10
3919.0
 20
2019.0
 10
3900.0
 20
2019.0
 10
3900.0
 20
2000.0
  0
LWPOLYLINE
  5
152
330
17
100
AcDbEntity
  8
0
100
AcDbPolyline
 90
11
 70
0
 10
4030.0
 20
2000.0
 10
4110.0
 20
2000.0
 10
4110.0
 20
2020.0
 10
4086.0
 20
2020.0
 10
4086.0
 20
2040.0
 10
4062.0
 20
2040.0
 10
4062.0
 20
2060.0
 10
4046.0
 20
2060.0
 10
4046.0
 20
2080.0
 10
4030.0
 20
2080.0
 10
4030.0
 20
2000.0
  0
LWPOLYLINE
  5
153
330
17
100
AcDbEntity
  8
0
100
AcDbPolyline
 90
11
 70
0
 10
4160.0
 20
2000.0
 10
4268.0
 20
2000.0
 10
4268.0
 20
2027.0
 10
4235.6
 20
2027.0
 10
4235.6
 20
2054.0
 10
4203.2
 20
2054.0
 10
4203.2
 20
2081.0
 10
4181.6
 20
2081.0
 10
4181.6
 20
2108.0
 10
4160.0
 20
2108.0
 10
4160.0
 20
2000.0
  0
LWPOLYLINE
  5
154
330
17
100
AcDbEntity
  8
0
100
AcDbPolyline
 90
11
 70
0
 10
4290.0
 20
2000.0
 10
4369.0
 20
2000.0
 10
4369.0
 20
2019.0
 10
4345.3
 20
2019.0
 10
4345.3
 20
2039.0
 10
4321.6
 20
2039.0
 10
4321.6
 20
2059.25
 10
4305.8
 20
2059.25
 10
4305.8
 20
2079.0
 10
4290.0
 20
2079.0
 10
4290.0
 20
2000.0
  0
LWPOLYLINE
  5
155
330
17
100
AcDbEntity
  8
0
100
AcDbPolyline
 90
9
 70
0
 10
4420.0
 20
2000.0
 10
4519.0
 20
2000.0
 10
4519.0
 20
2024.0
 10
4495.0
 20
2024.0
 10
4495.0
 20
2079.0
 10
4444.0
 20
2079.0
 10
4444.0
 20
2024.0
 10
4420.0
 20
2024.0
 10
4420.0
 20
2000.0
  0
LWPOLYLINE
  5
156
330
17
100
AcDbEntity
  8
0
100
AcDbPolyline
 90
7
 70
0
 10
4550.0
 20
2000.0
 10
4617.0
 20
2000.0
 10
4617.0
 20
2022.0
 10
4572.0
 20
2022.0
 10
4572.0
 20
2067.0
 10
4550.0
 20
2067.0
 10
4550.0
 20
2000.0
  0
LWPOLYLINE
  5
157
330
17
100
AcDbEntity
  8
0
100
AcDbPolyline
 90
9
 70
0
 10
4680.0
 20
2000.0
 10
4799.0
 20
2000.0
 10
4799.0
 20
2029.0
 10
4770.0
 20
2029.0
 10
4770.0
 20
2095.0
 10
4709.0
 20
2095.0
 10
4709.0
 20
2029.0
 10
4680.0
 20
2029.0
 10
4680.0
 20
2000.0
  0
LWPOLYLINE
  5
158
330
17
100
AcDbEntity
  8
0
100
AcDbPolyline
 90
7
 70
0
 10
4810.0
 20
2000.0
 10
4871.0
 20
2000.0
 10
4871.0
 20
2020.0
 10
4830.0
 20
2020.0
 10
4830.0
 20
2061.0
 10
4810.0
 20
2061.0
 10
4810.0
 20
2000.0
  0
LWPOLYLINE
  5
159
330
17
100
AcDbEntity
  8
0
100
AcDbPolyline
 90
11
 70
0
 10
4940.0
 20
2000.0
 10
5034.0
 20
2000.0
 10
5034.0
 20
2023.0
 10
5005.8
 20
2023.0
 10
5005.8
 20
2047.0
 10
4977.6
 20
2047.0
 10
4977.6
 20
2070.5
 10
4958.8
 20
2070.5
 10
4958.8
 20
2094.0
 10
4940.0
 20
2094.0
 10
4940.0
 20
2000.0
  0
LWPOLYLINE
  5
15A
330
17
100
AcDbEntity
  8
0
100
AcDbPolyline
 90
11
 70
0
 10
5070.0
 20
2000.0
 10
5187.0
 20
2000.0
 10
5187.0
 20
2029.0
 10
5151.9
 20
2029.0
 10
5151.9
 20
2058.0
 10
5116.8
 20
2058.0
 10
5116.8
 20
2087.75
 10
5093.4
 20
2087.75
 10
5093.4
 20
2117.0
 10
5070.0
 20
2117.0
 10
5070.0
 20
2000.0
  0
LWPOLYLINE
  5
15B
330
17
100
AcDbEntity
  8
0
100
AcDbPolyline
 90
11
 70
0
 10
2600.0
 20
2500.0
 10
2700.0
 20
2500.0
 10
2700.0
 20
2525.0
 10
2670.0
 20
2525.0
 10
2670.0
 20
2550.0
 10
2640.0
 20
2550.0
 10
2640.0
 20
2575.0
 10
2620.0
 20
2575.0
 10
2620.0
 20
2600.0
 10
2600.0
 20
2600.0
 10
2600.0
 20
2500.0
  0
LWPOLYLINE
  5
15C
330
17
100
AcDbEntity
  8
0
100
AcDbPolyline
 90
7
 70
0
 10
2730.0
 20
2500.0
 10
2850.0
 20
2500.0
 10
2850.0
 20
2540.0
 10
2770.0
 20
2540.0
 10
2770.0
 20
2620.0
 10
2730.0
 20
2620.0
 10
2730.0
 20
2500.0
  0
LWPOLYLINE
  5
15D
330
17
100
AcDbEntity
  8
0
100
AcDbPolyline
 90
9
 70
0
 10
2860.0
 20
2500.0
 10
2914.0
 20
2500.0
 10
2914.0
 20
2513.0
 10
2901.0
 20
2513.0
 10
2901.0
 20
2543.0
 10
2873.0
 20
2543.0
 10
2873.0
 20
2513.0
 10
2860.0
 20
2513.0
 10
2860.0
 20
2500.0
  0
LWPOLYLINE
  5
15E
330
17
100
AcDbEntity
  8
0
100
AcDbPolyline
 90
9
 70
0
 10
2990.0
 20
2500.0
 10
3065.0
 20
2500.0
 10
3065.0
 20
2518.0
 10
3047.0
 20
2518.0
 10
3047.0
 20
2560.0
 10
3008.0
 20
2560.0
 10
3008.0
 20
2518.0
 10
2990.0
 20
2518.0
 10
2990.0
 20
2500.0
  0
LWPOLYLINE
  5
15F
330
17
100
AcDbEntity
  8
0
100
AcDbPolyline
 90
9
 70
0
 10
3120.0
 20
2500.0
 10
3213.0
 20
2500.0
 10
3213.0
 20
2523.0
 10
3190.0
 20
2523.0
 10
3190.0
 20
2574.0
 10
3143.0
 20
2574.0
 10
3143.0
 20
2523.0
 10
3120.0
 20
2523.0
 10
3120.0
 20
2500.0
  0
LWPOLYLINE
  5
160
330
17
100
AcDbEntity
  8
0
100
AcDbPolyline
 90
9
 70
0
 10
3250.0
 20
2500.0
 10
3350.0
 20
2500.0
 10
3350.0
 20
2525.0
 10
3325.0
 20
2525.0
 10
3325.0
 20
2580.0
 10
3275.0
 20
2580.0
 10
3275.0
 20
2525.0
 10
3250.0
 20
2525.0
 10
3250.0
 20
2500.0
  0
LWPOLYLINE
  5
161
330
17
100
AcDbEntity
  8
0
100
AcDbPolyline
 90
11
 70
0
 10
3380.0
 20
2500.0
 10
3454.0
 20
2500.0
 10
3454.0
 20
2518.0
 10
3431.8
 20
2518.0
 10
3431.8
 20
2537.0
 10
3409.6
 20
2537.0
 10
3409.6
 20
2555.5
 10
3394.8
 20
2555.5
 10
3394.8
 20
2574.0
 10
3380.0
 20
2574.0
 10
3380.0
 20
2500.0
  0
LWPOLYLINE
  5
162
330
17
100
AcDbEntity
  8
0
100
AcDbPolyline
 90
9
 70
0
 10
3510.0
 20
2500.0
 10
3619.0
 20
2500.0
 10
3619.0
 20
2527.0
 10
3592.0
 20
2527.0
 10
3592.0
 20
2587.0
 10
3537.0
 20
2587.0
 10
3537.0
 20
2527.0
 10
3510.0
 20
2527.0
 10
3510.0
 20
2500.0
  0
LWPOLYLINE
  5
163
330
17
100
AcDbEntity
  8
0
100
AcDbPolyline
 90
7
 70
0
 10
3640.0
 20
2500.0
 10
3704.0
 20
2500.0
 10
3704.0
 20
2521.0
 10
3661.0
 20
2521.0
 10
3661.0
 20
2564.0
 10
3640.0
 20
2564.0
 10
3640.0
 20
2500.0
  0
LWPOLYLINE
  5
164
330
17
100
AcDbEntity
  8
0
100
AcDbPolyline
 90
7
 70
0
 10
3770.0
 20
2500.0
 10
3858.0
 20
2500.0
 10
3858.0
 20
2529.0
 10
3799.0
 20
2529.0
 10
3799.0
 20
2588.0
 10
3770.0
 20
2588.0
 10
3770.0
 20
2500.0
  0
LWPOLYLINE
  5
165
330
17
100
AcDbEntity
  8
0
100
AcDbPolyline
 90
7
 70
0
 10
3900.0
 20
2500.0
 10
4002.0
 20
2500.0
 10
4002.0
 20
2534.0
 10
3934.0
 20
2534.0
 10
3934.0
 20
2602.0
 10
3900.0
 20
2602.0
 10
3900.0
 20
2500.0
  0
LWPOLYLINE
  5
166
330
17
100
AcDbEntity
  8
0
100
AcDbPolyline
 90
9
 70
0
 10
4030.0
 20
2500.0
 10
4126.0
 20
2500.0
 10
4126.0
 20
2524.0
 10
4102.0
 20
2524.0
 10
4102.0
 20
2576.0
 10
4054.0
 20
2576.0
 10
4054.0
 20
2524.0
 10
4030.0
 20
2524.0
 10
4030.0
 20
2500.0
  0
LWPOLYLINE
  5
167
330
17
100
AcDbEntity
  8
0
100
AcDbPolyline
 90
11
 70
0
 10
4160.0
 20
2500.0
 10
4212.0
 20
2500.0
 10
4212.0
 20
2513.0
 10
4196.4
 20
2513.0
 10
4196.4
 20
2526.0
 10
4180.8
 20
2526.0
 10
4180.8
 20
2539.0
 10
4170.4
 20
2539.0
 10
4170.4
 20
2552.0
 10
4160.0
 20
2552.0
 10
4160.0
 20
2500.0
  0
LWPOLYLINE
  5
168
330
17
100
AcDbEntity
  8
0
100
AcDbPolyline
 90
9
 70
0
 10
4290.0
 20
2500.0
 10
4377.0
 20
2500.0
 10
4377.0
 20
2521.0
 10
4356.0
 20
2521.0
 10
4356.0
 20
2569.0
 10
4311.0
 20
2569.0
 10
4311.0
 20
2521.0
 10
4290.0
 20
2521.0
 10
4290.0
 20
2500.0
  0
LWPOLYLINE
  5
169
330
17
100
AcDbEntity
  8
0
100
AcDbPolyline
 90
9
 70
0
 10
4420.0
 20
2500.0
 10
4499.0
 20
2500.0
 10
4499.0
 20
2519.0
 10
4480.0
 20
2519.0
 10
4480.0
 20
2563.0
 10
4439.0
 20
2563.0
 10
4439.0
 20
2519.0
 10
4420.0
 20
2519.0
 10
4420.0
 20
2500.0
  0
LWPOLYLINE
  5
16A
330
17
100
AcDbEntity
  8
0
100
AcDbPolyline
 90
9
 70
0
 10
4550.0
 20
2500.0
 10
4651.0
 20
2500.0
 10
4651.0
 20
2525.0
 10
4626.0
 20
2525.0
 10
4626.0
 20
2580.0
 10
4575.0
 20
2580.0
 10
4575.0
 20
2525.0
 10
4550.0
 20
2525.0
 10
4550.0
 20
2500.0
  0
LWPOLYLINE
  5
16B
330
17
100
AcDbEntity
  8
0
100
AcDbPolyline
 90
11
 70
0
 10
4680.0
 20
2500.0
 10
4754.0
 20
2500.0
 10
4754.0
 20
2518.0
 10
4731.8
 20
2518.0
 10
4731.8
 20
2537.0
 10
4709.6
 20
2537.0
 10
4709.6
 20
2555.5
 10
4694.8
 20
2555.5
 10
4694.8
 20
2574.0
 10
4680.0
 20
2574.0
 10
4680.0
 20
2500.0
  0
LWPOLYLINE
  5
16C
330
17
100
AcDbEntity
  8
0
100
AcDbPolyline
 90
11
 70
0
 10
4810.0
 20
2500.0
 10
4898.0
 20
2500.0
 10
4898.0
 20
2522.0
 10
4871.6
 20
2522.0
 10
4871.6
 20
2544.0
 10
4845.2
 20
2544.0
 10
4845.2
 20
2566.0
 10
4827.6
 20
2566.0
 10
4827.6
 20
2588.0
 10
4810.0
 20
2588.0
 10
4810.0
 20
2500.0
  0
LWPOLYLINE
  5
16D
330
17
100
AcDbEntity
  8
0
100
AcDbPolyline
 90
11
 70
0
 10
4940.0
 20
2500.0
 10
4993.0
 20
2500.0
 10
4993.0
 20
2513.0
 10
4977.1
 20
2513.0
 10
4977.1
 20
2526.0
 10
4961.2
 20
2526.0
 10
4961.2
 20
2539.75
 10
4950.6
 20
2539.75
 10
4950.6
 20
2553.0
 10
4940.0
 20
2553.0
 10
4940.0
 20
2500.0
  0
LWPOLYLINE
  5
16E
330
17
100
AcDbEntity
  8
0
100
AcDbPolyline
 90
11
 70
0
 10
5070.0
 20
2500.0
 10
5165.0
 20
2500.0
 10
5165.0
 20
2523.0
 10
5136.5
 20
2523.0
 10
5136.5
 20
2547.0
 10
5108.0
 20
2547.0
 10
5108.0
 20
2571.25
 10
5089.0
 20
2571.25
 10
5089.0
 20
2595.0
 10
5070.0
 20
2595.0
 10
5070.0
 20
2500.0
  0
LWPOLYLINE
  5
16F
330
17
100
AcDbEntity
  8
0
100
AcDbPolyline
 90
9
 70
0
 10
2600.0
 20
3000.0
 10
2712.0
 20
3000.0
 10
2712.0
 20
3028.0
 10
2684.0
 20
3028.0
 10
2684.0
 20
3089.0
 10
2628.0
 20
3089.0
 10
2628.0
 20
3028.0
 10
2600.0
 20
3028.0
 10
2600.0
 20
3000.0
  0
LWPOLYLINE
  5
170
330
17
100
AcDbEntity
  8
0
100
AcDbPolyline
 90
11
 70
0
 10
2730.0
 20
3000.0
 10
2830.0
 20
3000.0
 10
2830.0
 20
3025.0
 10
2800.0
 20
3025.0
 10
2800.0
 20
3050.0
 10
2770.0
 20
3050.0
 10
2770.0
 20
3075.0
 10
2750.0
 20
3075.0
 10
2750.0
 20
3100.0
 10
2730.0
 20
3100.0
 10
2730.0
 20
3000.0
  0
LWPOLYLINE
  5
171
330
17
100
AcDbEntity
  8
0
100
AcDbPolyline
 90
11
 70
0
 10
2860.0
 20
3000.0
 10
2930.0
 20
3000.0
 10
2930.0
 20
3017.0
 10
2909.0
 20
3017.0
 10
2909.0
 20
3035.0
 10
2888.0
 20
3035.0
 10
2888.0
 20
3052.5
 10
2874.0
 20
3052.5
 10
2874.0
 20
3070.0
 10
2860.0
 20
3070.0
 10
2860.0
 20
3000.0
  0
LWPOLYLINE
  5
172
330
17
100
AcDbEntity
  8
0
100
AcDbPolyline
 90
11
 70
0
 10
2990.0
 20
3000.0
 10
3043.0
 20
3000.0
 10
3043.0
 20
3013.0
 10
3027.1
 20
3013.0
 10
3027.1
 20
3026.0
 10
3011.2
 20
3026.0
 10
3011.2
 20
3039.75
 10
3000.6
 20
3039.75
 10
3000.6
 20
3053.0
 10
2990.0
 20
3053.0
 10
2990.0
 20
3000.0
  0
LWPOLYLINE
  5
173
330
17
100
AcDbEntity
  8
0
100
AcDbPolyline
 90
11
 70
0
 10
3120.0
 20
3000.0
 10
3235.0
 20
3000.0
 10
3235.0
 20
3028.0
 10
3200.5
 20
3028.0
 10
3200.5
 20
3057.0
 10
3166.0
 20
3057.0
 10
3166.0
 20
3086.25
 10
3143.0
 20
3086.25
 10
3143.0
 20
3115.0
 10
3120.0
 20
3115.0
 10
3120.0
 20
3000.0
  0
LWPOLYLINE
  5
174
330
17
100
AcDbEntity
  8
0
100
AcDbPolyline
 90
11
 70
0
 10
3250.0
 20
3000.0
 10
3365.0
 20
3000.0
 10
3365.0
 20
3028.0
 10
3330.5
 20
3028.0
 10
3330.5
 20
3057.0
 10
3296.0
 20
3057.0
 10
3296.0
 20
3086.25
 10
3273.0
 20
3086.25
 10
3273.0
 20
3115.0
 10
3250.0
 20
3115.0
 10
3250.0
 20
3000.0
  0
LWPOLYLINE
  5
175
330
17
100
AcDbEntity
  8
0
100
AcDbPolyline
 90
9
 70
0
 10
3380.0
 20
3000.0
 10
3479.0
 20
3000.0
 10
3479.0
 20
3024.0
 10
3455.0
 20
3024.0
 10
3455.0
 20
3079.0
 10
3404.0
 20
3079.0
 10
3404.0
 20
3024.0
 10
3380.0
 20
3024.0
 10
3380.0
 20
3000.0
  0
LWPOLYLINE
  5
176
330
17
100
AcDbEntity
  8
0
100
AcDbPolyline
 90
11
 70
0
 10
3510.0
 20
3000.0
 10
3579.0
 20
3000.0
 10
3579.0
 20
3017.0
 10
3558.3
 20
3017.0
 10
3558.3
 20
3034.0
 10
3537.6
 20
3034.0
 10
3537.6
 20
3051.75
 10
3523.8
 20
3051.75
 10
3523.8
 20
3069.0
 10
3510.0
 20
3069.0
 10
3510.0
 20
3000.0
  0
LWPOLYLINE
  5
177
330
17
100
AcDbEntity
  8
0
100
AcDbPolyline
 90
9
 70
0
 10
3640.0
 20
3000.0
 10
3731.0
 20
3000.0
 10
3731.0
 20
3022.0
 10
3709.0
 20
3022.0
 10
3709.0
 20
3072.0
 10
3662.0
 20
3072.0
 10
3662.0
 20
3022.0
 10
3640.0
 20
3022.0
 10
3640.0
 20
3000.0
  0
LWPOLYLINE
  5
178
330
17
100
AcDbEntity
  8
0
100
AcDbPolyline
 90
9
 70
0
 10
3770.0
 20
3000.0
 10
3832.0
 20
3000.0
 10
3832.0
 20
3015.0
 10
3817.0
 20
3015.0
 10
3817.0
 20
3049.0
 10
3785.0
 20
3049.0
 10
3785.0
 20
3015.0
 10
3770.0
 20
3015.0
 10
3770.0
 20
3000.0
  0
LWPOLYLINE
  5
179
330
17
100
AcDbEntity
  8
0
100
AcDbPolyline
 90
9
 70
0
 10
3900.0
 20
3000.0
 10
3996.0
 20
3000.0
 10
3996.0
 20
3024.0
 10
3972.0
 20
3024.0
 10
3972.0
 20
3076.0
 10
3924.0
 20
3076.0
 10
3924.0
 20
3024.0
 10
3900.0
 20
3024.0
 10
3900.0
 20
3000.0
  0
LWPOLYLINE
  5
17A
330
17
100
AcDbEntity
  8
0
100
AcDbPolyline
 90
11
 70
0
 10
4030.0
 20
3000.0
 10
4118.0
 20
3000.0
 10
4118.0
 20
3022.0
 10
4091.6
 20
3022.0
 10
4091.6
 20
3044.0
 10
4065.2
 20
3044.0
 10
4065.2
 20
3066.0
 10
4047.6
 20
3066.0
 10
4047.6
 20
3088.0
 10
4030.0
 20
3088.0
 10
4030.0
 20
3000.0
  0
LWPOLYLINE
  5
17B
330
17
100
AcDbEntity
  8
0
100
AcDbPolyline
 90
7
 70
0
 10
4160.0
 20
3000.0
 10
4276.0
 20
3000.0
 10
4276.0
 20
3038.0
 10
4198.0
 20
3038.0
 10
4198.0
 20
3116.0
 10
4160.0
 20
3116.0
 10
4160.0
 20
3000.0
  0
LWPOLYLINE
  5
17C
330
17
100
AcDbEntity
  8
0
100
AcDbPolyline
 90
7
 70
0
 10
4290.0
 20
3000.0
 10
4352.0
 20
3000.0
 10
4352.0
 20
3020.0
 10
4310.0
 20
3020.0
 10
4310.0
 20
3062.0
 10
4290.0
 20
3062.0
 10
4290.0
 20
3000.0
  0
LWPOLYLINE
  5
17D
330
17
100
AcDbEntity
  8
0
100
AcDbPolyline
 90
11
 70
0
 10
4420.0
 20
3000.0
 10
4510.0
 20
3000.0
 10
4510.0
 20
3022.0
 10
4483.0
 20
3022.0
 10
4483.0
 20
3045.0
 10
4456.0
 20
3045.0
 10
4456.0
 20
3067.5
 10
4438.0
 20
3067.5
 10
4438.0
 20
3090.0
 10
4420.0
 20
3090.0
 10
4420.0
 20
3000.0
  0
LWPOLYLINE
  5
17E
330
17
100
AcDbEntity
  8
0
100
AcDbPolyline
 90
7
 70
0
 10
4550.0
 20
3000.0
 10
4655.0
 20
3000.0
 10
4655.0
 20
3035.0
 10
4585.0
 20
3035.0
 10
4585.0
 20
3105.0
 10
4550.0
 20
3105.0
 10
4550.0
 20
3000.0
  0
LWPOLYLINE
  5
17F
330
17
100
AcDbEntity
  8
0
100
AcDbPolyline
 90
9
 70
0
 10
4680.0
 20
3000.0
 10
4746.0
 20
3000.0
 10
4746.0
 20
3016.0
 10
4730.0
 20
3016.0
 10
4730.0
 20
3052.0
 10
4696.0
 20
3052.0
 10
4696.0
 20
3016.0
 10
4680.0
 20
3016.0
 10
4680.0
 20
3000.0
  0
LWPOLYLINE
  5
180
330
17
100
AcDbEntity
  8
0
100
AcDbPolyline
 90
9
 70
0
 10
4810.0
 20
3000.0
 10
4868.0
 20
3000.0
 10
4868.0
 20
3014.0
 10
4854.0
 20
3014.0
 10
4854.0
 20
3046.0
 10
4824.0
 20
3046.0
 10
4824.0
 20
3014.0
 10
4810.0
 20
3014.0
 10
4810.0
 20
3000.0
  0
LWPOLYLINE
  5
181
330
17
100
AcDbEntity
  8
0
100
AcDbPolyline
 90
11
 70
0
 10
4940.0
 20
3000.0
 10
4990.0
 20
3000.0
 10
4990.0
 20
3012.0
 10
4975.0
 20
3012.0
 10
4975.0
 20
3025.0
 10
4960.0
 20
3025.0
 10
4960.0
 20
3037.5
 10
4950.0
 20
3037.5
 10
4950.0
 20
3050.0
 10
4940.0
 20
3050.0
 10
4940.0
 20
3000.0
  0
LWPOLYLINE
  5
182
330
17
100
AcDbEntity
  8
0
100
AcDbPolyline
 90
7
 70
0
 10
5070.0
 20
3000.0
 10
5124.0
 20
3000.0
 10
5124.0
 20
3018.0
 10
5088.0
 20
3018.0
 10
5088.0
 20
3054.0
 10
5070.0
 20
3054.0
 10
5070.0
 20
3000.0
  0
LWPOLYLINE
  5
183
330
17
100
AcDbEntity
  8
0
100
AcDbPolyline
 90
9
 70
0
 10
2600.0
 20
3500.0
 10
2654.0
 20
3500.0
 10
2654.0
 20
3513.0
 10
2641.0
 20
3513.0
 10
2641.0
 20
3543.0
 10
2613.0
 20
3543.0
 10
2613.0
 20
3513.0
 10
2600.0
 20
3513.0
 10
2600.0
 20
3500.0
  0
LWPOLYLINE
  5
184
330
17
100
AcDbEntity
  8
0
100
AcDbPolyline
 90
9
 70
0
 10
2730.0
 20
3500.0
 10
2798.0
 20
3500.0
 10
2798.0
 20
3517.0
 10
2781.0
 20
3517.0
 10
2781.0
 20
3554.0
 10
2747.0
 20
3554.0
 10
2747.0
 20
3517.0
 10
2730.0
 20
3517.0
 10
2730.0
 20
3500.0
  0
LWPOLYLINE
  5
185
330
17
100
AcDbEntity
  8
0
100
AcDbPolyline
 90
7
 70
0
 10
2860.0
 20
3500.0
 10
2934.0
 20
3500.0
 10
2934.0
 20
3524.0
 10
2884.0
 20
3524.0
 10
2884.0
 20
3574.0
 10
2860.0
 20
3574.0
 10
2860.0
 20
3500.0
  0
LWPOLYLINE
  5
186
330
17
100
AcDbEntity
  8
0
100
AcDbPolyline
 90
11
 70
0
 10
2990.0
 20
3500.0
 10
3047.0
 20
3500.0
 10
3047.0
 20
3514.0
 10
3029.9
 20
3514.0
 10
3029.9
 20
3528.0
 10
3012.8
 20
3528.0
 10
3012.8
 20
3542.75
 10
3001.4
 20
3542.75
 10
3001.4
 20
3557.0
 10
2990.0
 20
3557.0
 10
2990.0
 20
3500.0
  0
LWPOLYLINE
  5
187
330
17
100
AcDbEntity
  8
0
100
AcDbPolyline
 90
11
 70
0
 10
3120.0
 20
3500.0
 10
3187.0
 20
3500.0
 10
3187.0
 20
3516.0
 10
3166.9
 20
3516.0
 10
3166.9
 20
3533.0
 10
3146.8
 20
3533.0
 10
3146.8
 20
3550.25
 10
3133.4
 20
3550.25
 10
3133.4
 20
3567.0
 10
3120.0
 20
3567.0
 10
3120.0
 20
3500.0
  0
LWPOLYLINE
  5
188
330
17
100
AcDbEntity
  8
0
100
AcDbPolyline
 90
11
 70
0
 10
3250.0
 20
3500.0
 10
3353.0
 20
3500.0
 10
3353.0
 20
3525.0
 10
3322.1
 20
3525.0
 10
3322.1
 20
3551.0
 10
3291.2
 20
3551.0
 10
3291.2
 20
3577.25
 10
3270.6
 20
3577.25
 10
3270.6
 20
3603.0
 10
3250.0
 20
3603.0
 10
3250.0
 20
3500.0
  0
LWPOLYLINE
  5
189
330
17
100
AcDbEntity
  8
0
100
AcDbPolyline
 90
7
 70
0
 10
3380.0
 20
3500.0
 10
3468.0
 20
3500.0
 10
3468.0
 20
3529.0
 10
3409.0
 20
3529.0
 10
3409.0
 20
3588.0
 10
3380.0
 20
3588.0
 10
3380.0
 20
3500.0
  0
LWPOLYLINE
  5
18A
330
17
100
AcDbEntity
  8
0
100
AcDbPolyline
 90
7
 70
0
 10
3510.0
 20
3500.0
 10
3566.0
 20
3500.0
 10
3566.0
 20
3518.0
 10
3528.0
 20
3518.0
 10
3528.0
 20
3556.0
 10
3510.0
 20
3556.0
 10
3510.0
 20
3500.0
  0
LWPOLYLINE
  5
18B
330
17
100
AcDbEntity
  8
0
100
AcDbPolyline
 90
11
 70
0
 10
3640.0
 20
3500.0
 10
3701.0
 20
3500.0
 10
3701.0
 20
3515.0
 10
3682.7
 20
3515.0
 10
3682.7
 20
3530.0
 10
3664.4
 20
3530.0
 10
3664.4
 20
3545.75
 10
3652.2
 20
3545.75
 10
3652.2
 20
3561.0
 10
3640.0
 20
3561.0
 10
3640.0
 20
3500.0
  0
LWPOLYLINE
  5
18C
330
17
100
AcDbEntity
  8
0
100
AcDbPolyline
 90
9
 70
0
 10
3770.0
 20
3500.0
 10
3850.0
 20
3500.0
 10
3850.0
 20
3520.0
 10
3830.0
 20
3520.0
 10
3830.0
 20
3564.0
 10
3790.0
 20
3564.0
 10
3790.0
 20
3520.0
 10
3770.0
 20
3520.0
 10
3770.0
 20
3500.0
  0
LWPOLYLINE
  5
18D
330
17
100
AcDbEntity
  8
0
100
AcDbPolyline
 90
23
 70
0
 10
5310.0
 20
70.0
 10
5303.5822540765075
 20
79.86063948945004
 10
5303.650141313247
 20
91.62563269822391
 10
5292.920125688085
 20
96.45123510239904
 10
5286.616600520076
 20
106.38527981418073
 10
5274.981019339565
 20
104.64375046583265
 10
5264.307406469068
 20
109.59285767523731
 10
5255.460474544934
 20
101.83711983740815
 10
5243.805570642188
 20
100.22998297417033
 10
5240.556126350909
 20
88.92242861094593
 10
5231.6202810554205
 20
81.26930227365719
 10
5235.0
 20
70.00000000000001
 10
5231.6202810554205
 20
58.730697726342825
 10
5240.556126350909
 20
51.077571389054086
 10
5243.805570642188
 20
39.770017025829674
 10
5255.460474544934
 20
38.16288016259187
 10
5264.307406469068
 20
30.407142324762695
 10
5274.981019339565
 20
35.356249534167354
 10
5286.616600520076
 20
33.61472018581926
 10
5292.920125688085
 20
43.54876489760095
 10
5303.650141313247
 20
48.3743673017761
 10
5303.5822540765075
 20
60.139360510549956
 10
5310.0
 20
70.0
  0
LWPOLYLINE
  5
18E
330
17
100
AcDbEntity
  8
0
100
AcDbPolyline
 90
11
 70
0
 10
5420.0
 20
31.0
 10
5429.670041244508
 20
56.690330060848666
 10
5457.091204135511
 20
57.94833721937705
 10
5435.646455406227
 20
75.08384153771306
 10
5442.923624839406
 20
101.55166278062295
 10
5420.0
 20
86.45165680287653
 10
5397.076375160594
 20
101.55166278062295
 10
5404.353544593773
 20
75.08384153771307
 10
5382.908795864489
 20
57.94833721937705
 10
5410.329958755492
 20
56.690330060848666
 10
5420.0
 20
31.0
  0
LWPOLYLINE
  5
18F
330
17
100
AcDbEntity
  8
0
100
AcDbPolyline
 90
19
 70
0
 10
5615.0
 20
70.0
 10
5607.587704831436
 20
83.68080573302674
 10
5604.471999940354
 20
98.92544243589427
 10
5590.0
 20
104.64101615137754
 10
5577.814167995012
 20
114.31634888554936
 10
5563.054072893323
 20
109.39231012048832
 10
5547.5
 20
108.97114317029974
 10
5539.358222275241
 20
95.71150438746159
 10
5527.7138320646345
 20
85.3909064496551
 10
5530.0
 20
70.0
 10
5527.7138320646345
 20
54.60909355034491
 10
5539.358222275241
 20
44.28849561253844
 10
5547.5
 20
31.028856829700274
 10
5563.054072893323
 20
30.607689879511682
 10
5577.814167995012
 20
25.683651114450633
 10
5590.0
 20
35.35898384862244
 10
5604.471999940354
 20
41.07455756410572
 10
5607.587704831436
 20
56.319194266973255
 10
5615.0
 20
70.0
  0
LWPOLYLINE
  5
190
330
17
100
AcDbEntity
  8
0
100
AcDbPolyline
 90
11
 70
0
 10
5720.0
 20
26.0
 10
5732.410172227307
 20
52.91886331640065
 10
5761.846486716987
 20
56.403252247502316
 10
5740.080080470023
 20
76.52441364665229
 10
5745.862551100869
 20
105.59674775249769
 10
5720.0
 20
91.11344607389411
 10
5694.137448899131
 20
105.59674775249769
 10
5699.919919529977
 20
76.52441364665229
 10
5678.153513283013
 20
56.40325224750232
 10
5707.589827772693
 20
52.91886331640065
 10
5720.0
 20
26.0
  0
LWPOLYLINE
  5
191
330
17
100
AcDbEntity
  8
0
100
AcDbPolyline
 90
33
 70
0
 10
5919.0
 20
70.0
 10
5913.154552337742
 20
78.58397416870964
 10
5915.270097093053
 20
88.7514881858894
 10
5906.584662941312
 20
94.4450902528625
 10
5904.648232278141
 20
104.64823227814082
 10
5894.445090252862
 20
106.58466294131199
 10
5888.75148818589
 20
115.27009709305305
 10
5878.58397416871
 20
113.15455233774213
 10
5870.0
 20
119.0
 10
5861.41602583129
 20
113.15455233774213
 10
5851.24851181411
 20
115.27009709305305
 10
5845.554909747138
 20
106.58466294131199
 10
5835.351767721859
 20
104.64823227814082
 10
5833.415337058688
 20
94.4450902528625
 10
5824.729902906947
 20
88.7514881858894
 10
5826.845447662258
 20
78.58397416870966
 10
5821.0
 20
70.0
 10
5826.845447662258
 20
61.416025831290355
 10
5824.729902906947
 20
51.24851181411061
 10
5833.415337058688
 20
45.554909747137515
 10
5835.351767721859
 20
35.351767721859176
 10
5845.554909747138
 20
33.41533705868801
 10
5851.24851181411
 20
24.72990290694696
 10
5861.41602583129
 20
26.845447662257868
 10
5870.0
 20
21.0
 10
5878.58397416871
 20
26.84544766225786
 10
5888.75148818589
 20
24.729902906946954
 10
5894.445090252862
 20
33.415337058688
 10
5904.648232278141
 20
35.35176772185916
 10
5906.584662941312
 20
45.5549097471375
 10
5915.270097093053
 20
51.24851181411057
 10
5913.154552337742
 20
61.416025831290334
 10
5919.0
 20
70.0
  0
LWPOLYLINE
  5
192
330
17
100
AcDbEntity
  8
0
100
AcDbPolyline
 90
11
 70
0
 10
6020.0
 20
17.0
 10
6034.217355829436
 20
50.43148847945818
 10
6070.405995363643
 20
53.62209929812779
 10
6043.00416496218
 20
77.47450629160309
 10
6051.152618371501
 20
112.87790070187222
 10
6020.0
 20
94.18801045787745
 10
5988.847381628499
 20
112.87790070187222
 10
5996.99583503782
 20
77.47450629160309
 10
5969.594004636357
 20
53.62209929812779
 10
6005.782644170564
 20
50.43148847945819
 10
6020.0
 20
17.0
  0
LWPOLYLINE
  5
193
330
17
100
AcDbEntity
  8
0
100
AcDbPolyline
 90
19
 70
0
 10
6224.0
 20
70.0
 10
6216.044938418509
 20
86.75898702295777
 10
6211.3663999284245
 20
104.71053092307312
 10
6194.5
 20
112.43524478543749
 10
6179.3770015940145
 20
123.17961866265924
 10
6161.491239294321
 20
118.2555798975982
 10
6143.0
 20
116.76537180435969
 10
6132.46382228717
 20
101.49659287464044
 10
6119.256598477561
 20
88.46908773958612
 10
6121.0
 20
70.0
 10
6119.256598477561
 20
51.53091226041389
 10
6132.46382228717
 20
38.503407125359594
 10
6143.0
 20
23.234628195640326
 10
6161.491239294321
 20
21.744420102401804
 10
6179.3770015940145
 20
16.820381337340763
 10
6194.5
 20
27.56475521456249
 10
6211.3663999284245
 20
35.28946907692686
 10
6216.044938418509
 20
53.24101297704224
 10
6224.0
 20
70.0
  0
LWPOLYLINE
  5
194
330
17
100
AcDbEntity
  8
0
100
AcDbPolyline
 90
11
 70
0
 10
6320.0
 20
21.0
 10
6332.868810196321
 20
52.287602307809635
 10
6366.601769298462
 20
54.85816727562758
 10
6340.822172292417
 20
76.76553389616151
 10
6348.801477362331
 20
109.64183272437242
 10
6320.0
 20
91.89372759205769
 10
6291.198522637669
 20
109.64183272437242
 10
6299.177827707583
 20
76.76553389616153
 10
6273.398230701538
 20
54.85816727562758
 10
6307.131189803679
 20
52.287602307809635
 10
6320.0
 20
21.0
  0
LWPOLYLINE
  5
195
330
17
100
AcDbEntity
  8
0
100
AcDbPolyline
 90
25
 70
0
 10
6499.0
 20
70.0
 10
6493.182219830937
 20
76.2116570824605
 10
6495.114736709748
 20
84.5
 10
6486.970562748477
 20
86.97056274847714
 10
6484.5
 20
95.11473670974871
 10
6476.21165708246
 20
93.18221983093764
 10
6470.0
 20
99.0
 10
6463.78834291754
 20
93.18221983093764
 10
6455.5
 20
95.11473670974873
 10
6453.029437251523
 20
86.97056274847714
 10
6444.885263290252
 20
84.5
 10
6446.817780169063
 20
76.2116570824605
 10
6441.0
 20
70.0
 10
6446.817780169063
 20
63.7883429175395
 10
6444.885263290252
 20
55.50000000000001
 10
6453.029437251523
 20
53.029437251522864
 10
6455.5
 20
44.88526329025129
 10
6463.78834291754
 20
46.81778016906236
 10
6470.0
 20
41.0
 10
6476.21165708246
 20
46.81778016906236
 10
6484.5
 20
44.88526329025128
 10
6486.970562748477
 20
53.02943725152286
 10
6495.114736709748
 20
55.499999999999986
 10
6493.182219830937
 20
63.78834291753948
 10
6499.0
 20
70.0
  0
LWPOLYLINE
  5
196
330
17
100
AcDbEntity
  8
0
100
AcDbPolyline
 90
11
 70
0
 10
6620.0
 20
7.0
 10
6636.401381674199
 20
47.42543479288501
 10
6679.916560526594
 20
50.53192935437831
 10
6646.537993011314
 20
78.62271662786712
 10
6657.030470894426
 20
120.96807064562168
 10
6620.0
 20
97.90369715849575
 10
6582.969529105574
 20
120.96807064562168
 10
6593.462006988686
 20
78.62271662786712
 10
6560.083439473406
 20
50.53192935437832
 10
6603.598618325801
 20
47.425434792885014
 10
6620.0
 20
7.0
  0
LWPOLYLINE
  5
197
330
17
100
AcDbEntity
  8
0
100
AcDbPolyline
 90
27
 70
0
 10
6796.0
 20
70.0
 10
6790.389778165947
 20
75.02562895003871
 10
6793.021856666984
 20
82.08280247313797
 10
6785.718725711593
 20
83.9255758230567
 10
6784.76968341501
 20
91.39758051323507
 10
6777.4467026278935
 20
89.63534109639372
 10
6773.133953686638
 20
95.8104307265494
 10
6767.468729714638
 20
90.84688635605913
 10
6760.780272936894
 20
94.31042230982078
 10
6758.070640318646
 20
87.28266118376678
 10
6750.538720547552
 20
87.24118911426068
 10
6751.405423461282
 20
79.75918661291915
 10
6744.755512746922
 20
76.2222072714765
 10
6749.0
 20
70.0
 10
6744.755512746922
 20
63.77779272852351
 10
6751.405423461282
 20
60.24081338708087
 10
6750.538720547552
 20
52.75881088573933
 10
6758.070640318646
 20
52.717338816233216
 10
6760.780272936894
 20
45.68957769017922
 10
6767.468729714638
 20
49.15311364394087
 10
6773.133953686638
 20
44.1895692734506
 10
6777.4467026278935
 20
50.36465890360628
 10
6784.76968341501
 20
48.602419486764916
 10
6785.718725711593
 20
56.074424176943296
 10
6793.021856666984
 20
57.917197526862026
 10
6790.389778165947
 20
64.97437104996129
 10
6796.0
 20
70.0
  0
LWPOLYLINE
  5
198
330
17
100
AcDbEntity
  8
0
100
AcDbPolyline
 90
11
 70
0
 10
6920.0
 20
27.0
 10
6932.187037046996
 20
53.225982544402456
 10
6960.895430200691
 20
56.712269241877266
 10
6939.719040164194
 20
76.40710454015424
 10
6945.274765848576
 20
104.78773075812273
 10
6920.0
 20
90.73382583088662
 10
6894.725234151424
 20
104.78773075812273
 10
6900.280959835806
 20
76.40710454015424
 10
6879.104569799309
 20
56.712269241877266
 10
6907.812962953004
 20
53.225982544402456
 10
6920.0
 20
27.0
  0
LWPOLYLINE
  5
199
330
17
100
AcDbEntity
  8
0
100
AcDbPolyline
 90
17
 70
0
 10
7108.0
 20
70.0
 10
7100.488024572873
 20
82.62855326804797
 10
7096.870057685089
 20
96.8700576850888
 10
7082.628553268048
 20
100.48802457287246
 10
7070.0
 20
108.0
 10
7057.371446731952
 20
100.48802457287246
 10
7043.129942314911
 20
96.87005768508881
 10
7039.511975427127
 20
82.62855326804797
 10
7032.0
 20
70.0
 10
7039.511975427127
 20
57.37144673195204
 10
7043.129942314911
 20
43.1299423149112
 10
7057.371446731952
 20
39.511975427127545
 10
7070.0
 20
32.0
 10
7082.628553268048
 20
39.51197542712754
 10
7096.870057685089
 20
43.12994231491119
 10
7100.488024572873
 20
57.37144673195202
 10
7108.0
 20
70.0
  0
LWPOLYLINE
  5
19A
330
17
100
AcDbEntity
  8
0
100
AcDbPolyline
 90
11
 70
0
 10
7220.0
 20
1.0
 10
7240.21643725879
 20
42.17446126066085
 10
7285.622899624365
 20
48.677827388128634
 10
7252.710882616153
 20
80.62841004315065
 10
7260.557182408181
 20
125.82217261187137
 10
7220.0
 20
104.39425739237699
 10
7179.442817591819
 20
125.82217261187137
 10
7187.289117383847
 20
80.62841004315065
 10
7154.377100375635
 20
48.677827388128634
 10
7199.78356274121
 20
42.174461260660856
 10
7220.0
 20
1.0
  0
LWPOLYLINE
  5
19B
330
17
100
AcDbEntity
  8
0
100
AcDbPolyline
 90
27
 70
0
 10
7410.0
 20
70.0
 10
7403.982963609912
 20
78.37604825006451
 10
7405.418241026128
 20
88.58892688175074
 10
7396.197876185988
 20
93.20929303842783
 10
7392.722589869246
 20
102.91935463574626
 10
7382.411171046489
 20
102.72556849398953
 10
7374.821467210213
 20
109.70835496392216
 10
7365.781216191063
 20
104.74481059343188
 10
7355.815804518298
 20
107.40064970741659
 10
7350.117733864409
 20
98.80443530627798
 10
7340.059570073156
 20
96.5249063296318
 10
7339.009039102138
 20
86.26531102153191
 10
7331.162327302958
 20
79.57262657150231
 10
7335.0
 20
69.99999999999999
 10
7331.162327302958
 20
60.4273734284977
 10
7339.009039102138
 20
53.734688978468114
 10
7340.059570073156
 20
43.4750936703682
 10
7350.117733864409
 20
41.19556469372203
 10
7355.815804518298
 20
32.59935029258341
 10
7365.781216191063
 20
35.255189406568114
 10
7374.821467210213
 20
30.29164503607784
 10
7382.411171046489
 20
37.27443150601048
 10
7392.722589869246
 20
37.08064536425372
 10
7396.197876185988
 20
46.790706961572155
 10
7405.418241026128
 20
51.41107311824926
 10
7403.982963609912
 20
61.62395174993548
 10
7410.0
 20
70.0
  0
LWPOLYLINE
  5
19C
330
17
100
AcDbEntity
  8
0
100
AcDbPolyline
 90
11
 70
0
 10
5270.0
 20
623.0
 10
5283.9073447251985
 20
650.8581821584771
 10
5314.699656265872
 20
655.4762012643774
 10
5292.502556458632
 20
677.3115238090027
 10
5297.6259068577465
 20
708.0237987356226
 10
5270.0
 20
693.6605880650407
 10
5242.3740931422535
 20
708.0237987356226
 10
5247.497443541368
 20
677.3115238090027
 10
5225.300343734128
 20
655.4762012643774
 10
5256.0926552748015
 20
650.8581821584771
 10
5270.0
 20
623.0
  0
LWPOLYLINE
  5
19D
330
17
100
AcDbEntity
  8
0
100
AcDbPolyline
 90
25
 70
0
 10
5448.0
 20
670.0
 10
5442.216294004648
 20
675.952838037358
 10
5444.248711305964
 20
684.0
 10
5436.263455967291
 20
686.2634559672906
 10
5434.0
 20
694.2487113059643
 10
5425.952838037358
 20
692.2162940046486
 10
5420.0
 20
698.0
 10
5414.047161962642
 20
692.2162940046486
 10
5406.0
 20
694.2487113059643
 10
5403.736544032709
 20
686.2634559672906
 10
5395.751288694036
 20
684.0
 10
5397.783705995352
 20
675.952838037358
 10
5392.0
 20
670.0
 10
5397.783705995352
 20
664.047161962642
 10
5395.751288694036
 20
656.0
 10
5403.736544032709
 20
653.7365440327094
 10
5406.0
 20
645.7512886940357
 10
5414.047161962642
 20
647.7837059953514
 10
5420.0
 20
642.0
 10
5425.952838037358
 20
647.7837059953514
 10
5434.0
 20
645.7512886940357
 10
5436.263455967291
 20
653.7365440327094
 10
5444.248711305964
 20
656.0
 10
5442.216294004648
 20
664.047161962642
 10
5448.0
 20
670.0
  0
LWPOLYLINE
  5
19E
330
17
100
AcDbEntity
  8
0
100
AcDbPolyline
 90
11
 70
0
 10
5570.0
 20
619.0
 10
5585.203737065503
 20
649.0738511794431
 10
5618.503882331052
 20
654.2401332868777
 10
5594.600163328002
 20
677.9930775958143
 10
5599.977047866916
 20
711.2598667131223
 10
5570.0
 20
695.8661424494854
 10
5540.022952133084
 20
711.2598667131223
 10
5545.399836671998
 20
677.9930775958143
 10
5521.496117668948
 20
654.2401332868777
 10
5554.796262934497
 20
649.0738511794431
 10
5570.0
 20
619.0
  0
LWPOLYLINE
  5
19F
330
17
100
AcDbEntity
  8
0
100
AcDbPolyline
 90
29
 70
0
 10
5749.0
 20
670.0
 10
5743.398269892364
 20
675.3405024149515
 10
5746.12809716917
 20
682.5826284344092
 10
5738.763955579233
 20
684.9637552446096
 10
5738.081204253904
 20
692.6731129915729
 10
5730.413209738821
 20
691.6232528296581
 10
5726.453107084733
 20
698.2729094532729
 10
5720.0
 20
694.0
 10
5713.546892915267
 20
698.2729094532729
 10
5709.586790261179
 20
691.6232528296581
 10
5701.918795746096
 20
692.6731129915729
 10
5701.236044420767
 20
684.9637552446096
 10
5693.87190283083
 20
682.5826284344092
 10
5696.601730107636
 20
675.3405024149515
 10
5691.0
 20
670.0
 10
5696.601730107636
 20
664.6594975850485
 10
5693.87190283083
 20
657.4173715655908
 10
5701.236044420767
 20
655.0362447553904
 10
5701.918795746096
 20
647.3268870084271
 10
5709.586790261179
 20
648.3767471703419
 10
5713.546892915267
 20
641.7270905467271
 10
5720.0
 20
646.0
 10
5726.453107084733
 20
641.7270905467271
 10
5730.413209738821
 20
648.3767471703419
 10
5738.081204253904
 20
647.3268870084271
 10
5738.763955579233
 20
655.0362447553904
 10
5746.12809716917
 20
657.4173715655909
 10
5743.398269892364
 20
664.6594975850485
 10
5749.0
 20
670.0
  0
LWPOLYLINE
  5
1A0
330
17
100
AcDbEntity
  8
0
100
AcDbPolyline
 90
11
 70
0
 10
5870.0
 20
633.0
 10
5879.58646376954
 20
656.8053645863523
 10
5905.18909110292
 20
658.566371208127
 10
5885.511224211036
 20
675.0399022588504
 10
5891.748054334821
 20
699.933628791873
 10
5870.0
 20
686.3094663095947
 10
5848.251945665179
 20
699.933628791873
 10
5854.488775788964
 20
675.0399022588504
 10
5834.81090889708
 20
658.566371208127
 10
5860.41353623046
 20
656.8053645863523
 10
5870.0
 20
633.0
  0
LWPOLYLINE
  5
1A1
330
17
100
AcDbEntity
  8
0
100
AcDbPolyline
 90
29
 70
0
 10
6045.0
 20
670.0
 10
6039.498558243637
 20
674.4504186791263
 10
6042.52422169756
 20
680.847093477939
 10
6035.636629649361
 20
682.4697960371747
 10
6035.5872450464685
 20
689.5457870617007
 10
6028.6776747823515
 20
688.0193773580484
 10
6025.563023348908
 20
694.3731978045456
 10
6020.0
 20
690.0
 10
6014.436976651092
 20
694.3731978045456
 10
6011.3223252176485
 20
688.0193773580484
 10
6004.4127549535315
 20
689.5457870617007
 10
6004.363370350639
 20
682.4697960371747
 10
5997.47577830244
 20
680.847093477939
 10
6000.501441756363
 20
674.4504186791263
 10
5995.0
 20
670.0
 10
6000.501441756363
 20
665.5495813208737
 10
5997.47577830244
 20
659.152906522061
 10
6004.363370350639
 20
657.5302039628253
 10
6004.4127549535315
 20
650.4542129382993
 10
6011.3223252176485
 20
651.9806226419516
 10
6014.436976651092
 20
645.6268021954544
 10
6020.0
 20
650.0
 10
6025.563023348908
 20
645.6268021954544
 10
6028.6776747823515
 20
651.9806226419516
 10
6035.5872450464685
 20
650.4542129382993
 10
6035.636629649361
 20
657.5302039628253
 10
6042.52422169756
 20
659.152906522061
 10
6039.498558243637
 20
665.5495813208737
 10
6045.0
 20
670.0
  0
LWPOLYLINE
  5
1A2
330
17
100
AcDbEntity
  8
0
100
AcDbPolyline
 90
11
 70
0
 10
6170.0
 20
625.0
 10
6181.652163359145
 20
653.9621730180963
 10
6212.797543233282
 20
656.0942352531274
 10
6188.853596357562
 20
676.125904801397
 10
6196.450336353161
 20
706.4057647468726
 10
6170.0
 20
689.8238443610131
 10
6143.549663646839
 20
706.4057647468726
 10
6151.146403642438
 20
676.125904801397
 10
6127.202456766718
 20
656.0942352531274
 10
6158.347836640855
 20
653.9621730180963
 10
6170.0
 20
625.0
  0
LWPOLYLINE
  5
1A3
330
17
100
AcDbEntity
  8
0
100
AcDbPolyline
 90
21
 70
0
 10
6362.0
 20
670.0
 10
6355.18909110292
 20
681.433628791873
 10
6353.978713763748
 20
694.6869805962839
 10
6341.748054334821
 20
699.933628791873
 10
6332.978713763748
 20
709.9443736843964
 10
6320.0
 20
707.0
 10
6307.021286236252
 20
709.9443736843964
 10
6298.251945665179
 20
699.933628791873
 10
6286.021286236252
 20
694.6869805962839
 10
6284.81090889708
 20
681.433628791873
 10
6278.0
 20
670.0
 10
6284.81090889708
 20
658.566371208127
 10
6286.021286236252
 20
645.3130194037161
 10
6298.251945665179
 20
640.066371208127
 10
6307.021286236252
 20
630.0556263156036
 10
6320.0
 20
633.0
 10
6332.978713763748
 20
630.0556263156036
 10
6341.748054334821
 20
640.066371208127
 10
6353.978713763748
 20
645.3130194037161
 10
6355.18909110292
 20
658.566371208127
 10
6362.0
 20
670.0
  0
LWPOLYLINE
  5
1A4
330
17
100
AcDbEntity
  8
0
100
AcDbPolyline
 90
11
 70
0
 10
6470.0
 20
610.0
 10
6485.791412705109
 20
648.2649850539889
 10
6527.063390977709
 20
651.4589803375031
 10
6495.551042487244
 20
678.3020369633892
 10
6505.267115137548
 20
718.5410196624969
 10
6470.0
 20
696.8659559652436
 10
6434.732884862452
 20
718.5410196624969
 10
6444.448957512756
 20
678.3020369633894
 10
6412.936609022291
 20
651.4589803375031
 10
6454.208587294891
 20
648.2649850539889
 10
6470.0
 20
610.0
  0
LWPOLYLINE
  5
1A5
330
17
100
AcDbEntity
  8
0
100
AcDbPolyline
 90
23
 70
0
 10
6663.0
 20
670.0
 10
6656.4607329973505
 20
680.7058371599743
 10
6656.17390191174
 20
693.2475551505906
 10
6644.884707889921
 20
698.7184838254618
 10
6637.8628455590815
 20
709.1141758002443
 10
6625.407963854384
 20
707.6132147914755
 10
6613.880461954249
 20
712.5623220008802
 10
6604.214229505928
 20
704.5660158234717
 10
6591.840988440353
 20
702.4972316972331
 10
6588.032365752415
 20
690.5443510633127
 10
6578.741802134577
 20
682.1144999441815
 10
6582.0
 20
670.0
 10
6578.741802134577
 20
657.8855000558185
 10
6588.032365752415
 20
649.4556489366873
 10
6591.840988440353
 20
637.5027683027669
 10
6604.214229505928
 20
635.4339841765283
 10
6613.880461954249
 20
627.4376779991198
 10
6625.407963854384
 20
632.3867852085245
 10
6637.8628455590815
 20
630.8858241997557
 10
6644.884707889921
 20
641.2815161745382
 10
6656.17390191174
 20
646.7524448494094
 10
6656.4607329973505
 20
659.2941628400257
 10
6663.0
 20
670.0
  0
LWPOLYLINE
  5
1A6
330
17
100
AcDbEntity
  8
0
100
AcDbPolyline
 90
11
 70
0
 10
6770.0
 20
626.0
 10
6780.607791661697
 20
655.3996273407155
 10
6811.846486716987
 20
656.4032522475023
 10
6787.1637674542035
 20
675.5768461074321
 10
6795.862551100869
 20
705.5967477524977
 10
6770.0
 20
688.047053103705
 10
6744.137448899131
 20
705.5967477524977
 10
6752.8362325457965
 20
675.5768461074321
 10
6728.153513283013
 20
656.4032522475023
 10
6759.392208338303
 20
655.3996273407155
 10
6770.0
 20
626.0
  0
LWPOLYLINE
  5
1A7
330
17
100
AcDbEntity
  8
0
100
AcDbPolyline
 90
33
 70
0
 10
6970.0
 20
670.0
 10
6964.135337618145
 20
678.7790644907258
 10
6966.193976625565
 20
689.1341716182545
 10
6957.416132553614
 20
695.0006604858821
 10
6955.355339059327
 20
705.3553390593273
 10
6945.000660485882
 20
707.4161325536145
 10
6939.134171618254
 20
716.1939766255643
 10
6928.779064490725
 20
714.1353376181454
 10
6920.0
 20
720.0
 10
6911.220935509275
 20
714.1353376181454
 10
6900.865828381746
 20
716.1939766255643
 10
6894.999339514118
 20
707.4161325536145
 10
6884.644660940673
 20
705.3553390593274
 10
6882.583867446386
 20
695.0006604858821
 10
6873.806023374435
 20
689.1341716182545
 10
6875.864662381855
 20
678.7790644907258
 10
6870.0
 20
670.0
 10
6875.864662381855
 20
661.2209355092742
 10
6873.806023374435
 20
650.8658283817455
 10
6882.583867446386
 20
644.9993395141179
 10
6884.644660940673
 20
634.6446609406727
 10
6894.999339514118
 20
632.5838674463855
 10
6900.865828381746
 20
623.8060233744357
 10
6911.220935509275
 20
625.8646623818546
 10
6920.0
 20
620.0
 10
6928.779064490725
 20
625.8646623818546
 10
6939.134171618254
 20
623.8060233744357
 10
6945.000660485882
 20
632.5838674463855
 10
6955.355339059327
 20
634.6446609406726
 10
6957.416132553614
 20
644.9993395141179
 10
6966.193976625565
 20
650.8658283817455
 10
6964.135337618145
 20
661.2209355092742
 10
6970.0
 20
670.0
  0
LWPOLYLINE
  5
1A8
330
17
100
AcDbEntity
  8
0
100
AcDbPolyline
 90
11
 70
0
 10
7070.0
 20
605.0
 10
7088.4442257497885
 20
644.613701140902
 10
7131.818673559185
 20
649.9138953656284
 10
7099.843384159334
 20
679.6967033156128
 10
7108.206041399011
 20
722.5861046343716
 10
7070.0
 20
701.3791910869705
 10
7031.793958600989
 20
722.5861046343716
 10
7040.156615840666
 20
679.6967033156128
 10
7008.181326440815
 20
649.9138953656284
 10
7051.5557742502115
 20
644.613701140902
 10
7070.0
 20
605.0
  0
LWPOLYLINE
  5
1A9
330
17
100
AcDbEntity
  8
0
100
AcDbPolyline
 90
27
 70
0
 10
7273.0
 20
670.0
 10
7266.605207236451
 20
681.4871518858027
 10
7266.929169359621
 20
694.6303281183198
 10
7255.928515912213
 20
701.8298875955581
 10
7250.107431576751
 20
713.6181448923638
 10
7237.0210345780415
 20
714.8807796488999
 10
7226.388444053532
 20
722.6135703271968
 10
7214.214239347744
 20
717.6500259567066
 10
7201.205940986745
 20
719.555860862327
 10
7192.732892156904
 20
709.5032255628955
 10
7180.328930346932
 20
705.1455008867622
 10
7177.498110768646
 20
692.3067122581009
 10
7168.540083676419
 20
682.6837302072406
 10
7172.0
 20
670.0
 10
7168.540083676419
 20
657.3162697927595
 10
7177.498110768646
 20
647.6932877418991
 10
7180.328930346932
 20
634.8544991132378
 10
7192.732892156904
 20
630.4967744371045
 10
7201.205940986745
 20
620.444139137673
 10
7214.214239347744
 20
622.3499740432934
 10
7226.388444053532
 20
617.3864296728032
 10
7237.0210345780415
 20
625.1192203511001
 10
7250.107431576751
 20
626.3818551076362
 10
7255.928515912213
 20
638.1701124044419
 10
7266.929169359621
 20
645.3696718816802
 10
7266.605207236451
 20
658.5128481141973
 10
7273.0
 20
670.0
  0
LWPOLYLINE
  5
1AA
330
17
100
AcDbEntity
  8
0
100
AcDbPolyline
 90
11
 70
0
 10
7370.0
 20
630.0
 10
7383.334925885266
 20
651.6460491006975
 10
7408.042260651806
 20
657.639320225002
 10
7391.57636331982
 20
677.0105854156868
 10
7393.511410091699
 20
702.360679774998
 10
7370.0
 20
692.6867309672313
 10
7346.488589908301
 20
702.360679774998
 10
7348.42363668018
 20
677.0105854156868
 10
7331.957739348194
 20
657.6393202250022
 10
7356.665074114734
 20
651.6460491006975
 10
7370.0
 20
630.0
  0
LWPOLYLINE
  5
1AB
330
17
100
AcDbEntity
  8
0
100
AcDbPolyline
 90
17
 70
0
 10
5305.0
 20
1270.0
 10
5297.716385975338
 20
1281.4805029709528
 10
5294.748737341529
 20
1294.7487373415292
 10
5281.480502970952
 20
1297.7163859753387
 10
5270.0
 20
1305.0
 10
5258.519497029048
 20
1297.7163859753387
 10
5245.251262658471
 20
1294.7487373415292
 10
5242.283614024662
 20
1281.4805029709528
 10
5235.0
 20
1270.0
 10
5242.283614024662
 20
1258.5194970290472
 10
5245.251262658471
 20
1245.2512626584708
 10
5258.519497029048
 20
1242.2836140246613
 10
5270.0
 20
1235.0
 10
5281.480502970952
 20
1242.2836140246613
 10
5294.748737341529
 20
1245.2512626584708
 10
5297.716385975338
 20
1258.5194970290472
 10
5305.0
 20
1270.0
  0
LWPOLYLINE
  5
1AC
330
17
100
AcDbEntity
  8
0
100
AcDbPolyline
 90
11
 70
0
 10
5420.0
 20
1221.0
 10
5433.186296106139
 20
1251.850620441531
 10
5466.601769298462
 20
1254.8581672756275
 10
5441.335875285453
 20
1276.9324461166127
 10
5448.801477362331
 20
1309.6418327243725
 10
5420.0
 20
1292.4338668837129
 10
5391.198522637669
 20
1309.6418327243725
 10
5398.664124714547
 20
1276.9324461166127
 10
5373.398230701538
 20
1254.8581672756277
 10
5406.813703893861
 20
1251.850620441531
 10
5420.0
 20
1221.0
  0
LWPOLYLINE
  5
1AD
330
17
100
AcDbEntity
  8
0
100
AcDbPolyline
 90
19
 70
0
 10
5624.0
 20
1270.0
 10
5616.044938418509
 20
1286.7589870229579
 10
5611.3663999284245
 20
1304.710530923073
 10
5594.5
 20
1312.4352447854376
 10
5579.3770015940145
 20
1323.1796186626593
 10
5561.491239294321
 20
1318.2555798975982
 10
5543.0
 20
1316.7653718043598
 10
5532.46382228717
 20
1301.4965928746403
 10
5519.256598477561
 20
1288.469087739586
 10
5521.0
 20
1270.0
 10
5519.256598477561
 20
1251.530912260414
 10
5532.46382228717
 20
1238.5034071253597
 10
5543.0
 20
1223.2346281956404
 10
5561.491239294321
 20
1221.7444201024018
 10
5579.3770015940145
 20
1216.8203813373407
 10
5594.5
 20
1227.5647552145624
 10
5611.3663999284245
 20
1235.289469076927
 10
5616.044938418509
 20
1253.2410129770421
 10
5624.0
 20
1270.0
  0
LWPOLYLINE
  5
1AE
330
17
100
AcDbEntity
  8
0
100
AcDbPolyline
 90
11
 70
0
 10
5720.0
 20
1223.0
 10
5733.95586965431
 20
1250.7913933233556
 10
5764.699656265872
 20
1255.4762012643776
 10
5742.581071443236
 20
1277.33703487395
 10
5747.6259068577465
 20
1308.0237987356224
 10
5720.0
 20
1293.743143605389
 10
5692.3740931422535
 20
1308.0237987356224
 10
5697.418928556764
 20
1277.33703487395
 10
5675.300343734128
 20
1255.4762012643776
 10
5706.04413034569
 20
1250.7913933233556
 10
5720.0
 20
1223.0
  0
LWPOLYLINE
  5
1AF
330
17
100
AcDbEntity
  8
0
100
AcDbPolyline
 90
31
 70
0
 10
5918.0
 20
1270.0
 10
5912.060346831554
 20
1278.9402027051638
 10
5913.8501819668445
 20
1289.5233588676383
 10
5904.787730758123
 20
1295.2747658485764
 10
5902.118269105225
 20
1305.670951622915
 10
5891.5
 20
1307.2390923627308
 10
5884.8328157299975
 20
1315.6507127821674
 10
5874.494723920509
 20
1312.7644415008358
 10
5864.982633763153
 20
1317.7370509776772
 10
5856.712269241877
 20
1310.8954302006916
 10
5846.0
 20
1311.569219381653
 10
5841.227383926569
 20
1301.9552274955279
 10
5831.1671842700025
 20
1298.2136921100387
 10
5830.717545321369
 20
1287.4896756522594
 10
5823.048915164777
 20
1279.9797611592523
 10
5827.0
 20
1270.0
 10
5823.048915164777
 20
1260.0202388407477
 10
5830.717545321369
 20
1252.5103243477406
 10
5831.1671842700025
 20
1241.7863078899613
 10
5841.227383926569
 20
1238.0447725044721
 10
5846.0
 20
1228.430780618347
 10
5856.712269241877
 20
1229.1045697993084
 10
5864.982633763153
 20
1222.2629490223228
 10
5874.494723920509
 20
1227.2355584991642
 10
5884.8328157299975
 20
1224.3492872178326
 10
5891.5
 20
1232.7609076372692
 10
5902.118269105225
 20
1234.3290483770852
 10
5904.787730758123
 20
1244.7252341514236
 10
5913.8501819668445
 20
1250.4766411323617
 10
5912.060346831554
 20
1261.0597972948365
 10
5918.0
 20
1270.0
  0
LWPOLYLINE
  5
1B0
330
17
100
AcDbEntity
  8
0
100
AcDbPolyline
 90
11
 70
0
 10
6020.0
 20
1228.0
 10
6032.71114108878
 20
1252.5046152168452
 10
6059.944373684397
 20
1257.0212862362523
 10
6040.5670583174415
 20
1276.6826423409075
 10
6044.686980596284
 20
1303.9787137637477
 10
6020.0
 20
1291.6254848844947
 10
5995.313019403716
 20
1303.9787137637477
 10
5999.4329416825585
 20
1276.6826423409075
 10
5980.055626315603
 20
1257.0212862362523
 10
6007.28885891122
 20
1252.5046152168452
 10
6020.0
 20
1228.0
  0
LWPOLYLINE
  5
1B1
330
17
100
AcDbEntity
  8
0
100
AcDbPolyline
 90
31
 70
0
 10
6226.0
 20
1270.0
 10
6219.885527637424
 20
1280.6034962317058
 10
6221.158545627985
 20
1292.7772520122448
 10
6211.259866713122
 20
1299.977047866916
 10
6207.471313956096
 20
1311.616110226734
 10
6195.5
 20
1314.1672955930064
 10
6187.304951684997
 20
1323.2591649125286
 10
6175.33095162665
 20
1320.720616663782
 10
6164.1464060570115
 20
1325.6932261406232
 10
6154.240133286878
 20
1318.5038823310529
 10
6142.0
 20
1318.4974226119286
 10
6135.874339075698
 20
1307.900386099347
 10
6124.695048315003
 20
1302.9159741283786
 10
6123.409181660228
 20
1290.7435687968657
 10
6115.223734358907
 20
1281.6430546857946
 10
6119.0
 20
1270.0
 10
6115.223734358907
 20
1258.3569453142054
 10
6123.409181660228
 20
1249.2564312031343
 10
6124.695048315003
 20
1237.0840258716214
 10
6135.874339075698
 20
1232.099613900653
 10
6142.0
 20
1221.5025773880714
 10
6154.240133286878
 20
1221.4961176689471
 10
6164.1464060570115
 20
1214.3067738593768
 10
6175.33095162665
 20
1219.279383336218
 10
6187.304951684997
 20
1216.7408350874714
 10
6195.5
 20
1225.8327044069936
 10
6207.471313956096
 20
1228.383889773266
 10
6211.259866713122
 20
1240.022952133084
 10
6221.158545627985
 20
1247.2227479877552
 10
6219.885527637424
 20
1259.3965037682942
 10
6226.0
 20
1270.0
  0
LWPOLYLINE
  5
1B2
330
17
100
AcDbEntity
  8
0
100
AcDbPolyline
 90
11
 70
0
 10
6320.0
 20
1211.0
 10
6334.723670421116
 20
1249.734606229399
 10
6376.112334461414
 20
1251.7679973318782
 10
6343.823399180518
 20
1277.7406916249693
 10
6354.679329885256
 20
1317.7320026681218
 10
6320.0
 20
1295.0494042912635
 10
6285.320670114744
 20
1317.7320026681218
 10
6296.176600819482
 20
1277.7406916249693
 10
6263.887665538586
 20
1251.7679973318782
 10
6305.276329578884
 20
1249.734606229399
 10
6320.0
 20
1211.0
  0
LWPOLYLINE
  5
1B3
330
17
100
AcDbEntity
  8
0
100
AcDbPolyline
 90
27
 70
0
 10
6516.0
 20
1270.0
 10
6509.808614514468
 20
1279.81194223579
 10
6510.730977180047
 20
1291.3772659140134
 10
6500.688940675015
 20
1297.1880289878727
 10
6496.130978349634
 20
1307.8572578311082
 10
6484.538800368744
 20
1308.335665950102
 10
6475.544687291745
 20
1315.6646082085106
 10
6465.057996109532
 20
1310.7010638380202
 10
6453.688175196044
 20
1313.010747163529
 10
6446.7093453840225
 20
1303.74233850164
 10
6435.5685055841295
 20
1300.5036422790765
 10
6433.6963029482185
 20
1289.0536500537946
 10
6425.336676398401
 20
1281.0085205572277
 10
6429.0
 20
1270.0
 10
6425.336676398401
 20
1258.9914794427723
 10
6433.6963029482185
 20
1250.9463499462056
 10
6435.5685055841295
 20
1239.4963577209235
 10
6446.7093453840225
 20
1236.25766149836
 10
6453.688175196044
 20
1226.989252836471
 10
6465.057996109532
 20
1229.2989361619798
 10
6475.544687291745
 20
1224.3353917914894
 10
6484.538800368744
 20
1231.664334049898
 10
6496.130978349634
 20
1232.1427421688918
 10
6500.688940675015
 20
1242.8119710121273
 10
6510.730977180047
 20
1248.6227340859866
 10
6509.808614514468
 20
1260.18805776421
 10
6516.0
 20
1270.0
  0
LWPOLYLINE
  5
1B4
330
17
100
AcDbEntity
  8
0
100
AcDbPolyline
 90
11
 70
0
 10
6620.0
 20
1214.0
 10
6634.545130079139
 20
1249.9803459281711
 10
6673.259164912529
 20
1252.6950483150029
 10
6643.534514838836
 20
1277.6468274124234
 10
6652.915974128378
 20
1315.3049516849971
 10
6620.0
 20
1294.745653318811
 10
6587.084025871622
 20
1315.3049516849971
 10
6596.465485161164
 20
1277.6468274124234
 10
6566.740835087471
 20
1252.6950483150029
 10
6605.454869920861
 20
1249.9803459281711
 10
6620.0
 20
1214.0
  0
LWPOLYLINE
  5
1B5
330
17
100
AcDbEntity
  8
0
100
AcDbPolyline
 90
19
 70
0
 10
6820.0
 20
1270.0
 10
6812.2861679353655
 20
1285.3909064496552
 10
6808.302222155949
 20
1302.139380484327
 10
6792.5
 20
1308.9711431702997
 10
6778.682408883346
 20
1319.2403876506105
 10
6762.185832004988
 20
1314.3163488855494
 10
6745.0
 20
1313.301270189222
 10
6735.528000059646
 20
1298.9254424358942
 10
6723.015368960705
 20
1287.1010071662834
 10
6725.0
 20
1270.0
 10
6723.015368960705
 20
1252.8989928337166
 10
6735.528000059646
 20
1241.0745575641058
 10
6745.0
 20
1226.698729810778
 10
6762.185832004988
 20
1225.6836511144506
 10
6778.682408883346
 20
1220.7596123493895
 10
6792.5
 20
1231.0288568297003
 10
6808.302222155949
 20
1237.860619515673
 10
6812.2861679353655
 20
1254.6090935503448
 10
6820.0
 20
1270.0
  0
LWPOLYLINE
  5
1B6
330
17
100
AcDbEntity
  8
0
100
AcDbPolyline
 90
11
 70
0
 10
6920.0
 20
1214.0
 10
6933.710422131195
 20
1251.129222856596
 10
6973.259164912529
 20
1252.6950483150029
 10
6942.183929008382
 20
1277.2079954746557
 10
6952.915974128378
 20
1315.3049516849971
 10
6920.0
 20
1293.3255633374965
 10
6887.084025871622
 20
1315.3049516849971
 10
6897.816070991618
 20
1277.2079954746557
 10
6866.740835087471
 20
1252.6950483150029
 10
6906.289577868805
 20
1251.129222856596
 10
6920.0
 20
1214.0
  0
LWPOLYLINE
  5
1B7
330
17
100
AcDbEntity
  8
0
100
AcDbPolyline
 90
33
 70
0
 10
7118.0
 20
1270.0
 10
7112.173767057339
 20
1278.3888838466935
 10
7114.346217560542
 20
1288.3688047535243
 10
7105.753193329009
 20
1293.8895200198428
 10
7103.941125496955
 20
1303.9411254969543
 10
7093.889520019843
 20
1305.7531933290095
 10
7088.368804753524
 20
1314.3462175605418
 10
7078.388883846694
 20
1312.1737670573389
 10
7070.0
 20
1318.0
 10
7061.611116153306
 20
1312.1737670573389
 10
7051.631195246476
 20
1314.3462175605418
 10
7046.110479980157
 20
1305.7531933290095
 10
7036.058874503045
 20
1303.9411254969543
 10
7034.246806670991
 20
1293.8895200198428
 10
7025.653782439458
 20
1288.3688047535243
 10
7027.826232942661
 20
1278.3888838466935
 10
7022.0
 20
1270.0
 10
7027.826232942661
 20
1261.6111161533065
 10
7025.653782439458
 20
1251.6311952464757
 10
7034.246806670991
 20
1246.1104799801572
 10
7036.058874503045
 20
1236.0588745030457
 10
7046.110479980157
 20
1234.2468066709905
 10
7051.631195246476
 20
1225.6537824394582
 10
7061.611116153306
 20
1227.8262329426611
 10
7070.0
 20
1222.0
 10
7078.388883846694
 20
1227.8262329426611
 10
7088.368804753524
 20
1225.6537824394582
 10
7093.889520019843
 20
1234.2468066709905
 10
7103.941125496955
 20
1236.0588745030457
 10
7105.753193329009
 20
1246.1104799801572
 10
7114.346217560542
 20
1251.6311952464757
 10
7112.173767057339
 20
1261.6111161533065
 10
7118.0
 20
1270.0
  0
LWPOLYLINE
  5
1B8
330
17
100
AcDbEntity
  8
0
100
AcDbPolyline
 90
11
 70
0
 10
7220.0
 20
1239.0
 10
7229.164769415631
 20
1257.385777071039
 10
7249.482752005149
 20
1260.4204731743766
 10
7234.828908413546
 20
1274.818204417195
 10
7238.221342821067
 20
1295.0795268256234
 10
7220.0
 20
1285.5920370235324
 10
7201.778657178933
 20
1295.0795268256234
 10
7205.171091586454
 20
1274.818204417195
 10
7190.517247994851
 20
1260.4204731743766
 10
7210.835230584369
 20
1257.385777071039
 10
7220.0
 20
1239.0
  0
LWPOLYLINE
  5
1B9
330
17
100
AcDbEntity
  8
0
100
AcDbPolyline
 90
25
 70
0
 10
7421.0
 20
1270.0
 10
7414.432588009297
 20
1281.905676074716
 10
7414.167295593006
 20
1295.5
 10
7402.526911934581
 20
1302.5269119345812
 10
7395.5
 20
1314.1672955930064
 10
7381.905676074716
 20
1314.4325880092972
 10
7370.0
 20
1321.0
 10
7358.094323925284
 20
1314.4325880092972
 10
7344.5
 20
1314.1672955930064
 10
7337.473088065419
 20
1302.5269119345812
 10
7325.832704406994
 20
1295.5
 10
7325.567411990703
 20
1281.905676074716
 10
7319.0
 20
1270.0
 10
7325.567411990703
 20
1258.094323925284
 10
7325.832704406994
 20
1244.5
 10
7337.473088065419
 20
1237.4730880654188
 10
7344.5
 20
1225.8327044069936
 10
7358.094323925284
 20
1225.5674119907028
 10
7370.0
 20
1219.0
 10
7381.905676074716
 20
1225.5674119907028
 10
7395.5
 20
1225.8327044069936
 10
7402.526911934581
 20
1237.4730880654188
 10
7414.167295593006
 20
1244.5
 10
7414.432588009297
 20
1258.094323925284
 10
7421.0
 20
1270.0
  0
LWPOLYLINE
  5
1BA
330
17
100
AcDbEntity
  8
0
100
AcDbPolyline
 90
11
 70
0
 10
5270.0
 20
1834.0
 10
5280.365542420119
 20
1855.733054817071
 10
5304.238034586626
 20
1858.8753882025019
 10
5286.771799947582
 20
1875.4494881442472
 10
5291.160269082529
 20
1899.1246117974981
 10
5270.0
 20
1887.6349140773634
 10
5248.839730917471
 20
1899.1246117974981
 10
5253.228200052418
 20
1875.4494881442472
 10
5235.761965413374
 20
1858.8753882025019
 10
5259.634457579881
 20
1855.733054817071
 10
5270.0
 20
1834.0
  0
LWPOLYLINE
  5
1BB
330
17
100
AcDbEntity
  8
0
100
AcDbPolyline
 90
25
 70
0
 10
5452.0
 20
1870.0
 10
5446.079997309805
 20
1876.988114217768
 10
5447.712812921102
 20
1886.0
 10
5439.091883092036
 20
1889.0918830920368
 10
5436.0
 20
1897.712812921102
 10
5426.988114217768
 20
1896.0799973098049
 10
5420.0
 20
1902.0
 10
5413.011885782232
 20
1896.0799973098049
 10
5404.0
 20
1897.712812921102
 10
5400.908116907964
 20
1889.0918830920368
 10
5392.287187078898
 20
1886.0
 10
5393.920002690195
 20
1876.988114217768
 10
5388.0
 20
1870.0
 10
5393.920002690195
 20
1863.011885782232
 10
5392.287187078898
 20
1854.0
 10
5400.908116907964
 20
1850.9081169079632
 10
5404.0
 20
1842.287187078898
 10
5413.011885782232
 20
1843.9200026901951
 10
5420.0
 20
1838.0
 10
5426.988114217768
 20
1843.9200026901951
 10
5436.0
 20
1842.287187078898
 10
5439.091883092036
 20
1850.9081169079632
 10
5447.712812921102
 20
1854.0
 10
5446.079997309805
 20
1863.011885782232
 10
5452.0
 20
1870.0
  0
LWPOLYLINE
  5
1BC
330
17
100
AcDbEntity
  8
0
100
AcDbPolyline
 90
11
 70
0
 10
5570.0
 20
1806.0
 10
5589.365869535243
 20
1843.345167297488
 10
5630.86761704289
 20
1850.2229123600034
 10
5601.33463512972
 20
1880.1812401279174
 10
5607.6182561467185
 20
1921.7770876399966
 10
5570.0
 20
1902.9471851491894
 10
5532.3817438532815
 20
1921.7770876399966
 10
5538.66536487028
 20
1880.1812401279174
 10
5509.13238295711
 20
1850.2229123600034
 10
5550.634130464757
 20
1843.345167297488
 10
5570.0
 20
1806.0
  0
LWPOLYLINE
  5
1BD
330
17
100
AcDbEntity
  8
0
100
AcDbPolyline
 90
33
 70
0
 10
5760.0
 20
1870.0
 10
5754.327484814113
 20
1876.8281612705646
 10
5756.955181300452
 20
1885.3073372946035
 10
5749.101436430589
 20
1889.444958155686
 10
5748.284271247462
 20
1898.284271247462
 10
5739.444958155686
 20
1899.101436430589
 10
5735.307337294604
 20
1906.9551813004514
 10
5726.828161270564
 20
1904.3274848141132
 10
5720.0
 20
1910.0
 10
5713.171838729436
 20
1904.3274848141132
 10
5704.692662705396
 20
1906.9551813004514
 10
5700.555041844314
 20
1899.101436430589
 10
5691.715728752538
 20
1898.284271247462
 10
5690.898563569411
 20
1889.444958155686
 10
5683.044818699548
 20
1885.3073372946035
 10
5685.672515185887
 20
1876.8281612705646
 10
5680.0
 20
1870.0
 10
5685.672515185887
 20
1863.1718387294354
 10
5683.044818699548
 20
1854.6926627053965
 10
5690.898563569411
 20
1850.555041844314
 10
5691.715728752538
 20
1841.715728752538
 10
5700.555041844314
 20
1840.898563569411
 10
5704.692662705396
 20
1833.0448186995486
 10
5713.171838729436
 20
1835.6725151858868
 10
5720.0
 20
1830.0
 10
5726.828161270564
 20
1835.6725151858868
 10
5735.307337294604
 20
1833.0448186995486
 10
5739.444958155686
 20
1840.898563569411
 10
5748.284271247462
 20
1841.715728752538
 10
5749.101436430589
 20
1850.555041844314
 10
5756.955181300452
 20
1854.6926627053963
 10
5754.327484814113
 20
1863.1718387294354
 10
5760.0
 20
1870.0
  0
LWPOLYLINE
  5
1BE
330
17
100
AcDbEntity
  8
0
100
AcDbPolyline
 90
11
 70
0
 10
5870.0
 20
1821.0
 10
5884.758080809647
 20
1849.6872443927487
 10
5916.601769298462
 20
1854.8581672756275
 10
5893.879076358728
 20
1877.7587822368
 10
5898.801477362331
 20
1909.6418327243725
 10
5870.0
 20
1895.107946740903
 10
5841.198522637669
 20
1909.6418327243725
 10
5846.120923641272
 20
1877.7587822368
 10
5823.398230701538
 20
1854.8581672756277
 10
5855.241919190353
 20
1849.6872443927487
 10
5870.0
 20
1821.0
  0
LWPOLYLINE
  5
1BF
330
17
100
AcDbEntity
  8
0
100
AcDbPolyline
 90
19
 70
0
 10
6072.0
 20
1870.0
 10
6064.1655531769375
 20
1886.0749467363064
 10
6059.8343110421865
 20
1903.4249557037
 10
6043.5
 20
1910.7031939778685
 10
6029.02970523868
 20
1921.210003156635
 10
6011.838535649655
 20
1916.2859643915738
 10
5994.0
 20
1915.0333209967907
 10
5983.995911173408
 20
1900.2110176552674
 10
5971.135983719133
 20
1887.7850474529348
 10
5973.0
 20
1870.0
 10
5971.135983719133
 20
1852.2149525470652
 10
5983.995911173408
 20
1839.7889823447326
 10
5994.0
 20
1824.9666790032093
 10
6011.838535649655
 20
1823.7140356084262
 10
6029.02970523868
 20
1818.789996843365
 10
6043.5
 20
1829.2968060221315
 10
6059.8343110421865
 20
1836.5750442963
 10
6064.1655531769375
 20
1853.9250532636936
 10
6072.0
 20
1870.0
  0
LWPOLYLINE
  5
1C0
330
17
100
AcDbEntity
  8
0
100
AcDbPolyline
 90
11
 70
0
 10
6170.0
 20
1816.0
 10
6188.851058608241
 20
1844.053743749875
 10
6221.357051879938
 20
1853.313082303753
 10
6200.50165355205
 20
1879.9105880067334
 10
6201.740403623793
 20
1913.686917696247
 10
6170.0
 20
1902.0713364867836
 10
6138.259596376207
 20
1913.686917696247
 10
6139.49834644795
 20
1879.9105880067334
 10
6118.642948120062
 20
1853.313082303753
 10
6151.148941391759
 20
1844.053743749875
 10
6170.0
 20
1816.0
  0
LWPOLYLINE
  5
1C1
330
17
100
AcDbEntity
  8
0
100
AcDbPolyline
 90
31
 70
0
 10
6368.0
 20
1870.0
 10
6362.060346831554
 20
1878.9402027051638
 10
6363.8501819668445
 20
1889.5233588676383
 10
6354.787730758123
 20
1895.2747658485764
 10
6352.118269105225
 20
1905.670951622915
 10
6341.5
 20
1907.2390923627308
 10
6334.8328157299975
 20
1915.6507127821674
 10
6324.494723920509
 20
1912.7644415008358
 10
6314.982633763153
 20
1917.7370509776772
 10
6306.712269241877
 20
1910.8954302006916
 10
6296.0
 20
1911.569219381653
 10
6291.227383926569
 20
1901.9552274955279
 10
6281.1671842700025
 20
1898.2136921100387
 10
6280.717545321369
 20
1887.4896756522594
 10
6273.048915164777
 20
1879.9797611592523
 10
6277.0
 20
1870.0
 10
6273.048915164777
 20
1860.0202388407477
 10
6280.717545321369
 20
1852.5103243477406
 10
6281.1671842700025
 20
1841.7863078899613
 10
6291.227383926569
 20
1838.0447725044721
 10
6296.0
 20
1828.430780618347
 10
6306.712269241877
 20
1829.1045697993084
 10
6314.982633763153
 20
1822.2629490223228
 10
6324.494723920509
 20
1827.2355584991642
 10
6334.8328157299975
 20
1824.3492872178326
 10
6341.5
 20
1832.7609076372692
 10
6352.118269105225
 20
1834.3290483770852
 10
6354.787730758123
 20
1844.7252341514236
 10
6363.8501819668445
 20
1850.4766411323617
 10
6362.060346831554
 20
1861.0597972948365
 10
6368.0
 20
1870.0
  0
LWPOLYLINE
  5
1C2
330
17
100
AcDbEntity
  8
0
100
AcDbPolyline
 90
11
 70
0
 10
6470.0
 20
1812.0
 10
6486.034180845928
 20
1847.9308433741
 10
6525.161277945119
 20
1852.077014326253
 10
6495.943849590473
 20
1878.4296677280488
 10
6504.091544632964
 20
1916.922985673747
 10
6470.0
 20
1897.2789777957023
 10
6435.908455367036
 20
1916.922985673747
 10
6444.056150409527
 20
1878.4296677280488
 10
6414.838722054881
 20
1852.077014326253
 10
6453.965819154072
 20
1847.9308433741
 10
6470.0
 20
1812.0
  0
LWPOLYLINE
  5
1C3
330
17
100
AcDbEntity
  8
0
100
AcDbPolyline
 90
23
 70
0
 10
6679.0
 20
1870.0
 10
6671.812620575183
 20
1885.213558069437
 10
6669.63395843704
 20
1901.8978082298802
 10
6655.362479633045
 20
1910.81047701513
 10
6644.509485767111
 20
1923.6682877259166
 10
6627.685001266757
 20
1923.4503578615704
 10
6611.603424541876
 20
1928.399465070975
 10
6597.567589297898
 20
1919.120127749144
 10
6581.363216697228
 20
1914.5892248869013
 10
6574.572309227116
 20
1899.1946041426022
 10
6563.389914556745
 20
1886.6222208536444
 10
6566.0
 20
1870.0
 10
6563.389914556745
 20
1853.3777791463556
 10
6574.572309227116
 20
1840.8053958573978
 10
6581.363216697228
 20
1825.4107751130987
 10
6597.567589297898
 20
1820.8798722508561
 10
6611.603424541876
 20
1811.600534929025
 10
6627.685001266757
 20
1816.5496421384296
 10
6644.509485767111
 20
1816.3317122740834
 10
6655.362479633045
 20
1829.18952298487
 10
6669.63395843704
 20
1838.1021917701198
 10
6671.812620575183
 20
1854.786441930563
 10
6679.0
 20
1870.0
  0
LWPOLYLINE
  5
1C4
330
17
100
AcDbEntity
  8
0
100
AcDbPolyline
 90
11
 70
0
 10
6770.0
 20
1816.0
 10
6785.201798400143
 20
1849.0765195233955
 10
6821.357051879938
 20
1853.313082303753
 10
6794.597026501555
 20
1877.9920583791181
 10
6801.740403623793
 20
1913.686917696247
 10
6770.0
 20
1895.862844194973
 10
6738.259596376207
 20
1913.686917696247
 10
6745.402973498445
 20
1877.9920583791181
 10
6718.642948120062
 20
1853.313082303753
 10
6754.798201599857
 20
1849.0765195233955
 10
6770.0
 20
1816.0
  0
LWPOLYLINE
  5
1C5
330
17
100
AcDbEntity
  8
0
100
AcDbPolyline
 90
33
 70
0
 10
6959.0
 20
1870.0
 10
6953.346699533709
 20
1876.6330709485483
 10
6956.03130176794
 20
1884.9246538622385
 10
6948.269966818287
 20
1888.8893879226664
 10
6947.5771644662755
 20
1897.5771644662755
 10
6938.889387922666
 20
1898.2699668182865
 10
6934.924653862238
 20
1906.0313017679402
 10
6926.633070948548
 20
1903.3466995337099
 10
6920.0
 20
1909.0
 10
6913.366929051452
 20
1903.3466995337099
 10
6905.075346137762
 20
1906.0313017679402
 10
6901.110612077334
 20
1898.2699668182865
 10
6892.4228355337245
 20
1897.5771644662755
 10
6891.730033181713
 20
1888.8893879226664
 10
6883.96869823206
 20
1884.9246538622385
 10
6886.653300466291
 20
1876.6330709485483
 10
6881.0
 20
1870.0
 10
6886.653300466291
 20
1863.3669290514517
 10
6883.96869823206
 20
1855.0753461377615
 10
6891.730033181713
 20
1851.1106120773336
 10
6892.4228355337245
 20
1842.4228355337245
 10
6901.110612077334
 20
1841.7300331817135
 10
6905.075346137762
 20
1833.9686982320598
 10
6913.366929051452
 20
1836.6533004662901
 10
6920.0
 20
1831.0
 10
6926.633070948548
 20
1836.6533004662901
 10
6934.924653862238
 20
1833.9686982320598
 10
6938.889387922666
 20
1841.7300331817135
 10
6947.5771644662755
 20
1842.4228355337245
 10
6948.269966818287
 20
1851.1106120773336
 10
6956.03130176794
 20
1855.0753461377615
 10
6953.346699533709
 20
1863.3669290514517
 10
6959.0
 20
1870.0
  0
LWPOLYLINE
  5
1C6
330
17
100
AcDbEntity
  8
0
100
AcDbPolyline
 90
11
 70
0
 10
7070.0
 20
1812.0
 10
7086.027727804291
 20
1847.9397252239405
 10
7125.161277945119
 20
1852.077014326253
 10
7095.933408349775
 20
1878.4262751632928
 10
7104.091544632964
 20
1916.922985673747
 10
7070.0
 20
1897.2679992255335
 10
7035.908455367036
 20
1916.922985673747
 10
7044.066591650225
 20
1878.4262751632928
 10
7014.838722054881
 20
1852.077014326253
 10
7053.972272195709
 20
1847.9397252239405
 10
7070.0
 20
1812.0
  0
LWPOLYLINE
  5
1C7
330
17
100
AcDbEntity
  8
0
100
AcDbPolyline
 90
27
 70
0
 10
7276.0
 20
1870.0
 10
7269.518032688728
 20
1882.2050988786655
 10
7269.58553743658
 20
1896.024497634451
 10
7258.174048156726
 20
1903.8192555702806
 10
7251.811625816945
 20
1916.0870964900448
 10
7238.08484923917
 20
1917.6858283769561
 10
7226.750054094298
 20
1925.591696949491
 10
7213.852629306978
 20
1920.6281525790007
 10
7200.142126325618
 20
1922.3609095903832
 10
7191.028697916711
 20
1911.9721771605764
 10
7178.083398102418
 20
1907.1348688614846
 10
7174.841742691687
 20
1893.7008817742321
 10
7165.627258224141
 20
1883.4016772001032
 10
7169.0
 20
1870.0
 10
7165.627258224141
 20
1856.5983227998968
 10
7174.841742691687
 20
1846.2991182257679
 10
7178.083398102418
 20
1832.8651311385154
 10
7191.028697916711
 20
1828.0278228394236
 10
7200.142126325618
 20
1817.6390904096168
 10
7213.852629306978
 20
1819.3718474209993
 10
7226.750054094298
 20
1814.408303050509
 10
7238.08484923917
 20
1822.3141716230439
 10
7251.811625816945
 20
1823.9129035099552
 10
7258.174048156726
 20
1836.1807444297194
 10
7269.58553743658
 20
1843.975502365549
 10
7269.518032688728
 20
1857.7949011213345
 10
7276.0
 20
1870.0
  0
LWPOLYLINE
  5
1C8
330
17
100
AcDbEntity
  8
0
100
AcDbPolyline
 90
11
 70
0
 10
7370.0
 20
1808.0
 10
7391.011874661171
 20
1841.0796356011583
 10
7428.9655040103
 20
1850.8409463487533
 10
7403.997927369127
 20
1881.046596233325
 10
7406.442685642133
 20
1920.1590536512467
 10
7370.0
 20
1905.747536331033
 10
7333.557314357867
 20
1920.1590536512467
 10
7336.002072630873
 20
1881.046596233325
 10
7311.0344959897
 20
1850.8409463487533
 10
7348.988125338829
 20
1841.0796356011585
 10
7370.0
 20
1808.0
  0
LWPOLYLINE
  5
1C9
330
17
100
AcDbEntity
  8
0
100
AcDbPolyline
 90
29
 70
0
 10
5303.0
 20
2470.0
 10
5297.297981541091
 20
2476.2305861507766
 10
5299.7319726407795
 20
2484.3181633908794
 10
5291.891281509105
 20
2487.4577144520445
 10
5290.575163461338
 20
2495.8004389214448
 10
5282.1487446952915
 20
2495.227128301268
 10
5277.343190820558
 20
2502.172621102
 10
5270.0
 20
2498.0
 10
5262.656809179442
 20
2502.172621102
 10
5257.8512553047085
 20
2495.227128301268
 10
5249.424836538662
 20
2495.8004389214448
 10
5248.108718490896
 20
2487.4577144520445
 10
5240.2680273592205
 20
2484.3181633908794
 10
5242.702018458909
 20
2476.2305861507766
 10
5237.0
 20
2470.0
 10
5242.702018458909
 20
2463.7694138492234
 10
5240.2680273592205
 20
2455.6818366091206
 10
5248.108718490896
 20
2452.5422855479555
 10
5249.424836538662
 20
2444.1995610785552
 10
5257.8512553047085
 20
2444.772871698732
 10
5262.656809179442
 20
2437.827378898
 10
5270.0
 20
2442.0
 10
5277.343190820558
 20
2437.827378898
 10
5282.1487446952915
 20
2444.772871698732
 10
5290.575163461338
 20
2444.1995610785552
 10
5291.891281509105
 20
2452.5422855479555
 10
5299.7319726407795
 20
2455.6818366091206
 10
5297.297981541091
 20
2463.7694138492234
 10
5303.0
 20
2470.0
  0
LWPOLYLINE
  5
1CA
330
17
100
AcDbEntity
  8
0
100
AcDbPolyline
 90
11
 70
0
 10
5420.0
 20
2426.0
 10
5431.225867646891
 20
2454.5489187292173
 10
5461.846486716987
 20
2456.403252247502
 10
5438.163835405877
 20
2475.901787882502
 10
5445.862551100869
 20
2505.596747752498
 10
5420.0
 20
2489.098586776561
 10
5394.137448899131
 20
2505.596747752498
 10
5401.836164594123
 20
2475.901787882502
 10
5378.153513283013
 20
2456.403252247502
 10
5408.774132353109
 20
2454.5489187292173
 10
5420.0
 20
2426.0
  0
LWPOLYLINE
  5
1CB
330
17
100
AcDbEntity
  8
0
100
AcDbPolyline
 90
23
 70
0
 10
5614.0
 20
2470.0
 10
5607.4202259709655
 20
2480.987569716816
 10
5607.015155444572
 20
2493.7881959680462
 10
5595.539568623866
 20
2499.474233399816
 10
5588.278260572083
 20
2510.0238077955987
 10
5575.550278692658
 20
2508.6030362333563
 10
5563.738147115975
 20
2513.552143442761
 10
5553.798814492927
 20
2505.475647818826
 10
5541.186127706407
 20
2503.2529812715875
 10
5537.191112219584
 20
2491.0849918807685
 10
5527.7823091609625
 20
2482.396232501023
 10
5531.0
 20
2470.0
 10
5527.7823091609625
 20
2457.603767498977
 10
5537.191112219584
 20
2448.9150081192315
 10
5541.186127706407
 20
2436.7470187284125
 10
5553.798814492927
 20
2434.524352181174
 10
5563.738147115975
 20
2426.447856557239
 10
5575.550278692658
 20
2431.3969637666437
 10
5588.278260572083
 20
2429.9761922044013
 10
5595.539568623866
 20
2440.525766600184
 10
5607.015155444572
 20
2446.2118040319538
 10
5607.4202259709655
 20
2459.012430283184
 10
5614.0
 20
2470.0
  0
LWPOLYLINE
  5
1CC
330
17
100
AcDbEntity
  8
0
100
AcDbPolyline
 90
11
 70
0
 10
5720.0
 20
2418.0
 10
5733.021637934632
 20
2452.077252971851
 10
5769.454938847348
 20
2453.931116292503
 10
5741.0694527674295
 20
2476.8458801929864
 10
5750.564833119209
 20
2512.068883707497
 10
5720.0
 20
2492.153733670324
 10
5689.435166880791
 20
2512.068883707497
 10
5698.9305472325705
 20
2476.8458801929864
 10
5670.545061152652
 20
2453.931116292503
 10
5706.978362065368
 20
2452.077252971851
 10
5720.0
 20
2418.0
  0
LWPOLYLINE
  5
1CD
330
17
100
AcDbEntity
  8
0
100
AcDbPolyline
 90
33
 70
0
 10
5902.0
 20
2470.0
 10
5896.481202570887
 20
2475.2674386944354
 10
5899.564145040361
 20
2482.2458698356827
 10
5892.449679532168
 20
2485.0003962915293
 10
5892.62741699797
 20
2492.6274169979697
 10
5885.000396291529
 20
2492.449679532169
 10
5882.245869835683
 20
2499.5641450403614
 10
5875.267438694435
 20
2496.481202570887
 10
5870.0
 20
2502.0
 10
5864.732561305565
 20
2496.481202570887
 10
5857.754130164317
 20
2499.5641450403614
 10
5854.999603708471
 20
2492.449679532169
 10
5847.37258300203
 20
2492.6274169979697
 10
5847.550320467832
 20
2485.0003962915293
 10
5840.435854959639
 20
2482.2458698356827
 10
5843.518797429113
 20
2475.2674386944354
 10
5838.0
 20
2470.0
 10
5843.518797429113
 20
2464.7325613055646
 10
5840.435854959639
 20
2457.7541301643173
 10
5847.550320467832
 20
2454.9996037084707
 10
5847.37258300203
 20
2447.3725830020303
 10
5854.999603708471
 20
2447.550320467831
 10
5857.754130164317
 20
2440.4358549596386
 10
5864.732561305565
 20
2443.518797429113
 10
5870.0
 20
2438.0
 10
5875.267438694435
 20
2443.518797429113
 10
5882.245869835683
 20
2440.4358549596386
 10
5885.000396291529
 20
2447.550320467831
 10
5892.62741699797
 20
2447.3725830020303
 10
5892.449679532168
 20
2454.9996037084707
 10
5899.564145040361
 20
2457.7541301643173
 10
5896.481202570887
 20
2464.7325613055646
 10
5902.0
 20
2470.0
  0
LWPOLYLINE
  5
1CE
330
17
100
AcDbEntity
  8
0
100
AcDbPolyline
 90
11
 70
0
 10
6020.0
 20
2405.0
 10
6041.181757231542
 20
2440.8458123026962
 10
6081.818673559185
 20
2449.9138953656284
 10
6054.272803142084
 20
2481.135908785976
 10
6058.206041399011
 20
2522.5861046343716
 10
6020.0
 20
2506.0365578226556
 10
5981.793958600989
 20
2522.5861046343716
 10
5985.727196857916
 20
2481.135908785976
 10
5958.181326440815
 20
2449.9138953656284
 10
5998.818242768458
 20
2440.8458123026962
 10
6020.0
 20
2405.0
  0
LWPOLYLINE
  5
1CF
330
17
100
AcDbEntity
  8
0
100
AcDbPolyline
 90
27
 70
0
 10
6220.0
 20
2470.0
 10
6213.6923817841725
 20
2480.7692048929403
 10
6214.27280128266
 20
2493.2361586021884
 10
6203.6829836677
 20
2499.840519620836
 10
6198.403237336558
 20
2511.149193294683
 10
6185.957219916914
 20
2512.075730920844
 10
6176.026834012766
 20
2519.6354437049026
 10
6164.5758493885105
 20
2514.6718993344125
 10
6152.269755647873
 20
2516.7508121342707
 10
6144.437086397098
 20
2507.0342739652147
 10
6132.574462591445
 20
2503.1561329120395
 10
6130.154478845606
 20
2490.9125427419694
 10
6121.452909128698
 20
2481.965783214378
 10
6125.0
 20
2470.0
 10
6121.452909128698
 20
2458.034216785622
 10
6130.154478845606
 20
2449.0874572580306
 10
6132.574462591445
 20
2436.8438670879605
 10
6144.437086397098
 20
2432.9657260347853
 10
6152.269755647873
 20
2423.2491878657293
 10
6164.5758493885105
 20
2425.3281006655875
 10
6176.026834012766
 20
2420.3645562950974
 10
6185.957219916914
 20
2427.924269079156
 10
6198.403237336558
 20
2428.850806705317
 10
6203.6829836677
 20
2440.159480379164
 10
6214.27280128266
 20
2446.7638413978116
 10
6213.6923817841725
 20
2459.2307951070597
 10
6220.0
 20
2470.0
  0
LWPOLYLINE
  5
1D0
330
17
100
AcDbEntity
  8
0
100
AcDbPolyline
 90
11
 70
0
 10
6320.0
 20
2403.0
 10
6336.358009972484
 20
2447.485130818986
 10
6383.720786591775
 20
2449.2958613768787
 10
6346.467816123789
 20
2478.59991477489
 10
6359.3816119035955
 20
2524.2041386231213
 10
6320.0
 20
2497.8299088122485
 10
6280.6183880964045
 20
2524.2041386231213
 10
6293.532183876211
 20
2478.59991477489
 10
6256.279213408225
 20
2449.2958613768787
 10
6303.641990027516
 20
2447.485130818986
 10
6320.0
 20
2403.0
  0
LWPOLYLINE
  5
1D1
330
17
100
AcDbEntity
  8
0
100
AcDbPolyline
 90
33
 70
0
 10
6518.0
 20
2470.0
 10
6512.173767057339
 20
2478.3888838466937
 10
6514.346217560542
 20
2488.3688047535243
 10
6505.753193329009
 20
2493.889520019843
 10
6503.941125496955
 20
2503.941125496954
 10
6493.889520019843
 20
2505.7531933290093
 10
6488.368804753524
 20
2514.346217560542
 10
6478.388883846694
 20
2512.173767057339
 10
6470.0
 20
2518.0
 10
6461.611116153306
 20
2512.173767057339
 10
6451.631195246476
 20
2514.346217560542
 10
6446.110479980157
 20
2505.7531933290093
 10
6436.058874503045
 20
2503.941125496954
 10
6434.246806670991
 20
2493.889520019843
 10
6425.653782439458
 20
2488.3688047535243
 10
6427.826232942661
 20
2478.3888838466937
 10
6422.0
 20
2470.0
 10
6427.826232942661
 20
2461.6111161533063
 10
6425.653782439458
 20
2451.6311952464757
 10
6434.246806670991
 20
2446.110479980157
 10
6436.058874503045
 20
2436.058874503046
 10
6446.110479980157
 20
2434.2468066709907
 10
6451.631195246476
 20
2425.653782439458
 10
6461.611116153306
 20
2427.826232942661
 10
6470.0
 20
2422.0
 10
6478.388883846694
 20
2427.826232942661
 10
6488.368804753524
 20
2425.653782439458
 10
6493.889520019843
 20
2434.2468066709907
 10
6503.941125496955
 20
2436.058874503046
 10
6505.753193329009
 20
2446.110479980157
 10
6514.346217560542
 20
2451.6311952464757
 10
6512.173767057339
 20
2461.6111161533063
 10
6518.0
 20
2470.0
  0
LWPOLYLINE
  5
1D2
330
17
100
AcDbEntity
  8
0
100
AcDbPolyline
 90
11
 70
0
 10
6620.0
 20
2433.0
 10
6629.8385829332
 20
2456.458352327687
 10
6655.18909110292
 20
2458.566371208127
 10
6635.919161587052
 20
2475.1724491471477
 10
6641.748054334821
 20
2499.933628791873
 10
6620.0
 20
2486.7383970503306
 10
6598.251945665179
 20
2499.933628791873
 10
6604.080838412948
 20
2475.1724491471477
 10
6584.81090889708
 20
2458.566371208127
 10
6610.1614170668
 20
2456.458352327687
 10
6620.0
 20
2433.0
  0
LWPOLYLINE
  5
1D3
330
17
100
AcDbEntity
  8
0
100
AcDbPolyline
 90
23
 70
0
 10
6804.0
 20
2470.0
 10
6797.825296234821
 20
2478.1702441484013
 10
6798.60262011626
 20
2488.3817877934903
 10
6788.990961284413
 20
2491.9167376562737
 10
6784.124110442064
 20
2500.927487842054
 10
6774.127130309926
 20
2498.704821814547
 10
6765.161295498709
 20
2503.6539290239516
 10
6757.952964622946
 20
2496.379327865281
 10
6747.73473504586
 20
2495.6954855280446
 10
6745.603647547896
 20
2485.6785837062125
 10
6737.377238897107
 20
2479.578906932609
 10
6741.0
 20
2470.0
 10
6737.377238897107
 20
2460.421093067391
 10
6745.603647547896
 20
2454.3214162937875
 10
6747.73473504586
 20
2444.3045144719554
 10
6757.952964622945
 20
2443.620672134719
 10
6765.161295498709
 20
2436.3460709760484
 10
6774.127130309926
 20
2441.295178185453
 10
6784.124110442064
 20
2439.072512157946
 10
6788.990961284413
 20
2448.0832623437263
 10
6798.60262011626
 20
2451.6182122065097
 10
6797.825296234821
 20
2461.8297558515987
 10
6804.0
 20
2470.0
  0
LWPOLYLINE
  5
1D4
330
17
100
AcDbEntity
  8
0
100
AcDbPolyline
 90
11
 70
0
 10
6920.0
 20
2412.0
 10
6934.97963804238
 20
2449.382297023266
 10
6975.161277945119
 20
2452.077014326253
 10
6944.237563491742
 20
2477.8752617671626
 10
6954.091544632964
 20
2516.922985673747
 10
6920.0
 20
2495.4848824191436
 10
6885.908455367036
 20
2516.922985673747
 10
6895.762436508258
 20
2477.8752617671626
 10
6864.838722054881
 20
2452.077014326253
 10
6905.02036195762
 20
2449.382297023266
 10
6920.0
 20
2412.0
  0
LWPOLYLINE
  5
1D5
330
17
100
AcDbEntity
  8
0
100
AcDbPolyline
 90
25
 70
0
 10
7115.0
 20
2470.0
 10
7108.637033051563
 20
2480.3527618041007
 10
7108.9711431703
 20
2492.5
 10
7098.284271247462
 20
2498.2842712474617
 10
7092.5
 20
2508.9711431703
 10
7080.352761804101
 20
2508.637033051563
 10
7070.0
 20
2515.0
 10
7059.647238195899
 20
2508.637033051563
 10
7047.5
 20
2508.9711431703
 10
7041.715728752538
 20
2498.284271247462
 10
7031.0288568297
 20
2492.5
 10
7031.362966948437
 20
2480.3527618041007
 10
7025.0
 20
2470.0
 10
7031.362966948437
 20
2459.6472381958993
 10
7031.0288568297
 20
2447.5
 10
7041.715728752538
 20
2441.7157287525383
 10
7047.5
 20
2431.0288568297
 10
7059.647238195899
 20
2431.362966948437
 10
7070.0
 20
2425.0
 10
7080.352761804101
 20
2431.362966948437
 10
7092.5
 20
2431.0288568297
 10
7098.284271247462
 20
2441.715728752538
 10
7108.9711431703
 20
2447.5
 10
7108.637033051563
 20
2459.6472381958993
 10
7115.0
 20
2470.0
  0
LWPOLYLINE
  5
1D6
330
17
100
AcDbEntity
  8
0
100
AcDbPolyline
 90
11
 70
0
 10
7220.0
 20
2418.0
 10
7236.052744647503
 20
2447.9052924932366
 10
7269.454938847348
 20
2453.931116292503
 10
7245.973886452382
 20
2478.4394272960963
 10
7250.564833119209
 20
2512.068883707497
 10
7220.0
 20
2497.3105604213342
 10
7189.435166880791
 20
2512.068883707497
 10
7194.026113547618
 20
2478.4394272960963
 10
7170.545061152652
 20
2453.931116292503
 10
7203.947255352497
 20
2447.9052924932366
 10
7220.0
 20
2418.0
  0
LWPOLYLINE
  5
1D7
330
17
100
AcDbEntity
  8
0
100
AcDbPolyline
 90
31
 70
0
 10
7422.0
 20
2470.0
 10
7415.972937234489
 20
2479.7718494684345
 10
7417.504363797415
 20
2491.150305439942
 10
7408.023798735622
 20
2497.625906857746
 10
7404.79479153066
 20
2508.6435309248245
 10
7393.5
 20
2510.7031939778685
 10
7386.068883707498
 20
2519.454938847348
 10
7374.91283777358
 20
2516.742529082309
 10
7364.564519910082
 20
2521.71513855915
 10
7355.476201264378
 20
2514.6996562658724
 10
7344.0
 20
2515.0333209967907
 10
7338.550861501134
 20
2504.9278067974374
 10
7327.931116292502
 20
2500.5648331192087
 10
7327.063363490798
 20
2489.1166222245624
 10
7319.136324761842
 20
2480.8114079225234
 10
7323.0
 20
2470.0
 10
7319.136324761842
 20
2459.1885920774766
 10
7327.063363490798
 20
2450.8833777754376
 10
7327.931116292502
 20
2439.4351668807913
 10
7338.550861501134
 20
2435.0721932025626
 10
7344.0
 20
2424.9666790032093
 10
7355.476201264378
 20
2425.3003437341276
 10
7364.564519910082
 20
2418.28486144085
 10
7374.91283777358
 20
2423.257470917691
 10
7386.068883707498
 20
2420.545061152652
 10
7393.5
 20
2429.2968060221315
 10
7404.79479153066
 20
2431.3564690751755
 10
7408.023798735622
 20
2442.374093142254
 10
7417.504363797415
 20
2448.849694560058
 10
7415.972937234489
 20
2460.2281505315655
 10
7422.0
 20
2470.0
  0
LWPOLYLINE
  5
1D8
330
17
100
AcDbEntity
  8
0
100
AcDbPolyline
 90
11
 70
0
 10
5270.0
 20
3013.0
 10
5283.671786533278
 20
3051.182400195055
 10
5324.210221428823
 20
3052.386031320628
 10
5292.121415297776
 20
3077.1876835387957
 10
5303.503759380671
 20
3116.113968679372
 10
5270.0
 20
3093.259832532299
 10
5236.496240619329
 20
3116.113968679372
 10
5247.878584702224
 20
3077.1876835387957
 10
5215.789778571177
 20
3052.386031320628
 10
5256.328213466722
 20
3051.182400195055
 10
5270.0
 20
3013.0
  0
LWPOLYLINE
  5
1D9
330
17
100
AcDbEntity
  8
0
100
AcDbPolyline
 90
31
 70
0
 10
5467.0
 20
3070.0
 10
5461.08219923082
 20
3078.7322910143457
 10
5462.936636509202
 20
3089.1166222245624
 10
5453.978713763748
 20
3094.686980596284
 10
5451.449138498866
 20
3104.9278067974374
 10
5441.0
 20
3106.3730669589463
 10
5434.523798735622
 20
3114.6996562658724
 10
5424.390195457241
 20
3111.7699196054673
 10
5415.08716222642
 20
3116.742529082309
 10
5407.021286236252
 20
3109.9443736843964
 10
5396.5
 20
3110.7031939778685
 10
5391.8965145329275
 20
3101.2120826700507
 10
5381.976201264378
 20
3097.625906857746
 10
5381.631090779011
 20
3087.0829390091835
 10
5374.027062765511
 20
3079.7718494684345
 10
5378.0
 20
3070.0
 10
5374.027062765511
 20
3060.2281505315655
 10
5381.631090779011
 20
3052.9170609908165
 10
5381.976201264378
 20
3042.374093142254
 10
5391.8965145329275
 20
3038.7879173299493
 10
5396.5
 20
3029.2968060221315
 10
5407.021286236252
 20
3030.0556263156036
 10
5415.08716222642
 20
3023.257470917691
 10
5424.390195457241
 20
3028.2300803945327
 10
5434.523798735622
 20
3025.3003437341276
 10
5441.0
 20
3033.6269330410537
 10
5451.449138498866
 20
3035.0721932025626
 10
5453.978713763748
 20
3045.313019403716
 10
5462.936636509202
 20
3050.8833777754376
 10
5461.08219923082
 20
3061.2677089856543
 10
5467.0
 20
3070.0
  0
LWPOLYLINE
  5
1DA
330
17
100
AcDbEntity
  8
0
100
AcDbPolyline
 90
11
 70
0
 10
5570.0
 20
3019.0
 10
5586.189596771415
 20
3047.7169317041053
 10
5618.503882331052
 20
3054.2401332868776
 10
5596.1953178403055
 20
3078.5113747153964
 10
5599.977047866916
 20
3111.2598667131224
 10
5570.0
 20
3097.543387160996
 10
5540.022952133084
 20
3111.2598667131224
 10
5543.8046821596945
 20
3078.5113747153964
 10
5521.496117668948
 20
3054.2401332868776
 10
5553.810403228585
 20
3047.7169317041053
 10
5570.0
 20
3019.0
  0
LWPOLYLINE
  5
1DB
330
17
100
AcDbEntity
  8
0
100
AcDbPolyline
 90
27
 70
0
 10
5768.0
 20
3070.0
 10
5761.75049814932
 20
3080.290573564365
 10
5762.501889231354
 20
3092.306712258101
 10
5752.1859621713575
 20
3098.5142743043543
 10
5747.267107843096
 20
3109.5032255628953
 10
5735.248010142829
 20
3110.2056984354726
 10
5725.785760652256
 20
3117.6500259567065
 10
5714.816922749021
 20
3112.6864815862164
 10
5702.9789654219585
 20
3114.8807796489
 10
5695.57321589056
 20
3105.388306233427
 10
5684.071484087787
 20
3101.8298875955584
 10
5681.925390896912
 20
3089.983096397882
 10
5673.394792763549
 20
3081.4871518858026
 10
5677.0
 20
3070.0
 10
5673.394792763549
 20
3058.5128481141974
 10
5681.925390896912
 20
3050.016903602118
 10
5684.071484087787
 20
3038.1701124044416
 10
5695.57321589056
 20
3034.611693766573
 10
5702.9789654219585
 20
3025.1192203511
 10
5714.816922749021
 20
3027.3135184137836
 10
5725.785760652256
 20
3022.3499740432935
 10
5735.248010142829
 20
3029.7943015645274
 10
5747.267107843096
 20
3030.4967744371042
 10
5752.1859621713575
 20
3041.4857256956457
 10
5762.501889231354
 20
3047.693287741899
 10
5761.75049814932
 20
3059.709426435635
 10
5768.0
 20
3070.0
  0
LWPOLYLINE
  5
1DC
330
17
100
AcDbEntity
  8
0
100
AcDbPolyline
 90
11
 70
0
 10
5870.0
 20
3009.0
 10
5888.389022459852
 20
3044.6896819511217
 10
5928.014447494004
 20
3051.149963343128
 10
5899.754063359926
 20
3079.6676812286014
 10
5905.854900389841
 20
3119.350036656872
 10
5870.0
 20
3101.2852736405534
 10
5834.145099610159
 20
3119.350036656872
 10
5840.245936640074
 20
3079.6676812286014
 10
5811.985552505996
 20
3051.149963343128
 10
5851.610977540148
 20
3044.6896819511217
 10
5870.0
 20
3009.0
  0
LWPOLYLINE
  5
1DD
330
17
100
AcDbEntity
  8
0
100
AcDbPolyline
 90
21
 70
0
 10
6073.0
 20
3070.0
 10
6065.650712782167
 20
3084.8328157299975
 10
6062.877900701872
 20
3101.152618371501
 10
6048.213692110039
 20
3108.8328157299975
 10
6036.377900701872
 20
3120.4059953636433
 10
6020.0
 20
3118.0
 10
6003.622099298128
 20
3120.4059953636433
 10
5991.786307889961
 20
3108.8328157299975
 10
5977.122099298128
 20
3101.152618371501
 10
5974.349287217833
 20
3084.8328157299975
 10
5967.0
 20
3070.0
 10
5974.349287217832
 20
3055.1671842700025
 10
5977.122099298128
 20
3038.847381628499
 10
5991.786307889961
 20
3031.1671842700025
 10
6003.622099298128
 20
3019.5940046363567
 10
6020.0
 20
3022.0
 10
6036.377900701872
 20
3019.5940046363567
 10
6048.213692110039
 20
3031.1671842700025
 10
6062.877900701872
 20
3038.847381628499
 10
6065.650712782167
 20
3055.1671842700025
 10
6073.0
 20
3070.0
  0
LWPOLYLINE
  5
1DE
330
17
100
AcDbEntity
  8
0
100
AcDbPolyline
 90
11
 70
0
 10
6170.0
 20
3019.0
 10
6184.551559874987
 20
3049.9714960734136
 10
6218.503882331052
 20
3054.2401332868776
 10
6193.544918467059
 20
3077.6502077561454
 10
6199.977047866916
 20
3111.2598667131224
 10
6170.0
 20
3094.7565923408824
 10
6140.022952133084
 20
3111.2598667131224
 10
6146.455081532941
 20
3077.6502077561454
 10
6121.496117668948
 20
3054.2401332868776
 10
6155.448440125013
 20
3049.9714960734136
 10
6170.0
 20
3019.0
  0
LWPOLYLINE
  5
1DF
330
17
100
AcDbEntity
  8
0
100
AcDbPolyline
 90
27
 70
0
 10
6370.0
 20
3070.0
 10
6363.6923817841725
 20
3080.7692048929403
 10
6364.27280128266
 20
3093.2361586021884
 10
6353.6829836677
 20
3099.840519620836
 10
6348.403237336558
 20
3111.149193294683
 10
6335.957219916914
 20
3112.075730920844
 10
6326.026834012766
 20
3119.6354437049026
 10
6314.5758493885105
 20
3114.6718993344125
 10
6302.269755647873
 20
3116.7508121342707
 10
6294.437086397098
 20
3107.0342739652147
 10
6282.574462591445
 20
3103.1561329120395
 10
6280.154478845606
 20
3090.9125427419694
 10
6271.452909128698
 20
3081.965783214378
 10
6275.0
 20
3070.0
 10
6271.452909128698
 20
3058.034216785622
 10
6280.154478845606
 20
3049.0874572580306
 10
6282.574462591445
 20
3036.8438670879605
 10
6294.437086397098
 20
3032.9657260347853
 10
6302.269755647873
 20
3023.2491878657293
 10
6314.5758493885105
 20
3025.3281006655875
 10
6326.026834012766
 20
3020.3645562950974
 10
6335.957219916914
 20
3027.924269079156
 10
6348.403237336558
 20
3028.850806705317
 10
6353.6829836677
 20
3040.159480379164
 10
6364.27280128266
 20
3046.7638413978116
 10
6363.6923817841725
 20
3059.2307951070597
 10
6370.0
 20
3070.0
  0
LWPOLYLINE
  5
1E0
330
17
100
AcDbEntity
  8
0
100
AcDbPolyline
 90
11
 70
0
 10
6470.0
 20
3039.0
 10
6480.749774275829
 20
3055.204205037603
 10
6499.482752005149
 20
3060.4204731743766
 10
6487.39350014968
 20
3075.651490785061
 10
6488.221342821067
 20
3095.0795268256234
 10
6470.0
 20
3088.288608354672
 10
6451.778657178933
 20
3095.0795268256234
 10
6452.60649985032
 20
3075.6514907850615
 10
6440.517247994851
 20
3060.4204731743766
 10
6459.250225724171
 20
3055.204205037603
 10
6470.0
 20
3039.0
  0
LWPOLYLINE
  5
1E1
330
17
100
AcDbEntity
  8
0
100
AcDbPolyline
 90
17
 70
0
 10
6671.0
 20
3070.0
 10
6662.498458495519
 20
3087.603437888794
 10
6656.062445840514
 20
3106.062445840514
 10
6637.603437888794
 20
3112.498458495519
 10
6620.0
 20
3121.0
 10
6602.396562111206
 20
3112.498458495519
 10
6583.937554159486
 20
3106.062445840514
 10
6577.501541504481
 20
3087.6034378887944
 10
6569.0
 20
3070.0
 10
6577.501541504481
 20
3052.396562111206
 10
6583.937554159486
 20
3033.937554159486
 10
6602.396562111206
 20
3027.501541504481
 10
6620.0
 20
3019.0
 10
6637.603437888794
 20
3027.501541504481
 10
6656.062445840514
 20
3033.937554159486
 10
6662.498458495519
 20
3052.3965621112056
 10
6671.0
 20
3070.0
  0
LWPOLYLINE
  5
1E2
330
17
100
AcDbEntity
  8
0
100
AcDbPolyline
 90
11
 70
0
 10
6770.0
 20
3025.0
 10
6785.1142851578525
 20
3049.1969711678857
 10
6812.797543233282
 20
3056.0942352531274
 10
6794.455427101064
 20
3077.9460499449237
 10
6796.450336353161
 20
3106.4057647468726
 10
6770.0
 20
3095.713957774381
 10
6743.549663646839
 20
3106.4057647468726
 10
6745.544572898936
 20
3077.9460499449237
 10
6727.202456766718
 20
3056.0942352531274
 10
6754.8857148421475
 20
3049.1969711678857
 10
6770.0
 20
3025.0
  0
LWPOLYLINE
  5
1E3
330
17
100
AcDbEntity
  8
0
100
AcDbPolyline
 90
21
 70
0
 10
6950.0
 20
3070.0
 10
6943.7764129073785
 20
3077.7254248593736
 10
6944.270509831248
 20
3087.633557568774
 10
6934.694631307312
 20
3090.2254248593736
 10
6929.270509831248
 20
3098.5316954888544
 10
6920.0
 20
3095.0
 10
6910.729490168752
 20
3098.5316954888544
 10
6905.305368692688
 20
3090.2254248593736
 10
6895.729490168752
 20
3087.633557568774
 10
6896.2235870926215
 20
3077.7254248593736
 10
6890.0
 20
3070.0
 10
6896.2235870926215
 20
3062.2745751406264
 10
6895.729490168752
 20
3052.366442431226
 10
6905.305368692688
 20
3049.7745751406264
 10
6910.729490168752
 20
3041.4683045111456
 10
6920.0
 20
3045.0
 10
6929.270509831248
 20
3041.4683045111456
 10
6934.694631307312
 20
3049.7745751406264
 10
6944.270509831248
 20
3052.366442431226
 10
6943.7764129073785
 20
3062.2745751406264
 10
6950.0
 20
3070.0
  0
LWPOLYLINE
  5
1E4
330
17
100
AcDbEntity
  8
0
100
AcDbPolyline
 90
11
 70
0
 10
7070.0
 20
3002.0
 10
7090.70355989336
 20
3041.503994473388
 10
7134.671843108071
 20
3048.9868443825035
 10
7103.499063595575
 20
3080.884505567561
 10
7109.969397155888
 20
3125.0131556174965
 10
7070.0
 20
3105.2229999181022
 10
7030.030602844112
 20
3125.0131556174965
 10
7036.500936404425
 20
3080.884505567561
 10
7005.328156891929
 20
3048.9868443825035
 10
7049.29644010664
 20
3041.503994473388
 10
7070.0
 20
3002.0
  0
LWPOLYLINE
  5
1E5
330
17
100
AcDbEntity
  8
0
100
AcDbPolyline
 90
33
 70
0
 10
7252.0
 20
3070.0
 10
7246.481202570887
 20
3075.2674386944354
 10
7249.564145040361
 20
3082.2458698356827
 10
7242.449679532168
 20
3085.0003962915293
 10
7242.62741699797
 20
3092.6274169979697
 10
7235.000396291529
 20
3092.449679532169
 10
7232.245869835683
 20
3099.5641450403614
 10
7225.267438694435
 20
3096.481202570887
 10
7220.0
 20
3102.0
 10
7214.732561305565
 20
3096.481202570887
 10
7207.754130164317
 20
3099.5641450403614
 10
7204.999603708471
 20
3092.449679532169
 10
7197.37258300203
 20
3092.6274169979697
 10
7197.550320467832
 20
3085.0003962915293
 10
7190.435854959639
 20
3082.2458698356827
 10
7193.518797429113
 20
3075.2674386944354
 10
7188.0
 20
3070.0
 10
7193.518797429113
 20
3064.7325613055646
 10
7190.435854959639
 20
3057.7541301643173
 10
7197.550320467832
 20
3054.9996037084707
 10
7197.37258300203
 20
3047.3725830020303
 10
7204.999603708471
 20
3047.550320467831
 10
7207.754130164317
 20
3040.4358549596386
 10
7214.732561305565
 20
3043.518797429113
 10
7220.0
 20
3038.0
 10
7225.267438694435
 20
3043.518797429113
 10
7232.245869835683
 20
3040.4358549596386
 10
7235.000396291529
 20
3047.550320467831
 10
7242.62741699797
 20
3047.3725830020303
 10
7242.449679532168
 20
3054.9996037084707
 10
7249.564145040361
 20
3057.7541301643173
 10
7246.481202570887
 20
3064.7325613055646
 10
7252.0
 20
3070.0
  0
LWPOLYLINE
  5
1E6
330
17
100
AcDbEntity
  8
0
100
AcDbPolyline
 90
11
 70
0
 10
7370.0
 20
3007.0
 10
7390.443778575425
 20
3041.8615527826682
 10
7429.916560526594
 20
3050.5319293543785
 10
7403.078728593516
 20
3080.747930446376
 10
7407.030470894426
 20
3120.9680706456215
 10
7370.0
 20
3104.7810335419117
 10
7332.969529105574
 20
3120.9680706456215
 10
7336.921271406484
 20
3080.747930446376
 10
7310.083439473406
 20
3050.5319293543785
 10
7349.556221424575
 20
3041.8615527826682
 10
7370.0
 20
3007.0
  0
LWPOLYLINE
  5
1E7
330
17
100
AcDbEntity
  8
0
100
AcDbPolyline
 90
31
 70
0
 10
5298.0
 20
3670.0
 10
5292.497394816877
 20
3674.7819688888085
 10
5295.579272813993
 20
3681.388626006122
 10
5288.607390870624
 20
3683.519060802727
 10
5288.735656978048
 20
3690.808055113367
 10
5281.5
 20
3689.918584287042
 10
5278.6524758424985
 20
3696.6295824562644
 10
5272.404154655156
 20
3692.87400359347
 10
5267.073203028505
 20
3697.846613070312
 10
5262.892609129376
 20
3691.8742998747884
 10
5256.0
 20
3694.248711305964
 10
5254.609996053746
 20
3687.09233098598
 10
5247.3475241575015
 20
3686.457987064189
 10
5248.98845447422
 20
3679.3549427907433
 10
5242.611867179454
 20
3675.8215273428973
 10
5247.0
 20
3670.0
 10
5242.611867179454
 20
3664.1784726571027
 10
5248.98845447422
 20
3660.6450572092567
 10
5247.3475241575015
 20
3653.542012935811
 10
5254.609996053746
 20
3652.90766901402
 10
5256.0
 20
3645.751288694036
 10
5262.892609129376
 20
3648.1257001252116
 10
5267.073203028505
 20
3642.153386929688
 10
5272.404154655156
 20
3647.12599640653
 10
5278.6524758424985
 20
3643.3704175437356
 10
5281.5
 20
3650.081415712958
 10
5288.735656978048
 20
3649.191944886633
 10
5288.607390870624
 20
3656.480939197273
 10
5295.579272813993
 20
3658.611373993878
 10
5292.497394816877
 20
3665.2180311111915
 10
5298.0
 20
3670.0
  0
LWPOLYLINE
  5
1E8
330
17
100
AcDbEntity
  8
0
100
AcDbPolyline
 90
11
 70
0
 10
5420.0
 20
3616.0
 10
5434.547507407021
 20
3649.9770738170555
 10
5471.357051879938
 20
3653.3130823037527
 10
5443.538361436151
 20
3677.6480772476543
 10
5451.740403623793
 20
3713.6869176962473
 10
5420.0
 20
3694.7496978705794
 10
5388.259596376207
 20
3713.6869176962473
 10
5396.461638563849
 20
3677.6480772476543
 10
5368.642948120062
 20
3653.3130823037527
 10
5405.452492592979
 20
3649.9770738170555
 10
5420.0
 20
3616.0
  0
LWPOLYLINE
  5
1E9
330
17
100
AcDbEntity
  8
0
100
AcDbPolyline
 90
31
 70
0
 10
5623.0
 20
3670.0
 10
5616.951084835223
 20
3679.9797611592526
 10
5618.417909255058
 20
3691.557042083017
 10
5608.8328157299975
 20
3698.2136921100387
 10
5605.46392213702
 20
3709.386675750302
 10
5594.0
 20
3711.569219381653
 10
5586.377900701872
 20
3720.4059953636433
 10
5575.017366236847
 20
3717.737050977677
 10
5564.4599914468145
 20
3722.7096604545186
 10
5555.1671842700025
 20
3715.6507127821674
 10
5543.5
 20
3715.8993464005753
 10
5537.881730894775
 20
3705.670951622915
 10
5527.122099298128
 20
3701.152618371501
 10
5526.1498180331555
 20
3689.5233588676383
 10
5518.158177161108
 20
3681.0193196133414
 10
5522.0
 20
3670.0
 10
5518.158177161108
 20
3658.9806803866586
 10
5526.1498180331555
 20
3650.4766411323617
 10
5527.122099298128
 20
3638.847381628499
 10
5537.881730894775
 20
3634.329048377085
 10
5543.5
 20
3624.1006535994247
 10
5555.1671842700025
 20
3624.3492872178326
 10
5564.4599914468145
 20
3617.2903395454814
 10
5575.017366236847
 20
3622.262949022323
 10
5586.377900701872
 20
3619.5940046363567
 10
5594.0
 20
3628.430780618347
 10
5605.46392213702
 20
3630.613324249698
 10
5608.8328157299975
 20
3641.7863078899613
 10
5618.417909255058
 20
3648.442957916983
 10
5616.951084835223
 20
3660.0202388407474
 10
5623.0
 20
3670.0
  0
LWPOLYLINE
  5
1EA
330
17
100
AcDbEntity
  8
0
100
AcDbPolyline
 90
11
 70
0
 10
5720.0
 20
3618.0
 10
5734.646913405295
 20
3649.8402531982447
 10
5769.454938847348
 20
3653.931116292503
 10
5743.699203720044
 20
3677.7003380736783
 10
5750.564833119209
 20
3712.068883707497
 10
5720.0
 20
3694.918817456153
 10
5689.435166880791
 20
3712.068883707497
 10
5696.300796279956
 20
3677.7003380736783
 10
5670.545061152652
 20
3653.931116292503
 10
5705.353086594705
 20
3649.8402531982447
 10
5720.0
 20
3618.0
  0
LWPOLYLINE
  5
1EB
330
17
100
AcDbEntity
  8
0
100
AcDbPolyline
 90
23
 70
0
 10
5925.0
 20
3670.0
 10
5917.974648680725
 20
3684.0866278420713
 10
5916.268944305715
 20
3699.735244960058
 10
5902.743036697264
 20
3707.787478717713
 10
5892.847825715104
 20
3720.0297597444987
 10
5877.115741913664
 20
3719.4910720940466
 10
5862.172683894969
 20
3724.4401793034513
 10
5849.229249349905
 20
3715.481599767726
 10
5833.9826596330095
 20
3711.5662265894844
 10
5827.937323358441
 20
3697.03204087278
 10
5817.227886451203
 20
3685.495290626279
 10
5820.0
 20
3670.0
 10
5817.227886451203
 20
3654.504709373721
 10
5827.937323358441
 20
3642.96795912722
 10
5833.9826596330095
 20
3628.4337734105156
 10
5849.229249349905
 20
3624.518400232274
 10
5862.172683894969
 20
3615.5598206965487
 10
5877.115741913664
 20
3620.5089279059534
 10
5892.847825715104
 20
3619.9702402555013
 10
5902.743036697264
 20
3632.212521282287
 10
5916.268944305715
 20
3640.264755039942
 10
5917.974648680725
 20
3655.9133721579287
 10
5925.0
 20
3670.0
  0
LWPOLYLINE
  5
1EC
330
17
100
AcDbEntity
  8
0
100
AcDbPolyline
 90
11
 70
0
 10
6020.0
 20
3630.0
 10
6032.635198184777
 20
3652.609141656903
 10
6058.042260651806
 20
3657.639320225002
 10
6040.44418011756
 20
3676.6427167935285
 10
6043.511410091699
 20
3702.360679774998
 10
6020.0
 20
3691.4962830991376
 10
5996.488589908301
 20
3702.360679774998
 10
5999.55581988244
 20
3676.6427167935285
 10
5981.957739348194
 20
3657.639320225002
 10
6007.364801815223
 20
3652.609141656903
 10
6020.0
 20
3630.0
  0
LWPOLYLINE
  5
1ED
330
17
100
AcDbEntity
  8
0
100
AcDbPolyline
 90
19
 70
0
 10
6196.0
 20
3670.0
 10
6189.733545036504
 20
3677.182423009839
 10
6189.917155521093
 20
3686.71247785185
 10
6180.5
 20
3688.1865334794734
 10
6174.51485261934
 20
3695.6050015783176
 10
6166.353388268994
 20
3690.6809628132564
 10
6157.0
 20
3692.5166604983956
 10
6153.913066694501
 20
3683.4985398034173
 10
6145.567991859566
 20
3678.8925237264675
 10
6149.0
 20
3670.0
 10
6145.567991859566
 20
3661.1074762735325
 10
6153.913066694501
 20
3656.5014601965827
 10
6157.0
 20
3647.4833395016044
 10
6166.353388268994
 20
3649.3190371867436
 10
6174.51485261934
 20
3644.3949984216824
 10
6180.5
 20
3651.8134665205266
 10
6189.917155521093
 20
3653.28752214815
 10
6189.733545036504
 20
3662.817576990161
 10
6196.0
 20
3670.0
  0
LWPOLYLINE
  5
1EE
330
17
100
AcDbEntity
  8
0
100
AcDbPolyline
 90
11
 70
0
 10
6320.0
 20
3611.0
 10
6337.86969907451
 20
3645.404469269584
 10
6376.112334461414
 20
3651.767997331878
 10
6348.91378047129
 20
3679.3946567676767
 10
6354.679329885256
 20
3717.732002668122
 10
6320.0
 20
3700.40174792548
 10
6285.320670114744
 20
3717.732002668122
 10
6291.08621952871
 20
3679.3946567676767
 10
6263.887665538586
 20
3651.767997331878
 10
6302.13030092549
 20
3645.404469269584
 10
6320.0
 20
3611.0
  0
LWPOLYLINE
  5
1EF
330
17
100
AcDbEntity
  8
0
100
AcDbPolyline
 90
31
 70
0
 10
6497.0
 20
3670.0
 10
6491.519247216143
 20
3674.574057197991
 10
6494.6657273563505
 20
3680.981889363047
 10
6487.798373876249
 20
3682.9312755504343
 10
6488.066526371689
 20
3690.0649102878897
 10
6481.0
 20
3689.0525588832575
 10
6478.343458848123
 20
3695.678525939969
 10
6472.299626191889
 20
3691.879481698102
 10
6467.177731491774
 20
3696.8520911749433
 10
6463.201626123751
 20
3690.9232433584934
 10
6456.5
 20
3693.3826859021797
 10
6455.279126660105
 20
3686.3491861605025
 10
6448.156541151877
 20
3685.8702018118965
 10
6449.9019999318625
 20
3678.9482061476674
 10
6443.590014780188
 20
3675.6136156520797
 10
6448.0
 20
3670.0
 10
6443.590014780188
 20
3664.3863843479203
 10
6449.9019999318625
 20
3661.0517938523326
 10
6448.156541151877
 20
3654.1297981881035
 10
6455.279126660105
 20
3653.6508138394975
 10
6456.5
 20
3646.6173140978203
 10
6463.201626123751
 20
3649.0767566415066
 10
6467.177731491774
 20
3643.1479088250567
 10
6472.299626191889
 20
3648.120518301898
 10
6478.343458848123
 20
3644.321474060031
 10
6481.0
 20
3650.9474411167425
 10
6488.066526371689
 20
3649.9350897121103
 10
6487.798373876249
 20
3657.0687244495657
 10
6494.6657273563505
 20
3659.018110636953
 10
6491.519247216143
 20
3665.425942802009
 10
6497.0
 20
3670.0
  0
LWPOLYLINE
  5
1F0
330
17
100
AcDbEntity
  8
0
100
AcDbPolyline
 90
11
 70
0
 10
6620.0
 20
3621.0
 10
6634.610969898635
 20
3649.889725190971
 10
6666.601769298462
 20
3654.8581672756277
 10
6643.641045904592
 20
3677.681441453948
 10
6648.801477362331
 20
3709.6418327243723
 10
6620.0
 20
3694.8576667101615
 10
6591.198522637669
 20
3709.6418327243723
 10
6596.358954095408
 20
3677.681441453948
 10
6573.398230701538
 20
3654.8581672756277
 10
6605.389030101365
 20
3649.889725190971
 10
6620.0
 20
3621.0
  0
LWPOLYLINE
  5
1F1
330
17
100
AcDbEntity
  8
0
100
AcDbPolyline
 90
7
 70
0
 10
7640.036349893231
 20
90.0
 10
7615.4508605844
 20
134.08218362853293
 10
7544.203508204368
 20
169.32185059844716
 10
7538.039725860948
 20
90.0
 10
7556.555849648804
 20
32.07303237575528
 10
7610.838344591121
 20
53.906928422549754
 10
7640.036349893231
 20
90.0
  0
LWPOLYLINE
  5
1F2
330
17
100
AcDbEntity
  8
0
100
AcDbPolyline
 90
7
 70
0
 10
7834.565701659226
 20
90.0
 10
7790.529067455796
 20
125.55738786544826
 10
7738.972911128489
 20
143.7404943364124
 10
7719.944793261205
 20
90.0
 10
7747.38114382866
 20
50.82299190214732
 10
7794.455059898944
 20
47.64259375288948
 10
7834.565701659226
 20
90.0
  0
LWPOLYLINE
  5
1F3
330
17
100
AcDbEntity
  8
0
100
AcDbPolyline
 90
10
 70
0
 10
8003.540823005613
 20
90.0
 10
7979.509527740562
 20
114.76143384332069
 10
7956.07252651177
 20
124.43900920534661
 10
7917.239226103783
 20
146.7433248835237
 10
7902.356879884463
 20
107.34067758962505
 10
7890.537072174491
 20
68.35726422919522
 10
7917.994211965195
 20
34.56434898743812
 10
7959.49794066815
 20
36.13450176491373
 10
7984.14810594225
 20
61.34633689845518
 10
8003.540823005613
 20
90.0
  0
LWPOLYLINE
  5
1F4
330
17
100
AcDbEntity
  8
0
100
AcDbPolyline
 90
7
 70
0
 10
8182.9699109636595
 20
90.0
 10
8150.038628725567
 20
124.70792306669057
 10
8105.154273739391
 20
133.0340602343226
 10
8074.1775584603065
 20
90.0
 10
8106.723569935577
 20
49.68404050959596
 10
8143.782264395632
 20
66.12841782341766
 10
8182.9699109636595
 20
90.0
  0
LWPOLYLINE
  5
1F5
330
17
100
AcDbEntity
  8
0
100
AcDbPolyline
 90
11
 70
0
 10
8398.578842900211
 20
90.0
 10
8377.498618180125
 20
139.040616689457
 10
8323.273781149617
 20
130.85249772024412
 10
8289.738249322645
 20
152.35925649404254
 10
8234.9904239526
 20
144.49764700608839
 10
8234.462801532465
 20
90.00000000000001
 10
8236.785476812143
 20
36.80653523638762
 10
8293.643538608008
 20
39.65998804742541
 10
8335.051606182698
 20
12.8990840717141
 10
8347.61386495329
 20
62.671927468785206
 10
8398.578842900211
 20
90.0
  0
LWPOLYLINE
  5
1F6
330
17
100
AcDbEntity
  8
0
100
AcDbPolyline
 90
11
 70
0
 10
8533.104834883843
 20
90.0
 10
8514.521848964096
 20
107.81616613773983
 10
8501.728879620727
 20
126.09777971822288
 10
8482.459812146597
 20
113.20631202362577
 10
8461.258558074313
 20
110.88187987520863
 10
8461.569870387957
 20
90.0
 10
8459.918843528638
 20
68.14476053197193
 10
8475.577757559635
 20
45.612901872137705
 10
8499.142114859105
 20
61.86346360316713
 10
8512.402210946544
 20
73.72384102598915
 10
8533.104834883843
 20
90.0
  0
LWPOLYLINE
  5
1F7
330
17
100
AcDbEntity
  8
0
100
AcDbPolyline
 90
7
 70
0
 10
8714.429948213528
 20
90.0
 10
8693.70467961687
 20
131.0577094735626
 10
8642.367212617002
 20
137.86139170210083
 10
8622.825160596894
 20
90.0
 10
8637.626820281695
 20
33.92800792533712
 10
8692.525666314697
 20
50.98440146859984
 10
8714.429948213528
 20
90.0
  0
LWPOLYLINE
  5
1F8
330
17
100
AcDbEntity
  8
0
100
AcDbPolyline
 90
6
 70
0
 10
8885.824923895294
 20
90.0
 10
8859.78662088968
 20
120.12012199674011
 10
8810.309624457068
 20
118.83674578444406
 10
8806.45042175866
 20
58.35937933097008
 10
8864.674001838737
 20
44.8380661164407
 10
8885.824923895294
 20
90.0
  0
LWPOLYLINE
  5
1F9
330
17
100
AcDbEntity
  8
0
100
AcDbPolyline
 90
13
 70
0
 10
7661.422587596398
 20
740.0
 10
7638.485346065302
 20
767.9930276025545
 10
7621.275625006558
 20
794.1709715498291
 10
7590.0
 20
810.6209928036317
 10
7553.074391101379
 20
803.9570307128301
 10
7535.487088339313
 20
771.4730442216078
 10
7505.82539725694
 20
740.0
 10
7541.295753483349
 20
711.8805901629333
 10
7566.808106212876
 20
699.8304616369597
 10
7590.0
 20
660.2108123763062
 10
7631.168079269968
 20
668.6947950543919
 10
7658.63153165086
 20
700.3755667264795
 10
7661.422587596398
 20
740.0
  0
LWPOLYLINE
  5
1FA
330
17
100
AcDbEntity
  8
0
100
AcDbPolyline
 90
13
 70
0
 10
7798.339728874125
 20
740.0
 10
7798.225069936951
 20
756.2957517259943
 10
7787.126867262567
 20
769.6646042732549
 10
7770.0
 20
772.4625624576854
 10
7752.084588105688
 20
771.030403639472
 10
7743.446921671031
 20
755.3304269210436
 10
7737.504988890106
 20
740.0
 10
7723.982551121257
 20
713.4318135024378
 10
7756.989224084591
 20
717.4646750686185
 10
7770.0
 20
704.1216386772882
 10
7789.885337542982
 20
705.5575850498989
 10
7806.170742907519
 20
719.1168118455554
 10
7798.339728874125
 20
740.0
  0
LWPOLYLINE
  5
1FB
330
17
100
AcDbEntity
  8
0
100
AcDbPolyline
 90
6
 70
0
 10
8005.319166011409
 20
740.0
 10
7963.207308280433
 20
780.6479152650855
 10
7909.481064828367
 20
769.4387295916836
 10
7923.202682696807
 20
720.530609342776
 10
7961.735907969413
 20
703.8805892487322
 10
8005.319166011409
 20
740.0
  0
LWPOLYLINE
  5
1FC
330
17
100
AcDbEntity
  8
0
100
AcDbPolyline
 90
6
 70
0
 10
8191.631884485418
 20
740.0
 10
8150.158615106515
 20
802.0418378455721
 10
8078.939142897311
 20
777.0978842015079
 10
8079.739935134501
 20
703.4839254149067
 10
8149.385879874748
 20
680.3363966558319
 10
8191.631884485418
 20
740.0
  0
LWPOLYLINE
  5
1FD
330
17
100
AcDbEntity
  8
0
100
AcDbPolyline
 90
11
 70
0
 10
8362.421790077824
 20
740.0
 10
8363.622789505867
 20
778.9592370462926
 10
8325.096135731872
 20
786.4611284169475
 10
8297.475394002297
 20
778.5467736887367
 10
8263.329961329006
 20
773.9077678781329
 10
8246.914826116697
 20
740.0
 10
8280.771612408556
 20
718.7643333897922
 10
8298.71755169511
 20
705.2761945930072
 10
8328.719021501585
 20
682.3887756925424
 10
8349.022185849075
 20
711.6487224449178
 10
8362.421790077824
 20
740.0
  0
LWPOLYLINE
  5
1FE
330
17
100
AcDbEntity
  8
0
100
AcDbPolyline
 90
10
 70
0
 10
8548.395295241451
 20
740.0
 10
8513.125109008453
 20
759.4042704399272
 10
8495.132265076974
 20
769.1065216244989
 10
8471.318784067584
 20
772.3568151421091
 10
8453.713460381603
 20
753.2072203256175
 10
8443.438535912148
 20
723.0530130081668
 10
8459.509061293053
 20
687.1881449890983
 10
8496.934141119349
 20
700.6745315351749
 10
8524.059932679358
 20
711.4203230508281
 10
8548.395295241451
 20
740.0
  0
LWPOLYLINE
  5
1FF
330
17
100
AcDbEntity
  8
0
100
AcDbPolyline
 90
9
 70
0
 10
8715.020557217556
 20
740.0
 10
8712.340098874216
 20
782.3400988742155
 10
8670.0
 20
773.613007652055
 10
8644.498636179416
 20
765.5013638205843
 10
8617.382220249974
 20
740.0
 10
8629.636068189835
 20
699.6360681898357
 10
8670.0
 20
690.8265348957
 10
8691.935050888718
 20
718.0649491112821
 10
8715.020557217556
 20
740.0
  0
LWPOLYLINE
  5
200
330
17
100
AcDbEntity
  8
0
100
AcDbPolyline
 90
13
 70
0
 10
8905.142628495028
 20
740.0
 10
8919.173680063144
 20
779.9374428052931
 10
8892.500231678161
 20
813.6125606000238
 10
8850.0
 20
803.0327096110282
 10
8819.58224459353
 20
792.6850978162101
 10
8807.251895414101
 20
764.6806296900143
 10
8752.376768025084
 20
740.0
 10
8786.51459865287
 20
703.346686442623
 10
8816.813148798803
 20
682.5186875762976
 10
8850.0
 20
661.9105253856738
 10
8886.108714787166
 20
677.4578713926154
 10
8916.326514543924
 20
701.706368973656
 10
8905.142628495028
 20
740.0
  0
LWPOLYLINE
  5
201
330
17
100
AcDbEntity
  8
0
100
AcDbPolyline
 90
9
 70
0
 10
7665.3391897704805
 20
1390.0
 10
7640.844958933138
 20
1440.8449589331376
 10
7590.0
 20
1472.0688640099067
 10
7558.948552668801
 20
1421.0514473311987
 10
7538.052840131793
 20
1390.0
 10
7536.644633864309
 20
1336.6446338643088
 10
7590.0
 20
1335.8014340348743
 10
7619.403027118878
 20
1360.5969728811226
 10
7665.3391897704805
 20
1390.0
  0
LWPOLYLINE
  5
202
330
17
100
AcDbEntity
  8
0
100
AcDbPolyline
 90
13
 70
0
 10
7838.862362440885
 20
1390.0
 10
7826.253974700511
 20
1422.4782474363267
 10
7792.111890445776
 20
1428.2989177034817
 10
7770.0
 20
1430.8777741251313
 10
7748.952155284141
 20
1426.4559364376883
 10
7706.609834610949
 20
1426.5983290513434
 10
7715.256286745782
 20
1390.0
 10
7712.7355196283215
 20
1356.9383368424074
 10
7741.562096984966
 20
1340.7441071172452
 10
7770.0
 20
1340.6113592604238
 10
7788.702429236235
 20
1357.6064423378796
 10
7798.816272931714
 20
1373.3629170658332
 10
7838.862362440885
 20
1390.0
  0
LWPOLYLINE
  5
203
330
17
100
AcDbEntity
  8
0
100
AcDbPolyline
 90
11
 70
0
 10
8047.287305002835
 20
1390.0
 10
8023.345230975805
 20
1443.2884295302983
 10
7969.023459652627
 20
1448.5481885930064
 10
7918.166142131852
 20
1487.9745402855756
 10
7882.6291584920955
 20
1438.9477815030014
 10
7846.924382174483
 20
1390.0
 10
7897.561105386068
 20
1351.9009129413876
 10
7929.4194078897135
 20
1326.6594504768536
 10
7979.159255786602
 20
1300.2570385092915
 10
8003.037702167297
 20
1351.4658537877772
 10
8047.287305002835
 20
1390.0
  0
LWPOLYLINE
  5
204
330
17
100
AcDbEntity
  8
0
100
AcDbPolyline
 90
7
 70
0
 10
8178.691466125442
 20
1390.0
 10
8147.854395877013
 20
1420.9247207974347
 10
8108.612276364775
 20
1427.044623994451
 10
8098.619265907394
 20
1390.0
 10
8108.109339169792
 20
1352.0842632308227
 10
8154.728147171376
 20
1347.1695927221358
 10
8178.691466125442
 20
1390.0
  0
LWPOLYLINE
  5
205
330
17
100
AcDbEntity
  8
0
100
AcDbPolyline
 90
8
 70
0
 10
8385.882057015642
 20
1390.0
 10
8362.531859537668
 20
1455.8728683239042
 10
8296.193052823164
 20
1450.4921880624502
 10
8249.765819915521
 20
1419.007252313367
 10
8271.171264349357
 20
1371.3010664302635
 10
8297.439520559368
 20
1334.9689439131048
 10
8346.186710162436
 20
1344.6233007058086
 10
8385.882057015642
 20
1390.0
  0
LWPOLYLINE
  5
206
330
17
100
AcDbEntity
  8
0
100
AcDbPolyline
 90
12
 70
0
 10
8519.75481270254
 20
1390.0
 10
8522.105677069494
 20
1410.6330657981325
 10
8505.10455314123
 20
1423.0743578897388
 10
8482.156427440572
 20
1444.5532454273127
 10
8446.561111167213
 20
1440.1311500966312
 10
8439.55703623967
 20
1404.8113905423627
 10
8456.359862439993
 20
1380.1223643862907
 10
8455.816465459828
 20
1350.550098151375
 10
8485.030916112177
 20
1355.439262424429
 10
8508.60116660204
 20
1349.2691266262457
 10
8529.531546165375
 20
1364.5946179123846
 10
8519.75481270254
 20
1390.0
  0
LWPOLYLINE
  5
207
330
17
100
AcDbEntity
  8
0
100
AcDbPolyline
 90
12
 70
0
 10
8742.392851840066
 20
1390.0
 10
8705.704152232067
 20
1412.9456653624266
 10
8687.070441783782
 20
1427.3790535617802
 10
8663.251270916693
 20
1436.9384417897093
 10
8624.012353698012
 20
1443.072573017006
 10
8621.098012569997
 20
1404.358919066788
 10
8624.435364580368
 20
1376.621015899718
 10
8637.957178161478
 20
1353.020612306867
 10
8662.116242679223
 20
1335.1672634184085
 10
8685.496931182724
 20
1356.066454046162
 10
8716.068378530083
 20
1360.3936508372965
 10
8742.392851840066
 20
1390.0
  0
LWPOLYLINE
  5
208
330
17
100
AcDbEntity
  8
0
100
AcDbPolyline
 90
9
 70
0
 10
8905.891343238325
 20
1390.0
 10
8898.654861709942
 20
1438.654861709941
 10
8850.0
 20
1437.054227552923
 10
8806.859502449297
 20
1433.1404975507028
 10
8796.821780768078
 20
1390.0
 10
8824.579330592078
 20
1364.5793305920786
 10
8850.0
 20
1344.3897941475968
 10
8898.86745995147
 20
1341.1325400485287
 10
8905.891343238325
 20
1390.0
  0
LWPOLYLINE
  5
209
330
17
100
AcDbEntity
  8
0
100
AcDbPolyline
 90
7
 70
0
 10
7662.1601805312475
 20
2040.0
 10
7622.339910779273
 20
2096.0143685819453
 10
7569.753704084601
 20
2075.0676131905457
 10
7505.371797945226
 20
2040.0
 10
7565.191321555049
 20
1997.0301084647062
 10
7620.987259408257
 20
1986.3284923175815
 10
7662.1601805312475
 20
2040.0
  0
LWPOLYLINE
  5
20A
330
17
100
AcDbEntity
  8
0
100
AcDbPolyline
 90
11
 70
0
 10
7832.676187759512
 20
2040.0
 10
7803.560395559295
 20
2064.38305463051
 10
7796.428219832428
 20
2121.337697095114
 10
7743.754356821713
 20
2120.7757839323885
 10
7727.804547433581
 20
2070.6567907779363
 10
7679.656734956883
 20
2040.0
 10
7699.101573160433
 20
1988.4892777323778
 10
7747.2152947438035
 20
1969.8758877336147
 10
7796.101129389967
 20
1959.6689837748156
 10
7833.371833762399
 20
1993.9576676939312
 10
7832.676187759512
 20
2040.0
  0
LWPOLYLINE
  5
20B
330
17
100
AcDbEntity
  8
0
100
AcDbPolyline
 90
13
 70
0
 10
7998.301366989136
 20
2040.0
 10
7989.845172765505
 20
2063.004621222071
 10
7978.875126852512
 20
2090.0131867835466
 10
7950.0
 20
2069.631934267728
 10
7929.460237680191
 20
2075.575911913297
 10
7916.968899545751
 20
2059.0705147388903
 10
7908.044661610397
 20
2040.0
 10
7923.931599082153
 20
2024.9494017127383
 10
7933.322271503205
 20
2011.1133268887122
 10
7950.0
 20
2001.5982129355368
 10
7979.135405864732
 20
1989.5359967431439
 10
7992.208888863977
 20
2015.630686652188
 10
7998.301366989136
 20
2040.0
  0
LWPOLYLINE
  5
20C
330
17
100
AcDbEntity
  8
0
100
AcDbPolyline
 90
11
 70
0
 10
8213.568552720308
 20
2040.0
 10
8167.731127406049
 20
2067.413268690083
 10
8147.855620754674
 20
2094.953950042706
 10
8109.938523239846
 20
2101.7428767561482
 10
8062.512134950278
 20
2089.03280408291
 10
8081.627124448615
 20
2040.0
 10
8073.228916325418
 20
1998.7533933494656
 10
8103.019281371148
 20
1956.9618864548247
 10
8154.090529425868
 20
1965.8569741841682
 10
8186.019387347438
 20
1999.2995326992807
 10
8213.568552720308
 20
2040.0
  0
LWPOLYLINE
  5
20D
330
17
100
AcDbEntity
  8
0
100
AcDbPolyline
 90
7
 70
0
 10
8347.979696549928
 20
2040.0
 10
8325.686375254152
 20
2067.169598926784
 10
8290.362406151255
 20
2074.0133102844306
 10
8282.890957779524
 20
2040.0
 10
8293.693930353707
 20
2011.7570589008644
 10
8325.763971780476
 20
2012.6959999471349
 10
8347.979696549928
 20
2040.0
  0
LWPOLYLINE
  5
20E
330
17
100
AcDbEntity
  8
0
100
AcDbPolyline
 90
9
 70
0
 10
8598.188249225714
 20
2040.0
 10
8528.684346024695
 20
2078.684346024695
 10
8490.0
 20
2100.0023286355818
 10
8443.06644013515
 20
2086.933559864851
 10
8437.212133988243
 20
2040.0
 10
8451.976318143592
 20
2001.9763181435915
 10
8490.0
 20
1957.127811891399
 10
8549.958740547545
 20
1980.0412594524553
 10
8598.188249225714
 20
2040.0
  0
LWPOLYLINE
  5
20F
330
17
100
AcDbEntity
  8
0
100
AcDbPolyline
 90
12
 70
0
 10
8697.940075519135
 20
2040.0
 10
8707.270210751927
 20
2063.9521100611028
 10
8682.848592576953
 20
2068.1344933078244
 10
8661.694447308002
 20
2097.766387826862
 10
8649.392596103651
 20
2063.7822118748586
 10
8638.018585186912
 20
2049.390590670774
 10
8619.807165109862
 20
2025.2620539205739
 10
8640.04997427577
 20
2005.4358277726913
 10
8664.704522573582
 20
2003.1691454997838
 10
8681.24377781529
 20
2015.379560850393
 10
8713.885019845022
 20
2011.7968102633472
 10
8697.940075519135
 20
2040.0
  0
LWPOLYLINE
  5
210
330
17
100
AcDbEntity
  8
0
100
AcDbPolyline
 90
10
 70
0
 10
8911.724751357495
 20
2040.0
 10
8896.633630078106
 20
2079.130261798996
 10
8859.539739194315
 20
2094.1025494566125
 10
8814.264183766702
 20
2101.8962493660188
 10
8815.755157746917
 20
2052.464103257264
 10
8784.413633449893
 20
2016.1285148020886
 10
8831.046806206778
 20
2007.1721053844392
 10
8859.96974950181
 20
1983.4587409042401
 10
8885.698880829186
 20
2010.045082262788
 10
8911.724751357495
 20
2040.0
  0
LWPOLYLINE
  5
211
330
17
100
AcDbEntity
  8
0
100
AcDbPolyline
 90
9
 70
0
 10
7663.562956975448
 20
2690.0
 10
7646.345531358947
 20
2746.345531358947
 10
7590.0
 20
2766.3309088525452
 10
7539.504671212208
 20
2740.495328787791
 10
7506.229361886733
 20
2690.0
 10
7541.262304537119
 20
2641.2623045371192
 10
7590.0
 20
2607.1179408581293
 10
7650.29175157934
 20
2629.7082484206603
 10
7663.562956975448
 20
2690.0
  0
LWPOLYLINE
  5
212
330
17
100
AcDbEntity
  8
0
100
AcDbPolyline
 90
8
 70
0
 10
7814.591317358382
 20
2690.0
 10
7797.0344826983555
 20
2723.900169052966
 10
7761.693912426218
 20
2726.3913474239516
 10
7741.1909140878415
 20
2703.873724566341
 10
7739.369690633344
 20
2675.249220442796
 10
7761.759457088235
 20
2653.8958225036513
 10
7791.0406041956885
 20
2663.615916858147
 10
7814.591317358382
 20
2690.0
  0
LWPOLYLINE
  5
213
330
17
100
AcDbEntity
  8
0
100
AcDbPolyline
 90
6
 70
0
 10
8039.688336437774
 20
2690.0
 10
7974.766302093422
 20
2766.2228402296355
 10
7896.854787734873
 20
2728.612256870487
 10
7897.803760540504
 20
2652.077212230725
 10
7968.790527360811
 20
2632.168703286791
 10
8039.688336437774
 20
2690.0
  0
LWPOLYLINE
  5
214
330
17
100
AcDbEntity
  8
0
100
AcDbPolyline
 90
12
 70
0
 10
8188.731069546891
 20
2690.0
 10
8162.2421678395085
 20
2710.7207830897637
 10
8155.809313488018
 20
2746.51451341921
 10
8118.548940529628
 20
2769.6438680150977
 10
8081.321387416851
 20
2746.1781136551463
 10
8076.927174592767
 20
2705.583587594656
 10
8086.230037088229
 20
2677.1479792941745
 10
8086.482673062947
 20
2639.7783275054917
 10
8123.5270723711565
 20
2644.9797994607598
 10
8162.983919823452
 20
2617.775290096499
 10
8183.00839190575
 20
2655.9335750597293
 10
8188.731069546891
 20
2690.0
  0
LWPOLYLINE
  5
215
330
17
100
AcDbEntity
  8
0
100
AcDbPolyline
 90
11
 70
0
 10
8408.91501651103
 20
2690.0
 10
8359.940319501722
 20
2726.2837659801767
 10
8334.903040592359
 20
2766.6436780567083
 10
8293.296737861168
 20
2741.407354901802
 10
8247.557821664312
 20
2735.3668981021724
 10
8211.410660778223
 20
2690.0
 10
8247.078525542489
 20
2644.2848728818153
 10
8290.883606272648
 20
2631.1657897351683
 10
8341.269918334416
 20
2593.761087133356
 10
8373.462106520497
 20
2643.892080696052
 10
8408.91501651103
 20
2690.0
  0
LWPOLYLINE
  5
216
330
17
100
AcDbEntity
  8
0
100
AcDbPolyline
 90
10
 70
0
 10
8543.654315161002
 20
2690.0
 10
8537.36759268188
 20
2729.7461295491203
 10
8504.58014946362
 20
2772.688136580332
 10
8454.444461228593
 20
2751.583999642562
 10
8427.679558196494
 20
2712.682785802795
 10
8395.130070188396
 20
2655.470169421652
 10
8464.687586631773
 20
2646.157613984046
 10
8503.418860051159
 20
2613.8978629518733
 10
8566.203236043342
 20
2626.0578927415163
 10
8543.654315161002
 20
2690.0
  0
LWPOLYLINE
  5
217
330
17
100
AcDbEntity
  8
0
100
AcDbPolyline
 90
11
 70
0
 10
8765.00724068589
 20
2690.0
 10
8742.934293010572
 20
2742.989865622185
 10
8690.8683831257
 20
2754.226279193434
 10
8654.144515969543
 20
2738.7981621744843
 10
8612.888292056292
 20
2731.4940846681257
 10
8581.321208222887
 20
2690.0
 10
8604.840760771696
 20
2642.6590416081617
 10
8655.222765386381
 20
2644.520348304687
 10
8698.91007536184
 20
2601.023937000367
 10
8728.20616826533
 20
2647.7107433630017
 10
8765.00724068589
 20
2690.0
  0
LWPOLYLINE
  5
218
330
17
100
AcDbEntity
  8
0
100
AcDbPolyline
 90
9
 70
0
 10
8939.333704098404
 20
2690.0
 10
8903.119351855845
 20
2743.119351855844
 10
8850.0
 20
2729.698537063044
 10
8805.554764343691
 20
2734.445235656309
 10
8766.84281341435
 20
2690.0
 10
8811.778180606994
 20
2651.778180606994
 10
8850.0
 20
2603.387677923263
 10
8892.43252010575
 20
2647.567479894248
 10
8939.333704098404
 20
2690.0
  0
LWPOLYLINE
  5
219
330
17
100
AcDbEntity
  8
0
100
AcDbPolyline
 90
7
 70
0
 10
7695.142239708018
 20
3340.0
 10
7616.632366335637
 20
3386.12861161911
 10
7561.614400252433
 20
3389.165300966099
 10
7529.666159986131
 20
3340.0
 10
7563.160704069714
 20
3293.5129758093676
 10
7637.725364491802
 20
3257.337243890456
 10
7695.142239708018
 20
3340.0
  0
LWPOLYLINE
  5
21A
330
17
100
AcDbEntity
  8
0
100
AcDbPolyline
 90
11
 70
0
 10
7861.479718326317
 20
3340.0
 10
7816.11391792477
 20
3373.5037225052943
 10
7796.569069085096
 20
3421.7711865212714
 10
7745.863519481931
 20
3414.284448735812
 10
7722.369352202368
 20
3374.605691261425
 10
7707.725606357696
 20
3340.0
 10
7703.683757518774
 20
3291.8184295398733
 10
7741.469155726896
 20
3252.1910902789577
 10
7787.913052106673
 20
3284.8692944307304
 10
7843.019559360741
 20
3286.9481847482093
 10
7861.479718326317
 20
3340.0
  0
LWPOLYLINE
  5
21B
330
17
100
AcDbEntity
  8
0
100
AcDbPolyline
 90
13
 70
0
 10
8025.463351356979
 20
3340.0
 10
8008.201507950168
 20
3373.6026562822717
 10
7987.090839351731
 20
3404.243218252573
 10
7950.0
 20
3421.1415368374346
 10
7920.100398054246
 20
3391.787629696131
 10
7894.981403257803
 20
3371.765001639543
 10
7876.6498019244245
 20
3340.0
 10
7882.129555337028
 20
3300.814980503814
 10
7919.038578030087
 20
3286.373244073531
 10
7950.0
 20
3265.3744018124935
 10
8000.475945876455
 20
3252.5730971818843
 10
8026.424376450143
 20
3295.8763656838605
 10
8025.463351356979
 20
3340.0
  0
LWPOLYLINE
  5
21C
330
17
100
AcDbEntity
  8
0
100
AcDbPolyline
 90
11
 70
0
 10
8218.426467271525
 20
3340.0
 10
8202.695576824866
 20
3392.8164281611466
 10
8155.259635260904
 20
3417.741163597537
 10
8105.998376014123
 20
3413.869403006804
 10
8074.3622359688
 20
3380.423201731794
 10
8043.392139943101
 20
3340.0
 10
8066.284577534134
 20
3293.70803588872
 10
8101.323520766062
 20
3251.7428719575614
 10
8151.178276636481
 20
3274.819966650157
 10
8174.091676402174
 20
3307.9655219627703
 10
8218.426467271525
 20
3340.0
  0
LWPOLYLINE
  5
21D
330
17
100
AcDbEntity
  8
0
100
AcDbPolyline
 90
6
 70
0
 10
8402.311775211403
 20
3340.0
 10
8341.446251093008
 20
3436.7816092948315
 10
8219.506419777414
 20
3405.7474345431738
 10
8242.79702814628
 20
3291.1741829399257
 10
8326.788774057542
 20
3288.3294664737446
 10
8402.311775211403
 20
3340.0
  0
LWPOLYLINE
  5
21E
330
17
100
AcDbEntity
  8
0
100
AcDbPolyline
 90
6
 70
0
 10
8525.036121150008
 20
3340.0
 10
8499.415463672965
 20
3368.9778175411548
 10
8464.482622326292
 20
3358.5394600831232
 10
8455.490485706909
 20
3314.9273702452597
 10
8498.391607049034
 20
3314.1732891347433
 10
8525.036121150008
 20
3340.0
  0
LWPOLYLINE
  5
21F
330
17
100
AcDbEntity
  8
0
100
AcDbPolyline
 90
6
 70
0
 10
8745.647125658974
 20
3340.0
 10
8686.411411437864
 20
3390.5091308041265
 10
8618.827189523154
 20
3377.179223088987
 10
8630.392268647842
 20
3311.2232987348452
 10
8688.919404926151
 20
3281.7720589256296
 10
8745.647125658974
 20
3340.0
  0
LWPOLYLINE
  5
220
330
17
100
AcDbEntity
  8
0
100
AcDbPolyline
 90
7
 70
0
 10
8878.680347261403
 20
3340.0
 10
8874.109276112575
 20
3381.7584911606873
 10
8835.419075550879
 20
3365.2549019672015
 10
8825.04434874627
 20
3340.0
 10
8828.370113759896
 20
3302.5359380702052
 10
8874.685553052044
 20
3297.243367900921
 10
8878.680347261403
 20
3340.0
  0
LWPOLYLINE
  5
221
330
17
100
AcDbEntity
  8
0
100
AcDbPolyline
 90
10
 70
0
 10
7632.768173600636
 20
3990.0
 10
7627.974121450164
 20
4021.864071303113
 10
7601.779212600731
 20
4056.803234271935
 10
7561.665354349321
 20
4039.077045881437
 10
7506.737944543102
 20
4020.304909830133
 10
7511.21785568062
 20
3961.3256444760814
 10
7544.280063422646
 20
3910.8107469291963
 10
7600.3680023232455
 20
3931.200136918422
 10
7627.3078669826255
 20
3958.694982574868
 10
7632.768173600636
 20
3990.0
  0
LWPOLYLINE
  5
222
330
17
100
AcDbEntity
  8
0
100
AcDbPolyline
 90
6
 70
0
 10
7855.041186380711
 20
3990.0
 10
7786.565598767604
 20
4040.9836706105048
 10
7720.410043778152
 20
4026.0292121570965
 10
7694.550697602157
 20
3935.1828730996303
 10
7795.542598943211
 20
3911.387963735811
 10
7855.041186380711
 20
3990.0
  0
ENDSEC
  0
SECTION
  2
OBJECTS
  0
DICTIONARY
  5
A
330
0
100
AcDbDictionary
281
1
  3
ACAD_COLOR
350
B
  3
ACAD_GROUP
350
C
  3
ACAD_LAYOUT
350
D
  3
ACAD_MATERIAL
350
E
  3
ACAD_MLEADERSTYLE
350
F
  3
ACAD_MLINESTYLE
350
10
  3
ACAD_PLOTSETTINGS
350
11
  3
ACAD_PLOTSTYLENAME
350
12
  3
ACAD_SCALELIST
350
14
  3
ACAD_TABLESTYLE
350
15
  3
ACAD_VISUALSTYLE
350
16
  3
EZDXF_META
350
2D
  0
DICTIONARY
  5
B
330
A
100
AcDbDictionary
281
1
  0
DICTIONARY
  5
C
330
A
100
AcDbDictionary
281
1
  0
DICTIONARY
  5
D
330
A
100
AcDbDictionary
281
1
  3
Model
350
1A
  3
Layout1
350
1E
  0
DICTIONARY
  5
E
330
A
100
AcDbDictionary
281
1
  3
ByBlock
350
1F
  3
ByLayer
350
20
  3
Global
350
21
  0
DICTIONARY
  5
F
330
A
100
AcDbDictionary
281
1
  3
Standard
350
2C
  0
DICTIONARY
  5
10
330
A
100
AcDbDictionary
281
1
  3
Standard
350
22
  0
DICTIONARY
  5
11
330
A
100
AcDbDictionary
281
1
  0
ACDBDICTIONARYWDFLT
  5
12
330
A
100
AcDbDictionary
281
1
  3
Normal
350
13
100
AcDbDictionaryWithDefault
340
13
  0
ACDBPLACEHOLDER
  5
13
330
12
  0
DICTIONARY
  5
14
330
A
100
AcDbDictionary
281
1
  0
DICTIONARY
  5
15
330
A
100
AcDbDictionary
281
1
  0
DICTIONARY
  5
16
330
A
100
AcDbDictionary
281
1
  0
LAYOUT
  5
1A
330
D
100
AcDbPlotSettings
  1

  4
A3
  6

 40
7.5
 41
20.0
 42
7.5
 43
20.0
 44
420.0
 45
297.0
 46
0.0
 47
0.0
 48
0.0
 49
0.0
140
0.0
141
0.0
142
1.0
143
1.0
 70
1024
 72
1
 73
0
 74
5
  7

 75
16
 76
0
 77
2
 78
300
147
1.0
148
0.0
149
0.0
100
AcDbLayout
  1
Model
 70
1
 71
0
 10
0.0
 20
0.0
 11
420.0
 21
297.0
 12
0.0
 22
0.0
 32
0.0
 14
1e+20
 24
1e+20
 34
1e+20
 15
-1e+20
 25
-1e+20
 35
-1e+20
146
0.0
 13
0.0
 23
0.0
 33
0.0
 16
1.0
 26
0.0
 36
0.0
 17
0.0
 27
1.0
 37
0.0
 76
1
330
17
  0
LAYOUT
  5
1E
330
D
100
AcDbPlotSettings
  1

  4
A3
  6

 40
7.5
 41
20.0
 42
7.5
 43
20.0
 44
420.0
 45
297.0
 46
0.0
 47
0.0
 48
0.0
 49
0.0
140
0.0
141
0.0
142
1.0
143
1.0
 70
0
 72
1
 73
0
 74
5
  7

 75
16
 76
0
 77
2
 78
300
147
1.0
148
0.0
149
0.0
100
AcDbLayout
  1
Layout1
 70
1
 71
1
 10
0.0
 20
0.0
 11
420.0
 21
297.0
 12
0.0
 22
0.0
 32
0.0
 14
1e+20
 24
1e+20
 34
1e+20
 15
-1e+20
 25
-1e+20
 35
-1e+20
146
0.0
 13
0.0
 23
0.0
 33
0.0
 16
1.0
 26
0.0
 36
0.0
 17
0.0
 27
1.0
 37
0.0
 76
1
330
1B
  0
MATERIAL
  5
1F
102
{ACAD_REACTORS
330
E
102
}
330
E
100
AcDbMaterial
  1
ByBlock
  2

 70
0
 40
1.0
 71
1
 41
1.0
 91
-1023410177
 42
1.0
 72
1
  3

 73
1
 74
1
 75
1
 44
0.5
 73
0
 45
1.0
 46
1.0
 77
1
  4

 78
1
 79
1
170
1
 48
1.0
171
1
  6

172
1
173
1
174
1
140
1.0
141
1.0
175
1
  7

176
1
177
1
178
1
143
1.0
179
1
  8

270
1
271
1
272
1
145
1.0
146
1.0
273
1
  9

274
1
275
1
276
1
 42
1.0
 72
1
  3

 73
1
 74
1
 75
1
 94
63
  0
MATERIAL
  5
20
102
{ACAD_REACTORS
330
E
102
}
330
E
100
AcDbMaterial
  1
ByLayer
  2

 70
0
 40
1.0
 71
1
 41
1.0
 91
-1023410177
 42
1.0
 72
1
  3

 73
1
 74
1
 75
1
 44
0.5
 73
0
 45
1.0
 46
1.0
 77
1
  4

 78
1
 79
1
170
1
 48
1.0
171
1
  6

172
1
173
1
174
1
140
1.0
141
1.0
175
1
  7

176
1
177
1
178
1
143
1.0
179
1
  8

270
1
271
1
272
1
145
1.0
146
1.0
273
1
  9

274
1
275
1
276
1
 42
1.0
 72
1
  3

 73
1
 74
1
 75
1
 94
63
  0
MATERIAL
  5
21
102
{ACAD_REACTORS
330
E
102
}
330
E
100
AcDbMaterial
  1
Global
  2

 70
0
 40
1.0
 71
1
 41
1.0
 91
-1023410177
 42
1.0
 72
1
  3

 73
1
 74
1
 75
1
 44
0.5
 73
0
 45
1.0
 46
1.0
 77
1
  4

 78
1
 79
1
170
1
 48
1.0
171
1
  6

172
1
173
1
174
1
140
1.0
141
1.0
175
1
  7

176
1
177
1
178
1
143
1.0
179
1
  8

270
1
271
1
272
1
145
1.0
146
1.0
273
1
  9

274
1
275
1
276
1
 42
1.0
 72
1
  3

 73
1
 74
1
 75
1
 94
63
  0
MLINESTYLE
  5
22
102
{ACAD_REACTORS
330
10
102
}
330
10
100
AcDbMlineStyle
  2
Standard
 70
0
  3

 62
256
 51
90.0
 52
90.0
 71
2
 49
0.5
 62
256
  6
BYLAYER
 49
-0.5
 62
256
  6
BYLAYER
  0
MLEADERSTYLE
  5
2C
102
{ACAD_REACTORS
330
F
102
}
330
F
100
AcDbMLeaderStyle
179
2
170
2
171
1
172
0
 90
2
 40
0.0
 41
0.0
173
1
 91
-1056964608
 92
-2
290
1
 42
2.0
291
1
 43
8.0
  3
Standard
 44
4.0
300

342
29
174
1
175
1
176
0
178
1
 93
-1056964608
 45
4.0
292
0
297
0
 46
4.0
 94
-1056964608
 47
1.0
 49
1.0
140
1.0
294
1
141
0.0
177
0
142
1.0
295
0
296
0
143
3.75
271
0
272
9
273
9
  0
DICTIONARY
  5
2D
330
A
100
AcDbDictionary
280
1
281
1
  3
CREATED_BY_EZDXF
350
2E
  3
WRITTEN_BY_EZDXF
350
225
  0
DICTIONARYVAR
  5
2E
330
2D
100
DictionaryVariables
280
0
  1
1.4.2 @ 2025-10-17T20:20:53.189555+00:00
  0
DICTIONARYVAR
  5
225
330
2D
100
DictionaryVariables
280
0
  1
1.4.2 @ 2025-10-17T20:20:53.200808+00:00
  0
ENDSEC
  0
EOF
