999
FreeCAD v1.0 39319 (Git)
  0
SECTION
  2
HEADER
  9
$ACADVER
  1
AC1014
  9
$ACADMAINTVER
 70
     9
  9
$DWGCODEPAGE
  3
ANSI_1252
  9
$TEXTSTYLE
  7
STANDARD
  9
$DIMSTYLE
  2
STANDARD
  9
$DIMTXSTY
  7
STANDARD
  9
$CMLSTYLE
  2
STANDARD
  9
$LUNITS
 70
2
  9
$INSUNITS
 70
4
  9
$PEXTMAX
 10
50
 20
50
 30
50
  9
$PEXTMIN
 10
0
 20
0
 30
0
  9
$HANDSEED
  5
FFFF
  0
ENDSEC
  0
SECTION
  2
CLASSES
  0
CLASS
  1
ACDBDICTIONARYWDFLT
  2
AcDbDictionaryWithDefault
  3
ObjectDBX Classes
 90
        0
280
     0
281
     0
  0
CLASS
  1
XRECORD
  2
AcDbXrecord
  3
ObjectDBX Classes
 90
        0
280
     0
281
     0
  0
CLASS
  1
LWPOLYLINE
  2
AcDbPolyline
  3
ObjectDBX Classes
 90
        0
280
     0
281
     1
  0
ENDSEC
  0
SECTION
  2
TABLES
  0
TABLE
  2
VPORT
  5
20
330
0
100
AcDbSymbolTable
 70
     1
  0
VPORT
  5
21
330
20
100
AcDbSymbolTableRecord
100
AcDbViewportTableRecord
  2
*ACTIVE
 70
     0
  0
ENDTAB
  0
TABLE
  2
LTYPE
  5
22
330
0
100
AcDbSymbolTable
 70
     1
  0
LTYPE
  5
23
330
21
100
AcDbSymbolTableRecord
100
AcDbLinetypeTableRecord
  2
BYBLOCK
 70
     0
  3

 72
    65
 73
     0
 40
0.0
  0
LTYPE
  5
24
330
21
100
AcDbSymbolTableRecord
100
AcDbLinetypeTableRecord
  2
BYLAYER
 70
     0
  3

 72
    65
 73
     0
 40
0.0
  0
LTYPE
  5
25
330
21
100
AcDbSymbolTableRecord
100
AcDbLinetypeTableRecord
  2
CONTINUOUS
 70
     0
  3
Solid line
 72
    65
 73
     0
 40
0.0
  0
ENDTAB
  0
TABLE
  2
LAYER
  5
A29
330
0
100
AcDbSymbolTable
 70
3
  0
LAYER
  5
A2A
330
A29
100
AcDbSymbolTableRecord
100
AcDbLayerTableRecord
  2
0
 70
   0
 62
   7
  6
CONTINUOUS
  0
LAYER
  5
A2B
330
A29
100
AcDbSymbolTableRecord
100
AcDbLayerTableRecord
  2
none
 70
    0
 62
    7
  6
CONTINUOUS
  0
LAYER
  5
A2C
330
A29
100
AcDbSymbolTableRecord
100
AcDbLayerTableRecord
  2
Sketch
 70
    0
 62
    7
  6
CONTINUOUS
  0
ENDTAB
  0
TABLE
  2
STYLE
  5
70
330
0
100
AcDbSymbolTable
 70
     2
  0
STYLE
  5
71
330
70
100
AcDbSymbolTableRecord
100
AcDbTextStyleTableRecord
  2
STANDARD
 70
     0
 40
0.0
 41
1.0
 50
0.0
 71
     0
 42
2.5
  3
arial.ttf
  4

  0
STYLE
  5
72
330
70
100
AcDbSymbolTableRecord
100
AcDbTextStyleTableRecord
  2
ANNOTATIVE
 70
     0
 40
0.0
 41
1.0
 50
0.0
 71
     0
 42
2.5
  3
arial.ttf
  4

  0
ENDTAB
  0
TABLE
  2
VIEW
  5
73
330
0
100
AcDbSymbolTable
 70
     0
  0
ENDTAB
  0
TABLE
  2
UCS
  5
74
330
0
100
AcDbSymbolTable
 70
     0
  0
ENDTAB
  0
TABLE
  2
APPID
  5
75
330
0
100
AcDbSymbolTable
 70
     2
  0
APPID
  5
76
330
75
100
AcDbSymbolTableRecord
100
AcDbRegAppTableRecord
  2
ACAD
 70
     0
  0
APPID
  5
77
330
75
100
AcDbSymbolTableRecord
100
AcDbRegAppTableRecord
  2
ACADANNOTATIVE
 70
     0
  0
ENDTAB
  0
TABLE
  2
DIMSTYLE
  5
78
330
0
100
AcDbSymbolTable
 70
     2
  0
DIMSTYLE
105
79
330
78
100
AcDbSymbolTableRecord
100
AcDbDimStyleTableRecord
  2
STANDARD
 70
     0
  3

  4

  5

  6

  7

 40
0.0
 41
2.5
 42
0.625
 43
3.75
 44
1.25
 45
0.0
 46
0.0
 47
0.0
 48
0.0
140
2.5
141
2.5
142
0.0
143
0.03937007874016
144
1.0
145
0.0
146
1.0
147
0.625
 71
     0
 72
     0
 73
     0
 74
     0
 75
     0
 76
     0
 77
     1
 78
     8
170
     0
171
     3
172
     1
173
     0
174
     0
175
     0
176
     0
177
     0
178
     0
270
     2
271
     2
272
     2
273
     2
274
     3
340
71
275
     0
280
     0
281
     0
282
     0
283
     0
284
     8
285
     0
286
     0
287
     3
288
     0
  0
ENDTAB
  0
TABLE
  2
BLOCK_RECORD
  5
A01
330
0
100
AcDbSymbolTable
  70
5
  0
BLOCK_RECORD
  5
A02
330
A01
100
AcDbSymbolTableRecord
100
AcDbBlockTableRecord
  2
*MODEL_SPACE
  0
BLOCK_RECORD
  5
A03
330
A01
100
AcDbSymbolTableRecord
100
AcDbBlockTableRecord
  2
*PAPER_SPACE
  0
ENDTAB
  0
ENDSEC
  0
SECTION
  2
BLOCKS
  0
BLOCK
  5
A04
330
A02
100
AcDbEntity
  8
0
100
AcDbBlockBegin
  2
*MODEL_SPACE
 70
   0
 10
0
 20
0
 30
0
  3
*MODEL_SPACE
  1
 
  0
ENDBLK
  5
A05
330
A02
100
AcDbEntity
  8
0
100
AcDbBlockEnd
  0
BLOCK
  5
A06
330
A03
100
AcDbEntity
 67
1
  8
0
100
AcDbBlockBegin
  2
*PAPER_SPACE
 70
   0
 10
0
 20
0
 30
0
  3
*PAPER_SPACE
  1
 
  0
ENDBLK
  5
A07
330
A03
100
AcDbEntity
 67
    1
  8
0
100
AcDbBlockEnd
  0
ENDSEC
  0
SECTION
  2
ENTITIES
  0
LINE
  5
A08
330
A02
100
AcDbEntity
  8
Sketch
100
AcDbLine
 10
5.043243000
 20
47.866558000
 30
0.000000000
 11
32.422459000
 21
4.967585000
 31
0.000000000
  0
LINE
  5
A09
330
A02
100
AcDbEntity
  8
Sketch
100
AcDbLine
 10
32.422459000
 20
4.967585000
 30
0.000000000
 11
62.876335000
 21
4.967585000
 31
0.000000000
  0
LINE
  5
A0A
330
A02
100
AcDbEntity
  8
Sketch
100
AcDbLine
 10
62.876335000
 20
4.967585000
 30
0.000000000
 11
47.356571000
 21
24.001259000
 31
0.000000000
  0
LINE
  5
A0B
330
A02
100
AcDbEntity
  8
Sketch
100
AcDbLine
 10
47.356571000
 20
24.001259000
 30
0.000000000
 11
37.107662000
 21
11.409752000
 31
0.000000000
  0
LINE
  5
A0C
330
A02
100
AcDbEntity
  8
Sketch
100
AcDbLine
 10
37.107662000
 20
11.409752000
 30
0.000000000
 11
11.485409000
 21
48.891449000
 31
0.000000000
  0
LINE
  5
A0D
330
A02
100
AcDbEntity
  8
Sketch
100
AcDbLine
 10
11.485409000
 20
48.891449000
 30
0.000000000
 11
26.712351000
 21
45.231129000
 31
0.000000000
  0
LINE
  5
A0E
330
A02
100
AcDbEntity
  8
Sketch
100
AcDbLine
 10
26.712351000
 20
45.231129000
 30
0.000000000
 11
23.637680000
 21
69.682076000
 31
0.000000000
  0
LINE
  5
A0F
330
A02
100
AcDbEntity
  8
Sketch
100
AcDbLine
 10
23.637680000
 20
69.682076000
 30
0.000000000
 11
5.043243000
 21
47.866558000
 31
0.000000000
  0
LINE
  5
A10
330
A02
100
AcDbEntity
  8
Sketch
100
AcDbLine
 10
50.138412000
 20
40.985153000
 30
0.000000000
 11
40.182335000
 21
60.604481000
 31
0.000000000
  0
LINE
  5
A11
330
A02
100
AcDbEntity
  8
Sketch
100
AcDbLine
 10
40.182335000
 20
60.604481000
 30
0.000000000
 11
53.505909000
 21
67.339470000
 31
0.000000000
  0
LINE
  5
A12
330
A02
100
AcDbEntity
  8
Sketch
100
AcDbLine
 10
53.505909000
 20
67.339470000
 30
0.000000000
 11
81.910011000
 21
60.458069000
 31
0.000000000
  0
LINE
  5
A13
330
A02
100
AcDbEntity
  8
Sketch
100
AcDbLine
 10
81.910011000
 20
60.458069000
 30
0.000000000
 11
81.910011000
 21
35.275051000
 31
0.000000000
  0
LINE
  5
A14
330
A02
100
AcDbEntity
  8
Sketch
100
AcDbLine
 10
81.910011000
 20
35.275051000
 30
0.000000000
 11
76.639145000
 21
12.727468000
 31
0.000000000
  0
LINE
  5
A15
330
A02
100
AcDbEntity
  8
Sketch
100
AcDbLine
 10
76.639145000
 20
12.727468000
 30
0.000000000
 11
69.904152000
 21
22.537130000
 31
0.000000000
  0
LINE
  5
A16
330
A02
100
AcDbEntity
  8
Sketch
100
AcDbLine
 10
69.904152000
 20
22.537130000
 30
0.000000000
 11
75.760674000
 21
37.617661000
 31
0.000000000
  0
LINE
  5
A17
330
A02
100
AcDbEntity
  8
Sketch
100
AcDbLine
 10
75.760674000
 20
37.617661000
 30
0.000000000
 11
76.639145000
 21
52.844597000
 31
0.000000000
  0
LINE
  5
A18
330
A02
100
AcDbEntity
  8
Sketch
100
AcDbLine
 10
76.639145000
 20
52.844597000
 30
0.000000000
 11
69.318497000
 21
57.676224000
 31
0.000000000
  0
LINE
  5
A19
330
A02
100
AcDbEntity
  8
Sketch
100
AcDbLine
 10
69.318497000
 20
57.676224000
 30
0.000000000
 11
49.699173000
 21
56.065685000
 31
0.000000000
  0
LINE
  5
A1A
330
A02
100
AcDbEntity
  8
Sketch
100
AcDbLine
 10
49.699173000
 20
56.065685000
 30
0.000000000
 11
59.069595000
 21
47.280907000
 31
0.000000000
  0
LINE
  5
A1B
330
A02
100
AcDbEntity
  8
Sketch
100
AcDbLine
 10
59.069595000
 20
47.280907000
 30
0.000000000
 11
50.138412000
 21
40.985153000
 31
0.000000000
  0
LINE
  5
A1C
330
A02
100
AcDbEntity
  8
Sketch
100
AcDbLine
 10
113.151753120
 20
72.726711000
 30
0.000000000
 11
127.995872000
 21
57.719868000
 31
0.000000000
  0
LINE
  5
A1D
330
A02
100
AcDbEntity
  8
Sketch
100
AcDbLine
 10
127.995872000
 20
57.719868000
 30
0.000000000
 11
111.276181035
 21
60.357722070
 31
0.000000000
  0
ARC
  5
A1E
330
A02
100
AcDbEntity
  8
Sketch
100
AcDbCircle
 10
102.816584566
 20
64.889958618
 30
0.000000000
 40
9.597183990
100
AcDbArc
 50
-28.180220791
 51
125.257315934
  0
LINE
  5
A1F
330
A02
100
AcDbEntity
  8
Sketch
100
AcDbLine
 10
82.284901196
 20
77.948636406
 30
0.000000000
 11
97.276615291
 21
72.726710558
 31
0.000000000
  0
ARC
  5
A20
330
A02
100
AcDbEntity
  8
Sketch
100
AcDbCircle
 10
97.276615291
 20
72.726710558
 30
0.000000000
 40
15.875137828
100
AcDbArc
 50
0.000001597
 51
160.795710035
  0
LINE
  5
A21
330
A02
100
AcDbEntity
  8
Sketch
100
AcDbLine
 10
35.117447000
 20
91.817596000
 30
0.000000000
 11
35.117447000
 21
75.703888000
 31
0.000000000
  0
LINE
  5
A22
330
A02
100
AcDbEntity
  8
Sketch
100
AcDbLine
 10
35.117447000
 20
75.703888000
 30
0.000000000
 11
68.283539000
 21
75.703888000
 31
0.000000000
  0
LINE
  5
A23
330
A02
100
AcDbEntity
  8
Sketch
100
AcDbLine
 10
68.283539000
 20
75.703888000
 30
0.000000000
 11
68.283539000
 21
91.817596000
 31
0.000000000
  0
LINE
  5
A24
330
A02
100
AcDbEntity
  8
Sketch
100
AcDbLine
 10
68.283539000
 20
91.817596000
 30
0.000000000
 11
35.117447000
 21
91.817596000
 31
0.000000000
  0
LINE
  5
A25
330
A02
100
AcDbEntity
  8
Sketch
100
AcDbLine
 10
100.198067000
 20
45.979561000
 30
0.000000000
 11
100.198067000
 21
7.181493000
 31
0.000000000
  0
LINE
  5
A26
330
A02
100
AcDbEntity
  8
Sketch
100
AcDbLine
 10
100.198067000
 20
7.181493000
 30
0.000000000
 11
129.922394000
 21
7.181493000
 31
0.000000000
  0
LINE
  5
A27
330
A02
100
AcDbEntity
  8
Sketch
100
AcDbLine
 10
129.922394000
 20
7.181493000
 30
0.000000000
 11
129.922394000
 21
45.979561000
 31
0.000000000
  0
LINE
  5
A28
330
A02
100
AcDbEntity
  8
Sketch
100
AcDbLine
 10
129.922394000
 20
45.979561000
 30
0.000000000
 11
100.198067000
 21
45.979561000
 31
0.000000000
  0
ENDSEC
  0
SECTION
  2
OBJECTS
  0
DICTIONARY
  5
F000
330
0
100
AcDbDictionary
  3
ACAD_GROUP
350
F001
  0
DICTIONARY
  5
F001
330
F000
100
AcDbDictionary
  0
ENDSEC
  0
EOF