999
FreeCAD v1.0 39319 (Git)
  0
SECTION
  2
HEADER
  9
$ACADVER
  1
AC1014
  9
$ACADMAINTVER
 70
     9
  9
$DWGCODEPAGE
  3
ANSI_1252
  9
$TEXTSTYLE
  7
STANDARD
  9
$DIMSTYLE
  2
STANDARD
  9
$DIMTXSTY
  7
STANDARD
  9
$CMLSTYLE
  2
STANDARD
  9
$LUNITS
 70
2
  9
$INSUNITS
 70
4
  9
$PEXTMAX
 10
50
 20
50
 30
50
  9
$PEXTMIN
 10
0
 20
0
 30
0
  9
$HANDSEED
  5
FFFF
  0
ENDSEC
  0
SECTION
  2
CLASSES
  0
CLASS
  1
ACDBDICTIONARYWDFLT
  2
AcDbDictionaryWithDefault
  3
ObjectDBX Classes
 90
        0
280
     0
281
     0
  0
CLASS
  1
XRECORD
  2
AcDbXrecord
  3
ObjectDBX Classes
 90
        0
280
     0
281
     0
  0
CLASS
  1
LWPOLYLINE
  2
AcDbPolyline
  3
ObjectDBX Classes
 90
        0
280
     0
281
     1
  0
ENDSEC
  0
SECTION
  2
TABLES
  0
TABLE
  2
VPORT
  5
20
330
0
100
AcDbSymbolTable
 70
     1
  0
VPORT
  5
21
330
20
100
AcDbSymbolTableRecord
100
AcDbViewportTableRecord
  2
*ACTIVE
 70
     0
  0
ENDTAB
  0
TABLE
  2
LTYPE
  5
22
330
0
100
AcDbSymbolTable
 70
     1
  0
LTYPE
  5
23
330
21
100
AcDbSymbolTableRecord
100
AcDbLinetypeTableRecord
  2
BYBLOCK
 70
     0
  3

 72
    65
 73
     0
 40
0.0
  0
LTYPE
  5
24
330
21
100
AcDbSymbolTableRecord
100
AcDbLinetypeTableRecord
  2
BYLAYER
 70
     0
  3

 72
    65
 73
     0
 40
0.0
  0
LTYPE
  5
25
330
21
100
AcDbSymbolTableRecord
100
AcDbLinetypeTableRecord
  2
CONTINUOUS
 70
     0
  3
Solid line
 72
    65
 73
     0
 40
0.0
  0
ENDTAB
  0
TABLE
  2
LAYER
  5
AF9
330
0
100
AcDbSymbolTable
 70
5
  0
LAYER
  5
AFA
330
AF9
100
AcDbSymbolTableRecord
100
AcDbLayerTableRecord
  2
0
 70
   0
 62
   7
  6
CONTINUOUS
  0
LAYER
  5
AFB
330
AF9
100
AcDbSymbolTableRecord
100
AcDbLayerTableRecord
  2
none
 70
    0
 62
    7
  6
CONTINUOUS
  0
LAYER
  5
AFC
330
AF9
100
AcDbSymbolTableRecord
100
AcDbLayerTableRecord
  2
Shape2DView001
 70
    0
 62
    7
  6
CONTINUOUS
  0
LAYER
  5
AFD
330
AF9
100
AcDbSymbolTableRecord
100
AcDbLayerTableRecord
  2
Shape2DView
 70
    0
 62
    7
  6
CONTINUOUS
  0
LAYER
  5
AFE
330
AF9
100
AcDbSymbolTableRecord
100
AcDbLayerTableRecord
  2
Shape2DView002
 70
    0
 62
    7
  6
CONTINUOUS
  0
ENDTAB
  0
TABLE
  2
STYLE
  5
70
330
0
100
AcDbSymbolTable
 70
     2
  0
STYLE
  5
71
330
70
100
AcDbSymbolTableRecord
100
AcDbTextStyleTableRecord
  2
STANDARD
 70
     0
 40
0.0
 41
1.0
 50
0.0
 71
     0
 42
2.5
  3
arial.ttf
  4

  0
STYLE
  5
72
330
70
100
AcDbSymbolTableRecord
100
AcDbTextStyleTableRecord
  2
ANNOTATIVE
 70
     0
 40
0.0
 41
1.0
 50
0.0
 71
     0
 42
2.5
  3
arial.ttf
  4

  0
ENDTAB
  0
TABLE
  2
VIEW
  5
73
330
0
100
AcDbSymbolTable
 70
     0
  0
ENDTAB
  0
TABLE
  2
UCS
  5
74
330
0
100
AcDbSymbolTable
 70
     0
  0
ENDTAB
  0
TABLE
  2
APPID
  5
75
330
0
100
AcDbSymbolTable
 70
     2
  0
APPID
  5
76
330
75
100
AcDbSymbolTableRecord
100
AcDbRegAppTableRecord
  2
ACAD
 70
     0
  0
APPID
  5
77
330
75
100
AcDbSymbolTableRecord
100
AcDbRegAppTableRecord
  2
ACADANNOTATIVE
 70
     0
  0
ENDTAB
  0
TABLE
  2
DIMSTYLE
  5
78
330
0
100
AcDbSymbolTable
 70
     2
  0
DIMSTYLE
105
79
330
78
100
AcDbSymbolTableRecord
100
AcDbDimStyleTableRecord
  2
STANDARD
 70
     0
  3

  4

  5

  6

  7

 40
0.0
 41
2.5
 42
0.625
 43
3.75
 44
1.25
 45
0.0
 46
0.0
 47
0.0
 48
0.0
140
2.5
141
2.5
142
0.0
143
0.03937007874016
144
1.0
145
0.0
146
1.0
147
0.625
 71
     0
 72
     0
 73
     0
 74
     0
 75
     0
 76
     0
 77
     1
 78
     8
170
     0
171
     3
172
     1
173
     0
174
     0
175
     0
176
     0
177
     0
178
     0
270
     2
271
     2
272
     2
273
     2
274
     3
340
71
275
     0
280
     0
281
     0
282
     0
283
     0
284
     8
285
     0
286
     0
287
     3
288
     0
  0
ENDTAB
  0
TABLE
  2
BLOCK_RECORD
  5
A01
330
0
100
AcDbSymbolTable
  70
5
  0
BLOCK_RECORD
  5
A02
330
A01
100
AcDbSymbolTableRecord
100
AcDbBlockTableRecord
  2
*MODEL_SPACE
  0
BLOCK_RECORD
  5
A03
330
A01
100
AcDbSymbolTableRecord
100
AcDbBlockTableRecord
  2
*PAPER_SPACE
  0
ENDTAB
  0
ENDSEC
  0
SECTION
  2
BLOCKS
  0
BLOCK
  5
A04
330
A02
100
AcDbEntity
  8
0
100
AcDbBlockBegin
  2
*MODEL_SPACE
 70
   0
 10
0
 20
0
 30
0
  3
*MODEL_SPACE
  1
 
  0
ENDBLK
  5
A05
330
A02
100
AcDbEntity
  8
0
100
AcDbBlockEnd
  0
BLOCK
  5
A06
330
A03
100
AcDbEntity
 67
1
  8
0
100
AcDbBlockBegin
  2
*PAPER_SPACE
 70
   0
 10
0
 20
0
 30
0
  3
*PAPER_SPACE
  1
 
  0
ENDBLK
  5
A07
330
A03
100
AcDbEntity
 67
    1
  8
0
100
AcDbBlockEnd
  0
ENDSEC
  0
SECTION
  2
ENTITIES
  0
LINE
  5
A08
330
A02
100
AcDbEntity
  8
Shape2DView001
100
AcDbLine
 10
26.810142397
 20
8.321333180
 30
0.000000000
 11
26.810142397
 21
8.977562656
 31
0.000000000
  0
SPLINE
  5
A09
330
A02
100
AcDbEntity
  8
Shape2DView001
100
AcDbSpline
210
0
220
0
230
1
 70
8
 71
3
 72
14
 73
10
 74
0
 40
0.000000000
 40
0.000000000
 40
0.000000000
 40
0.000000000
 40
0.851957851
 40
0.851957851
 40
0.851957851
 40
1.242438540
 40
1.242438540
 40
1.242438540
 40
1.601858414
 40
1.601858414
 40
1.601858414
 40
1.601858414
 10
26.810142397
 20
8.977562656
 30
0.000000000
 10
26.568592979
 20
9.129049152
 30
0.000000000
 10
26.313939131
 20
9.253577117
 30
0.000000000
 10
26.046180854
 20
9.351146553
 30
0.000000000
 10
25.923486291
 20
9.395295209
 30
0.000000000
 10
25.798315229
 20
9.430615898
 30
0.000000000
 10
25.670667670
 20
9.457108619
 30
0.000000000
 10
25.553363192
 20
9.479834836
 30
0.000000000
 10
25.433581399
 20
9.498000670
 30
0.000000000
 10
25.313806391
 20
9.490513038
 30
0.000000000
  0
LINE
  5
A0A
330
A02
100
AcDbEntity
  8
Shape2DView001
100
AcDbLine
 10
25.313806391
 20
9.490513038
 30
0.000000000
 11
24.521812412
 21
9.395316923
 31
0.000000000
  0
LINE
  5
A0B
330
A02
100
AcDbEntity
  8
Shape2DView001
100
AcDbLine
 10
24.521812412
 20
9.395316923
 30
0.000000000
 11
24.288705291
 21
10.491999704
 31
0.000000000
  0
LINE
  5
A0C
330
A02
100
AcDbEntity
  8
Shape2DView001
100
AcDbLine
 10
24.288705291
 20
10.491999704
 30
0.000000000
 11
25.050947541
 21
10.727166698
 31
0.000000000
  0
SPLINE
  5
A0D
330
A02
100
AcDbEntity
  8
Shape2DView001
100
AcDbSpline
210
0
220
0
230
1
 70
8
 71
3
 72
14
 73
10
 74
0
 40
0.000000000
 40
0.000000000
 40
0.000000000
 40
0.000000000
 40
0.359419874
 40
0.359419874
 40
0.359419874
 40
0.749900563
 40
0.749900563
 40
0.749900563
 40
1.601858414
 40
1.601858414
 40
1.601858414
 40
1.601858414
 10
25.050947541
 20
10.727166698
 30
0.000000000
 10
25.163412950
 20
10.769043290
 30
0.000000000
 10
25.265450352
 20
10.834358250
 30
0.000000000
 10
25.363369740
 20
10.902831712
 30
0.000000000
 10
25.469206028
 20
10.978952957
 30
0.000000000
 10
25.569189264
 20
11.062131669
 30
0.000000000
 10
25.663319449
 20
11.152367848
 30
0.000000000
 10
25.868243742
 20
11.350409065
 30
0.000000000
 10
26.050231521
 20
11.567748074
 30
0.000000000
 10
26.209282786
 20
11.804384873
 30
0.000000000
  0
SPLINE
  5
A0E
330
A02
100
AcDbEntity
  8
Shape2DView001
100
AcDbSpline
210
0
220
0
230
1
 70
8
 71
1
 72
4
 73
2
 74
0
 40
0.000000000
 40
0.000000000
 40
0.656229476
 40
0.656229476
 10
26.209282786
 20
11.804384873
 30
0.000000000
 10
25.942370211
 20
12.403880330
 30
0.000000000
  0
SPLINE
  5
A0F
330
A02
100
AcDbEntity
  8
Shape2DView001
100
AcDbSpline
210
0
220
0
230
1
 70
8
 71
3
 72
14
 73
10
 74
0
 40
0.000000000
 40
0.000000000
 40
0.000000000
 40
0.000000000
 40
0.851957851
 40
0.851957851
 40
0.851957851
 40
1.242438540
 40
1.242438540
 40
1.242438540
 40
1.601858414
 40
1.601858414
 40
1.601858414
 40
1.601858414
 10
25.942370211
 20
12.403880330
 30
0.000000000
 10
25.660088729
 20
12.444023131
 30
0.000000000
 10
25.376800777
 20
12.454208037
 30
0.000000000
 10
25.092506354
 20
12.434435050
 30
0.000000000
 10
24.962462417
 20
12.424862479
 30
0.000000000
 10
24.833746744
 20
12.406217876
 30
0.000000000
 10
24.706359336
 20
12.378501241
 30
0.000000000
 10
24.589952777
 20
12.351550644
 30
0.000000000
 10
24.473137954
 20
12.319426315
 30
0.000000000
 10
24.366763534
 20
12.263869138
 30
0.000000000
  0
SPLINE
  5
A10
330
A02
100
AcDbEntity
  8
Shape2DView001
100
AcDbSpline
210
0
220
0
230
1
 70
8
 71
1
 72
4
 73
2
 74
0
 40
0.000000000
 40
0.000000000
 40
0.797694656
 40
0.797694656
 10
24.366763534
 20
12.263869138
 30
0.000000000
 10
23.681960780
 20
11.854770187
 30
0.000000000
  0
SPLINE
  5
A11
330
A02
100
AcDbEntity
  8
Shape2DView001
100
AcDbSpline
210
0
220
0
230
1
 70
8
 71
1
 72
4
 73
2
 74
0
 40
0.000000000
 40
0.000000000
 40
1.121183327
 40
1.121183327
 10
23.681960780
 20
11.854770187
 30
0.000000000
 10
23.022945755
 20
12.761826552
 30
0.000000000
  0
SPLINE
  5
A12
330
A02
100
AcDbEntity
  8
Shape2DView001
100
AcDbSpline
210
0
220
0
230
1
 70
8
 71
1
 72
4
 73
2
 74
0
 40
0.000000000
 40
0.000000000
 40
0.797694656
 40
0.797694656
 10
23.022945755
 20
12.761826552
 30
0.000000000
 10
23.623637668
 20
13.286694146
 30
0.000000000
  0
SPLINE
  5
A13
330
A02
100
AcDbEntity
  8
Shape2DView001
100
AcDbSpline
210
0
220
0
230
1
 70
8
 71
3
 72
14
 73
10
 74
0
 40
0.000000000
 40
0.000000000
 40
0.000000000
 40
0.000000000
 40
0.359419874
 40
0.359419874
 40
0.359419874
 40
0.749900563
 40
0.749900563
 40
0.749900563
 40
1.601858414
 40
1.601858414
 40
1.601858414
 40
1.601858414
 10
23.623637668
 20
13.286694146
 30
0.000000000
 10
23.709347186
 20
13.370694119
 30
0.000000000
 10
23.775997004
 20
13.471864654
 30
0.000000000
 10
23.837600150
 20
13.574245678
 30
0.000000000
 10
23.903325110
 20
13.686833391
 30
0.000000000
 10
23.960832511
 20
13.803487772
 30
0.000000000
 10
24.010122354
 20
13.924208819
 30
0.000000000
 10
24.116779391
 20
14.188478692
 30
0.000000000
 10
24.194633761
 20
14.461048855
 30
0.000000000
 10
24.243685464
 20
14.741919305
 30
0.000000000
  0
SPLINE
  5
A14
330
A02
100
AcDbEntity
  8
Shape2DView001
100
AcDbSpline
210
0
220
0
230
1
 70
8
 71
1
 72
4
 73
2
 74
0
 40
0.000000000
 40
0.000000000
 40
0.656229476
 40
0.656229476
 10
24.243685464
 20
14.741919305
 30
0.000000000
 10
23.756011924
 20
15.181022533
 30
0.000000000
  0
SPLINE
  5
A15
330
A02
100
AcDbEntity
  8
Shape2DView001
100
AcDbSpline
210
0
220
0
230
1
 70
8
 71
3
 72
14
 73
10
 74
0
 40
0.000000000
 40
0.000000000
 40
0.000000000
 40
0.000000000
 40
0.851957851
 40
0.851957851
 40
0.851957851
 40
1.242438540
 40
1.242438540
 40
1.242438540
 40
1.601858414
 40
1.601858414
 40
1.601858414
 40
1.601858414
 10
23.756011924
 20
15.181022533
 30
0.000000000
 10
23.481807411
 20
15.102880583
 30
0.000000000
 10
23.218868414
 20
14.996961368
 30
0.000000000
 10
22.967194934
 20
14.863264885
 30
0.000000000
 10
22.852287401
 20
14.801626272
 30
0.000000000
 10
22.742283226
 20
14.732240199
 30
0.000000000
 10
22.637182409
 20
14.655106667
 30
0.000000000
 10
22.541801521
 20
14.583139258
 30
0.000000000
 10
22.448152012
 20
14.506279355
 30
0.000000000
 10
22.373571284
 20
14.412258973
 30
0.000000000
  0
SPLINE
  5
A16
330
A02
100
AcDbEntity
  8
Shape2DView001
100
AcDbSpline
210
0
220
0
230
1
 70
8
 71
1
 72
4
 73
2
 74
0
 40
0.000000000
 40
0.000000000
 40
0.797694656
 40
0.797694656
 10
22.373571284
 20
14.412258973
 30
0.000000000
 10
21.914368372
 20
13.759994111
 30
0.000000000
  0
SPLINE
  5
A17
330
A02
100
AcDbEntity
  8
Shape2DView001
100
AcDbSpline
210
0
220
0
230
1
 70
8
 71
1
 72
4
 73
2
 74
0
 40
0.000000000
 40
0.000000000
 40
1.121183327
 40
1.121183327
 10
21.914368372
 20
13.759994111
 30
0.000000000
 10
20.943395129
 20
14.320585775
 30
0.000000000
  0
SPLINE
  5
A18
330
A02
100
AcDbEntity
  8
Shape2DView001
100
AcDbSpline
210
0
220
0
230
1
 70
8
 71
1
 72
4
 73
2
 74
0
 40
0.000000000
 40
0.000000000
 40
0.797694656
 40
0.797694656
 10
20.943395129
 20
14.320585775
 30
0.000000000
 10
21.278671614
 20
15.044399593
 30
0.000000000
  0
SPLINE
  5
A19
330
A02
100
AcDbEntity
  8
Shape2DView001
100
AcDbSpline
210
0
220
0
230
1
 70
8
 71
3
 72
14
 73
10
 74
0
 40
0.000000000
 40
0.000000000
 40
0.000000000
 40
0.000000000
 40
0.359419874
 40
0.359419874
 40
0.359419874
 40
0.749900563
 40
0.749900563
 40
0.749900563
 40
1.601858414
 40
1.601858414
 40
1.601858414
 40
1.601858414
 10
21.278671614
 20
15.044399593
 30
0.000000000
 10
21.322805288
 20
15.155998589
 30
0.000000000
 10
21.342543163
 20
15.275531394
 30
0.000000000
 10
21.357178323
 20
15.394117370
 30
0.000000000
 10
21.371427513
 20
15.523704114
 30
0.000000000
 10
21.376515527
 20
15.653663561
 30
0.000000000
 10
21.372442366
 20
15.783995710
 30
0.000000000
 10
21.362390176
 20
16.068799578
 30
0.000000000
 10
21.322649409
 20
16.349471037
 30
0.000000000
 10
21.253220065
 20
16.626010086
 30
0.000000000
  0
SPLINE
  5
A1A
330
A02
100
AcDbEntity
  8
Shape2DView001
100
AcDbSpline
210
0
220
0
230
1
 70
8
 71
1
 72
4
 73
2
 74
0
 40
0.000000000
 40
0.000000000
 40
0.656229476
 40
0.656229476
 10
21.253220065
 20
16.626010086
 30
0.000000000
 10
20.629108746
 20
16.828796147
 30
0.000000000
  0
SPLINE
  5
A1B
330
A02
100
AcDbEntity
  8
Shape2DView001
100
AcDbSpline
210
0
220
0
230
1
 70
8
 71
3
 72
14
 73
10
 74
0
 40
0.000000000
 40
0.000000000
 40
0.000000000
 40
0.000000000
 40
0.851957851
 40
0.851957851
 40
0.851957851
 40
1.242438540
 40
1.242438540
 40
1.242438540
 40
1.601858414
 40
1.601858414
 40
1.601858414
 40
1.601858414
 10
20.629108746
 20
16.828796147
 30
0.000000000
 10
20.410393652
 20
16.645880900
 30
0.000000000
 10
20.213268152
 20
16.442171957
 30
0.000000000
 10
20.037732246
 20
16.217669316
 30
0.000000000
 10
19.957829674
 20
16.114622537
 30
0.000000000
 10
19.885557718
 20
16.006492477
 30
0.000000000
 10
19.820916378
 20
15.893279135
 30
0.000000000
 10
19.763053383
 20
15.788738734
 30
0.000000000
 10
19.708762039
 20
15.680433031
 30
0.000000000
 10
19.678870688
 20
15.564206424
 30
0.000000000
  0
SPLINE
  5
A1C
330
A02
100
AcDbEntity
  8
Shape2DView001
100
AcDbSpline
210
0
220
0
230
1
 70
8
 71
1
 72
4
 73
2
 74
0
 40
0.000000000
 40
0.000000000
 40
0.797694656
 40
0.797694656
 10
19.678870688
 20
15.564206424
 30
0.000000000
 10
19.524667974
 20
14.781558171
 30
0.000000000
  0
SPLINE
  5
A1D
330
A02
100
AcDbEntity
  8
Shape2DView001
100
AcDbSpline
210
0
220
0
230
1
 70
8
 71
1
 72
4
 73
2
 74
0
 40
0.000000000
 40
0.000000000
 40
1.121183327
 40
1.121183327
 10
19.524667974
 20
14.781558171
 30
0.000000000
 10
18.409626607
 20
14.898753741
 30
0.000000000
  0
SPLINE
  5
A1E
330
A02
100
AcDbEntity
  8
Shape2DView001
100
AcDbSpline
210
0
220
0
230
1
 70
8
 71
1
 72
4
 73
2
 74
0
 40
0.000000000
 40
0.000000000
 40
0.797694656
 40
0.797694656
 10
18.409626607
 20
14.898753741
 30
0.000000000
 10
18.421515314
 20
15.696359799
 30
0.000000000
  0
SPLINE
  5
A1F
330
A02
100
AcDbEntity
  8
Shape2DView001
100
AcDbSpline
210
0
220
0
230
1
 70
8
 71
3
 72
14
 73
10
 74
0
 40
0.000000000
 40
0.000000000
 40
0.000000000
 40
0.000000000
 40
0.359419874
 40
0.359419874
 40
0.359419874
 40
0.749900563
 40
0.749900563
 40
0.749900563
 40
1.601858414
 40
1.601858414
 40
1.601858414
 40
1.601858414
 10
18.421515314
 20
15.696359799
 30
0.000000000
 10
18.416442031
 20
15.816261337
 30
0.000000000
 10
18.385855104
 20
15.933488106
 30
0.000000000
 10
18.350991727
 20
16.047774441
 30
0.000000000
 10
18.311301332
 20
16.171953490
 30
0.000000000
 10
18.263090196
 20
16.292746834
 30
0.000000000
 10
18.206358316
 20
16.410154473
 30
0.000000000
 10
18.081335015
 20
16.666247159
 30
0.000000000
 10
17.930870651
 20
16.906489269
 30
0.000000000
 10
17.754965225
 20
17.130880803
 30
0.000000000
  0
SPLINE
  5
A20
330
A02
100
AcDbEntity
  8
Shape2DView001
100
AcDbSpline
210
0
220
0
230
1
 70
8
 71
1
 72
4
 73
2
 74
0
 40
0.000000000
 40
0.000000000
 40
0.656229476
 40
0.656229476
 10
17.754965225
 20
17.130880803
 30
0.000000000
 10
17.102330642
 20
17.062286145
 30
0.000000000
  0
SPLINE
  5
A21
330
A02
100
AcDbEntity
  8
Shape2DView001
100
AcDbSpline
210
0
220
0
230
1
 70
8
 71
3
 72
14
 73
10
 74
0
 40
0.000000000
 40
0.000000000
 40
0.000000000
 40
0.000000000
 40
0.851957851
 40
0.851957851
 40
0.851957851
 40
1.242438540
 40
1.242438540
 40
1.242438540
 40
1.601858414
 40
1.601858414
 40
1.601858414
 40
1.601858414
 10
17.102330642
 20
17.062286145
 30
0.000000000
 10
16.976922795
 20
16.806225309
 30
0.000000000
 10
16.879695582
 20
16.539949765
 30
0.000000000
 10
16.810649003
 20
16.263459513
 30
0.000000000
 10
16.779567272
 20
16.136822292
 30
0.000000000
 10
16.757524013
 20
16.008644913
 30
0.000000000
 10
16.744519225
 20
15.878927377
 30
0.000000000
 10
16.734179161
 20
15.759889969
 30
0.000000000
 10
16.728633448
 20
15.638865507
 30
0.000000000
 10
16.748599959
 20
15.520529310
 30
0.000000000
  0
SPLINE
  5
A22
330
A02
100
AcDbEntity
  8
Shape2DView001
100
AcDbSpline
210
0
220
0
230
1
 70
8
 71
1
 72
4
 73
2
 74
0
 40
0.000000000
 40
0.000000000
 40
0.797694656
 40
0.797694656
 10
16.748599959
 20
15.520529310
 30
0.000000000
 10
16.926060494
 20
14.742824659
 30
0.000000000
  0
SPLINE
  5
A23
330
A02
100
AcDbEntity
  8
Shape2DView001
100
AcDbSpline
210
0
220
0
230
1
 70
8
 71
1
 72
4
 73
2
 74
0
 40
0.000000000
 40
0.000000000
 40
1.121183327
 40
1.121183327
 10
16.926060494
 20
14.742824659
 30
0.000000000
 10
15.859751785
 20
14.396359958
 30
0.000000000
  0
SPLINE
  5
A24
330
A02
100
AcDbEntity
  8
Shape2DView001
100
AcDbSpline
210
0
220
0
230
1
 70
8
 71
1
 72
4
 73
2
 74
0
 40
0.000000000
 40
0.000000000
 40
0.797694656
 40
0.797694656
 10
15.859751785
 20
14.396359958
 30
0.000000000
 10
15.546197049
 20
15.129844921
 30
0.000000000
  0
SPLINE
  5
A25
330
A02
100
AcDbEntity
  8
Shape2DView001
100
AcDbSpline
210
0
220
0
230
1
 70
8
 71
3
 72
14
 73
10
 74
0
 40
0.000000000
 40
0.000000000
 40
0.000000000
 40
0.000000000
 40
0.359419874
 40
0.359419874
 40
0.359419874
 40
0.749900563
 40
0.749900563
 40
0.749900563
 40
1.601858414
 40
1.601858414
 40
1.601858414
 40
1.601858414
 10
15.546197049
 20
15.129844921
 30
0.000000000
 10
15.492794025
 20
15.237316937
 30
0.000000000
 10
15.417171055
 20
15.331968095
 30
0.000000000
 10
15.338837334
 20
15.422193644
 30
0.000000000
 10
15.252070185
 20
15.519493313
 30
0.000000000
 10
15.158896041
 20
15.610234288
 30
0.000000000
 10
15.059314901
 20
15.694416569
 30
0.000000000
 10
14.840938153
 20
15.877517321
 30
0.000000000
 10
14.605766847
 20
16.035790039
 30
0.000000000
 10
14.353800985
 20
16.169234723
 30
0.000000000
  0
SPLINE
  5
A26
330
A02
100
AcDbEntity
  8
Shape2DView001
100
AcDbSpline
210
0
220
0
230
1
 70
8
 71
1
 72
4
 73
2
 74
0
 40
0.000000000
 40
0.000000000
 40
0.656229476
 40
0.656229476
 10
14.353800985
 20
16.169234723
 30
0.000000000
 10
13.785489588
 20
15.841119985
 30
0.000000000
  0
SPLINE
  5
A27
330
A02
100
AcDbEntity
  8
Shape2DView001
100
AcDbSpline
210
0
220
0
230
1
 70
8
 71
3
 72
14
 73
10
 74
0
 40
0.000000000
 40
0.000000000
 40
0.000000000
 40
0.000000000
 40
0.851957851
 40
0.851957851
 40
0.851957851
 40
1.242438540
 40
1.242438540
 40
1.242438540
 40
1.601858414
 40
1.601858414
 40
1.601858414
 40
1.601858414
 10
13.785489588
 20
15.841119985
 30
0.000000000
 10
13.775073143
 20
15.556188805
 30
0.000000000
 10
13.794555685
 20
15.273388121
 30
0.000000000
 10
13.843937213
 20
14.992717933
 30
0.000000000
 10
13.867050638
 20
14.864386996
 30
0.000000000
 10
13.899047555
 20
14.738325333
 30
0.000000000
 10
13.939927965
 20
14.614532944
 30
0.000000000
 10
13.978898722
 20
14.501581177
 30
0.000000000
 10
14.023057545
 20
14.388764185
 30
0.000000000
 10
14.089429529
 20
14.288779801
 30
0.000000000
  0
SPLINE
  5
A28
330
A02
100
AcDbEntity
  8
Shape2DView001
100
AcDbSpline
210
0
220
0
230
1
 70
8
 71
1
 72
4
 73
2
 74
0
 40
0.000000000
 40
0.000000000
 40
0.797694656
 40
0.797694656
 10
14.089429529
 20
14.288779801
 30
0.000000000
 10
14.567868772
 20
13.650490953
 30
0.000000000
  0
SPLINE
  5
A29
330
A02
100
AcDbEntity
  8
Shape2DView001
100
AcDbSpline
210
0
220
0
230
1
 70
8
 71
1
 72
4
 73
2
 74
0
 40
0.000000000
 40
0.000000000
 40
1.121183327
 40
1.121183327
 10
14.567868772
 20
13.650490953
 30
0.000000000
 10
13.734667185
 20
12.900272873
 30
0.000000000
  0
SPLINE
  5
A2A
330
A02
100
AcDbEntity
  8
Shape2DView001
100
AcDbSpline
210
0
220
0
230
1
 70
8
 71
1
 72
4
 73
2
 74
0
 40
0.000000000
 40
0.000000000
 40
0.797694656
 40
0.797694656
 10
13.734667185
 20
12.900272873
 30
0.000000000
 10
13.149885468
 20
13.442810529
 30
0.000000000
  0
SPLINE
  5
A2B
330
A02
100
AcDbEntity
  8
Shape2DView001
100
AcDbSpline
210
0
220
0
230
1
 70
8
 71
3
 72
14
 73
10
 74
0
 40
0.000000000
 40
0.000000000
 40
0.000000000
 40
0.000000000
 40
0.359419874
 40
0.359419874
 40
0.359419874
 40
0.749900563
 40
0.749900563
 40
0.749900563
 40
1.601858414
 40
1.601858414
 40
1.601858414
 40
1.601858414
 10
13.149885468
 20
13.442810529
 30
0.000000000
 10
13.057386571
 20
13.519270134
 30
0.000000000
 10
12.949803456
 20
13.574979637
 30
0.000000000
 10
12.841544004
 20
13.625543583
 30
0.000000000
 10
12.722702929
 20
13.679139874
 30
0.000000000
 10
12.600676433
 20
13.724138541
 30
0.000000000
 10
12.475464517
 20
13.760539583
 30
0.000000000
 10
12.201493645
 20
13.838988618
 30
0.000000000
 10
11.922278653
 20
13.887925153
 30
0.000000000
 10
11.637819541
 20
13.907349189
 30
0.000000000
  0
SPLINE
  5
A2C
330
A02
100
AcDbEntity
  8
Shape2DView001
100
AcDbSpline
210
0
220
0
230
1
 70
8
 71
1
 72
4
 73
2
 74
0
 40
0.000000000
 40
0.000000000
 40
0.656229476
 40
0.656229476
 10
11.637819541
 20
13.907349189
 30
0.000000000
 10
11.252097533
 20
13.376448391
 30
0.000000000
  0
SPLINE
  5
A2D
330
A02
100
AcDbEntity
  8
Shape2DView001
100
AcDbSpline
210
0
220
0
230
1
 70
8
 71
3
 72
14
 73
10
 74
0
 40
0.000000000
 40
0.000000000
 40
0.000000000
 40
0.000000000
 40
0.851957851
 40
0.851957851
 40
0.851957851
 40
1.242438540
 40
1.242438540
 40
1.242438540
 40
1.601858414
 40
1.601858414
 40
1.601858414
 40
1.601858414
 10
11.252097533
 20
13.376448391
 30
0.000000000
 10
11.358473589
 20
13.111914056
 30
0.000000000
 10
11.491297177
 20
12.861487039
 30
0.000000000
 10
11.650568298
 20
12.625167341
 30
0.000000000
 10
11.723880357
 20
12.517332273
 30
0.000000000
 10
11.804384893
 20
12.415183532
 30
0.000000000
 10
11.892081907
 20
12.318721118
 30
0.000000000
 10
11.973625088
 20
12.231385379
 30
0.000000000
 10
12.059852984
 20
12.146282940
 30
0.000000000
 10
12.161154121
 20
12.081938578
 30
0.000000000
  0
SPLINE
  5
A2E
330
A02
100
AcDbEntity
  8
Shape2DView001
100
AcDbSpline
210
0
220
0
230
1
 70
8
 71
1
 72
4
 73
2
 74
0
 40
0.000000000
 40
0.000000000
 40
0.797694656
 40
0.797694656
 10
12.161154121
 20
12.081938578
 30
0.000000000
 10
12.857845582
 20
11.693431472
 30
0.000000000
  0
SPLINE
  5
A2F
330
A02
100
AcDbEntity
  8
Shape2DView001
100
AcDbSpline
210
0
220
0
230
1
 70
8
 71
1
 72
4
 73
2
 74
0
 40
0.000000000
 40
0.000000000
 40
1.121183327
 40
1.121183327
 10
12.857845582
 20
11.693431472
 30
0.000000000
 10
12.401819239
 20
10.669179537
 30
0.000000000
  0
SPLINE
  5
A30
330
A02
100
AcDbEntity
  8
Shape2DView001
100
AcDbSpline
210
0
220
0
230
1
 70
8
 71
1
 72
4
 73
2
 74
0
 40
0.000000000
 40
0.000000000
 40
0.797694656
 40
0.797694656
 10
12.401819239
 20
10.669179537
 30
0.000000000
 10
11.646924614
 20
10.926960196
 30
0.000000000
  0
SPLINE
  5
A31
330
A02
100
AcDbEntity
  8
Shape2DView001
100
AcDbSpline
210
0
220
0
230
1
 70
8
 71
3
 72
14
 73
10
 74
0
 40
0.000000000
 40
0.000000000
 40
0.000000000
 40
0.000000000
 40
0.359419874
 40
0.359419874
 40
0.359419874
 40
0.749900563
 40
0.749900563
 40
0.749900563
 40
1.601858414
 40
1.601858414
 40
1.601858414
 40
1.601858414
 10
11.646924614
 20
10.926960196
 30
0.000000000
 10
11.531323743
 20
10.959186830
 30
0.000000000
 10
11.410382581
 20
10.966321998
 30
0.000000000
 10
11.290916441
 20
10.968481375
 30
0.000000000
 10
11.160550141
 20
10.969107003
 30
0.000000000
 10
11.030770783
 20
10.960582684
 30
0.000000000
 10
10.901578369
 20
10.942908416
 30
0.000000000
 10
10.619385426
 20
10.903141183
 30
0.000000000
 10
10.344405556
 20
10.834279964
 30
0.000000000
 10
10.076638759
 20
10.736324759
 30
0.000000000
  0
SPLINE
  5
A32
330
A02
100
AcDbEntity
  8
Shape2DView001
100
AcDbSpline
210
0
220
0
230
1
 70
8
 71
1
 72
4
 73
2
 74
0
 40
0.000000000
 40
0.000000000
 40
0.656229476
 40
0.656229476
 10
10.076638759
 20
10.736324759
 30
0.000000000
 10
9.940200979
 20
10.094435471
 30
0.000000000
  0
SPLINE
  5
A33
330
A02
100
AcDbEntity
  8
Shape2DView001
100
AcDbSpline
210
0
220
0
230
1
 70
8
 71
3
 72
14
 73
10
 74
0
 40
0.000000000
 40
0.000000000
 40
0.000000000
 40
0.000000000
 40
0.851957851
 40
0.851957851
 40
0.851957851
 40
1.242438540
 40
1.242438540
 40
1.242438540
 40
1.601858414
 40
1.601858414
 40
1.601858414
 40
1.601858414
 10
9.940200979
 20
10.094435471
 30
0.000000000
 10
10.144976149
 20
9.896038371
 30
0.000000000
 10
10.368174379
 20
9.721286128
 30
0.000000000
 10
10.609795669
 20
9.570178743
 30
0.000000000
 10
10.720630041
 20
9.501485207
 30
0.000000000
 10
10.835722230
 20
9.440911833
 30
0.000000000
 10
10.955072237
 20
9.388458622
 30
0.000000000
 10
11.065088285
 20
9.341840054
 30
0.000000000
 10
11.178475668
 20
9.299167152
 30
0.000000000
 10
11.297190071
 20
9.281588537
 30
0.000000000
  0
SPLINE
  5
A34
330
A02
100
AcDbEntity
  8
Shape2DView001
100
AcDbSpline
210
0
220
0
230
1
 70
8
 71
1
 72
4
 73
2
 74
0
 40
0.000000000
 40
0.000000000
 40
0.797694656
 40
0.797694656
 10
11.297190071
 20
9.281588537
 30
0.000000000
 10
12.091669468
 20
9.210039581
 30
0.000000000
  0
SPLINE
  5
A35
330
A02
100
AcDbEntity
  8
Shape2DView001
100
AcDbSpline
210
0
220
0
230
1
 70
8
 71
1
 72
4
 73
2
 74
0
 40
0.000000000
 40
0.000000000
 40
1.121183327
 40
1.121183327
 10
12.091669468
 20
9.210039581
 30
0.000000000
 10
12.091669468
 20
8.088856254
 30
0.000000000
  0
SPLINE
  5
A36
330
A02
100
AcDbEntity
  8
Shape2DView001
100
AcDbSpline
210
0
220
0
230
1
 70
8
 71
1
 72
4
 73
2
 74
0
 40
0.000000000
 40
0.000000000
 40
0.797694656
 40
0.797694656
 10
12.091669468
 20
8.088856254
 30
0.000000000
 10
11.297190071
 20
8.017307299
 30
0.000000000
  0
SPLINE
  5
A37
330
A02
100
AcDbEntity
  8
Shape2DView001
100
AcDbSpline
210
0
220
0
230
1
 70
8
 71
3
 72
14
 73
10
 74
0
 40
0.000000000
 40
0.000000000
 40
0.000000000
 40
0.000000000
 40
0.359419874
 40
0.359419874
 40
0.359419874
 40
0.749900563
 40
0.749900563
 40
0.749900563
 40
1.601858414
 40
1.601858414
 40
1.601858414
 40
1.601858414
 10
11.297190071
 20
8.017307299
 30
0.000000000
 10
11.178475668
 20
7.999728684
 30
0.000000000
 10
11.065088285
 20
7.957055782
 30
0.000000000
 10
10.955072237
 20
7.910437214
 30
0.000000000
 10
10.835722230
 20
7.857984003
 30
0.000000000
 10
10.720630041
 20
7.797410629
 30
0.000000000
 10
10.609795669
 20
7.728717093
 30
0.000000000
 10
10.368174379
 20
7.577609707
 30
0.000000000
 10
10.144976149
 20
7.402857465
 30
0.000000000
 10
9.940200979
 20
7.204460365
 30
0.000000000
  0
SPLINE
  5
A38
330
A02
100
AcDbEntity
  8
Shape2DView001
100
AcDbSpline
210
0
220
0
230
1
 70
8
 71
1
 72
4
 73
2
 74
0
 40
0.000000000
 40
0.000000000
 40
0.656229476
 40
0.656229476
 10
9.940200979
 20
7.204460365
 30
0.000000000
 10
10.076638759
 20
6.562571077
 30
0.000000000
  0
SPLINE
  5
A39
330
A02
100
AcDbEntity
  8
Shape2DView001
100
AcDbSpline
210
0
220
0
230
1
 70
8
 71
3
 72
14
 73
10
 74
0
 40
0.000000000
 40
0.000000000
 40
0.000000000
 40
0.000000000
 40
0.851957851
 40
0.851957851
 40
0.851957851
 40
1.242438540
 40
1.242438540
 40
1.242438540
 40
1.601858414
 40
1.601858414
 40
1.601858414
 40
1.601858414
 10
10.076638759
 20
6.562571077
 30
0.000000000
 10
10.344405556
 20
6.464615872
 30
0.000000000
 10
10.619385426
 20
6.395754653
 30
0.000000000
 10
10.901578369
 20
6.355987420
 30
0.000000000
 10
11.030770783
 20
6.338313152
 30
0.000000000
 10
11.160550141
 20
6.329788833
 30
0.000000000
 10
11.290916441
 20
6.330414461
 30
0.000000000
 10
11.410382581
 20
6.332573838
 30
0.000000000
 10
11.531323743
 20
6.339709006
 30
0.000000000
 10
11.646924614
 20
6.371935640
 30
0.000000000
  0
SPLINE
  5
A3A
330
A02
100
AcDbEntity
  8
Shape2DView001
100
AcDbSpline
210
0
220
0
230
1
 70
8
 71
1
 72
4
 73
2
 74
0
 40
0.000000000
 40
0.000000000
 40
0.797694656
 40
0.797694656
 10
11.646924614
 20
6.371935640
 30
0.000000000
 10
12.401819239
 20
6.629716299
 30
0.000000000
  0
SPLINE
  5
A3B
330
A02
100
AcDbEntity
  8
Shape2DView001
100
AcDbSpline
210
0
220
0
230
1
 70
8
 71
1
 72
4
 73
2
 74
0
 40
0.000000000
 40
0.000000000
 40
1.121183327
 40
1.121183327
 10
12.401819239
 20
6.629716299
 30
0.000000000
 10
12.857845582
 20
5.605464364
 30
0.000000000
  0
SPLINE
  5
A3C
330
A02
100
AcDbEntity
  8
Shape2DView001
100
AcDbSpline
210
0
220
0
230
1
 70
8
 71
1
 72
4
 73
2
 74
0
 40
0.000000000
 40
0.000000000
 40
0.797694656
 40
0.797694656
 10
12.857845582
 20
5.605464364
 30
0.000000000
 10
12.161154121
 20
5.216957257
 30
0.000000000
  0
SPLINE
  5
A3D
330
A02
100
AcDbEntity
  8
Shape2DView001
100
AcDbSpline
210
0
220
0
230
1
 70
8
 71
3
 72
14
 73
10
 74
0
 40
0.000000000
 40
0.000000000
 40
0.000000000
 40
0.000000000
 40
0.359419874
 40
0.359419874
 40
0.359419874
 40
0.749900563
 40
0.749900563
 40
0.749900563
 40
1.601858414
 40
1.601858414
 40
1.601858414
 40
1.601858414
 10
12.161154121
 20
5.216957257
 30
0.000000000
 10
12.059852984
 20
5.152612896
 30
0.000000000
 10
11.973625088
 20
5.067510457
 30
0.000000000
 10
11.892081907
 20
4.980174718
 30
0.000000000
 10
11.804384893
 20
4.883712304
 30
0.000000000
 10
11.723880357
 20
4.781563563
 30
0.000000000
 10
11.650568298
 20
4.673728495
 30
0.000000000
 10
11.491297177
 20
4.437408796
 30
0.000000000
 10
11.358473589
 20
4.186981780
 30
0.000000000
 10
11.252097533
 20
3.922447445
 30
0.000000000
  0
SPLINE
  5
A3E
330
A02
100
AcDbEntity
  8
Shape2DView001
100
AcDbSpline
210
0
220
0
230
1
 70
8
 71
1
 72
4
 73
2
 74
0
 40
0.000000000
 40
0.000000000
 40
0.656229476
 40
0.656229476
 10
11.252097533
 20
3.922447445
 30
0.000000000
 10
11.637819541
 20
3.391546646
 30
0.000000000
  0
SPLINE
  5
A3F
330
A02
100
AcDbEntity
  8
Shape2DView001
100
AcDbSpline
210
0
220
0
230
1
 70
8
 71
3
 72
14
 73
10
 74
0
 40
0.000000000
 40
0.000000000
 40
0.000000000
 40
0.000000000
 40
0.851957851
 40
0.851957851
 40
0.851957851
 40
1.242438540
 40
1.242438540
 40
1.242438540
 40
1.601858414
 40
1.601858414
 40
1.601858414
 40
1.601858414
 10
11.637819541
 20
3.391546646
 30
0.000000000
 10
11.922278653
 20
3.410970683
 30
0.000000000
 10
12.201493645
 20
3.459907218
 30
0.000000000
 10
12.475464517
 20
3.538356253
 30
0.000000000
 10
12.600676433
 20
3.574757295
 30
0.000000000
 10
12.722702929
 20
3.619755961
 30
0.000000000
 10
12.841544004
 20
3.673352253
 30
0.000000000
 10
12.949803456
 20
3.723916199
 30
0.000000000
 10
13.057386571
 20
3.779625702
 30
0.000000000
 10
13.149885468
 20
3.856085307
 30
0.000000000
  0
SPLINE
  5
A40
330
A02
100
AcDbEntity
  8
Shape2DView001
100
AcDbSpline
210
0
220
0
230
1
 70
8
 71
1
 72
4
 73
2
 74
0
 40
0.000000000
 40
0.000000000
 40
0.797694656
 40
0.797694656
 10
13.149885468
 20
3.856085307
 30
0.000000000
 10
13.734667185
 20
4.398622963
 30
0.000000000
  0
SPLINE
  5
A41
330
A02
100
AcDbEntity
  8
Shape2DView001
100
AcDbSpline
210
0
220
0
230
1
 70
8
 71
1
 72
4
 73
2
 74
0
 40
0.000000000
 40
0.000000000
 40
1.121183327
 40
1.121183327
 10
13.734667185
 20
4.398622963
 30
0.000000000
 10
14.567868772
 20
3.648404883
 30
0.000000000
  0
SPLINE
  5
A42
330
A02
100
AcDbEntity
  8
Shape2DView001
100
AcDbSpline
210
0
220
0
230
1
 70
8
 71
1
 72
4
 73
2
 74
0
 40
0.000000000
 40
0.000000000
 40
0.797694656
 40
0.797694656
 10
14.567868772
 20
3.648404883
 30
0.000000000
 10
14.089429529
 20
3.010116035
 30
0.000000000
  0
SPLINE
  5
A43
330
A02
100
AcDbEntity
  8
Shape2DView001
100
AcDbSpline
210
0
220
0
230
1
 70
8
 71
3
 72
14
 73
10
 74
0
 40
0.000000000
 40
0.000000000
 40
0.000000000
 40
0.000000000
 40
0.359419874
 40
0.359419874
 40
0.359419874
 40
0.749900563
 40
0.749900563
 40
0.749900563
 40
1.601858414
 40
1.601858414
 40
1.601858414
 40
1.601858414
 10
14.089429529
 20
3.010116035
 30
0.000000000
 10
14.023057545
 20
2.910131651
 30
0.000000000
 10
13.978898722
 20
2.797314659
 30
0.000000000
 10
13.939927965
 20
2.684362892
 30
0.000000000
 10
13.899047555
 20
2.560570503
 30
0.000000000
 10
13.867050638
 20
2.434508840
 30
0.000000000
 10
13.843937213
 20
2.306177903
 30
0.000000000
 10
13.794555685
 20
2.025507715
 30
0.000000000
 10
13.775073143
 20
1.742707031
 30
0.000000000
 10
13.785489588
 20
1.457775851
 30
0.000000000
  0
SPLINE
  5
A44
330
A02
100
AcDbEntity
  8
Shape2DView001
100
AcDbSpline
210
0
220
0
230
1
 70
8
 71
1
 72
4
 73
2
 74
0
 40
0.000000000
 40
0.000000000
 40
0.656229476
 40
0.656229476
 10
13.785489588
 20
1.457775851
 30
0.000000000
 10
14.353800985
 20
1.129661113
 30
0.000000000
  0
SPLINE
  5
A45
330
A02
100
AcDbEntity
  8
Shape2DView001
100
AcDbSpline
210
0
220
0
230
1
 70
8
 71
3
 72
14
 73
10
 74
0
 40
0.000000000
 40
0.000000000
 40
0.000000000
 40
0.000000000
 40
0.851957851
 40
0.851957851
 40
0.851957851
 40
1.242438540
 40
1.242438540
 40
1.242438540
 40
1.601858414
 40
1.601858414
 40
1.601858414
 40
1.601858414
 10
14.353800985
 20
1.129661113
 30
0.000000000
 10
14.605766847
 20
1.263105797
 30
0.000000000
 10
14.840938153
 20
1.421378515
 30
0.000000000
 10
15.059314901
 20
1.604479267
 30
0.000000000
 10
15.158896041
 20
1.688661548
 30
0.000000000
 10
15.252070185
 20
1.779402523
 30
0.000000000
 10
15.338837334
 20
1.876702192
 30
0.000000000
 10
15.417171055
 20
1.966927741
 30
0.000000000
 10
15.492794025
 20
2.061578899
 30
0.000000000
 10
15.546197049
 20
2.169050915
 30
0.000000000
  0
SPLINE
  5
A46
330
A02
100
AcDbEntity
  8
Shape2DView001
100
AcDbSpline
210
0
220
0
230
1
 70
8
 71
1
 72
4
 73
2
 74
0
 40
0.000000000
 40
0.000000000
 40
0.797694656
 40
0.797694656
 10
15.546197049
 20
2.169050915
 30
0.000000000
 10
15.859751785
 20
2.902535878
 30
0.000000000
  0
SPLINE
  5
A47
330
A02
100
AcDbEntity
  8
Shape2DView001
100
AcDbSpline
210
0
220
0
230
1
 70
8
 71
1
 72
4
 73
2
 74
0
 40
0.000000000
 40
0.000000000
 40
1.121183327
 40
1.121183327
 10
15.859751785
 20
2.902535878
 30
0.000000000
 10
16.926060494
 20
2.556071176
 30
0.000000000
  0
SPLINE
  5
A48
330
A02
100
AcDbEntity
  8
Shape2DView001
100
AcDbSpline
210
0
220
0
230
1
 70
8
 71
1
 72
4
 73
2
 74
0
 40
0.000000000
 40
0.000000000
 40
0.797694656
 40
0.797694656
 10
16.926060494
 20
2.556071176
 30
0.000000000
 10
16.748599959
 20
1.778366526
 30
0.000000000
  0
SPLINE
  5
A49
330
A02
100
AcDbEntity
  8
Shape2DView001
100
AcDbSpline
210
0
220
0
230
1
 70
8
 71
3
 72
14
 73
10
 74
0
 40
0.000000000
 40
0.000000000
 40
0.000000000
 40
0.000000000
 40
0.359419874
 40
0.359419874
 40
0.359419874
 40
0.749900563
 40
0.749900563
 40
0.749900563
 40
1.601858414
 40
1.601858414
 40
1.601858414
 40
1.601858414
 10
16.748599959
 20
1.778366526
 30
0.000000000
 10
16.728633448
 20
1.660030329
 30
0.000000000
 10
16.734179161
 20
1.539005867
 30
0.000000000
 10
16.744519225
 20
1.419968459
 30
0.000000000
 10
16.757524013
 20
1.290250923
 30
0.000000000
 10
16.779567272
 20
1.162073544
 30
0.000000000
 10
16.810649003
 20
1.035436323
 30
0.000000000
 10
16.879695582
 20
0.758946071
 30
0.000000000
 10
16.976922795
 20
0.492670527
 30
0.000000000
 10
17.102330642
 20
0.236609691
 30
0.000000000
  0
SPLINE
  5
A4A
330
A02
100
AcDbEntity
  8
Shape2DView001
100
AcDbSpline
210
0
220
0
230
1
 70
8
 71
1
 72
4
 73
2
 74
0
 40
0.000000000
 40
0.000000000
 40
0.656229476
 40
0.656229476
 10
17.102330642
 20
0.236609691
 30
0.000000000
 10
17.754965225
 20
0.168015033
 30
0.000000000
  0
SPLINE
  5
A4B
330
A02
100
AcDbEntity
  8
Shape2DView001
100
AcDbSpline
210
0
220
0
230
1
 70
8
 71
3
 72
14
 73
10
 74
0
 40
0.000000000
 40
0.000000000
 40
0.000000000
 40
0.000000000
 40
0.851957851
 40
0.851957851
 40
0.851957851
 40
1.242438540
 40
1.242438540
 40
1.242438540
 40
1.601858414
 40
1.601858414
 40
1.601858414
 40
1.601858414
 10
17.754965225
 20
0.168015033
 30
0.000000000
 10
17.930870651
 20
0.392406567
 30
0.000000000
 10
18.081335015
 20
0.632648677
 30
0.000000000
 10
18.206358316
 20
0.888741363
 30
0.000000000
 10
18.263090196
 20
1.006149002
 30
0.000000000
 10
18.311301332
 20
1.126942346
 30
0.000000000
 10
18.350991727
 20
1.251121395
 30
0.000000000
 10
18.385855104
 20
1.365407730
 30
0.000000000
 10
18.416442031
 20
1.482634499
 30
0.000000000
 10
18.421515314
 20
1.602536037
 30
0.000000000
  0
SPLINE
  5
A4C
330
A02
100
AcDbEntity
  8
Shape2DView001
100
AcDbSpline
210
0
220
0
230
1
 70
8
 71
1
 72
4
 73
2
 74
0
 40
0.000000000
 40
0.000000000
 40
0.797694656
 40
0.797694656
 10
18.421515314
 20
1.602536037
 30
0.000000000
 10
18.409626607
 20
2.400142095
 30
0.000000000
  0
SPLINE
  5
A4D
330
A02
100
AcDbEntity
  8
Shape2DView001
100
AcDbSpline
210
0
220
0
230
1
 70
8
 71
1
 72
4
 73
2
 74
0
 40
0.000000000
 40
0.000000000
 40
1.121183327
 40
1.121183327
 10
18.409626607
 20
2.400142095
 30
0.000000000
 10
19.524667974
 20
2.517337665
 30
0.000000000
  0
SPLINE
  5
A4E
330
A02
100
AcDbEntity
  8
Shape2DView001
100
AcDbSpline
210
0
220
0
230
1
 70
8
 71
1
 72
4
 73
2
 74
0
 40
0.000000000
 40
0.000000000
 40
0.797694656
 40
0.797694656
 10
19.524667974
 20
2.517337665
 30
0.000000000
 10
19.678870688
 20
1.734689412
 30
0.000000000
  0
SPLINE
  5
A4F
330
A02
100
AcDbEntity
  8
Shape2DView001
100
AcDbSpline
210
0
220
0
230
1
 70
8
 71
3
 72
14
 73
10
 74
0
 40
0.000000000
 40
0.000000000
 40
0.000000000
 40
0.000000000
 40
0.359419874
 40
0.359419874
 40
0.359419874
 40
0.749900563
 40
0.749900563
 40
0.749900563
 40
1.601858414
 40
1.601858414
 40
1.601858414
 40
1.601858414
 10
19.678870688
 20
1.734689412
 30
0.000000000
 10
19.708762039
 20
1.618462805
 30
0.000000000
 10
19.763053383
 20
1.510157102
 30
0.000000000
 10
19.820916378
 20
1.405616701
 30
0.000000000
 10
19.885557718
 20
1.292403359
 30
0.000000000
 10
19.957829674
 20
1.184273299
 30
0.000000000
 10
20.037732246
 20
1.081226519
 30
0.000000000
 10
20.213268152
 20
0.856723879
 30
0.000000000
 10
20.410393652
 20
0.653014936
 30
0.000000000
 10
20.629108746
 20
0.470099689
 30
0.000000000
  0
SPLINE
  5
A50
330
A02
100
AcDbEntity
  8
Shape2DView001
100
AcDbSpline
210
0
220
0
230
1
 70
8
 71
1
 72
4
 73
2
 74
0
 40
0.000000000
 40
0.000000000
 40
0.656229476
 40
0.656229476
 10
20.629108746
 20
0.470099689
 30
0.000000000
 10
21.253220065
 20
0.672885750
 30
0.000000000
  0
SPLINE
  5
A51
330
A02
100
AcDbEntity
  8
Shape2DView001
100
AcDbSpline
210
0
220
0
230
1
 70
8
 71
3
 72
14
 73
10
 74
0
 40
0.000000000
 40
0.000000000
 40
0.000000000
 40
0.000000000
 40
0.851957851
 40
0.851957851
 40
0.851957851
 40
1.242438540
 40
1.242438540
 40
1.242438540
 40
1.601858414
 40
1.601858414
 40
1.601858414
 40
1.601858414
 10
21.253220065
 20
0.672885750
 30
0.000000000
 10
21.322649409
 20
0.949424799
 30
0.000000000
 10
21.362390176
 20
1.230096258
 30
0.000000000
 10
21.372442366
 20
1.514900126
 30
0.000000000
 10
21.376515527
 20
1.645232275
 30
0.000000000
 10
21.371427513
 20
1.775191722
 30
0.000000000
 10
21.357178323
 20
1.904778466
 30
0.000000000
 10
21.342543163
 20
2.023364442
 30
0.000000000
 10
21.322805288
 20
2.142897247
 30
0.000000000
 10
21.278671614
 20
2.254496243
 30
0.000000000
  0
SPLINE
  5
A52
330
A02
100
AcDbEntity
  8
Shape2DView001
100
AcDbSpline
210
0
220
0
230
1
 70
8
 71
1
 72
4
 73
2
 74
0
 40
0.000000000
 40
0.000000000
 40
0.797694656
 40
0.797694656
 10
21.278671614
 20
2.254496243
 30
0.000000000
 10
20.943395129
 20
2.978310061
 30
0.000000000
  0
SPLINE
  5
A53
330
A02
100
AcDbEntity
  8
Shape2DView001
100
AcDbSpline
210
0
220
0
230
1
 70
8
 71
1
 72
4
 73
2
 74
0
 40
0.000000000
 40
0.000000000
 40
1.121183327
 40
1.121183327
 10
20.943395129
 20
2.978310061
 30
0.000000000
 10
21.914368372
 20
3.538901725
 30
0.000000000
  0
SPLINE
  5
A54
330
A02
100
AcDbEntity
  8
Shape2DView001
100
AcDbSpline
210
0
220
0
230
1
 70
8
 71
1
 72
4
 73
2
 74
0
 40
0.000000000
 40
0.000000000
 40
0.797694656
 40
0.797694656
 10
21.914368372
 20
3.538901725
 30
0.000000000
 10
22.373571284
 20
2.886636863
 30
0.000000000
  0
SPLINE
  5
A55
330
A02
100
AcDbEntity
  8
Shape2DView001
100
AcDbSpline
210
0
220
0
230
1
 70
8
 71
3
 72
14
 73
10
 74
0
 40
0.000000000
 40
0.000000000
 40
0.000000000
 40
0.000000000
 40
0.359419874
 40
0.359419874
 40
0.359419874
 40
0.749900563
 40
0.749900563
 40
0.749900563
 40
1.601858414
 40
1.601858414
 40
1.601858414
 40
1.601858414
 10
22.373571284
 20
2.886636863
 30
0.000000000
 10
22.448152012
 20
2.792616481
 30
0.000000000
 10
22.541801521
 20
2.715756578
 30
0.000000000
 10
22.637182409
 20
2.643789169
 30
0.000000000
 10
22.742283226
 20
2.566655637
 30
0.000000000
 10
22.852287401
 20
2.497269564
 30
0.000000000
 10
22.967194934
 20
2.435630951
 30
0.000000000
 10
23.218868414
 20
2.301934468
 30
0.000000000
 10
23.481807411
 20
2.196015252
 30
0.000000000
 10
23.756011924
 20
2.117873303
 30
0.000000000
  0
SPLINE
  5
A56
330
A02
100
AcDbEntity
  8
Shape2DView001
100
AcDbSpline
210
0
220
0
230
1
 70
8
 71
1
 72
4
 73
2
 74
0
 40
0.000000000
 40
0.000000000
 40
0.656229476
 40
0.656229476
 10
23.756011924
 20
2.117873303
 30
0.000000000
 10
24.243685464
 20
2.556976531
 30
0.000000000
  0
SPLINE
  5
A57
330
A02
100
AcDbEntity
  8
Shape2DView001
100
AcDbSpline
210
0
220
0
230
1
 70
8
 71
3
 72
14
 73
10
 74
0
 40
0.000000000
 40
0.000000000
 40
0.000000000
 40
0.000000000
 40
0.851957851
 40
0.851957851
 40
0.851957851
 40
1.242438540
 40
1.242438540
 40
1.242438540
 40
1.601858414
 40
1.601858414
 40
1.601858414
 40
1.601858414
 10
24.243685464
 20
2.556976531
 30
0.000000000
 10
24.194633761
 20
2.837846981
 30
0.000000000
 10
24.116779391
 20
3.110417143
 30
0.000000000
 10
24.010122354
 20
3.374687017
 30
0.000000000
 10
23.960832511
 20
3.495408064
 30
0.000000000
 10
23.903325110
 20
3.612062445
 30
0.000000000
 10
23.837600150
 20
3.724650158
 30
0.000000000
 10
23.775997004
 20
3.827031182
 30
0.000000000
 10
23.709347186
 20
3.928201717
 30
0.000000000
 10
23.623637668
 20
4.012201690
 30
0.000000000
  0
SPLINE
  5
A58
330
A02
100
AcDbEntity
  8
Shape2DView001
100
AcDbSpline
210
0
220
0
230
1
 70
8
 71
1
 72
4
 73
2
 74
0
 40
0.000000000
 40
0.000000000
 40
0.797694656
 40
0.797694656
 10
23.623637668
 20
4.012201690
 30
0.000000000
 10
23.022945755
 20
4.537069284
 30
0.000000000
  0
SPLINE
  5
A59
330
A02
100
AcDbEntity
  8
Shape2DView001
100
AcDbSpline
210
0
220
0
230
1
 70
8
 71
1
 72
4
 73
2
 74
0
 40
0.000000000
 40
0.000000000
 40
1.121183327
 40
1.121183327
 10
23.022945755
 20
4.537069284
 30
0.000000000
 10
23.681960780
 20
5.444125649
 30
0.000000000
  0
SPLINE
  5
A5A
330
A02
100
AcDbEntity
  8
Shape2DView001
100
AcDbSpline
210
0
220
0
230
1
 70
8
 71
1
 72
4
 73
2
 74
0
 40
0.000000000
 40
0.000000000
 40
0.797694656
 40
0.797694656
 10
23.681960780
 20
5.444125649
 30
0.000000000
 10
24.366763534
 20
5.035026698
 30
0.000000000
  0
SPLINE
  5
A5B
330
A02
100
AcDbEntity
  8
Shape2DView001
100
AcDbSpline
210
0
220
0
230
1
 70
8
 71
3
 72
14
 73
10
 74
0
 40
0.000000000
 40
0.000000000
 40
0.000000000
 40
0.000000000
 40
0.359419874
 40
0.359419874
 40
0.359419874
 40
0.749900563
 40
0.749900563
 40
0.749900563
 40
1.601858414
 40
1.601858414
 40
1.601858414
 40
1.601858414
 10
24.366763534
 20
5.035026698
 30
0.000000000
 10
24.473137954
 20
4.979469521
 30
0.000000000
 10
24.589952777
 20
4.947345192
 30
0.000000000
 10
24.706359336
 20
4.920394595
 30
0.000000000
 10
24.833746744
 20
4.892677960
 30
0.000000000
 10
24.962462417
 20
4.874033357
 30
0.000000000
 10
25.092506354
 20
4.864460786
 30
0.000000000
 10
25.376800777
 20
4.844687798
 30
0.000000000
 10
25.660088729
 20
4.854872705
 30
0.000000000
 10
25.942370211
 20
4.895015505
 30
0.000000000
  0
SPLINE
  5
A5C
330
A02
100
AcDbEntity
  8
Shape2DView001
100
AcDbSpline
210
0
220
0
230
1
 70
8
 71
1
 72
4
 73
2
 74
0
 40
0.000000000
 40
0.000000000
 40
0.656229476
 40
0.656229476
 10
25.942370211
 20
4.895015505
 30
0.000000000
 10
26.209282786
 20
5.494510963
 30
0.000000000
  0
SPLINE
  5
A5D
330
A02
100
AcDbEntity
  8
Shape2DView001
100
AcDbSpline
210
0
220
0
230
1
 70
8
 71
3
 72
14
 73
10
 74
0
 40
0.000000000
 40
0.000000000
 40
0.000000000
 40
0.000000000
 40
0.851957851
 40
0.851957851
 40
0.851957851
 40
1.242438540
 40
1.242438540
 40
1.242438540
 40
1.601858414
 40
1.601858414
 40
1.601858414
 40
1.601858414
 10
26.209282786
 20
5.494510963
 30
0.000000000
 10
26.050231521
 20
5.731147762
 30
0.000000000
 10
25.868243742
 20
5.948486771
 30
0.000000000
 10
25.663319449
 20
6.146527988
 30
0.000000000
 10
25.569189264
 20
6.236764167
 30
0.000000000
 10
25.469206028
 20
6.319942879
 30
0.000000000
 10
25.363369740
 20
6.396064124
 30
0.000000000
 10
25.265450352
 20
6.464537586
 30
0.000000000
 10
25.163412950
 20
6.529852545
 30
0.000000000
 10
25.050947541
 20
6.571729138
 30
0.000000000
  0
SPLINE
  5
A5E
330
A02
100
AcDbEntity
  8
Shape2DView001
100
AcDbSpline
210
0
220
0
230
1
 70
8
 71
1
 72
4
 73
2
 74
0
 40
0.000000000
 40
0.000000000
 40
0.797694656
 40
0.797694656
 10
25.050947541
 20
6.571729138
 30
0.000000000
 10
24.288705291
 20
6.806896132
 30
0.000000000
  0
SPLINE
  5
A5F
330
A02
100
AcDbEntity
  8
Shape2DView001
100
AcDbSpline
210
0
220
0
230
1
 70
8
 71
1
 72
4
 73
2
 74
0
 40
0.000000000
 40
0.000000000
 40
1.121183327
 40
1.121183327
 10
24.288705291
 20
6.806896132
 30
0.000000000
 10
24.521812412
 20
7.903578913
 30
0.000000000
  0
SPLINE
  5
A60
330
A02
100
AcDbEntity
  8
Shape2DView001
100
AcDbSpline
210
0
220
0
230
1
 70
8
 71
1
 72
4
 73
2
 74
0
 40
0.000000000
 40
0.000000000
 40
0.797694656
 40
0.797694656
 10
24.521812412
 20
7.903578913
 30
0.000000000
 10
25.313806391
 20
7.808382798
 30
0.000000000
  0
SPLINE
  5
A61
330
A02
100
AcDbEntity
  8
Shape2DView001
100
AcDbSpline
210
0
220
0
230
1
 70
8
 71
3
 72
14
 73
10
 74
0
 40
0.000000000
 40
0.000000000
 40
0.000000000
 40
0.000000000
 40
0.359419874
 40
0.359419874
 40
0.359419874
 40
0.749900563
 40
0.749900563
 40
0.749900563
 40
1.601858414
 40
1.601858414
 40
1.601858414
 40
1.601858414
 10
25.313806391
 20
7.808382798
 30
0.000000000
 10
25.433581399
 20
7.800895166
 30
0.000000000
 10
25.553363192
 20
7.819061000
 30
0.000000000
 10
25.670667670
 20
7.841787217
 30
0.000000000
 10
25.798315229
 20
7.868279938
 30
0.000000000
 10
25.923486291
 20
7.903600627
 30
0.000000000
 10
26.046180854
 20
7.947749283
 30
0.000000000
 10
26.313939131
 20
8.045318718
 30
0.000000000
 10
26.568592979
 20
8.169846684
 30
0.000000000
 10
26.810142397
 20
8.321333180
 30
0.000000000
  0
LINE
  5
A62
330
A02
100
AcDbEntity
  8
Shape2DView
100
AcDbLine
 10
8.493664740
 20
-0.328114738
 30
0.000000000
 11
8.493664740
 21
0.328114738
 31
0.000000000
  0
SPLINE
  5
A63
330
A02
100
AcDbEntity
  8
Shape2DView
100
AcDbSpline
210
0
220
0
230
1
 70
8
 71
3
 72
14
 73
10
 74
0
 40
0.000000000
 40
0.000000000
 40
0.000000000
 40
0.000000000
 40
0.851957851
 40
0.851957851
 40
0.851957851
 40
1.242438540
 40
1.242438540
 40
1.242438540
 40
1.601858414
 40
1.601858414
 40
1.601858414
 40
1.601858414
 10
8.493664740
 20
0.328114738
 30
0.000000000
 10
8.252115322
 20
0.479601234
 30
0.000000000
 10
7.997461475
 20
0.604129200
 30
0.000000000
 10
7.729703198
 20
0.701698635
 30
0.000000000
 10
7.607008634
 20
0.745847291
 30
0.000000000
 10
7.481837573
 20
0.781167980
 30
0.000000000
 10
7.354190014
 20
0.807660701
 30
0.000000000
 10
7.236885535
 20
0.830386918
 30
0.000000000
 10
7.117103743
 20
0.848552752
 30
0.000000000
 10
6.997328735
 20
0.841065120
 30
0.000000000
  0
LINE
  5
A64
330
A02
100
AcDbEntity
  8
Shape2DView
100
AcDbLine
 10
6.997328735
 20
0.841065120
 30
0.000000000
 11
6.205334755
 21
0.745869005
 31
0.000000000
  0
LINE
  5
A65
330
A02
100
AcDbEntity
  8
Shape2DView
100
AcDbLine
 10
6.205334755
 20
0.745869005
 30
0.000000000
 11
5.972227634
 21
1.842551786
 31
0.000000000
  0
LINE
  5
A66
330
A02
100
AcDbEntity
  8
Shape2DView
100
AcDbLine
 10
5.972227634
 20
1.842551786
 30
0.000000000
 11
6.734469885
 21
2.077718780
 31
0.000000000
  0
SPLINE
  5
A67
330
A02
100
AcDbEntity
  8
Shape2DView
100
AcDbSpline
210
0
220
0
230
1
 70
8
 71
3
 72
14
 73
10
 74
0
 40
0.000000000
 40
0.000000000
 40
0.000000000
 40
0.000000000
 40
0.359419874
 40
0.359419874
 40
0.359419874
 40
0.749900563
 40
0.749900563
 40
0.749900563
 40
1.601858414
 40
1.601858414
 40
1.601858414
 40
1.601858414
 10
6.734469885
 20
2.077718780
 30
0.000000000
 10
6.846935294
 20
2.119595372
 30
0.000000000
 10
6.948972696
 20
2.184910332
 30
0.000000000
 10
7.046892084
 20
2.253383794
 30
0.000000000
 10
7.152728371
 20
2.329505039
 30
0.000000000
 10
7.252711608
 20
2.412683751
 30
0.000000000
 10
7.346841793
 20
2.502919930
 30
0.000000000
 10
7.551766086
 20
2.700961147
 30
0.000000000
 10
7.733753865
 20
2.918300156
 30
0.000000000
 10
7.892805129
 20
3.154936955
 30
0.000000000
  0
SPLINE
  5
A68
330
A02
100
AcDbEntity
  8
Shape2DView
100
AcDbSpline
210
0
220
0
230
1
 70
8
 71
1
 72
4
 73
2
 74
0
 40
0.000000000
 40
0.000000000
 40
0.656229476
 40
0.656229476
 10
7.892805129
 20
3.154936955
 30
0.000000000
 10
7.625892555
 20
3.754432413
 30
0.000000000
  0
SPLINE
  5
A69
330
A02
100
AcDbEntity
  8
Shape2DView
100
AcDbSpline
210
0
220
0
230
1
 70
8
 71
3
 72
14
 73
10
 74
0
 40
0.000000000
 40
0.000000000
 40
0.000000000
 40
0.000000000
 40
0.851957851
 40
0.851957851
 40
0.851957851
 40
1.242438540
 40
1.242438540
 40
1.242438540
 40
1.601858414
 40
1.601858414
 40
1.601858414
 40
1.601858414
 10
7.625892555
 20
3.754432413
 30
0.000000000
 10
7.343611073
 20
3.794575213
 30
0.000000000
 10
7.060323121
 20
3.804760120
 30
0.000000000
 10
6.776028698
 20
3.784987132
 30
0.000000000
 10
6.645984761
 20
3.775414561
 30
0.000000000
 10
6.517269088
 20
3.756769958
 30
0.000000000
 10
6.389881679
 20
3.729053323
 30
0.000000000
 10
6.273475121
 20
3.702102726
 30
0.000000000
 10
6.156660298
 20
3.669978397
 30
0.000000000
 10
6.050285878
 20
3.614421220
 30
0.000000000
  0
SPLINE
  5
A6A
330
A02
100
AcDbEntity
  8
Shape2DView
100
AcDbSpline
210
0
220
0
230
1
 70
8
 71
1
 72
4
 73
2
 74
0
 40
0.000000000
 40
0.000000000
 40
0.797694656
 40
0.797694656
 10
6.050285878
 20
3.614421220
 30
0.000000000
 10
5.365483124
 20
3.205322269
 30
0.000000000
  0
SPLINE
  5
A6B
330
A02
100
AcDbEntity
  8
Shape2DView
100
AcDbSpline
210
0
220
0
230
1
 70
8
 71
1
 72
4
 73
2
 74
0
 40
0.000000000
 40
0.000000000
 40
1.121183327
 40
1.121183327
 10
5.365483124
 20
3.205322269
 30
0.000000000
 10
4.706468099
 20
4.112378634
 30
0.000000000
  0
SPLINE
  5
A6C
330
A02
100
AcDbEntity
  8
Shape2DView
100
AcDbSpline
210
0
220
0
230
1
 70
8
 71
1
 72
4
 73
2
 74
0
 40
0.000000000
 40
0.000000000
 40
0.797694656
 40
0.797694656
 10
4.706468099
 20
4.112378634
 30
0.000000000
 10
5.307160011
 20
4.637246228
 30
0.000000000
  0
SPLINE
  5
A6D
330
A02
100
AcDbEntity
  8
Shape2DView
100
AcDbSpline
210
0
220
0
230
1
 70
8
 71
3
 72
14
 73
10
 74
0
 40
0.000000000
 40
0.000000000
 40
0.000000000
 40
0.000000000
 40
0.359419874
 40
0.359419874
 40
0.359419874
 40
0.749900563
 40
0.749900563
 40
0.749900563
 40
1.601858414
 40
1.601858414
 40
1.601858414
 40
1.601858414
 10
5.307160011
 20
4.637246228
 30
0.000000000
 10
5.392869530
 20
4.721246201
 30
0.000000000
 10
5.459519348
 20
4.822416736
 30
0.000000000
 10
5.521122494
 20
4.924797760
 30
0.000000000
 10
5.586847454
 20
5.037385473
 30
0.000000000
 10
5.644354855
 20
5.154039854
 30
0.000000000
 10
5.693644698
 20
5.274760901
 30
0.000000000
 10
5.800301735
 20
5.539030774
 30
0.000000000
 10
5.878156105
 20
5.811600937
 30
0.000000000
 10
5.927207808
 20
6.092471387
 30
0.000000000
  0
SPLINE
  5
A6E
330
A02
100
AcDbEntity
  8
Shape2DView
100
AcDbSpline
210
0
220
0
230
1
 70
8
 71
1
 72
4
 73
2
 74
0
 40
0.000000000
 40
0.000000000
 40
0.656229476
 40
0.656229476
 10
5.927207808
 20
6.092471387
 30
0.000000000
 10
5.439534268
 20
6.531574615
 30
0.000000000
  0
SPLINE
  5
A6F
330
A02
100
AcDbEntity
  8
Shape2DView
100
AcDbSpline
210
0
220
0
230
1
 70
8
 71
3
 72
14
 73
10
 74
0
 40
0.000000000
 40
0.000000000
 40
0.000000000
 40
0.000000000
 40
0.851957851
 40
0.851957851
 40
0.851957851
 40
1.242438540
 40
1.242438540
 40
1.242438540
 40
1.601858414
 40
1.601858414
 40
1.601858414
 40
1.601858414
 10
5.439534268
 20
6.531574615
 30
0.000000000
 10
5.165329754
 20
6.453432666
 30
0.000000000
 10
4.902390758
 20
6.347513450
 30
0.000000000
 10
4.650717278
 20
6.213816967
 30
0.000000000
 10
4.535809745
 20
6.152178354
 30
0.000000000
 10
4.425805570
 20
6.082792281
 30
0.000000000
 10
4.320704753
 20
6.005658749
 30
0.000000000
 10
4.225323865
 20
5.933691340
 30
0.000000000
 10
4.131674356
 20
5.856831437
 30
0.000000000
 10
4.057093628
 20
5.762811055
 30
0.000000000
  0
SPLINE
  5
A70
330
A02
100
AcDbEntity
  8
Shape2DView
100
AcDbSpline
210
0
220
0
230
1
 70
8
 71
1
 72
4
 73
2
 74
0
 40
0.000000000
 40
0.000000000
 40
0.797694656
 40
0.797694656
 10
4.057093628
 20
5.762811055
 30
0.000000000
 10
3.597890716
 20
5.110546193
 30
0.000000000
  0
SPLINE
  5
A71
330
A02
100
AcDbEntity
  8
Shape2DView
100
AcDbSpline
210
0
220
0
230
1
 70
8
 71
1
 72
4
 73
2
 74
0
 40
0.000000000
 40
0.000000000
 40
1.121183327
 40
1.121183327
 10
3.597890716
 20
5.110546193
 30
0.000000000
 10
2.626917473
 20
5.671137857
 30
0.000000000
  0
SPLINE
  5
A72
330
A02
100
AcDbEntity
  8
Shape2DView
100
AcDbSpline
210
0
220
0
230
1
 70
8
 71
1
 72
4
 73
2
 74
0
 40
0.000000000
 40
0.000000000
 40
0.797694656
 40
0.797694656
 10
2.626917473
 20
5.671137857
 30
0.000000000
 10
2.962193957
 20
6.394951675
 30
0.000000000
  0
SPLINE
  5
A73
330
A02
100
AcDbEntity
  8
Shape2DView
100
AcDbSpline
210
0
220
0
230
1
 70
8
 71
3
 72
14
 73
10
 74
0
 40
0.000000000
 40
0.000000000
 40
0.000000000
 40
0.000000000
 40
0.359419874
 40
0.359419874
 40
0.359419874
 40
0.749900563
 40
0.749900563
 40
0.749900563
 40
1.601858414
 40
1.601858414
 40
1.601858414
 40
1.601858414
 10
2.962193957
 20
6.394951675
 30
0.000000000
 10
3.006327632
 20
6.506550671
 30
0.000000000
 10
3.026065506
 20
6.626083476
 30
0.000000000
 10
3.040700666
 20
6.744669452
 30
0.000000000
 10
3.054949857
 20
6.874256196
 30
0.000000000
 10
3.060037871
 20
7.004215643
 30
0.000000000
 10
3.055964709
 20
7.134547792
 30
0.000000000
 10
3.045912520
 20
7.419351660
 30
0.000000000
 10
3.006171753
 20
7.700023119
 30
0.000000000
 10
2.936742409
 20
7.976562168
 30
0.000000000
  0
SPLINE
  5
A74
330
A02
100
AcDbEntity
  8
Shape2DView
100
AcDbSpline
210
0
220
0
230
1
 70
8
 71
1
 72
4
 73
2
 74
0
 40
0.000000000
 40
0.000000000
 40
0.656229476
 40
0.656229476
 10
2.936742409
 20
7.976562168
 30
0.000000000
 10
2.312631089
 20
8.179348229
 30
0.000000000
  0
SPLINE
  5
A75
330
A02
100
AcDbEntity
  8
Shape2DView
100
AcDbSpline
210
0
220
0
230
1
 70
8
 71
3
 72
14
 73
10
 74
0
 40
0.000000000
 40
0.000000000
 40
0.000000000
 40
0.000000000
 40
0.851957851
 40
0.851957851
 40
0.851957851
 40
1.242438540
 40
1.242438540
 40
1.242438540
 40
1.601858414
 40
1.601858414
 40
1.601858414
 40
1.601858414
 10
2.312631089
 20
8.179348229
 30
0.000000000
 10
2.093915995
 20
7.996432982
 30
0.000000000
 10
1.896790496
 20
7.792724039
 30
0.000000000
 10
1.721254590
 20
7.568221399
 30
0.000000000
 10
1.641352018
 20
7.465174619
 30
0.000000000
 10
1.569080062
 20
7.357044559
 30
0.000000000
 10
1.504438722
 20
7.243831217
 30
0.000000000
 10
1.446575727
 20
7.139290816
 30
0.000000000
 10
1.392284383
 20
7.030985113
 30
0.000000000
 10
1.362393031
 20
6.914758506
 30
0.000000000
  0
SPLINE
  5
A76
330
A02
100
AcDbEntity
  8
Shape2DView
100
AcDbSpline
210
0
220
0
230
1
 70
8
 71
1
 72
4
 73
2
 74
0
 40
0.000000000
 40
0.000000000
 40
0.797694656
 40
0.797694656
 10
1.362393031
 20
6.914758506
 30
0.000000000
 10
1.208190318
 20
6.132110253
 30
0.000000000
  0
SPLINE
  5
A77
330
A02
100
AcDbEntity
  8
Shape2DView
100
AcDbSpline
210
0
220
0
230
1
 70
8
 71
1
 72
4
 73
2
 74
0
 40
0.000000000
 40
0.000000000
 40
1.121183327
 40
1.121183327
 10
1.208190318
 20
6.132110253
 30
0.000000000
 10
0.093148950
 20
6.249305823
 30
0.000000000
  0
SPLINE
  5
A78
330
A02
100
AcDbEntity
  8
Shape2DView
100
AcDbSpline
210
0
220
0
230
1
 70
8
 71
1
 72
4
 73
2
 74
0
 40
0.000000000
 40
0.000000000
 40
0.797694656
 40
0.797694656
 10
0.093148950
 20
6.249305823
 30
0.000000000
 10
0.105037658
 20
7.046911881
 30
0.000000000
  0
SPLINE
  5
A79
330
A02
100
AcDbEntity
  8
Shape2DView
100
AcDbSpline
210
0
220
0
230
1
 70
8
 71
3
 72
14
 73
10
 74
0
 40
0.000000000
 40
0.000000000
 40
0.000000000
 40
0.000000000
 40
0.359419874
 40
0.359419874
 40
0.359419874
 40
0.749900563
 40
0.749900563
 40
0.749900563
 40
1.601858414
 40
1.601858414
 40
1.601858414
 40
1.601858414
 10
0.105037658
 20
7.046911881
 30
0.000000000
 10
0.099964374
 20
7.166813419
 30
0.000000000
 10
0.069377448
 20
7.284040188
 30
0.000000000
 10
0.034514070
 20
7.398326523
 30
0.000000000
 10
-0.005176324
 20
7.522505572
 30
0.000000000
 10
-0.053387461
 20
7.643298916
 30
0.000000000
 10
-0.110119340
 20
7.760706555
 30
0.000000000
 10
-0.235142641
 20
8.016799241
 30
0.000000000
 10
-0.385607005
 20
8.257041351
 30
0.000000000
 10
-0.561512431
 20
8.481432885
 30
0.000000000
  0
SPLINE
  5
A7A
330
A02
100
AcDbEntity
  8
Shape2DView
100
AcDbSpline
210
0
220
0
230
1
 70
8
 71
1
 72
4
 73
2
 74
0
 40
0.000000000
 40
0.000000000
 40
0.656229476
 40
0.656229476
 10
-0.561512431
 20
8.481432885
 30
0.000000000
 10
-1.214147014
 20
8.412838227
 30
0.000000000
  0
SPLINE
  5
A7B
330
A02
100
AcDbEntity
  8
Shape2DView
100
AcDbSpline
210
0
220
0
230
1
 70
8
 71
3
 72
14
 73
10
 74
0
 40
0.000000000
 40
0.000000000
 40
0.000000000
 40
0.000000000
 40
0.851957851
 40
0.851957851
 40
0.851957851
 40
1.242438540
 40
1.242438540
 40
1.242438540
 40
1.601858414
 40
1.601858414
 40
1.601858414
 40
1.601858414
 10
-1.214147014
 20
8.412838227
 30
0.000000000
 10
-1.339554861
 20
8.156777391
 30
0.000000000
 10
-1.436782075
 20
7.890501847
 30
0.000000000
 10
-1.505828654
 20
7.614011595
 30
0.000000000
 10
-1.536910384
 20
7.487374374
 30
0.000000000
 10
-1.558953644
 20
7.359196995
 30
0.000000000
 10
-1.571958432
 20
7.229479459
 30
0.000000000
 10
-1.582298496
 20
7.110442051
 30
0.000000000
 10
-1.587844209
 20
6.989417589
 30
0.000000000
 10
-1.567877697
 20
6.871081392
 30
0.000000000
  0
SPLINE
  5
A7C
330
A02
100
AcDbEntity
  8
Shape2DView
100
AcDbSpline
210
0
220
0
230
1
 70
8
 71
1
 72
4
 73
2
 74
0
 40
0.000000000
 40
0.000000000
 40
0.797694656
 40
0.797694656
 10
-1.567877697
 20
6.871081392
 30
0.000000000
 10
-1.390417162
 20
6.093376742
 30
0.000000000
  0
SPLINE
  5
A7D
330
A02
100
AcDbEntity
  8
Shape2DView
100
AcDbSpline
210
0
220
0
230
1
 70
8
 71
1
 72
4
 73
2
 74
0
 40
0.000000000
 40
0.000000000
 40
1.121183327
 40
1.121183327
 10
-1.390417162
 20
6.093376742
 30
0.000000000
 10
-2.456725872
 20
5.746912040
 30
0.000000000
  0
SPLINE
  5
A7E
330
A02
100
AcDbEntity
  8
Shape2DView
100
AcDbSpline
210
0
220
0
230
1
 70
8
 71
1
 72
4
 73
2
 74
0
 40
0.000000000
 40
0.000000000
 40
0.797694656
 40
0.797694656
 10
-2.456725872
 20
5.746912040
 30
0.000000000
 10
-2.770280607
 20
6.480397003
 30
0.000000000
  0
SPLINE
  5
A7F
330
A02
100
AcDbEntity
  8
Shape2DView
100
AcDbSpline
210
0
220
0
230
1
 70
8
 71
3
 72
14
 73
10
 74
0
 40
0.000000000
 40
0.000000000
 40
0.000000000
 40
0.000000000
 40
0.359419874
 40
0.359419874
 40
0.359419874
 40
0.749900563
 40
0.749900563
 40
0.749900563
 40
1.601858414
 40
1.601858414
 40
1.601858414
 40
1.601858414
 10
-2.770280607
 20
6.480397003
 30
0.000000000
 10
-2.823683632
 20
6.587869019
 30
0.000000000
 10
-2.899306601
 20
6.682520177
 30
0.000000000
 10
-2.977640322
 20
6.772745726
 30
0.000000000
 10
-3.064407471
 20
6.870045395
 30
0.000000000
 10
-3.157581615
 20
6.960786370
 30
0.000000000
 10
-3.257162755
 20
7.044968651
 30
0.000000000
 10
-3.475539504
 20
7.228069403
 30
0.000000000
 10
-3.710710809
 20
7.386342121
 30
0.000000000
 10
-3.962676671
 20
7.519786805
 30
0.000000000
  0
SPLINE
  5
A80
330
A02
100
AcDbEntity
  8
Shape2DView
100
AcDbSpline
210
0
220
0
230
1
 70
8
 71
1
 72
4
 73
2
 74
0
 40
0.000000000
 40
0.000000000
 40
0.656229476
 40
0.656229476
 10
-3.962676671
 20
7.519786805
 30
0.000000000
 10
-4.530988069
 20
7.191672067
 30
0.000000000
  0
SPLINE
  5
A81
330
A02
100
AcDbEntity
  8
Shape2DView
100
AcDbSpline
210
0
220
0
230
1
 70
8
 71
3
 72
14
 73
10
 74
0
 40
0.000000000
 40
0.000000000
 40
0.000000000
 40
0.000000000
 40
0.851957851
 40
0.851957851
 40
0.851957851
 40
1.242438540
 40
1.242438540
 40
1.242438540
 40
1.601858414
 40
1.601858414
 40
1.601858414
 40
1.601858414
 10
-4.530988069
 20
7.191672067
 30
0.000000000
 10
-4.541404513
 20
6.906740887
 30
0.000000000
 10
-4.521921971
 20
6.623940203
 30
0.000000000
 10
-4.472540443
 20
6.343270015
 30
0.000000000
 10
-4.449427019
 20
6.214939078
 30
0.000000000
 10
-4.417430102
 20
6.088877415
 30
0.000000000
 10
-4.376549691
 20
5.965085026
 30
0.000000000
 10
-4.337578934
 20
5.852133259
 30
0.000000000
 10
-4.293420111
 20
5.739316267
 30
0.000000000
 10
-4.227048128
 20
5.639331883
 30
0.000000000
  0
SPLINE
  5
A82
330
A02
100
AcDbEntity
  8
Shape2DView
100
AcDbSpline
210
0
220
0
230
1
 70
8
 71
1
 72
4
 73
2
 74
0
 40
0.000000000
 40
0.000000000
 40
0.797694656
 40
0.797694656
 10
-4.227048128
 20
5.639331883
 30
0.000000000
 10
-3.748608884
 20
5.001043035
 30
0.000000000
  0
SPLINE
  5
A83
330
A02
100
AcDbEntity
  8
Shape2DView
100
AcDbSpline
210
0
220
0
230
1
 70
8
 71
1
 72
4
 73
2
 74
0
 40
0.000000000
 40
0.000000000
 40
1.121183327
 40
1.121183327
 10
-3.748608884
 20
5.001043035
 30
0.000000000
 10
-4.581810472
 20
4.250824955
 30
0.000000000
  0
SPLINE
  5
A84
330
A02
100
AcDbEntity
  8
Shape2DView
100
AcDbSpline
210
0
220
0
230
1
 70
8
 71
1
 72
4
 73
2
 74
0
 40
0.000000000
 40
0.000000000
 40
0.797694656
 40
0.797694656
 10
-4.581810472
 20
4.250824955
 30
0.000000000
 10
-5.166592188
 20
4.793362611
 30
0.000000000
  0
SPLINE
  5
A85
330
A02
100
AcDbEntity
  8
Shape2DView
100
AcDbSpline
210
0
220
0
230
1
 70
8
 71
3
 72
14
 73
10
 74
0
 40
0.000000000
 40
0.000000000
 40
0.000000000
 40
0.000000000
 40
0.359419874
 40
0.359419874
 40
0.359419874
 40
0.749900563
 40
0.749900563
 40
0.749900563
 40
1.601858414
 40
1.601858414
 40
1.601858414
 40
1.601858414
 10
-5.166592188
 20
4.793362611
 30
0.000000000
 10
-5.259091085
 20
4.869822216
 30
0.000000000
 10
-5.366674200
 20
4.925531719
 30
0.000000000
 10
-5.474933652
 20
4.976095665
 30
0.000000000
 10
-5.593774728
 20
5.029691956
 30
0.000000000
 10
-5.715801223
 20
5.074690623
 30
0.000000000
 10
-5.841013139
 20
5.111091665
 30
0.000000000
 10
-6.114984011
 20
5.189540700
 30
0.000000000
 10
-6.394199003
 20
5.238477235
 30
0.000000000
 10
-6.678658115
 20
5.257901272
 30
0.000000000
  0
SPLINE
  5
A86
330
A02
100
AcDbEntity
  8
Shape2DView
100
AcDbSpline
210
0
220
0
230
1
 70
8
 71
1
 72
4
 73
2
 74
0
 40
0.000000000
 40
0.000000000
 40
0.656229476
 40
0.656229476
 10
-6.678658115
 20
5.257901272
 30
0.000000000
 10
-7.064380124
 20
4.727000473
 30
0.000000000
  0
SPLINE
  5
A87
330
A02
100
AcDbEntity
  8
Shape2DView
100
AcDbSpline
210
0
220
0
230
1
 70
8
 71
3
 72
14
 73
10
 74
0
 40
0.000000000
 40
0.000000000
 40
0.000000000
 40
0.000000000
 40
0.851957851
 40
0.851957851
 40
0.851957851
 40
1.242438540
 40
1.242438540
 40
1.242438540
 40
1.601858414
 40
1.601858414
 40
1.601858414
 40
1.601858414
 10
-7.064380124
 20
4.727000473
 30
0.000000000
 10
-6.958004068
 20
4.462466138
 30
0.000000000
 10
-6.825180479
 20
4.212039122
 30
0.000000000
 10
-6.665909358
 20
3.975719423
 30
0.000000000
 10
-6.592597300
 20
3.867884355
 30
0.000000000
 10
-6.512092764
 20
3.765735614
 30
0.000000000
 10
-6.424395750
 20
3.669273200
 30
0.000000000
 10
-6.342852569
 20
3.581937461
 30
0.000000000
 10
-6.256624672
 20
3.496835022
 30
0.000000000
 10
-6.155323536
 20
3.432490660
 30
0.000000000
  0
SPLINE
  5
A88
330
A02
100
AcDbEntity
  8
Shape2DView
100
AcDbSpline
210
0
220
0
230
1
 70
8
 71
1
 72
4
 73
2
 74
0
 40
0.000000000
 40
0.000000000
 40
0.797694656
 40
0.797694656
 10
-6.155323536
 20
3.432490660
 30
0.000000000
 10
-5.458632074
 20
3.043983554
 30
0.000000000
  0
SPLINE
  5
A89
330
A02
100
AcDbEntity
  8
Shape2DView
100
AcDbSpline
210
0
220
0
230
1
 70
8
 71
1
 72
4
 73
2
 74
0
 40
0.000000000
 40
0.000000000
 40
1.121183327
 40
1.121183327
 10
-5.458632074
 20
3.043983554
 30
0.000000000
 10
-5.914658417
 20
2.019731619
 30
0.000000000
  0
SPLINE
  5
A8A
330
A02
100
AcDbEntity
  8
Shape2DView
100
AcDbSpline
210
0
220
0
230
1
 70
8
 71
1
 72
4
 73
2
 74
0
 40
0.000000000
 40
0.000000000
 40
0.797694656
 40
0.797694656
 10
-5.914658417
 20
2.019731619
 30
0.000000000
 10
-6.669553043
 20
2.277512278
 30
0.000000000
  0
SPLINE
  5
A8B
330
A02
100
AcDbEntity
  8
Shape2DView
100
AcDbSpline
210
0
220
0
230
1
 70
8
 71
3
 72
14
 73
10
 74
0
 40
0.000000000
 40
0.000000000
 40
0.000000000
 40
0.000000000
 40
0.359419874
 40
0.359419874
 40
0.359419874
 40
0.749900563
 40
0.749900563
 40
0.749900563
 40
1.601858414
 40
1.601858414
 40
1.601858414
 40
1.601858414
 10
-6.669553043
 20
2.277512278
 30
0.000000000
 10
-6.785153913
 20
2.309738912
 30
0.000000000
 10
-6.906095075
 20
2.316874080
 30
0.000000000
 10
-7.025561215
 20
2.319033457
 30
0.000000000
 10
-7.155927515
 20
2.319659085
 30
0.000000000
 10
-7.285706873
 20
2.311134766
 30
0.000000000
 10
-7.414899288
 20
2.293460498
 30
0.000000000
 10
-7.697092230
 20
2.253693265
 30
0.000000000
 10
-7.972072100
 20
2.184832046
 30
0.000000000
 10
-8.239838897
 20
2.086876841
 30
0.000000000
  0
SPLINE
  5
A8C
330
A02
100
AcDbEntity
  8
Shape2DView
100
AcDbSpline
210
0
220
0
230
1
 70
8
 71
1
 72
4
 73
2
 74
0
 40
0.000000000
 40
0.000000000
 40
0.656229476
 40
0.656229476
 10
-8.239838897
 20
2.086876841
 30
0.000000000
 10
-8.376276677
 20
1.444987553
 30
0.000000000
  0
SPLINE
  5
A8D
330
A02
100
AcDbEntity
  8
Shape2DView
100
AcDbSpline
210
0
220
0
230
1
 70
8
 71
3
 72
14
 73
10
 74
0
 40
0.000000000
 40
0.000000000
 40
0.000000000
 40
0.000000000
 40
0.851957851
 40
0.851957851
 40
0.851957851
 40
1.242438540
 40
1.242438540
 40
1.242438540
 40
1.601858414
 40
1.601858414
 40
1.601858414
 40
1.601858414
 10
-8.376276677
 20
1.444987553
 30
0.000000000
 10
-8.171501507
 20
1.246590453
 30
0.000000000
 10
-7.948303277
 20
1.071838210
 30
0.000000000
 10
-7.706681987
 20
0.920730825
 30
0.000000000
 10
-7.595847616
 20
0.852037289
 30
0.000000000
 10
-7.480755426
 20
0.791463915
 30
0.000000000
 10
-7.361405419
 20
0.739010704
 30
0.000000000
 10
-7.251389371
 20
0.692392136
 30
0.000000000
 10
-7.138001988
 20
0.649719234
 30
0.000000000
 10
-7.019287585
 20
0.632140619
 30
0.000000000
  0
SPLINE
  5
A8E
330
A02
100
AcDbEntity
  8
Shape2DView
100
AcDbSpline
210
0
220
0
230
1
 70
8
 71
1
 72
4
 73
2
 74
0
 40
0.000000000
 40
0.000000000
 40
0.797694656
 40
0.797694656
 10
-7.019287585
 20
0.632140619
 30
0.000000000
 10
-6.224808189
 20
0.560591664
 30
0.000000000
  0
SPLINE
  5
A8F
330
A02
100
AcDbEntity
  8
Shape2DView
100
AcDbSpline
210
0
220
0
230
1
 70
8
 71
1
 72
4
 73
2
 74
0
 40
0.000000000
 40
0.000000000
 40
1.121183327
 40
1.121183327
 10
-6.224808189
 20
0.560591664
 30
0.000000000
 10
-6.224808189
 20
-0.560591664
 30
0.000000000
  0
SPLINE
  5
A90
330
A02
100
AcDbEntity
  8
Shape2DView
100
AcDbSpline
210
0
220
0
230
1
 70
8
 71
1
 72
4
 73
2
 74
0
 40
0.000000000
 40
0.000000000
 40
0.797694656
 40
0.797694656
 10
-6.224808189
 20
-0.560591664
 30
0.000000000
 10
-7.019287585
 20
-0.632140619
 30
0.000000000
  0
SPLINE
  5
A91
330
A02
100
AcDbEntity
  8
Shape2DView
100
AcDbSpline
210
0
220
0
230
1
 70
8
 71
3
 72
14
 73
10
 74
0
 40
0.000000000
 40
0.000000000
 40
0.000000000
 40
0.000000000
 40
0.359419874
 40
0.359419874
 40
0.359419874
 40
0.749900563
 40
0.749900563
 40
0.749900563
 40
1.601858414
 40
1.601858414
 40
1.601858414
 40
1.601858414
 10
-7.019287585
 20
-0.632140619
 30
0.000000000
 10
-7.138001988
 20
-0.649719234
 30
0.000000000
 10
-7.251389371
 20
-0.692392136
 30
0.000000000
 10
-7.361405419
 20
-0.739010704
 30
0.000000000
 10
-7.480755426
 20
-0.791463915
 30
0.000000000
 10
-7.595847616
 20
-0.852037289
 30
0.000000000
 10
-7.706681987
 20
-0.920730825
 30
0.000000000
 10
-7.948303277
 20
-1.071838210
 30
0.000000000
 10
-8.171501507
 20
-1.246590453
 30
0.000000000
 10
-8.376276677
 20
-1.444987553
 30
0.000000000
  0
SPLINE
  5
A92
330
A02
100
AcDbEntity
  8
Shape2DView
100
AcDbSpline
210
0
220
0
230
1
 70
8
 71
1
 72
4
 73
2
 74
0
 40
0.000000000
 40
0.000000000
 40
0.656229476
 40
0.656229476
 10
-8.376276677
 20
-1.444987553
 30
0.000000000
 10
-8.239838897
 20
-2.086876841
 30
0.000000000
  0
SPLINE
  5
A93
330
A02
100
AcDbEntity
  8
Shape2DView
100
AcDbSpline
210
0
220
0
230
1
 70
8
 71
3
 72
14
 73
10
 74
0
 40
0.000000000
 40
0.000000000
 40
0.000000000
 40
0.000000000
 40
0.851957851
 40
0.851957851
 40
0.851957851
 40
1.242438540
 40
1.242438540
 40
1.242438540
 40
1.601858414
 40
1.601858414
 40
1.601858414
 40
1.601858414
 10
-8.239838897
 20
-2.086876841
 30
0.000000000
 10
-7.972072100
 20
-2.184832046
 30
0.000000000
 10
-7.697092230
 20
-2.253693265
 30
0.000000000
 10
-7.414899288
 20
-2.293460498
 30
0.000000000
 10
-7.285706873
 20
-2.311134766
 30
0.000000000
 10
-7.155927515
 20
-2.319659085
 30
0.000000000
 10
-7.025561215
 20
-2.319033457
 30
0.000000000
 10
-6.906095075
 20
-2.316874080
 30
0.000000000
 10
-6.785153913
 20
-2.309738912
 30
0.000000000
 10
-6.669553043
 20
-2.277512278
 30
0.000000000
  0
SPLINE
  5
A94
330
A02
100
AcDbEntity
  8
Shape2DView
100
AcDbSpline
210
0
220
0
230
1
 70
8
 71
1
 72
4
 73
2
 74
0
 40
0.000000000
 40
0.000000000
 40
0.797694656
 40
0.797694656
 10
-6.669553043
 20
-2.277512278
 30
0.000000000
 10
-5.914658417
 20
-2.019731619
 30
0.000000000
  0
SPLINE
  5
A95
330
A02
100
AcDbEntity
  8
Shape2DView
100
AcDbSpline
210
0
220
0
230
1
 70
8
 71
1
 72
4
 73
2
 74
0
 40
0.000000000
 40
0.000000000
 40
1.121183327
 40
1.121183327
 10
-5.914658417
 20
-2.019731619
 30
0.000000000
 10
-5.458632074
 20
-3.043983554
 30
0.000000000
  0
SPLINE
  5
A96
330
A02
100
AcDbEntity
  8
Shape2DView
100
AcDbSpline
210
0
220
0
230
1
 70
8
 71
1
 72
4
 73
2
 74
0
 40
0.000000000
 40
0.000000000
 40
0.797694656
 40
0.797694656
 10
-5.458632074
 20
-3.043983554
 30
0.000000000
 10
-6.155323536
 20
-3.432490660
 30
0.000000000
  0
SPLINE
  5
A97
330
A02
100
AcDbEntity
  8
Shape2DView
100
AcDbSpline
210
0
220
0
230
1
 70
8
 71
3
 72
14
 73
10
 74
0
 40
0.000000000
 40
0.000000000
 40
0.000000000
 40
0.000000000
 40
0.359419874
 40
0.359419874
 40
0.359419874
 40
0.749900563
 40
0.749900563
 40
0.749900563
 40
1.601858414
 40
1.601858414
 40
1.601858414
 40
1.601858414
 10
-6.155323536
 20
-3.432490660
 30
0.000000000
 10
-6.256624672
 20
-3.496835022
 30
0.000000000
 10
-6.342852569
 20
-3.581937461
 30
0.000000000
 10
-6.424395750
 20
-3.669273200
 30
0.000000000
 10
-6.512092764
 20
-3.765735614
 30
0.000000000
 10
-6.592597300
 20
-3.867884355
 30
0.000000000
 10
-6.665909358
 20
-3.975719423
 30
0.000000000
 10
-6.825180479
 20
-4.212039122
 30
0.000000000
 10
-6.958004068
 20
-4.462466138
 30
0.000000000
 10
-7.064380124
 20
-4.727000473
 30
0.000000000
  0
SPLINE
  5
A98
330
A02
100
AcDbEntity
  8
Shape2DView
100
AcDbSpline
210
0
220
0
230
1
 70
8
 71
1
 72
4
 73
2
 74
0
 40
0.000000000
 40
0.000000000
 40
0.656229476
 40
0.656229476
 10
-7.064380124
 20
-4.727000473
 30
0.000000000
 10
-6.678658115
 20
-5.257901272
 30
0.000000000
  0
SPLINE
  5
A99
330
A02
100
AcDbEntity
  8
Shape2DView
100
AcDbSpline
210
0
220
0
230
1
 70
8
 71
3
 72
14
 73
10
 74
0
 40
0.000000000
 40
0.000000000
 40
0.000000000
 40
0.000000000
 40
0.851957851
 40
0.851957851
 40
0.851957851
 40
1.242438540
 40
1.242438540
 40
1.242438540
 40
1.601858414
 40
1.601858414
 40
1.601858414
 40
1.601858414
 10
-6.678658115
 20
-5.257901272
 30
0.000000000
 10
-6.394199003
 20
-5.238477235
 30
0.000000000
 10
-6.114984011
 20
-5.189540700
 30
0.000000000
 10
-5.841013139
 20
-5.111091665
 30
0.000000000
 10
-5.715801223
 20
-5.074690623
 30
0.000000000
 10
-5.593774728
 20
-5.029691956
 30
0.000000000
 10
-5.474933652
 20
-4.976095665
 30
0.000000000
 10
-5.366674200
 20
-4.925531719
 30
0.000000000
 10
-5.259091085
 20
-4.869822216
 30
0.000000000
 10
-5.166592188
 20
-4.793362611
 30
0.000000000
  0
SPLINE
  5
A9A
330
A02
100
AcDbEntity
  8
Shape2DView
100
AcDbSpline
210
0
220
0
230
1
 70
8
 71
1
 72
4
 73
2
 74
0
 40
0.000000000
 40
0.000000000
 40
0.797694656
 40
0.797694656
 10
-5.166592188
 20
-4.793362611
 30
0.000000000
 10
-4.581810472
 20
-4.250824955
 30
0.000000000
  0
SPLINE
  5
A9B
330
A02
100
AcDbEntity
  8
Shape2DView
100
AcDbSpline
210
0
220
0
230
1
 70
8
 71
1
 72
4
 73
2
 74
0
 40
0.000000000
 40
0.000000000
 40
1.121183327
 40
1.121183327
 10
-4.581810472
 20
-4.250824955
 30
0.000000000
 10
-3.748608884
 20
-5.001043035
 30
0.000000000
  0
SPLINE
  5
A9C
330
A02
100
AcDbEntity
  8
Shape2DView
100
AcDbSpline
210
0
220
0
230
1
 70
8
 71
1
 72
4
 73
2
 74
0
 40
0.000000000
 40
0.000000000
 40
0.797694656
 40
0.797694656
 10
-3.748608884
 20
-5.001043035
 30
0.000000000
 10
-4.227048128
 20
-5.639331883
 30
0.000000000
  0
SPLINE
  5
A9D
330
A02
100
AcDbEntity
  8
Shape2DView
100
AcDbSpline
210
0
220
0
230
1
 70
8
 71
3
 72
14
 73
10
 74
0
 40
0.000000000
 40
0.000000000
 40
0.000000000
 40
0.000000000
 40
0.359419874
 40
0.359419874
 40
0.359419874
 40
0.749900563
 40
0.749900563
 40
0.749900563
 40
1.601858414
 40
1.601858414
 40
1.601858414
 40
1.601858414
 10
-4.227048128
 20
-5.639331883
 30
0.000000000
 10
-4.293420111
 20
-5.739316267
 30
0.000000000
 10
-4.337578934
 20
-5.852133259
 30
0.000000000
 10
-4.376549691
 20
-5.965085026
 30
0.000000000
 10
-4.417430102
 20
-6.088877415
 30
0.000000000
 10
-4.449427019
 20
-6.214939078
 30
0.000000000
 10
-4.472540443
 20
-6.343270015
 30
0.000000000
 10
-4.521921971
 20
-6.623940203
 30
0.000000000
 10
-4.541404513
 20
-6.906740887
 30
0.000000000
 10
-4.530988069
 20
-7.191672067
 30
0.000000000
  0
SPLINE
  5
A9E
330
A02
100
AcDbEntity
  8
Shape2DView
100
AcDbSpline
210
0
220
0
230
1
 70
8
 71
1
 72
4
 73
2
 74
0
 40
0.000000000
 40
0.000000000
 40
0.656229476
 40
0.656229476
 10
-4.530988069
 20
-7.191672067
 30
0.000000000
 10
-3.962676671
 20
-7.519786805
 30
0.000000000
  0
SPLINE
  5
A9F
330
A02
100
AcDbEntity
  8
Shape2DView
100
AcDbSpline
210
0
220
0
230
1
 70
8
 71
3
 72
14
 73
10
 74
0
 40
0.000000000
 40
0.000000000
 40
0.000000000
 40
0.000000000
 40
0.851957851
 40
0.851957851
 40
0.851957851
 40
1.242438540
 40
1.242438540
 40
1.242438540
 40
1.601858414
 40
1.601858414
 40
1.601858414
 40
1.601858414
 10
-3.962676671
 20
-7.519786805
 30
0.000000000
 10
-3.710710809
 20
-7.386342121
 30
0.000000000
 10
-3.475539504
 20
-7.228069403
 30
0.000000000
 10
-3.257162755
 20
-7.044968651
 30
0.000000000
 10
-3.157581615
 20
-6.960786370
 30
0.000000000
 10
-3.064407471
 20
-6.870045395
 30
0.000000000
 10
-2.977640322
 20
-6.772745726
 30
0.000000000
 10
-2.899306601
 20
-6.682520177
 30
0.000000000
 10
-2.823683632
 20
-6.587869019
 30
0.000000000
 10
-2.770280607
 20
-6.480397003
 30
0.000000000
  0
SPLINE
  5
AA0
330
A02
100
AcDbEntity
  8
Shape2DView
100
AcDbSpline
210
0
220
0
230
1
 70
8
 71
1
 72
4
 73
2
 74
0
 40
0.000000000
 40
0.000000000
 40
0.797694656
 40
0.797694656
 10
-2.770280607
 20
-6.480397003
 30
0.000000000
 10
-2.456725872
 20
-5.746912040
 30
0.000000000
  0
SPLINE
  5
AA1
330
A02
100
AcDbEntity
  8
Shape2DView
100
AcDbSpline
210
0
220
0
230
1
 70
8
 71
1
 72
4
 73
2
 74
0
 40
0.000000000
 40
0.000000000
 40
1.121183327
 40
1.121183327
 10
-2.456725872
 20
-5.746912040
 30
0.000000000
 10
-1.390417162
 20
-6.093376742
 30
0.000000000
  0
SPLINE
  5
AA2
330
A02
100
AcDbEntity
  8
Shape2DView
100
AcDbSpline
210
0
220
0
230
1
 70
8
 71
1
 72
4
 73
2
 74
0
 40
0.000000000
 40
0.000000000
 40
0.797694656
 40
0.797694656
 10
-1.390417162
 20
-6.093376742
 30
0.000000000
 10
-1.567877697
 20
-6.871081392
 30
0.000000000
  0
SPLINE
  5
AA3
330
A02
100
AcDbEntity
  8
Shape2DView
100
AcDbSpline
210
0
220
0
230
1
 70
8
 71
3
 72
14
 73
10
 74
0
 40
0.000000000
 40
0.000000000
 40
0.000000000
 40
0.000000000
 40
0.359419874
 40
0.359419874
 40
0.359419874
 40
0.749900563
 40
0.749900563
 40
0.749900563
 40
1.601858414
 40
1.601858414
 40
1.601858414
 40
1.601858414
 10
-1.567877697
 20
-6.871081392
 30
0.000000000
 10
-1.587844209
 20
-6.989417589
 30
0.000000000
 10
-1.582298496
 20
-7.110442051
 30
0.000000000
 10
-1.571958432
 20
-7.229479459
 30
0.000000000
 10
-1.558953644
 20
-7.359196995
 30
0.000000000
 10
-1.536910384
 20
-7.487374374
 30
0.000000000
 10
-1.505828654
 20
-7.614011595
 30
0.000000000
 10
-1.436782075
 20
-7.890501847
 30
0.000000000
 10
-1.339554861
 20
-8.156777391
 30
0.000000000
 10
-1.214147014
 20
-8.412838227
 30
0.000000000
  0
SPLINE
  5
AA4
330
A02
100
AcDbEntity
  8
Shape2DView
100
AcDbSpline
210
0
220
0
230
1
 70
8
 71
1
 72
4
 73
2
 74
0
 40
0.000000000
 40
0.000000000
 40
0.656229476
 40
0.656229476
 10
-1.214147014
 20
-8.412838227
 30
0.000000000
 10
-0.561512431
 20
-8.481432885
 30
0.000000000
  0
SPLINE
  5
AA5
330
A02
100
AcDbEntity
  8
Shape2DView
100
AcDbSpline
210
0
220
0
230
1
 70
8
 71
3
 72
14
 73
10
 74
0
 40
0.000000000
 40
0.000000000
 40
0.000000000
 40
0.000000000
 40
0.851957851
 40
0.851957851
 40
0.851957851
 40
1.242438540
 40
1.242438540
 40
1.242438540
 40
1.601858414
 40
1.601858414
 40
1.601858414
 40
1.601858414
 10
-0.561512431
 20
-8.481432885
 30
0.000000000
 10
-0.385607005
 20
-8.257041351
 30
0.000000000
 10
-0.235142641
 20
-8.016799241
 30
0.000000000
 10
-0.110119340
 20
-7.760706555
 30
0.000000000
 10
-0.053387461
 20
-7.643298916
 30
0.000000000
 10
-0.005176324
 20
-7.522505572
 30
0.000000000
 10
0.034514070
 20
-7.398326523
 30
0.000000000
 10
0.069377448
 20
-7.284040188
 30
0.000000000
 10
0.099964374
 20
-7.166813419
 30
0.000000000
 10
0.105037658
 20
-7.046911881
 30
0.000000000
  0
SPLINE
  5
AA6
330
A02
100
AcDbEntity
  8
Shape2DView
100
AcDbSpline
210
0
220
0
230
1
 70
8
 71
1
 72
4
 73
2
 74
0
 40
0.000000000
 40
0.000000000
 40
0.797694656
 40
0.797694656
 10
0.105037658
 20
-7.046911881
 30
0.000000000
 10
0.093148950
 20
-6.249305823
 30
0.000000000
  0
SPLINE
  5
AA7
330
A02
100
AcDbEntity
  8
Shape2DView
100
AcDbSpline
210
0
220
0
230
1
 70
8
 71
1
 72
4
 73
2
 74
0
 40
0.000000000
 40
0.000000000
 40
1.121183327
 40
1.121183327
 10
0.093148950
 20
-6.249305823
 30
0.000000000
 10
1.208190318
 20
-6.132110253
 30
0.000000000
  0
SPLINE
  5
AA8
330
A02
100
AcDbEntity
  8
Shape2DView
100
AcDbSpline
210
0
220
0
230
1
 70
8
 71
1
 72
4
 73
2
 74
0
 40
0.000000000
 40
0.000000000
 40
0.797694656
 40
0.797694656
 10
1.208190318
 20
-6.132110253
 30
0.000000000
 10
1.362393031
 20
-6.914758506
 30
0.000000000
  0
SPLINE
  5
AA9
330
A02
100
AcDbEntity
  8
Shape2DView
100
AcDbSpline
210
0
220
0
230
1
 70
8
 71
3
 72
14
 73
10
 74
0
 40
0.000000000
 40
0.000000000
 40
0.000000000
 40
0.000000000
 40
0.359419874
 40
0.359419874
 40
0.359419874
 40
0.749900563
 40
0.749900563
 40
0.749900563
 40
1.601858414
 40
1.601858414
 40
1.601858414
 40
1.601858414
 10
1.362393031
 20
-6.914758506
 30
0.000000000
 10
1.392284383
 20
-7.030985113
 30
0.000000000
 10
1.446575727
 20
-7.139290816
 30
0.000000000
 10
1.504438722
 20
-7.243831217
 30
0.000000000
 10
1.569080062
 20
-7.357044559
 30
0.000000000
 10
1.641352018
 20
-7.465174619
 30
0.000000000
 10
1.721254590
 20
-7.568221399
 30
0.000000000
 10
1.896790496
 20
-7.792724039
 30
0.000000000
 10
2.093915995
 20
-7.996432982
 30
0.000000000
 10
2.312631089
 20
-8.179348229
 30
0.000000000
  0
SPLINE
  5
AAA
330
A02
100
AcDbEntity
  8
Shape2DView
100
AcDbSpline
210
0
220
0
230
1
 70
8
 71
1
 72
4
 73
2
 74
0
 40
0.000000000
 40
0.000000000
 40
0.656229476
 40
0.656229476
 10
2.312631089
 20
-8.179348229
 30
0.000000000
 10
2.936742409
 20
-7.976562168
 30
0.000000000
  0
SPLINE
  5
AAB
330
A02
100
AcDbEntity
  8
Shape2DView
100
AcDbSpline
210
0
220
0
230
1
 70
8
 71
3
 72
14
 73
10
 74
0
 40
0.000000000
 40
0.000000000
 40
0.000000000
 40
0.000000000
 40
0.851957851
 40
0.851957851
 40
0.851957851
 40
1.242438540
 40
1.242438540
 40
1.242438540
 40
1.601858414
 40
1.601858414
 40
1.601858414
 40
1.601858414
 10
2.936742409
 20
-7.976562168
 30
0.000000000
 10
3.006171753
 20
-7.700023119
 30
0.000000000
 10
3.045912520
 20
-7.419351660
 30
0.000000000
 10
3.055964709
 20
-7.134547792
 30
0.000000000
 10
3.060037871
 20
-7.004215643
 30
0.000000000
 10
3.054949857
 20
-6.874256196
 30
0.000000000
 10
3.040700666
 20
-6.744669452
 30
0.000000000
 10
3.026065506
 20
-6.626083476
 30
0.000000000
 10
3.006327632
 20
-6.506550671
 30
0.000000000
 10
2.962193957
 20
-6.394951675
 30
0.000000000
  0
SPLINE
  5
AAC
330
A02
100
AcDbEntity
  8
Shape2DView
100
AcDbSpline
210
0
220
0
230
1
 70
8
 71
1
 72
4
 73
2
 74
0
 40
0.000000000
 40
0.000000000
 40
0.797694656
 40
0.797694656
 10
2.962193957
 20
-6.394951675
 30
0.000000000
 10
2.626917473
 20
-5.671137857
 30
0.000000000
  0
SPLINE
  5
AAD
330
A02
100
AcDbEntity
  8
Shape2DView
100
AcDbSpline
210
0
220
0
230
1
 70
8
 71
1
 72
4
 73
2
 74
0
 40
0.000000000
 40
0.000000000
 40
1.121183327
 40
1.121183327
 10
2.626917473
 20
-5.671137857
 30
0.000000000
 10
3.597890716
 20
-5.110546193
 30
0.000000000
  0
SPLINE
  5
AAE
330
A02
100
AcDbEntity
  8
Shape2DView
100
AcDbSpline
210
0
220
0
230
1
 70
8
 71
1
 72
4
 73
2
 74
0
 40
0.000000000
 40
0.000000000
 40
0.797694656
 40
0.797694656
 10
3.597890716
 20
-5.110546193
 30
0.000000000
 10
4.057093628
 20
-5.762811055
 30
0.000000000
  0
SPLINE
  5
AAF
330
A02
100
AcDbEntity
  8
Shape2DView
100
AcDbSpline
210
0
220
0
230
1
 70
8
 71
3
 72
14
 73
10
 74
0
 40
0.000000000
 40
0.000000000
 40
0.000000000
 40
0.000000000
 40
0.359419874
 40
0.359419874
 40
0.359419874
 40
0.749900563
 40
0.749900563
 40
0.749900563
 40
1.601858414
 40
1.601858414
 40
1.601858414
 40
1.601858414
 10
4.057093628
 20
-5.762811055
 30
0.000000000
 10
4.131674356
 20
-5.856831437
 30
0.000000000
 10
4.225323865
 20
-5.933691340
 30
0.000000000
 10
4.320704753
 20
-6.005658749
 30
0.000000000
 10
4.425805570
 20
-6.082792281
 30
0.000000000
 10
4.535809745
 20
-6.152178354
 30
0.000000000
 10
4.650717278
 20
-6.213816967
 30
0.000000000
 10
4.902390758
 20
-6.347513450
 30
0.000000000
 10
5.165329754
 20
-6.453432666
 30
0.000000000
 10
5.439534268
 20
-6.531574615
 30
0.000000000
  0
SPLINE
  5
AB0
330
A02
100
AcDbEntity
  8
Shape2DView
100
AcDbSpline
210
0
220
0
230
1
 70
8
 71
1
 72
4
 73
2
 74
0
 40
0.000000000
 40
0.000000000
 40
0.656229476
 40
0.656229476
 10
5.439534268
 20
-6.531574615
 30
0.000000000
 10
5.927207808
 20
-6.092471387
 30
0.000000000
  0
SPLINE
  5
AB1
330
A02
100
AcDbEntity
  8
Shape2DView
100
AcDbSpline
210
0
220
0
230
1
 70
8
 71
3
 72
14
 73
10
 74
0
 40
0.000000000
 40
0.000000000
 40
0.000000000
 40
0.000000000
 40
0.851957851
 40
0.851957851
 40
0.851957851
 40
1.242438540
 40
1.242438540
 40
1.242438540
 40
1.601858414
 40
1.601858414
 40
1.601858414
 40
1.601858414
 10
5.927207808
 20
-6.092471387
 30
0.000000000
 10
5.878156105
 20
-5.811600937
 30
0.000000000
 10
5.800301735
 20
-5.539030774
 30
0.000000000
 10
5.693644698
 20
-5.274760901
 30
0.000000000
 10
5.644354855
 20
-5.154039854
 30
0.000000000
 10
5.586847454
 20
-5.037385473
 30
0.000000000
 10
5.521122494
 20
-4.924797760
 30
0.000000000
 10
5.459519348
 20
-4.822416736
 30
0.000000000
 10
5.392869530
 20
-4.721246201
 30
0.000000000
 10
5.307160011
 20
-4.637246228
 30
0.000000000
  0
SPLINE
  5
AB2
330
A02
100
AcDbEntity
  8
Shape2DView
100
AcDbSpline
210
0
220
0
230
1
 70
8
 71
1
 72
4
 73
2
 74
0
 40
0.000000000
 40
0.000000000
 40
0.797694656
 40
0.797694656
 10
5.307160011
 20
-4.637246228
 30
0.000000000
 10
4.706468099
 20
-4.112378634
 30
0.000000000
  0
SPLINE
  5
AB3
330
A02
100
AcDbEntity
  8
Shape2DView
100
AcDbSpline
210
0
220
0
230
1
 70
8
 71
1
 72
4
 73
2
 74
0
 40
0.000000000
 40
0.000000000
 40
1.121183327
 40
1.121183327
 10
4.706468099
 20
-4.112378634
 30
0.000000000
 10
5.365483124
 20
-3.205322269
 30
0.000000000
  0
SPLINE
  5
AB4
330
A02
100
AcDbEntity
  8
Shape2DView
100
AcDbSpline
210
0
220
0
230
1
 70
8
 71
1
 72
4
 73
2
 74
0
 40
0.000000000
 40
0.000000000
 40
0.797694656
 40
0.797694656
 10
5.365483124
 20
-3.205322269
 30
0.000000000
 10
6.050285878
 20
-3.614421220
 30
0.000000000
  0
SPLINE
  5
AB5
330
A02
100
AcDbEntity
  8
Shape2DView
100
AcDbSpline
210
0
220
0
230
1
 70
8
 71
3
 72
14
 73
10
 74
0
 40
0.000000000
 40
0.000000000
 40
0.000000000
 40
0.000000000
 40
0.359419874
 40
0.359419874
 40
0.359419874
 40
0.749900563
 40
0.749900563
 40
0.749900563
 40
1.601858414
 40
1.601858414
 40
1.601858414
 40
1.601858414
 10
6.050285878
 20
-3.614421220
 30
0.000000000
 10
6.156660298
 20
-3.669978397
 30
0.000000000
 10
6.273475121
 20
-3.702102726
 30
0.000000000
 10
6.389881679
 20
-3.729053323
 30
0.000000000
 10
6.517269088
 20
-3.756769958
 30
0.000000000
 10
6.645984761
 20
-3.775414561
 30
0.000000000
 10
6.776028698
 20
-3.784987132
 30
0.000000000
 10
7.060323121
 20
-3.804760120
 30
0.000000000
 10
7.343611073
 20
-3.794575213
 30
0.000000000
 10
7.625892555
 20
-3.754432413
 30
0.000000000
  0
SPLINE
  5
AB6
330
A02
100
AcDbEntity
  8
Shape2DView
100
AcDbSpline
210
0
220
0
230
1
 70
8
 71
1
 72
4
 73
2
 74
0
 40
0.000000000
 40
0.000000000
 40
0.656229476
 40
0.656229476
 10
7.625892555
 20
-3.754432413
 30
0.000000000
 10
7.892805129
 20
-3.154936955
 30
0.000000000
  0
SPLINE
  5
AB7
330
A02
100
AcDbEntity
  8
Shape2DView
100
AcDbSpline
210
0
220
0
230
1
 70
8
 71
3
 72
14
 73
10
 74
0
 40
0.000000000
 40
0.000000000
 40
0.000000000
 40
0.000000000
 40
0.851957851
 40
0.851957851
 40
0.851957851
 40
1.242438540
 40
1.242438540
 40
1.242438540
 40
1.601858414
 40
1.601858414
 40
1.601858414
 40
1.601858414
 10
7.892805129
 20
-3.154936955
 30
0.000000000
 10
7.733753865
 20
-2.918300156
 30
0.000000000
 10
7.551766086
 20
-2.700961147
 30
0.000000000
 10
7.346841793
 20
-2.502919930
 30
0.000000000
 10
7.252711608
 20
-2.412683751
 30
0.000000000
 10
7.152728371
 20
-2.329505039
 30
0.000000000
 10
7.046892084
 20
-2.253383794
 30
0.000000000
 10
6.948972696
 20
-2.184910332
 30
0.000000000
 10
6.846935294
 20
-2.119595372
 30
0.000000000
 10
6.734469885
 20
-2.077718780
 30
0.000000000
  0
SPLINE
  5
AB8
330
A02
100
AcDbEntity
  8
Shape2DView
100
AcDbSpline
210
0
220
0
230
1
 70
8
 71
1
 72
4
 73
2
 74
0
 40
0.000000000
 40
0.000000000
 40
0.797694656
 40
0.797694656
 10
6.734469885
 20
-2.077718780
 30
0.000000000
 10
5.972227634
 20
-1.842551786
 30
0.000000000
  0
SPLINE
  5
AB9
330
A02
100
AcDbEntity
  8
Shape2DView
100
AcDbSpline
210
0
220
0
230
1
 70
8
 71
1
 72
4
 73
2
 74
0
 40
0.000000000
 40
0.000000000
 40
1.121183327
 40
1.121183327
 10
5.972227634
 20
-1.842551786
 30
0.000000000
 10
6.205334755
 20
-0.745869005
 30
0.000000000
  0
SPLINE
  5
ABA
330
A02
100
AcDbEntity
  8
Shape2DView
100
AcDbSpline
210
0
220
0
230
1
 70
8
 71
1
 72
4
 73
2
 74
0
 40
0.000000000
 40
0.000000000
 40
0.797694656
 40
0.797694656
 10
6.205334755
 20
-0.745869005
 30
0.000000000
 10
6.997328735
 20
-0.841065120
 30
0.000000000
  0
SPLINE
  5
ABB
330
A02
100
AcDbEntity
  8
Shape2DView
100
AcDbSpline
210
0
220
0
230
1
 70
8
 71
3
 72
14
 73
10
 74
0
 40
0.000000000
 40
0.000000000
 40
0.000000000
 40
0.000000000
 40
0.359419874
 40
0.359419874
 40
0.359419874
 40
0.749900563
 40
0.749900563
 40
0.749900563
 40
1.601858414
 40
1.601858414
 40
1.601858414
 40
1.601858414
 10
6.997328735
 20
-0.841065120
 30
0.000000000
 10
7.117103743
 20
-0.848552752
 30
0.000000000
 10
7.236885535
 20
-0.830386918
 30
0.000000000
 10
7.354190014
 20
-0.807660701
 30
0.000000000
 10
7.481837573
 20
-0.781167980
 30
0.000000000
 10
7.607008634
 20
-0.745847291
 30
0.000000000
 10
7.729703198
 20
-0.701698635
 30
0.000000000
 10
7.997461475
 20
-0.604129200
 30
0.000000000
 10
8.252115322
 20
-0.479601234
 30
0.000000000
 10
8.493664740
 20
-0.328114738
 30
0.000000000
  0
CIRCLE
  5
ABC
330
A02
100
AcDbEntity
  8
Shape2DView002
100
AcDbCircle
 10
36.442946196
 20
-0.217788219
 30
0.000000000
 40
7.000000000
  0
LINE
  5
ABD
330
A02
100
AcDbEntity
  8
Shape2DView002
100
AcDbLine
 10
42.692256530
 20
-0.310634020
 30
0.000000000
 11
42.692256530
 21
-0.124942419
 31
0.000000000
  0
SPLINE
  5
ABE
330
A02
100
AcDbEntity
  8
Shape2DView002
100
AcDbSpline
210
0
220
0
230
1
 70
8
 71
3
 72
14
 73
10
 74
0
 40
0.000000000
 40
0.000000000
 40
0.000000000
 40
0.000000000
 40
0.961357497
 40
0.961357497
 40
0.961357497
 40
1.401979698
 40
1.401979698
 40
1.401979698
 40
1.807552688
 40
1.807552688
 40
1.807552688
 40
1.807552688
 10
42.692256530
 20
-0.124942419
 30
0.000000000
 10
42.448273553
 20
0.082481077
 30
0.000000000
 10
42.179782961
 20
0.263092514
 30
0.000000000
 10
41.888168151
 20
0.396581598
 30
0.000000000
 10
41.754437339
 20
0.458389813
 30
0.000000000
 10
41.616225507
 20
0.507509410
 30
0.000000000
 10
41.473532656
 20
0.543940390
 30
0.000000000
 10
41.342585700
 20
0.575009216
 30
0.000000000
 10
41.207027333
 20
0.599496805
 30
0.000000000
 10
41.072093657
 20
0.586294687
 30
0.000000000
  0
LINE
  5
ABF
330
A02
100
AcDbEntity
  8
Shape2DView002
100
AcDbLine
 10
41.072093657
 20
0.586294687
 30
0.000000000
 11
40.778033729
 21
0.535216478
 31
0.000000000
  0
LINE
  5
AC0
330
A02
100
AcDbEntity
  8
Shape2DView002
100
AcDbLine
 10
40.778033729
 20
0.535216478
 30
0.000000000
 11
40.392710739
 21
1.721118703
 31
0.000000000
  0
LINE
  5
AC1
330
A02
100
AcDbEntity
  8
Shape2DView002
100
AcDbLine
 10
40.392710739
 20
1.721118703
 30
0.000000000
 11
40.660633235
 21
1.852639653
 31
0.000000000
  0
SPLINE
  5
AC2
330
A02
100
AcDbEntity
  8
Shape2DView002
100
AcDbSpline
210
0
220
0
230
1
 70
8
 71
3
 72
14
 73
10
 74
0
 40
0.000000000
 40
0.000000000
 40
0.000000000
 40
0.000000000
 40
0.405572991
 40
0.405572991
 40
0.405572991
 40
0.846195191
 40
0.846195191
 40
0.846195191
 40
1.807552688
 40
1.807552688
 40
1.807552688
 40
1.807552688
 10
40.660633235
 20
1.852639653
 30
0.000000000
 10
40.777556883
 20
1.921270940
 30
0.000000000
 10
40.872832461
 20
2.020761024
 30
0.000000000
 10
40.960508977
 20
2.122864923
 30
0.000000000
 10
41.054536326
 20
2.236210957
 30
0.000000000
 10
41.137480271
 20
2.357188423
 30
0.000000000
 10
41.209340814
 20
2.485797318
 30
0.000000000
 10
41.366799236
 20
2.765199141
 30
0.000000000
 10
41.477851948
 20
3.069131673
 30
0.000000000
 10
41.553317852
 20
3.380350401
 30
0.000000000
  0
SPLINE
  5
AC3
330
A02
100
AcDbEntity
  8
Shape2DView002
100
AcDbSpline
210
0
220
0
230
1
 70
8
 71
1
 72
4
 73
2
 74
0
 40
0.000000000
 40
0.000000000
 40
0.185691602
 40
0.185691602
 10
41.553317852
 20
3.380350401
 30
0.000000000
 10
41.444171067
 20
3.530578063
 30
0.000000000
  0
SPLINE
  5
AC4
330
A02
100
AcDbEntity
  8
Shape2DView002
100
AcDbSpline
210
0
220
0
230
1
 70
8
 71
3
 72
14
 73
10
 74
0
 40
0.000000000
 40
0.000000000
 40
0.000000000
 40
0.000000000
 40
0.961357497
 40
0.961357497
 40
0.961357497
 40
1.401979698
 40
1.401979698
 40
1.401979698
 40
1.807552688
 40
1.807552688
 40
1.807552688
 40
1.807552688
 10
41.444171067
 20
3.530578063
 30
0.000000000
 10
41.124864220
 20
3.554977600
 30
0.000000000
 10
40.801490030
 20
3.543280512
 30
0.000000000
 10
40.487105778
 20
3.479868565
 30
0.000000000
 10
40.342585320
 20
3.451267462
 30
0.000000000
 10
40.201897825
 20
3.409767174
 30
0.000000000
 10
40.065043291
 20
3.355367702
 30
0.000000000
 10
39.940843180
 20
3.303534221
 30
0.000000000
 10
39.816780714
 20
3.243665888
 30
0.000000000
 10
39.715377087
 20
3.153673125
 30
0.000000000
  0
SPLINE
  5
AC5
330
A02
100
AcDbEntity
  8
Shape2DView002
100
AcDbSpline
210
0
220
0
230
1
 70
8
 71
1
 72
4
 73
2
 74
0
 40
0.000000000
 40
0.000000000
 40
0.298463104
 40
0.298463104
 10
39.715377087
 20
3.153673125
 30
0.000000000
 10
39.507500626
 20
2.939505898
 30
0.000000000
  0
SPLINE
  5
AC6
330
A02
100
AcDbEntity
  8
Shape2DView002
100
AcDbSpline
210
0
220
0
230
1
 70
8
 71
1
 72
4
 73
2
 74
0
 40
0.000000000
 40
0.000000000
 40
1.246931391
 40
1.246931391
 10
39.507500626
 20
2.939505898
 30
0.000000000
 10
38.498711940
 20
3.672433780
 30
0.000000000
  0
SPLINE
  5
AC7
330
A02
100
AcDbEntity
  8
Shape2DView002
100
AcDbSpline
210
0
220
0
230
1
 70
8
 71
1
 72
4
 73
2
 74
0
 40
0.000000000
 40
0.000000000
 40
0.298463104
 40
0.298463104
 10
38.498711940
 20
3.672433780
 30
0.000000000
 10
38.638159719
 20
3.936317355
 30
0.000000000
  0
SPLINE
  5
AC8
330
A02
100
AcDbEntity
  8
Shape2DView002
100
AcDbSpline
210
0
220
0
230
1
 70
8
 71
3
 72
14
 73
10
 74
0
 40
0.000000000
 40
0.000000000
 40
0.000000000
 40
0.000000000
 40
0.405572991
 40
0.405572991
 40
0.405572991
 40
0.846195191
 40
0.846195191
 40
0.846195191
 40
1.807552688
 40
1.807552688
 40
1.807552688
 40
1.807552688
 10
38.638159719
 20
3.936317355
 30
0.000000000
 10
38.692412478
 20
4.060567229
 30
0.000000000
 10
38.711013236
 20
4.197057978
 30
0.000000000
 10
38.721929861
 20
4.331196729
 30
0.000000000
 10
38.731376457
 20
4.478163487
 30
0.000000000
 10
38.727370748
 20
4.624789540
 30
0.000000000
 10
38.709912737
 20
4.771074890
 30
0.000000000
 10
38.673071005
 20
5.089667450
 30
0.000000000
 10
38.584267477
 20
5.400829181
 30
0.000000000
 10
38.462390896
 20
5.696968166
 30
0.000000000
  0
SPLINE
  5
AC9
330
A02
100
AcDbEntity
  8
Shape2DView002
100
AcDbSpline
210
0
220
0
230
1
 70
8
 71
1
 72
4
 73
2
 74
0
 40
0.000000000
 40
0.000000000
 40
0.185691602
 40
0.185691602
 10
38.462390896
 20
5.696968166
 30
0.000000000
 10
38.285787688
 20
5.754350027
 30
0.000000000
  0
SPLINE
  5
ACA
330
A02
100
AcDbEntity
  8
Shape2DView002
100
AcDbSpline
210
0
220
0
230
1
 70
8
 71
3
 72
14
 73
10
 74
0
 40
0.000000000
 40
0.000000000
 40
0.000000000
 40
0.000000000
 40
0.961357497
 40
0.961357497
 40
0.961357497
 40
1.401979698
 40
1.401979698
 40
1.401979698
 40
1.807552688
 40
1.807552688
 40
1.807552688
 40
1.807552688
 10
38.285787688
 20
5.754350027
 30
0.000000000
 10
38.013121335
 20
5.586405811
 30
0.000000000
 10
37.758381495
 20
5.386868088
 30
0.000000000
 10
37.541311900
 20
5.150776319
 30
0.000000000
 10
37.441203700
 20
5.042690547
 30
0.000000000
 10
37.351778382
 20
4.926422074
 30
0.000000000
 10
37.273035946
 20
4.801970900
 30
0.000000000
 10
37.203022901
 20
4.687033739
 30
0.000000000
 10
37.137843981
 20
4.565677152
 30
0.000000000
 10
37.108703143
 20
4.433267922
 30
0.000000000
  0
SPLINE
  5
ACB
330
A02
100
AcDbEntity
  8
Shape2DView002
100
AcDbSpline
210
0
220
0
230
1
 70
8
 71
1
 72
4
 73
2
 74
0
 40
0.000000000
 40
0.000000000
 40
0.298463104
 40
0.298463104
 10
37.108703143
 20
4.433267922
 30
0.000000000
 10
37.066411891
 20
4.137816277
 30
0.000000000
  0
SPLINE
  5
ACC
330
A02
100
AcDbEntity
  8
Shape2DView002
100
AcDbSpline
210
0
220
0
230
1
 70
8
 71
1
 72
4
 73
2
 74
0
 40
0.000000000
 40
0.000000000
 40
1.246931391
 40
1.246931391
 10
37.066411891
 20
4.137816277
 30
0.000000000
 10
35.819480500
 20
4.137816277
 30
0.000000000
  0
SPLINE
  5
ACD
330
A02
100
AcDbEntity
  8
Shape2DView002
100
AcDbSpline
210
0
220
0
230
1
 70
8
 71
1
 72
4
 73
2
 74
0
 40
0.000000000
 40
0.000000000
 40
0.298463104
 40
0.298463104
 10
35.819480500
 20
4.137816277
 30
0.000000000
 10
35.777189249
 20
4.433267922
 30
0.000000000
  0
SPLINE
  5
ACE
330
A02
100
AcDbEntity
  8
Shape2DView002
100
AcDbSpline
210
0
220
0
230
1
 70
8
 71
3
 72
14
 73
10
 74
0
 40
0.000000000
 40
0.000000000
 40
0.000000000
 40
0.000000000
 40
0.405572991
 40
0.405572991
 40
0.405572991
 40
0.846195191
 40
0.846195191
 40
0.846195191
 40
1.807552688
 40
1.807552688
 40
1.807552688
 40
1.807552688
 10
35.777189249
 20
4.433267922
 30
0.000000000
 10
35.748048410
 20
4.565677152
 30
0.000000000
 10
35.682869490
 20
4.687033739
 30
0.000000000
 10
35.612856445
 20
4.801970900
 30
0.000000000
 10
35.534114009
 20
4.926422074
 30
0.000000000
 10
35.444688691
 20
5.042690547
 30
0.000000000
 10
35.344580492
 20
5.150776319
 30
0.000000000
 10
35.127510896
 20
5.386868088
 30
0.000000000
 10
34.872771056
 20
5.586405811
 30
0.000000000
 10
34.600104703
 20
5.754350027
 30
0.000000000
  0
SPLINE
  5
ACF
330
A02
100
AcDbEntity
  8
Shape2DView002
100
AcDbSpline
210
0
220
0
230
1
 70
8
 71
1
 72
4
 73
2
 74
0
 40
0.000000000
 40
0.000000000
 40
0.185691602
 40
0.185691602
 10
34.600104703
 20
5.754350027
 30
0.000000000
 10
34.423501495
 20
5.696968166
 30
0.000000000
  0
SPLINE
  5
AD0
330
A02
100
AcDbEntity
  8
Shape2DView002
100
AcDbSpline
210
0
220
0
230
1
 70
8
 71
3
 72
14
 73
10
 74
0
 40
0.000000000
 40
0.000000000
 40
0.000000000
 40
0.000000000
 40
0.961357497
 40
0.961357497
 40
0.961357497
 40
1.401979698
 40
1.401979698
 40
1.401979698
 40
1.807552688
 40
1.807552688
 40
1.807552688
 40
1.807552688
 10
34.423501495
 20
5.696968166
 30
0.000000000
 10
34.301624915
 20
5.400829181
 30
0.000000000
 10
34.212821386
 20
5.089667450
 30
0.000000000
 10
34.175979655
 20
4.771074890
 30
0.000000000
 10
34.158521643
 20
4.624789540
 30
0.000000000
 10
34.154515935
 20
4.478163487
 30
0.000000000
 10
34.163962530
 20
4.331196729
 30
0.000000000
 10
34.174879155
 20
4.197057978
 30
0.000000000
 10
34.193479913
 20
4.060567229
 30
0.000000000
 10
34.247732673
 20
3.936317355
 30
0.000000000
  0
SPLINE
  5
AD1
330
A02
100
AcDbEntity
  8
Shape2DView002
100
AcDbSpline
210
0
220
0
230
1
 70
8
 71
1
 72
4
 73
2
 74
0
 40
0.000000000
 40
0.000000000
 40
0.298463104
 40
0.298463104
 10
34.247732673
 20
3.936317355
 30
0.000000000
 10
34.387180451
 20
3.672433780
 30
0.000000000
  0
SPLINE
  5
AD2
330
A02
100
AcDbEntity
  8
Shape2DView002
100
AcDbSpline
210
0
220
0
230
1
 70
8
 71
1
 72
4
 73
2
 74
0
 40
0.000000000
 40
0.000000000
 40
1.246931391
 40
1.246931391
 10
34.387180451
 20
3.672433780
 30
0.000000000
 10
33.378391765
 20
2.939505898
 30
0.000000000
  0
SPLINE
  5
AD3
330
A02
100
AcDbEntity
  8
Shape2DView002
100
AcDbSpline
210
0
220
0
230
1
 70
8
 71
1
 72
4
 73
2
 74
0
 40
0.000000000
 40
0.000000000
 40
0.298463104
 40
0.298463104
 10
33.378391765
 20
2.939505898
 30
0.000000000
 10
33.170515304
 20
3.153673125
 30
0.000000000
  0
SPLINE
  5
AD4
330
A02
100
AcDbEntity
  8
Shape2DView002
100
AcDbSpline
210
0
220
0
230
1
 70
8
 71
3
 72
14
 73
10
 74
0
 40
0.000000000
 40
0.000000000
 40
0.000000000
 40
0.000000000
 40
0.405572991
 40
0.405572991
 40
0.405572991
 40
0.846195191
 40
0.846195191
 40
0.846195191
 40
1.807552688
 40
1.807552688
 40
1.807552688
 40
1.807552688
 10
33.170515304
 20
3.153673125
 30
0.000000000
 10
33.069111677
 20
3.243665888
 30
0.000000000
 10
32.945049211
 20
3.303534221
 30
0.000000000
 10
32.820849100
 20
3.355367702
 30
0.000000000
 10
32.683994566
 20
3.409767174
 30
0.000000000
 10
32.543307071
 20
3.451267462
 30
0.000000000
 10
32.398786614
 20
3.479868565
 30
0.000000000
 10
32.084402361
 20
3.543280512
 30
0.000000000
 10
31.761028171
 20
3.554977600
 30
0.000000000
 10
31.441721324
 20
3.530578063
 30
0.000000000
  0
SPLINE
  5
AD5
330
A02
100
AcDbEntity
  8
Shape2DView002
100
AcDbSpline
210
0
220
0
230
1
 70
8
 71
1
 72
4
 73
2
 74
0
 40
0.000000000
 40
0.000000000
 40
0.185691602
 40
0.185691602
 10
31.441721324
 20
3.530578063
 30
0.000000000
 10
31.332574539
 20
3.380350401
 30
0.000000000
  0
SPLINE
  5
AD6
330
A02
100
AcDbEntity
  8
Shape2DView002
100
AcDbSpline
210
0
220
0
230
1
 70
8
 71
3
 72
14
 73
10
 74
0
 40
0.000000000
 40
0.000000000
 40
0.000000000
 40
0.000000000
 40
0.961357497
 40
0.961357497
 40
0.961357497
 40
1.401979698
 40
1.401979698
 40
1.401979698
 40
1.807552688
 40
1.807552688
 40
1.807552688
 40
1.807552688
 10
31.332574539
 20
3.380350401
 30
0.000000000
 10
31.408040443
 20
3.069131673
 30
0.000000000
 10
31.519093155
 20
2.765199141
 30
0.000000000
 10
31.676551577
 20
2.485797318
 30
0.000000000
 10
31.748412120
 20
2.357188423
 30
0.000000000
 10
31.831356066
 20
2.236210957
 30
0.000000000
 10
31.925383415
 20
2.122864923
 30
0.000000000
 10
32.013059930
 20
2.020761024
 30
0.000000000
 10
32.108335508
 20
1.921270940
 30
0.000000000
 10
32.225259156
 20
1.852639653
 30
0.000000000
  0
SPLINE
  5
AD7
330
A02
100
AcDbEntity
  8
Shape2DView002
100
AcDbSpline
210
0
220
0
230
1
 70
8
 71
1
 72
4
 73
2
 74
0
 40
0.000000000
 40
0.000000000
 40
0.298463104
 40
0.298463104
 10
32.225259156
 20
1.852639653
 30
0.000000000
 10
32.493181652
 20
1.721118703
 30
0.000000000
  0
SPLINE
  5
AD8
330
A02
100
AcDbEntity
  8
Shape2DView002
100
AcDbSpline
210
0
220
0
230
1
 70
8
 71
1
 72
4
 73
2
 74
0
 40
0.000000000
 40
0.000000000
 40
1.246931391
 40
1.246931391
 10
32.493181652
 20
1.721118703
 30
0.000000000
 10
32.107858662
 20
0.535216478
 30
0.000000000
  0
SPLINE
  5
AD9
330
A02
100
AcDbEntity
  8
Shape2DView002
100
AcDbSpline
210
0
220
0
230
1
 70
8
 71
1
 72
4
 73
2
 74
0
 40
0.000000000
 40
0.000000000
 40
0.298463104
 40
0.298463104
 10
32.107858662
 20
0.535216478
 30
0.000000000
 10
31.813798734
 20
0.586294687
 30
0.000000000
  0
SPLINE
  5
ADA
330
A02
100
AcDbEntity
  8
Shape2DView002
100
AcDbSpline
210
0
220
0
230
1
 70
8
 71
3
 72
14
 73
10
 74
0
 40
0.000000000
 40
0.000000000
 40
0.000000000
 40
0.000000000
 40
0.405572991
 40
0.405572991
 40
0.405572991
 40
0.846195191
 40
0.846195191
 40
0.846195191
 40
1.807552688
 40
1.807552688
 40
1.807552688
 40
1.807552688
 10
31.813798734
 20
0.586294687
 30
0.000000000
 10
31.678865058
 20
0.599496805
 30
0.000000000
 10
31.543306692
 20
0.575009216
 30
0.000000000
 10
31.412359735
 20
0.543940390
 30
0.000000000
 10
31.269666884
 20
0.507509410
 30
0.000000000
 10
31.131455052
 20
0.458389813
 30
0.000000000
 10
30.997724240
 20
0.396581598
 30
0.000000000
 10
30.706109430
 20
0.263092514
 30
0.000000000
 10
30.437618839
 20
0.082481077
 30
0.000000000
 10
30.193635861
 20
-0.124942419
 30
0.000000000
  0
SPLINE
  5
ADB
330
A02
100
AcDbEntity
  8
Shape2DView002
100
AcDbSpline
210
0
220
0
230
1
 70
8
 71
1
 72
4
 73
2
 74
0
 40
0.000000000
 40
0.000000000
 40
0.185691602
 40
0.185691602
 10
30.193635861
 20
-0.124942419
 30
0.000000000
 10
30.193635861
 20
-0.310634020
 30
0.000000000
  0
SPLINE
  5
ADC
330
A02
100
AcDbEntity
  8
Shape2DView002
100
AcDbSpline
210
0
220
0
230
1
 70
8
 71
3
 72
14
 73
10
 74
0
 40
0.000000000
 40
0.000000000
 40
0.000000000
 40
0.000000000
 40
0.961357497
 40
0.961357497
 40
0.961357497
 40
1.401979698
 40
1.401979698
 40
1.401979698
 40
1.807552688
 40
1.807552688
 40
1.807552688
 40
1.807552688
 10
30.193635861
 20
-0.310634020
 30
0.000000000
 10
30.437618839
 20
-0.518057516
 30
0.000000000
 10
30.706109430
 20
-0.698668953
 30
0.000000000
 10
30.997724240
 20
-0.832158037
 30
0.000000000
 10
31.131455052
 20
-0.893966252
 30
0.000000000
 10
31.269666884
 20
-0.943085849
 30
0.000000000
 10
31.412359735
 20
-0.979516829
 30
0.000000000
 10
31.543306692
 20
-1.010585655
 30
0.000000000
 10
31.678865058
 20
-1.035073244
 30
0.000000000
 10
31.813798734
 20
-1.021871126
 30
0.000000000
  0
SPLINE
  5
ADD
330
A02
100
AcDbEntity
  8
Shape2DView002
100
AcDbSpline
210
0
220
0
230
1
 70
8
 71
1
 72
4
 73
2
 74
0
 40
0.000000000
 40
0.000000000
 40
0.298463104
 40
0.298463104
 10
31.813798734
 20
-1.021871126
 30
0.000000000
 10
32.107858662
 20
-0.970792917
 30
0.000000000
  0
SPLINE
  5
ADE
330
A02
100
AcDbEntity
  8
Shape2DView002
100
AcDbSpline
210
0
220
0
230
1
 70
8
 71
1
 72
4
 73
2
 74
0
 40
0.000000000
 40
0.000000000
 40
1.246931391
 40
1.246931391
 10
32.107858662
 20
-0.970792917
 30
0.000000000
 10
32.493181652
 20
-2.156695142
 30
0.000000000
  0
SPLINE
  5
ADF
330
A02
100
AcDbEntity
  8
Shape2DView002
100
AcDbSpline
210
0
220
0
230
1
 70
8
 71
1
 72
4
 73
2
 74
0
 40
0.000000000
 40
0.000000000
 40
0.298463104
 40
0.298463104
 10
32.493181652
 20
-2.156695142
 30
0.000000000
 10
32.225259156
 20
-2.288216092
 30
0.000000000
  0
SPLINE
  5
AE0
330
A02
100
AcDbEntity
  8
Shape2DView002
100
AcDbSpline
210
0
220
0
230
1
 70
8
 71
3
 72
14
 73
10
 74
0
 40
0.000000000
 40
0.000000000
 40
0.000000000
 40
0.000000000
 40
0.405572991
 40
0.405572991
 40
0.405572991
 40
0.846195191
 40
0.846195191
 40
0.846195191
 40
1.807552688
 40
1.807552688
 40
1.807552688
 40
1.807552688
 10
32.225259156
 20
-2.288216092
 30
0.000000000
 10
32.108335508
 20
-2.356847379
 30
0.000000000
 10
32.013059930
 20
-2.456337463
 30
0.000000000
 10
31.925383415
 20
-2.558441361
 30
0.000000000
 10
31.831356066
 20
-2.671787396
 30
0.000000000
 10
31.748412120
 20
-2.792764862
 30
0.000000000
 10
31.676551577
 20
-2.921373757
 30
0.000000000
 10
31.519093155
 20
-3.200775580
 30
0.000000000
 10
31.408040443
 20
-3.504708111
 30
0.000000000
 10
31.332574539
 20
-3.815926840
 30
0.000000000
  0
SPLINE
  5
AE1
330
A02
100
AcDbEntity
  8
Shape2DView002
100
AcDbSpline
210
0
220
0
230
1
 70
8
 71
1
 72
4
 73
2
 74
0
 40
0.000000000
 40
0.000000000
 40
0.185691602
 40
0.185691602
 10
31.332574539
 20
-3.815926840
 30
0.000000000
 10
31.441721324
 20
-3.966154502
 30
0.000000000
  0
SPLINE
  5
AE2
330
A02
100
AcDbEntity
  8
Shape2DView002
100
AcDbSpline
210
0
220
0
230
1
 70
8
 71
3
 72
14
 73
10
 74
0
 40
0.000000000
 40
0.000000000
 40
0.000000000
 40
0.000000000
 40
0.961357497
 40
0.961357497
 40
0.961357497
 40
1.401979698
 40
1.401979698
 40
1.401979698
 40
1.807552688
 40
1.807552688
 40
1.807552688
 40
1.807552688
 10
31.441721324
 20
-3.966154502
 30
0.000000000
 10
31.761028171
 20
-3.990554039
 30
0.000000000
 10
32.084402361
 20
-3.978856951
 30
0.000000000
 10
32.398786614
 20
-3.915445004
 30
0.000000000
 10
32.543307071
 20
-3.886843901
 30
0.000000000
 10
32.683994566
 20
-3.845343613
 30
0.000000000
 10
32.820849100
 20
-3.790944141
 30
0.000000000
 10
32.945049211
 20
-3.739110660
 30
0.000000000
 10
33.069111677
 20
-3.679242327
 30
0.000000000
 10
33.170515304
 20
-3.589249564
 30
0.000000000
  0
SPLINE
  5
AE3
330
A02
100
AcDbEntity
  8
Shape2DView002
100
AcDbSpline
210
0
220
0
230
1
 70
8
 71
1
 72
4
 73
2
 74
0
 40
0.000000000
 40
0.000000000
 40
0.298463104
 40
0.298463104
 10
33.170515304
 20
-3.589249564
 30
0.000000000
 10
33.378391765
 20
-3.375082336
 30
0.000000000
  0
SPLINE
  5
AE4
330
A02
100
AcDbEntity
  8
Shape2DView002
100
AcDbSpline
210
0
220
0
230
1
 70
8
 71
1
 72
4
 73
2
 74
0
 40
0.000000000
 40
0.000000000
 40
1.246931391
 40
1.246931391
 10
33.378391765
 20
-3.375082336
 30
0.000000000
 10
34.387180451
 20
-4.108010219
 30
0.000000000
  0
SPLINE
  5
AE5
330
A02
100
AcDbEntity
  8
Shape2DView002
100
AcDbSpline
210
0
220
0
230
1
 70
8
 71
1
 72
4
 73
2
 74
0
 40
0.000000000
 40
0.000000000
 40
0.298463104
 40
0.298463104
 10
34.387180451
 20
-4.108010219
 30
0.000000000
 10
34.247732673
 20
-4.371893794
 30
0.000000000
  0
SPLINE
  5
AE6
330
A02
100
AcDbEntity
  8
Shape2DView002
100
AcDbSpline
210
0
220
0
230
1
 70
8
 71
3
 72
14
 73
10
 74
0
 40
0.000000000
 40
0.000000000
 40
0.000000000
 40
0.000000000
 40
0.405572991
 40
0.405572991
 40
0.405572991
 40
0.846195191
 40
0.846195191
 40
0.846195191
 40
1.807552688
 40
1.807552688
 40
1.807552688
 40
1.807552688
 10
34.247732673
 20
-4.371893794
 30
0.000000000
 10
34.193479913
 20
-4.496143668
 30
0.000000000
 10
34.174879155
 20
-4.632634417
 30
0.000000000
 10
34.163962530
 20
-4.766773168
 30
0.000000000
 10
34.154515935
 20
-4.913739926
 30
0.000000000
 10
34.158521643
 20
-5.060365979
 30
0.000000000
 10
34.175979655
 20
-5.206651329
 30
0.000000000
 10
34.212821386
 20
-5.525243889
 30
0.000000000
 10
34.301624915
 20
-5.836405619
 30
0.000000000
 10
34.423501495
 20
-6.132544605
 30
0.000000000
  0
SPLINE
  5
AE7
330
A02
100
AcDbEntity
  8
Shape2DView002
100
AcDbSpline
210
0
220
0
230
1
 70
8
 71
1
 72
4
 73
2
 74
0
 40
0.000000000
 40
0.000000000
 40
0.185691602
 40
0.185691602
 10
34.423501495
 20
-6.132544605
 30
0.000000000
 10
34.600104703
 20
-6.189926466
 30
0.000000000
  0
SPLINE
  5
AE8
330
A02
100
AcDbEntity
  8
Shape2DView002
100
AcDbSpline
210
0
220
0
230
1
 70
8
 71
3
 72
14
 73
10
 74
0
 40
0.000000000
 40
0.000000000
 40
0.000000000
 40
0.000000000
 40
0.961357497
 40
0.961357497
 40
0.961357497
 40
1.401979698
 40
1.401979698
 40
1.401979698
 40
1.807552688
 40
1.807552688
 40
1.807552688
 40
1.807552688
 10
34.600104703
 20
-6.189926466
 30
0.000000000
 10
34.872771056
 20
-6.021982250
 30
0.000000000
 10
35.127510896
 20
-5.822444527
 30
0.000000000
 10
35.344580492
 20
-5.586352758
 30
0.000000000
 10
35.444688691
 20
-5.478266986
 30
0.000000000
 10
35.534114009
 20
-5.361998513
 30
0.000000000
 10
35.612856445
 20
-5.237547339
 30
0.000000000
 10
35.682869490
 20
-5.122610178
 30
0.000000000
 10
35.748048410
 20
-5.001253591
 30
0.000000000
 10
35.777189249
 20
-4.868844360
 30
0.000000000
  0
SPLINE
  5
AE9
330
A02
100
AcDbEntity
  8
Shape2DView002
100
AcDbSpline
210
0
220
0
230
1
 70
8
 71
1
 72
4
 73
2
 74
0
 40
0.000000000
 40
0.000000000
 40
0.298463104
 40
0.298463104
 10
35.777189249
 20
-4.868844360
 30
0.000000000
 10
35.819480500
 20
-4.573392716
 30
0.000000000
  0
SPLINE
  5
AEA
330
A02
100
AcDbEntity
  8
Shape2DView002
100
AcDbSpline
210
0
220
0
230
1
 70
8
 71
1
 72
4
 73
2
 74
0
 40
0.000000000
 40
0.000000000
 40
1.246931391
 40
1.246931391
 10
35.819480500
 20
-4.573392716
 30
0.000000000
 10
37.066411891
 20
-4.573392716
 30
0.000000000
  0
SPLINE
  5
AEB
330
A02
100
AcDbEntity
  8
Shape2DView002
100
AcDbSpline
210
0
220
0
230
1
 70
8
 71
1
 72
4
 73
2
 74
0
 40
0.000000000
 40
0.000000000
 40
0.298463104
 40
0.298463104
 10
37.066411891
 20
-4.573392716
 30
0.000000000
 10
37.108703143
 20
-4.868844360
 30
0.000000000
  0
SPLINE
  5
AEC
330
A02
100
AcDbEntity
  8
Shape2DView002
100
AcDbSpline
210
0
220
0
230
1
 70
8
 71
3
 72
14
 73
10
 74
0
 40
0.000000000
 40
0.000000000
 40
0.000000000
 40
0.000000000
 40
0.405572991
 40
0.405572991
 40
0.405572991
 40
0.846195191
 40
0.846195191
 40
0.846195191
 40
1.807552688
 40
1.807552688
 40
1.807552688
 40
1.807552688
 10
37.108703143
 20
-4.868844360
 30
0.000000000
 10
37.137843981
 20
-5.001253591
 30
0.000000000
 10
37.203022901
 20
-5.122610178
 30
0.000000000
 10
37.273035946
 20
-5.237547339
 30
0.000000000
 10
37.351778382
 20
-5.361998513
 30
0.000000000
 10
37.441203700
 20
-5.478266986
 30
0.000000000
 10
37.541311900
 20
-5.586352758
 30
0.000000000
 10
37.758381495
 20
-5.822444527
 30
0.000000000
 10
38.013121335
 20
-6.021982250
 30
0.000000000
 10
38.285787688
 20
-6.189926466
 30
0.000000000
  0
SPLINE
  5
AED
330
A02
100
AcDbEntity
  8
Shape2DView002
100
AcDbSpline
210
0
220
0
230
1
 70
8
 71
1
 72
4
 73
2
 74
0
 40
0.000000000
 40
0.000000000
 40
0.185691602
 40
0.185691602
 10
38.285787688
 20
-6.189926466
 30
0.000000000
 10
38.462390896
 20
-6.132544605
 30
0.000000000
  0
SPLINE
  5
AEE
330
A02
100
AcDbEntity
  8
Shape2DView002
100
AcDbSpline
210
0
220
0
230
1
 70
8
 71
3
 72
14
 73
10
 74
0
 40
0.000000000
 40
0.000000000
 40
0.000000000
 40
0.000000000
 40
0.961357497
 40
0.961357497
 40
0.961357497
 40
1.401979698
 40
1.401979698
 40
1.401979698
 40
1.807552688
 40
1.807552688
 40
1.807552688
 40
1.807552688
 10
38.462390896
 20
-6.132544605
 30
0.000000000
 10
38.584267477
 20
-5.836405619
 30
0.000000000
 10
38.673071005
 20
-5.525243889
 30
0.000000000
 10
38.709912737
 20
-5.206651329
 30
0.000000000
 10
38.727370748
 20
-5.060365979
 30
0.000000000
 10
38.731376457
 20
-4.913739926
 30
0.000000000
 10
38.721929861
 20
-4.766773168
 30
0.000000000
 10
38.711013236
 20
-4.632634417
 30
0.000000000
 10
38.692412478
 20
-4.496143668
 30
0.000000000
 10
38.638159719
 20
-4.371893794
 30
0.000000000
  0
SPLINE
  5
AEF
330
A02
100
AcDbEntity
  8
Shape2DView002
100
AcDbSpline
210
0
220
0
230
1
 70
8
 71
1
 72
4
 73
2
 74
0
 40
0.000000000
 40
0.000000000
 40
0.298463104
 40
0.298463104
 10
38.638159719
 20
-4.371893794
 30
0.000000000
 10
38.498711940
 20
-4.108010219
 30
0.000000000
  0
SPLINE
  5
AF0
330
A02
100
AcDbEntity
  8
Shape2DView002
100
AcDbSpline
210
0
220
0
230
1
 70
8
 71
1
 72
4
 73
2
 74
0
 40
0.000000000
 40
0.000000000
 40
1.246931391
 40
1.246931391
 10
38.498711940
 20
-4.108010219
 30
0.000000000
 10
39.507500626
 20
-3.375082336
 30
0.000000000
  0
SPLINE
  5
AF1
330
A02
100
AcDbEntity
  8
Shape2DView002
100
AcDbSpline
210
0
220
0
230
1
 70
8
 71
1
 72
4
 73
2
 74
0
 40
0.000000000
 40
0.000000000
 40
0.298463104
 40
0.298463104
 10
39.507500626
 20
-3.375082336
 30
0.000000000
 10
39.715377087
 20
-3.589249564
 30
0.000000000
  0
SPLINE
  5
AF2
330
A02
100
AcDbEntity
  8
Shape2DView002
100
AcDbSpline
210
0
220
0
230
1
 70
8
 71
3
 72
14
 73
10
 74
0
 40
0.000000000
 40
0.000000000
 40
0.000000000
 40
0.000000000
 40
0.405572991
 40
0.405572991
 40
0.405572991
 40
0.846195191
 40
0.846195191
 40
0.846195191
 40
1.807552688
 40
1.807552688
 40
1.807552688
 40
1.807552688
 10
39.715377087
 20
-3.589249564
 30
0.000000000
 10
39.816780714
 20
-3.679242327
 30
0.000000000
 10
39.940843180
 20
-3.739110660
 30
0.000000000
 10
40.065043291
 20
-3.790944141
 30
0.000000000
 10
40.201897825
 20
-3.845343613
 30
0.000000000
 10
40.342585320
 20
-3.886843901
 30
0.000000000
 10
40.487105778
 20
-3.915445004
 30
0.000000000
 10
40.801490030
 20
-3.978856951
 30
0.000000000
 10
41.124864220
 20
-3.990554039
 30
0.000000000
 10
41.444171067
 20
-3.966154502
 30
0.000000000
  0
SPLINE
  5
AF3
330
A02
100
AcDbEntity
  8
Shape2DView002
100
AcDbSpline
210
0
220
0
230
1
 70
8
 71
1
 72
4
 73
2
 74
0
 40
0.000000000
 40
0.000000000
 40
0.185691602
 40
0.185691602
 10
41.444171067
 20
-3.966154502
 30
0.000000000
 10
41.553317852
 20
-3.815926840
 30
0.000000000
  0
SPLINE
  5
AF4
330
A02
100
AcDbEntity
  8
Shape2DView002
100
AcDbSpline
210
0
220
0
230
1
 70
8
 71
3
 72
14
 73
10
 74
0
 40
0.000000000
 40
0.000000000
 40
0.000000000
 40
0.000000000
 40
0.961357497
 40
0.961357497
 40
0.961357497
 40
1.401979698
 40
1.401979698
 40
1.401979698
 40
1.807552688
 40
1.807552688
 40
1.807552688
 40
1.807552688
 10
41.553317852
 20
-3.815926840
 30
0.000000000
 10
41.477851948
 20
-3.504708111
 30
0.000000000
 10
41.366799236
 20
-3.200775580
 30
0.000000000
 10
41.209340814
 20
-2.921373757
 30
0.000000000
 10
41.137480271
 20
-2.792764862
 30
0.000000000
 10
41.054536326
 20
-2.671787396
 30
0.000000000
 10
40.960508977
 20
-2.558441361
 30
0.000000000
 10
40.872832461
 20
-2.456337463
 30
0.000000000
 10
40.777556883
 20
-2.356847379
 30
0.000000000
 10
40.660633235
 20
-2.288216092
 30
0.000000000
  0
SPLINE
  5
AF5
330
A02
100
AcDbEntity
  8
Shape2DView002
100
AcDbSpline
210
0
220
0
230
1
 70
8
 71
1
 72
4
 73
2
 74
0
 40
0.000000000
 40
0.000000000
 40
0.298463104
 40
0.298463104
 10
40.660633235
 20
-2.288216092
 30
0.000000000
 10
40.392710739
 20
-2.156695142
 30
0.000000000
  0
SPLINE
  5
AF6
330
A02
100
AcDbEntity
  8
Shape2DView002
100
AcDbSpline
210
0
220
0
230
1
 70
8
 71
1
 72
4
 73
2
 74
0
 40
0.000000000
 40
0.000000000
 40
1.246931391
 40
1.246931391
 10
40.392710739
 20
-2.156695142
 30
0.000000000
 10
40.778033729
 20
-0.970792917
 30
0.000000000
  0
SPLINE
  5
AF7
330
A02
100
AcDbEntity
  8
Shape2DView002
100
AcDbSpline
210
0
220
0
230
1
 70
8
 71
1
 72
4
 73
2
 74
0
 40
0.000000000
 40
0.000000000
 40
0.298463104
 40
0.298463104
 10
40.778033729
 20
-0.970792917
 30
0.000000000
 10
41.072093657
 20
-1.021871126
 30
0.000000000
  0
SPLINE
  5
AF8
330
A02
100
AcDbEntity
  8
Shape2DView002
100
AcDbSpline
210
0
220
0
230
1
 70
8
 71
3
 72
14
 73
10
 74
0
 40
0.000000000
 40
0.000000000
 40
0.000000000
 40
0.000000000
 40
0.405572991
 40
0.405572991
 40
0.405572991
 40
0.846195191
 40
0.846195191
 40
0.846195191
 40
1.807552688
 40
1.807552688
 40
1.807552688
 40
1.807552688
 10
41.072093657
 20
-1.021871126
 30
0.000000000
 10
41.207027333
 20
-1.035073244
 30
0.000000000
 10
41.342585700
 20
-1.010585655
 30
0.000000000
 10
41.473532656
 20
-0.979516829
 30
0.000000000
 10
41.616225507
 20
-0.943085849
 30
0.000000000
 10
41.754437339
 20
-0.893966252
 30
0.000000000
 10
41.888168151
 20
-0.832158037
 30
0.000000000
 10
42.179782961
 20
-0.698668953
 30
0.000000000
 10
42.448273553
 20
-0.518057516
 30
0.000000000
 10
42.692256530
 20
-0.310634020
 30
0.000000000
  0
ENDSEC
  0
SECTION
  2
OBJECTS
  0
DICTIONARY
  5
F000
330
0
100
AcDbDictionary
  3
ACAD_GROUP
350
F001
  0
DICTIONARY
  5
F001
330
F000
100
AcDbDictionary
  0
ENDSEC
  0
EOF